<svg width="1920" height="1024" viewBox="0 0 1920 1024" fill="none" xmlns="http://www.w3.org/2000/svg">
<path d="M965 901.695C965 450.575 1465.01 92.2616 2090 92.2616" stroke="url(#paint0_linear_5209_111096)" stroke-width="184.53" stroke-linecap="round" stroke-linejoin="round"/>
<path d="M964 929.791C964 469.596 514.218 212.796 -47.9968 212.796" stroke="white" stroke-width="184.53" stroke-linecap="round" stroke-linejoin="round"/>
<path d="M964 929.791C964 469.596 514.218 212.796 -47.9968 212.796" stroke="url(#paint1_linear_5209_111096)" stroke-opacity="0.4" stroke-width="184.53" stroke-linecap="round" stroke-linejoin="round"/>
<g clip-path="url(#clip0_5209_111096)">
<rect x="870.376" y="834.412" width="189.292" height="189.292" rx="94.6458" fill="white"/>
<g clip-path="url(#clip1_5209_111096)">
<rect x="868.542" y="830.979" width="198.124" height="198.123" rx="99.0617" fill="white"/>
<g clip-path="url(#clip2_5209_111096)">
<path fill-rule="evenodd" clip-rule="evenodd" d="M965.886 1024.86C1019.65 1024.86 1063.23 981.281 1063.23 927.518C1063.23 873.758 1019.65 830.174 965.886 830.174C912.125 830.174 868.542 873.758 868.542 927.518C868.542 981.281 912.125 1024.86 965.886 1024.86ZM992.796 964.509C998.618 965.011 1006.91 965.727 1009.85 958.999C1010.25 958.074 1010.57 957.007 1010.77 955.777C1012.45 945.823 1012.74 935.599 1011.66 925.552C1010.99 919.274 1009.45 910.439 1003.34 907.518C1013.24 901.751 1002.65 890.165 997.2 886.802C979.683 876.004 953.791 875.173 935.296 883.582C930.015 885.984 920.345 892.941 924.215 901.174C924.902 902.636 925.94 903.5 927.006 904.388C927.54 904.833 928.082 905.284 928.589 905.819C928.435 905.656 925.443 908.799 923.41 914.042C921.993 917.692 920.692 921.406 920.084 925.28C919.141 931.281 918.214 938.116 918.278 944.196C918.353 951.204 919.361 959.548 925.028 964.442C929.261 968.097 935.395 966.46 940.591 965.073C941.67 964.785 942.708 964.507 943.681 964.291C951.237 962.605 958.91 961.114 966.666 961.348C971.701 961.501 976.675 962.271 981.65 963.042C985.331 963.612 989.013 964.182 992.721 964.502L992.796 964.509ZM1022.43 922.097C1023.24 929.723 1023.45 937.489 1023.42 945.176C1023.42 946.041 1023.41 946.905 1023.4 947.767L1023.4 948.279C1023.32 956.273 1023.24 964.42 1021.51 972.233C1019.74 980.197 1010.26 980.067 1003.94 979.981C1003.59 979.976 1003.25 979.972 1002.93 979.968C996.77 979.91 990.64 979.11 984.51 978.311C978.818 977.568 973.125 976.825 967.41 976.676C961.011 976.508 954.614 977.374 948.241 978.237C946.253 978.506 944.267 978.775 942.284 979.012C940.001 979.285 937.656 979.707 935.286 980.134C929.834 981.117 924.249 982.123 918.982 981.382C918.967 981.38 918.951 981.378 918.936 981.375C909.661 980.041 906.991 967.838 906.208 959.664C904.939 946.443 904.171 935.867 908.793 919.411C910.33 913.935 912.713 909.888 915.995 905.372C915.997 905.372 915.786 905.15 915.482 904.83C914.922 904.24 914.042 903.314 913.58 902.816C912.019 901.135 910.589 899.25 909.779 897.077C906.566 888.454 913.874 880.676 920.217 876.694C944.593 861.389 978.245 860.261 1003.39 873.702C1010.38 877.443 1017.46 883.068 1020.43 891.017C1022.69 897.08 1023.19 905.459 1016.79 908.868C1016.32 909.114 1015.28 909.098 1014.65 908.945C1020.14 910.305 1021.87 916.921 1022.43 922.097Z" fill="#FF4C00"/>
</g>
</g>
</g>
<defs>
<linearGradient id="paint0_linear_5209_111096" x1="1890.19" y1="-103.991" x2="918.552" y2="1992.66" gradientUnits="userSpaceOnUse">
<stop stop-color="#ABCBAB"/>
<stop offset="1" stop-color="#006C61"/>
</linearGradient>
<linearGradient id="paint1_linear_5209_111096" x1="-729.442" y1="-483.155" x2="910.154" y2="1656.98" gradientUnits="userSpaceOnUse">
<stop stop-color="#FF4C00"/>
<stop offset="1" stop-color="#FED850"/>
</linearGradient>
<clipPath id="clip0_5209_111096">
<rect x="870.376" y="834.412" width="189.292" height="189.292" rx="94.6458" fill="white"/>
</clipPath>
<clipPath id="clip1_5209_111096">
<rect x="868.542" y="830.979" width="198.124" height="198.123" rx="99.0617" fill="white"/>
</clipPath>
<clipPath id="clip2_5209_111096">
<rect width="194.944" height="194.944" fill="white" transform="translate(868.542 829.92)"/>
</clipPath>
</defs>
</svg>
