<svg width="35" height="34" viewBox="0 0 35 34" fill="none" xmlns="http://www.w3.org/2000/svg">
<g clip-path="url(#clip0_4540_54726)">
<rect x="0.921875" y="0.116211" width="33.6765" height="33.6765" rx="16.8383" fill="white"/>
<g style="mix-blend-mode:multiply" opacity="0.6">
<mask id="mask0_4540_54726" style="mask-type:luminance" maskUnits="userSpaceOnUse" x="0" y="0" width="205" height="204">
<rect x="0.921875" y="0.116211" width="203.181" height="203.181" fill="white"/>
</mask>
<g mask="url(#mask0_4540_54726)">
<path opacity="0.5" fill-rule="evenodd" clip-rule="evenodd" d="M141.038 180.39C149.621 176.171 157.416 170.594 164.141 163.933L189.542 189.334H141.038V180.39ZM102.942 189.334V189.324C116.264 189.259 128.893 186.212 140.192 180.807V189.334H102.942ZM64.8454 189.334V180.807C76.144 186.212 88.7734 189.259 102.095 189.324V189.334H64.8454ZM15.4971 189.334L40.8964 163.933C47.6217 170.594 55.4187 176.171 63.9997 180.39V189.334H15.4971ZM23.8402 140.232C28.0596 148.815 33.6369 156.61 40.2979 163.336L14.8969 188.737V140.232H23.8402ZM14.8969 102.136H14.9071C14.9714 115.459 18.0191 128.087 23.4237 139.385H14.8969V102.136ZM14.8969 64.0398H23.4237C18.0191 75.3383 14.9714 87.9677 14.9071 101.29H14.8969V64.0398ZM14.8969 14.6894L40.2979 40.0887C33.6369 46.8139 28.0596 54.611 23.8402 63.192H14.8969V14.6894ZM63.9997 23.0335C55.4187 27.2529 47.6217 32.8302 40.8964 39.4912L15.4971 14.0902H63.9997V23.0335ZM102.095 14.0902V14.1004C88.7734 14.1647 76.144 17.2141 64.8454 22.617V14.0902H102.095ZM140.192 14.0902V22.617C128.893 17.2141 116.264 14.1647 102.942 14.1004V14.0902H140.192ZM189.542 14.0902L164.141 39.4912C157.416 32.8302 149.621 27.2529 141.038 23.0335V14.0902H189.542ZM181.197 63.192C176.98 54.611 171.402 46.8139 164.741 40.0887L190.141 14.6894V63.192H181.197ZM190.142 101.29H190.132C190.069 87.9677 187.02 75.3383 181.617 64.0398H190.142V101.29ZM190.142 139.385H181.617C187.02 128.087 190.069 115.459 190.132 102.136H190.142V139.385ZM141.639 140.232H180.247C176.094 148.583 170.642 156.175 164.143 162.736L141.639 140.232ZM141.038 140.829L163.544 163.335C156.981 169.833 149.389 175.284 141.038 179.439V140.829ZM102.942 156.307C117.373 156.196 130.48 150.458 140.192 141.184V179.875C128.912 185.333 116.278 188.413 102.942 188.478V156.307ZM64.8454 141.184C74.5575 150.458 87.6643 156.196 102.095 156.307V188.478C88.7598 188.413 76.1254 185.333 64.8454 179.875V141.184ZM63.9984 140.831V179.439C55.6494 175.284 48.0555 169.834 41.4945 163.335L63.9984 140.831ZM63.4013 140.232L40.8956 162.736C34.3972 156.175 28.9469 148.583 24.7918 140.232H63.4013ZM47.9253 102.136C48.0371 116.566 53.7753 129.673 63.0488 139.385H24.3581C18.8993 128.105 15.8194 115.471 15.7551 102.136H47.9253ZM63.0488 64.0398C53.7753 73.7518 48.0371 86.8587 47.9253 101.29H15.7551C15.8194 87.9542 18.8993 75.3197 24.3598 64.0398H63.0488ZM63.4013 63.1928H24.7918C28.9469 54.8437 34.3972 47.2498 40.8956 40.6888L63.4013 63.1928ZM63.9984 62.5939L41.4945 40.09C48.0555 33.5916 55.6494 28.1412 63.9984 23.9862V62.5939ZM102.095 47.1176C87.6643 47.2294 74.5575 52.9675 64.8454 62.2411V23.552C76.1254 18.0916 88.7598 15.0117 102.095 14.9473V47.1176ZM140.192 62.2411C130.48 52.9675 117.373 47.2294 102.942 47.1176V14.9473C116.278 15.0117 128.912 18.0916 140.192 23.552V62.2411ZM141.038 62.5956V23.9862C149.389 28.1412 156.981 33.5916 163.544 40.09L141.038 62.5956ZM141.639 63.1917L164.143 40.6878C170.642 47.2488 176.092 54.8427 180.247 63.1917H141.639ZM157.113 101.289C157.003 86.8576 151.263 73.7508 141.99 64.0387H180.68C186.139 75.3187 189.219 87.9531 189.283 101.289H157.113ZM157.113 102.136H189.283C189.219 115.471 186.139 128.105 180.68 139.385H141.99C151.263 129.673 157.003 116.566 157.113 102.136V102.136ZM102.942 140.232H139.963C130.37 149.562 117.322 155.349 102.942 155.461V140.232ZM102.096 140.232V155.461C87.7157 155.349 74.6681 149.562 65.0746 140.232H102.096ZM64.0002 102.136V139.157C54.6725 129.563 48.8852 116.516 48.7718 102.136H64.0002ZM64.0002 101.289H48.7718C48.8852 86.909 54.6725 73.8614 64.0002 64.2679V101.289ZM102.096 63.1925H65.0746C74.6681 53.8648 87.7157 48.0775 102.096 47.9641V63.1925ZM102.942 63.1925V47.9641C117.322 48.0775 130.37 53.8648 139.963 63.1925H102.942ZM141.038 101.288V64.2669C150.367 73.8604 156.155 86.908 156.266 101.288H141.038ZM141.038 102.136H156.266C156.155 116.516 150.367 129.563 141.038 139.158V102.136ZM102.942 102.733L139.594 139.385H102.942V102.733ZM102.096 102.735V139.385H65.4456L102.096 102.735ZM101.498 102.136L64.8454 138.788V102.136H101.498ZM101.498 101.289H64.8454V64.6369L101.498 101.289ZM102.096 100.689L65.4456 64.0387H102.096V100.689ZM102.942 100.691V64.0387H139.594L102.942 100.691ZM140.192 102.136V138.786L103.541 102.136H140.192ZM103.541 101.289L140.192 64.6389V101.289H103.541ZM190.141 188.737L164.741 163.336C171.402 156.61 176.98 148.815 181.197 140.232H190.141V188.737ZM206.402 204.996L191.587 190.181H204.533V189.334H190.987V140.232H204.533V139.386H190.987V102.136H204.533V101.289H190.987V64.0394H204.533V63.1928H190.987V14.0908H204.533V13.2442H191.587L204.709 0.122104L204.109 -0.475586L190.987 12.6465V-0.301189H190.141V13.2442H141.039V-0.301189H140.192V13.2442H102.942V-0.301189H102.096V13.2442H64.8458V-0.301189H63.9992V13.2442H14.8972V-0.301189H14.0506V12.6465L0.928485 -0.475586L0.329102 0.122104L13.4529 13.2442H0.505192V14.0908H14.0506V63.1928H0.505192V64.0394H14.0506V101.289H0.505192V102.136H14.0506V139.386H0.505192V140.232H14.0506V189.334H0.505192V190.181H13.4529L0.329102 203.303L0.928485 203.902L14.0506 190.78V203.726H14.8972V190.181H63.9992V203.726H64.8458V190.181H102.096V203.726H102.942V190.181H140.192V203.726H141.039V190.181H190.141V203.726H190.987V190.78L205.802 205.595L206.402 204.996Z" fill="#B7B7B7"/>
</g>
</g>
<rect x="0.921875" y="0.116211" width="33.731" height="33.7737" fill="url(#paint0_linear_4540_54726)"/>
<path fill-rule="evenodd" clip-rule="evenodd" d="M24.4692 22.04C24.0465 23.0078 22.85 22.9002 22.0158 22.8282C20.767 22.7204 19.5388 22.4145 18.284 22.3764C17.1732 22.343 16.0742 22.5565 14.992 22.7979C14.1821 22.9784 13.0527 23.4519 12.3205 22.8196C11.5089 22.1187 11.3645 20.9236 11.3537 19.9199C11.3445 19.0491 11.4774 18.0702 11.6124 17.2106C11.6995 16.6558 11.8858 16.1239 12.0887 15.6011C12.38 14.8501 12.8084 14.4 12.8306 14.4234C12.613 14.194 12.3518 14.0725 12.204 13.7581C11.6497 12.5789 13.0347 11.5825 13.7912 11.2385C16.44 10.0341 20.1484 10.1532 22.6572 11.6997C23.4383 12.1813 24.9544 13.8407 23.5372 14.6667C24.4114 15.0851 24.6328 16.3504 24.7286 17.2496C24.8824 18.6885 24.841 20.1529 24.6013 21.5785C24.5717 21.7547 24.5269 21.9076 24.4692 22.04ZM26.413 20.0602C26.4169 18.9593 26.387 17.847 26.2703 16.7548C26.1909 16.0125 25.9425 15.0634 25.1535 14.8704C25.2437 14.893 25.3956 14.8956 25.4625 14.86C26.3791 14.3719 26.3086 13.1718 25.9839 12.3033C25.5583 11.1649 24.5455 10.3592 23.5432 9.82345C19.9424 7.89837 15.1227 8.05988 11.6314 10.2519C10.723 10.8223 9.67626 11.9363 10.1365 13.1713C10.2525 13.4825 10.4573 13.7526 10.6809 13.9933C10.783 14.1033 11.0273 14.3591 11.0268 14.3594C10.5567 15.0061 10.2154 15.5857 9.99518 16.3701C9.33327 18.727 9.44326 20.2417 9.62499 22.1353C9.73715 23.306 10.1196 25.0537 11.448 25.2448C11.4502 25.2453 11.4523 25.2455 11.4545 25.2458C12.5369 25.3981 13.713 25.0352 14.792 24.9064C15.9861 24.7637 17.1881 24.5403 18.3906 24.5718C20.0907 24.6161 21.7765 25.0272 23.4777 25.0434C24.376 25.052 25.871 25.1384 26.1384 23.9354C26.3923 22.7926 26.3988 21.5997 26.4104 20.4314C26.4118 20.3079 26.4125 20.1842 26.413 20.0602Z" fill="url(#paint1_linear_4540_54726)"/>
</g>
<defs>
<linearGradient id="paint0_linear_4540_54726" x1="17.9657" y1="23.5431" x2="17.9272" y2="49.9614" gradientUnits="userSpaceOnUse">
<stop stop-color="#F8F5F2"/>
<stop offset="0.605" stop-color="#F7E9DA"/>
</linearGradient>
<linearGradient id="paint1_linear_4540_54726" x1="18.4149" y1="-22.4326" x2="20.5267" y2="31.9443" gradientUnits="userSpaceOnUse">
<stop stop-color="#FFA788"/>
<stop offset="1" stop-color="#FF4C00"/>
</linearGradient>
<clipPath id="clip0_4540_54726">
<rect x="0.921875" y="0.116211" width="33.6765" height="33.6765" rx="16.8383" fill="white"/>
</clipPath>
</defs>
</svg>
