<?xml version="1.0" standalone="no"?>
<!DOCTYPE svg PUBLIC "-//W3C//DTD SVG 1.1//EN" "http://www.w3.org/Graphics/SVG/1.1/DTD/svg11.dtd" >
<svg>
<metadata>
Created by FontForge 20090622 at Fri Jan 11 09:31:46 2019
 By deploy user
(c) 2011 Klim Type Foundry. All rights reserved.
</metadata>
<defs>
<font id="Calibre-Italic" horiz-adv-x="500" >
  <font-face 
    font-family="Calibre"
    font-weight="400"
    font-style="italic"
    font-stretch="normal"
    units-per-em="1000"
    panose-1="2 0 0 0 0 0 0 0 0 0"
    ascent="800"
    descent="-200"
    x-height="444"
    cap-height="614"
    bbox="-188 -201 892 893"
    underline-thickness="50"
    underline-position="-50"
    slope="-9"
    unicode-range="U+000D-U+FB02"
  />
<missing-glyph horiz-adv-x="221" 
 />
    <glyph glyph-name="f_f" unicode="ff" horiz-adv-x="551" 
d="M614 582q-8 5 -19 8t-23 3q-35 0 -58.5 -20.5t-30.5 -60.5l-12 -68h100l-11 -64h-101l-66 -380h-75l67 380h-187l-66 -380h-75l67 380h-75l12 64h74l12 68q12 67 56 104t104 37q17 0 31.5 -2.5t26.5 -7.5l-13 -67q-8 5 -19.5 8t-22.5 3q-35 0 -58.5 -20.5t-30.5 -60.5
l-11 -62h186l13 74q12 67 56 104t104 37q17 0 31.5 -2.5t26.5 -7.5z" />
    <glyph glyph-name=".notdef" horiz-adv-x="221" 
 />
    <glyph glyph-name="NULL" horiz-adv-x="0" 
 />
    <glyph glyph-name="NULL" horiz-adv-x="0" 
 />
    <glyph glyph-name="nonmarkingreturn" unicode="&#xd;" horiz-adv-x="221" 
 />
    <glyph glyph-name="space" unicode=" " horiz-adv-x="221" 
 />
    <glyph glyph-name="lslash" unicode="&#x142;" horiz-adv-x="247" 
d="M124 0h-76l55 314l-64 -35l12 68l64 35l47 268h76l-42 -235l71 38l-12 -67l-70 -37z" />
    <glyph glyph-name="Scaron" unicode="&#x160;" horiz-adv-x="509" 
d="M429 453q-6 44 -40.5 73.5t-94.5 29.5q-29 0 -54 -8t-43.5 -22t-29 -35t-10.5 -48q0 -31 19 -50.5t60 -31.5l103 -31q60 -18 92 -52t32 -90q0 -46 -18 -82.5t-48.5 -62t-71 -39t-85.5 -13.5q-46 0 -85 11.5t-68.5 33.5t-47.5 55.5t-22 76.5h78q4 -28 17 -48.5t32 -34
t43.5 -20.5t52.5 -7q32 0 58.5 8t46 23.5t30.5 38t11 52.5q0 28 -18 48.5t-63 34.5l-104 31q-27 8 -49 19.5t-38 28.5t-25 39.5t-9 52.5q0 42 16 77t45 59.5t68 38.5t85 14q48 0 86.5 -12.5t65 -35t42 -53.5t18.5 -69h-77zM218 787h66l46 -71l71 71h72l-114 -121h-70z" />
    <glyph glyph-name="scaron" unicode="&#x161;" horiz-adv-x="415" 
d="M89 124q6 -37 34 -53.5t66 -16.5q20 0 37.5 4.5t31 12.5t21.5 21.5t8 32.5q0 20 -13 33.5t-43 23.5l-77 23q-43 13 -68.5 37t-25.5 72q0 31 13 56.5t35.5 44t53 28.5t64.5 10q39 0 68 -9.5t49.5 -26.5t32 -40.5t14.5 -51.5h-73q-6 29 -28 47t-63 18q-19 0 -35.5 -4.5
t-29 -13t-20 -21.5t-7.5 -30q0 -19 12.5 -30.5t38.5 -20.5l77 -24q51 -16 75 -43t24 -68q0 -35 -13.5 -61.5t-37 -45t-55 -28t-66.5 -9.5q-39 0 -70 9.5t-53.5 27t-35.5 42t-16 54.5h75zM155 646h63l46 -88l78 88h68l-116 -136h-70z" />
    <glyph glyph-name="Yacute" unicode="&#xdd;" horiz-adv-x="557" 
d="M526 614h87l-287 -361l-44 -253h-78l44 253l-159 361h83l126 -289zM317 668l100 117h91l-112 -117h-79z" />
    <glyph glyph-name="yacute" unicode="&#xfd;" horiz-adv-x="455" 
d="M31 -170l103 175l-76 439h75l59 -349l203 349h82l-369 -614h-77zM229 516l103 134h81l-113 -134h-71z" />
    <glyph glyph-name="Thorn" unicode="&#xde;" horiz-adv-x="537" 
d="M140 131l-23 -131h-79l108 614h78l-19 -115h150q81 0 126.5 -40t45.5 -118q0 -51 -18 -90t-50 -65.5t-75.5 -40.5t-92.5 -14h-151zM152 201h149q68 0 107.5 35.5t39.5 100.5q0 43 -26 68t-81 25h-149z" />
    <glyph glyph-name="thorn" unicode="&#xfe;" horiz-adv-x="504" 
d="M75 -170h-76l144 820h76l-46 -261q21 25 56.5 44.5t75.5 19.5q42 0 73 -14.5t51.5 -40t30.5 -60.5t10 -75q0 -55 -17 -104.5t-48.5 -86.5t-74.5 -59t-95 -22q-46 0 -77 19t-44 43zM128 132q11 -34 38.5 -53.5t65.5 -19.5q39 0 69 17t50.5 45t31.5 65t11 77q0 54 -26.5 88
t-78.5 34q-42 0 -74 -22t-56 -56z" />
    <glyph glyph-name="eth" unicode="&#xf0;" horiz-adv-x="478" 
d="M180 541l85 28q-8 8 -16 17q-29 31 -64 60v4h87q33 -26 60 -58l85 28l15 -46l-70 -23q22 -32 38 -67q22 -48 33 -100t11 -102q0 -66 -18 -120.5t-49 -92.5t-72 -58t-89 -20q-43 0 -77 14t-57.5 39.5t-35.5 61t-12 78.5q0 58 18 107.5t48 85.5t70.5 56t85.5 20
q30 0 56.5 -10t42.5 -31h3q-7 23 -21 52t-36 60q-2 2 -4 5l-101 -34zM217 57q33 0 60 15t47.5 42t31.5 64.5t11 81.5q0 58 -27.5 92.5t-78.5 34.5q-33 0 -60.5 -15t-47.5 -42t-31.5 -64.5t-11.5 -81.5q0 -58 28 -92.5t79 -34.5z" />
    <glyph glyph-name="Zcaron" unicode="&#x17d;" horiz-adv-x="534" 
d="M459 0h-451l9 57l432 486h-339l13 71h441l-10 -56l-430 -487h347zM242 787h66l46 -71l71 71h72l-114 -121h-70z" />
    <glyph glyph-name="zcaron" unicode="&#x17e;" horiz-adv-x="431" 
d="M353 0h-349l9 50l306 330h-241l12 64h337l-8 -50l-306 -330h250zM169 646h63l46 -88l78 88h68l-116 -136h-70z" />
    <glyph glyph-name="onehalf" unicode="&#xbd;" horiz-adv-x="682" 
d="M101 0h-69l535 614h70zM198 282h-61l46 259l-96 -44l12 64l118 54h40zM504 164q9 9 19.5 18.5t19 20t14 21t5.5 21.5q0 17 -10 26.5t-29 9.5q-23 0 -38 -15t-21 -37h-65q6 24 18 43.5t28.5 34t37.5 23t47 8.5q45 0 70.5 -22.5t25.5 -61.5q0 -38 -24.5 -66.5t-58.5 -57.5
l-85 -75h137l-9 -55h-226l6 43z" />
    <glyph glyph-name="onequarter" unicode="&#xbc;" horiz-adv-x="667" 
d="M101 0h-69l535 614h70zM198 282h-61l46 259l-96 -44l12 64l118 54h40zM411 122h80l11 67h57l-12 -67h53l-10 -54h-52l-12 -68h-56l11 68h-149l8 48l152 217h63z" />
    <glyph glyph-name="onesuperior" unicode="&#xb9;" horiz-adv-x="232" 
d="M177 282h-64l45 258l-86 -39l11 64l110 50h42z" />
    <glyph glyph-name="threequarters" unicode="&#xbe;" horiz-adv-x="706" 
d="M141 0h-70l536 614h69zM450 122h80l12 67h56l-11 -67h52l-10 -54h-52l-12 -68h-56l12 68h-150l8 48l152 217h63zM180 475h20q24 0 42.5 12.5t18.5 39.5q0 16 -10.5 26.5t-30.5 10.5q-22 0 -36.5 -13.5t-21.5 -34.5h-66q12 46 46 74.5t84 28.5q47 0 71.5 -24t24.5 -61
q0 -31 -18.5 -54.5t-41.5 -30.5q19 -9 29.5 -25.5t10.5 -38.5q0 -23 -9 -43t-25.5 -34.5t-38.5 -23t-48 -8.5q-52 0 -82 27t-30 71v5q0 2 1 3h64v-3q0 -23 12 -35.5t36 -12.5q25 0 42 14.5t17 39.5q0 20 -12.5 30.5t-34.5 10.5h-23z" />
    <glyph glyph-name="threesuperior" unicode="&#xb3;" horiz-adv-x="301" 
d="M167 475h20q24 0 42.5 12.5t18.5 40.5q0 15 -10.5 26t-30.5 11q-22 0 -36.5 -13.5t-21.5 -34.5h-66q12 45 46 73.5t84 28.5q47 0 71.5 -23.5t24.5 -61.5q0 -31 -18.5 -54t-41.5 -31q19 -9 29.5 -25t10.5 -39t-9 -42.5t-25.5 -34.5t-38.5 -23t-48 -8q-52 0 -82 26.5
t-30 70.5v6q0 1 1 2h64v-2q0 -23 12 -36t36 -13q25 0 42 15t17 40q0 19 -12.5 30t-34.5 11h-23z" />
    <glyph glyph-name="twosuperior" unicode="&#xb2;" horiz-adv-x="295" 
d="M183 446l20 18q10 9 18 19t13 20.5t5 21.5q0 17 -10 26.5t-28 9.5q-23 0 -36.5 -14.5t-19.5 -35.5h-67q6 23 18 43t28.5 34.5t38 22.5t46.5 8q46 0 71 -22.5t25 -60.5q0 -20 -6.5 -36.5t-17.5 -31t-26 -28.5l-31 -28l-83 -74h134l-10 -56h-226l7 43z" />
    <glyph glyph-name="minus" unicode="&#x2212;" horiz-adv-x="540" 
d="M90 328h395l-11 -62h-395z" />
    <glyph glyph-name="multiply" unicode="&#xd7;" horiz-adv-x="471" 
d="M106 417l47 40l99 -122l144 124l36 -43l-144 -123l100 -121l-47 -41l-101 122l-143 -123l-35 44l145 122z" />
    <glyph glyph-name="Lslash" unicode="&#x141;" horiz-adv-x="518" 
d="M48 299l61 24l51 291h79l-47 -263l148 59l-14 -74l-147 -59l-36 -206h314l-13 -71h-392l44 249l-62 -25z" />
    <glyph glyph-name="exclam" unicode="!" horiz-adv-x="203" 
d="M132 614h90l-94 -421h-54zM25 49q0 12 4.5 22t11.5 17t17 11.5t21 4.5t20.5 -4.5t17 -11.5t11.5 -17t4 -22t-4 -21.5t-11.5 -17t-17 -11.5t-20.5 -4t-21 4t-17 11.5t-11.5 17t-4.5 21.5z" />
    <glyph glyph-name="quotedbl" unicode="&#x22;" horiz-adv-x="265" 
d="M226 614h66l-39 -219h-66zM107 614h66l-39 -219h-66z" />
    <glyph glyph-name="numbersign" unicode="#" horiz-adv-x="589" 
d="M521 176h-117l-53 -176h-67l53 176h-135l-53 -176h-67l53 176h-90l13 59h95l44 144h-110l11 59h117l53 176h68l-54 -176h135l54 176h66l-53 -176h90l-12 -59h-96l-44 -144h111zM220 235h135l44 144h-135z" />
    <glyph glyph-name="dollar" unicode="$" horiz-adv-x="472" 
d="M91 174q8 -52 46 -76t89 -24q30 0 55 7.5t43.5 21.5t29 35.5t10.5 49.5q0 25 -17.5 44.5t-59.5 31.5l-98 30q-26 7 -47 18.5t-36.5 27.5t-24.5 37.5t-9 49.5q0 39 16 72t43 57t64.5 37t80.5 13l17 93h69l-18 -101q7 -1 14 -4q36 -11 61 -32.5t39 -51t17 -64.5h-72
q-6 41 -38 68t-89 27q-27 0 -50.5 -7t-41 -20.5t-28 -33.5t-10.5 -45q0 -28 19 -46.5t58 -30.5l96 -28q57 -18 87.5 -50t30.5 -85q0 -44 -17 -78.5t-46 -58.5t-68 -37q-32 -11 -66 -13l-17 -97h-69l18 101q-14 3 -26 6q-37 11 -64.5 32t-45 52t-20.5 72h75z" />
    <glyph glyph-name="percent" unicode="%" horiz-adv-x="649" 
d="M206 623q27 0 50 -9.5t40 -27t27 -40.5t10 -49q0 -28 -10.5 -52.5t-29 -44t-44 -31.5t-55.5 -12q-27 0 -50 10t-40 27t-26.5 40.5t-9.5 49.5t10.5 51.5t28.5 45t43 31t56 11.5zM197 417q15 0 29 6t24.5 16t16.5 24.5t6 31.5q0 14 -5.5 26.5t-15 22t-22.5 15t-27 5.5
q-15 0 -29 -6t-24.5 -16.5t-16.5 -24.5t-6 -31q0 -14 5.5 -27t15 -22t22.5 -14.5t27 -5.5zM542 614h67l-488 -614h-67zM457 -9q-27 0 -50 9.5t-40 27t-27 40.5t-10 49q0 27 10.5 52t29 44.5t43.5 31.5t56 12q27 0 50 -10t40 -27t26.5 -40.5t9.5 -49.5q0 -27 -10.5 -52
t-28.5 -44.5t-43.5 -31t-55.5 -11.5zM466 197q-15 0 -29 -6t-24.5 -16t-16.5 -24.5t-6 -31.5q0 -14 5.5 -26.5t15 -22t22.5 -15t27 -5.5q15 0 29 6t24.5 16.5t16.5 24.5t6 31q0 14 -5.5 27t-15 22t-22.5 14.5t-27 5.5z" />
    <glyph glyph-name="ampersand" unicode="&#x26;" horiz-adv-x="565" 
d="M319 560q-22 0 -41.5 -7t-33.5 -20.5t-22 -33.5t-8 -45q0 -27 12.5 -50.5t32.5 -48.5l143 -187q9 16 18 34q21 45 32 96h71q-12 -60 -40 -116q-17 -36 -41 -66l89 -116h-90l-49 63q-32 -28 -70 -47q-52 -25 -111 -25q-44 0 -78 12t-58 33.5t-36.5 52.5t-12.5 69
q0 39 15 73t42 60t63 44q13 7 28 12q-9 15 -16 28q-18 33 -18 76q0 39 14 70.5t38.5 54.5t57 35t69.5 12q39 0 68.5 -10.5t50 -30.5t31 -48t11.5 -63h-74q-2 41 -24 65t-63 24zM185 285q-25 -11 -44 -29.5t-30 -43.5t-11 -54q0 -48 31.5 -76t78.5 -28q48 0 88 19
q31 15 57 38l-142 184q-15 -4 -28 -10z" />
    <glyph glyph-name="quotesingle" unicode="'" horiz-adv-x="149" 
d="M107 614h69l-39 -219h-69z" />
    <glyph glyph-name="parenleft" unicode="(" horiz-adv-x="321" 
d="M32 216q0 78 23.5 147.5t67.5 126t107 98t142 62.5l-14 -81q-53 -15 -99 -47.5t-79.5 -78.5t-52.5 -104t-19 -123q0 -88 40 -144t109 -75l-14 -81q-49 15 -87.5 42t-66.5 64.5t-42.5 86t-14.5 107.5z" />
    <glyph glyph-name="parenright" unicode=")" horiz-adv-x="321" 
d="M313 350q0 -78 -23.5 -147.5t-67.5 -126t-107 -98t-142 -62.5l14 81q53 15 99 47.5t79.5 78.5t52.5 104t19 123q0 88 -40 144t-109 75l14 81q49 -15 87.5 -42t66.5 -64.5t42.5 -86t14.5 -107.5z" />
    <glyph glyph-name="asterisk" unicode="*" horiz-adv-x="332" 
d="M166 367l18 103l-98 -35l-15 41l98 36l-81 68l29 33l80 -66l18 102l44 -7l-18 -103l98 35l15 -41l-98 -36l81 -68l-29 -33l-80 66l-17 -102z" />
    <glyph glyph-name="plus" unicode="+" horiz-adv-x="540" 
d="M90 328h166l30 166h62l-29 -166h166l-11 -62h-166l-29 -166h-63l29 166h-166z" />
    <glyph glyph-name="comma" unicode="," horiz-adv-x="172" 
d="M43 0q-15 4 -25.5 17t-10.5 32q0 23 15 38.5t38 15.5t38.5 -15t15.5 -42q0 -18 -8.5 -34t-19.5 -29l-69 -91h-56z" />
    <glyph glyph-name="hyphen" unicode="-" horiz-adv-x="321" 
d="M55 296h241l-12 -70h-241z" />
    <glyph glyph-name="period" unicode="." horiz-adv-x="172" 
d="M7 49q0 23 15.5 39t38.5 16q11 0 20.5 -4.5t17 -11.5t11.5 -17t4 -22t-4 -21.5t-11.5 -17t-17 -11.5t-20.5 -4t-21 4t-17 11.5t-11.5 17t-4.5 21.5z" />
    <glyph glyph-name="slash" unicode="/" horiz-adv-x="333" 
d="M328 650h78l-377 -734h-77z" />
    <glyph glyph-name="zero" unicode="0" horiz-adv-x="535" 
d="M245 62q46 0 82 28.5t61 74t38.5 103t13.5 117.5q0 74 -29.5 120.5t-87.5 46.5q-46 0 -82 -28.5t-61 -74t-38.5 -103.5t-13.5 -117q0 -74 29.5 -120.5t87.5 -46.5zM246 -9q-47 0 -83 16.5t-61 48t-38 75.5t-13 98q0 79 20.5 151t57 125.5t85.5 85.5t108 32q47 0 83 -16.5
t61 -48t38 -75.5t13 -98q0 -79 -20.5 -151t-57 -125.5t-86 -85.5t-107.5 -32z" />
    <glyph glyph-name="one" unicode="1" horiz-adv-x="325" 
d="M208 0h-77l92 519l-166 -78l14 81l198 93h47z" />
    <glyph glyph-name="two" unicode="2" horiz-adv-x="452" 
d="M246 283l47.5 44t43 45.5t31 48t11.5 49.5q0 38 -24 60.5t-69 22.5q-57 0 -91.5 -34.5t-49.5 -88.5h-82q12 43 33.5 78.5t51 61t66.5 39.5t80 14q79 0 121.5 -38.5t42.5 -105.5q0 -36 -13 -67t-35 -58.5t-51.5 -55l-61.5 -57.5l-186 -171h286l-13 -70h-397l8 52z" />
    <glyph glyph-name="three" unicode="3" horiz-adv-x="460" 
d="M211 348h41q26 0 50 7.5t42.5 22.5t30 37.5t11.5 52.5q0 38 -25.5 62t-70.5 24q-50 0 -85.5 -30t-50.5 -78h-81q11 39 32 71.5t50 56t65 36.5t76 13q41 0 72 -10.5t52 -30t31.5 -47t10.5 -61.5q0 -30 -10.5 -56.5t-27 -48t-39.5 -36.5t-48 -21q40 -14 63 -46.5t23 -76.5
q0 -42 -16.5 -78t-45.5 -63t-68 -42t-85 -15q-45 0 -81 12t-60.5 34t-37 53.5t-12.5 69.5v10q0 3 1 6h76v-5q0 -54 29 -83t85 -29q30 0 55 9.5t44 26t29.5 40.5t10.5 54q0 42 -29 67t-77 25h-42z" />
    <glyph glyph-name="four" unicode="4" horiz-adv-x="508" 
d="M115 205h192l26 148h74l-27 -148h108l-11 -66h-108l-24 -139h-74l24 139h-284l10 56l308 419h86z" />
    <glyph glyph-name="five" unicode="5" horiz-adv-x="470" 
d="M213 -9q-43 0 -78 12.5t-59.5 35t-38 53.5t-13.5 70v8q0 4 1 6h77v-6q0 -51 30 -80.5t83 -29.5q33 0 60 12.5t46 33t30 49t11 61.5q0 25 -7 46t-21 36t-34 23t-45 8q-37 0 -65 -15t-48 -37h-64l59 337h337l-13 -71h-270l-32 -184q19 14 47 26.5t65 12.5q39 0 70 -13
t52.5 -36t33 -55.5t11.5 -71.5q0 -45 -16.5 -87t-46 -74t-71 -51t-91.5 -19z" />
    <glyph glyph-name="six" unicode="6" 
d="M429 464q-2 19 -9 35t-19 28.5t-30 20t-41 7.5q-40 0 -73.5 -20t-59.5 -54t-43 -78t-23 -93h1q24 41 66.5 66t90.5 25q41 0 74.5 -14t57 -39t36.5 -57.5t13 -68.5q0 -46 -17 -88t-47 -73.5t-70.5 -50.5t-88.5 -19q-51 0 -88 18t-61 50t-35.5 74t-11.5 91q0 73 19.5 145
t56 128t88.5 91t116 35q39 0 69.5 -11t52.5 -31.5t35.5 -50t17.5 -66.5h-77zM130 180q0 -24 7 -45.5t22 -38.5t37 -27t53 -10q29 0 55.5 11.5t46.5 32.5t31.5 49.5t11.5 62.5q0 25 -7.5 46.5t-22 38t-37 26t-51.5 9.5t-55.5 -11.5t-47 -32.5t-32 -49.5t-11.5 -61.5z" />
    <glyph glyph-name="seven" unicode="7" horiz-adv-x="440" 
d="M157 0h-83l313 543h-313l13 71h396l-11 -61z" />
    <glyph glyph-name="eight" unicode="8" horiz-adv-x="487" 
d="M105 160q0 -24 9 -43t26 -32.5t39 -21.5t49 -8q30 0 56.5 9.5t46.5 26t32 41t12 53.5q0 24 -9.5 43.5t-26.5 33t-40 21t-49 7.5q-30 0 -56.5 -9t-46 -26t-31 -41.5t-11.5 -53.5zM225 -9q-36 0 -71.5 10t-63.5 30t-45.5 51t-17.5 72q0 35 12.5 64.5t33 52.5t48 38t57.5 20
q-34 16 -55 46t-21 74q0 38 15.5 70t42.5 55.5t63.5 36t78.5 12.5q36 0 68.5 -10t57 -29t39 -47t14.5 -63q0 -30 -10 -55.5t-27.5 -46t-40 -34.5t-48.5 -22q43 -16 69.5 -50.5t26.5 -84.5q0 -46 -19 -81t-50.5 -59.5t-72.5 -37t-84 -12.5zM403 469q0 21 -8 37.5t-21.5 28.5
t-32.5 18t-39 6q-26 0 -49 -8.5t-39.5 -23.5t-26.5 -36t-10 -46q0 -21 8.5 -37.5t22.5 -28t32.5 -18t38.5 -6.5q26 0 49 9t39.5 24t26 36t9.5 45z" />
    <glyph glyph-name="nine" unicode="9" 
d="M104 150q2 -19 9 -35t19 -28.5t29.5 -20t41.5 -7.5q40 0 73.5 20t59.5 54t43 78t23 93h-2q-24 -41 -66 -66t-90 -25q-42 0 -75 14t-56.5 39t-36.5 57.5t-13 68.5q0 46 16.5 88t46.5 73.5t71 50.5t89 19q51 0 87.5 -18t61 -50t36 -74t11.5 -91q0 -73 -19.5 -145t-56 -128
t-88.5 -91t-116 -35q-39 0 -69.5 11t-53 31.5t-35.5 50t-17 66.5h77zM403 434q0 24 -7.5 45.5t-22 38.5t-37 27t-52.5 10q-29 0 -55.5 -11.5t-46.5 -32.5t-32 -49.5t-12 -62.5q0 -25 7.5 -46.5t22.5 -38t37 -26t52 -9.5q29 0 55.5 11.5t46.5 32.5t32 49.5t12 61.5z" />
    <glyph glyph-name="colon" unicode=":" horiz-adv-x="172" 
d="M7 49q0 23 15.5 39t38.5 16q11 0 20.5 -4.5t17 -11.5t11.5 -17t4 -22t-4 -21.5t-11.5 -17t-17 -11.5t-20.5 -4t-21 4t-17 11.5t-11.5 17t-4.5 21.5zM61 362q0 23 15.5 39t38.5 16q11 0 20.5 -4.5t17 -11.5t11.5 -17t4 -22t-4 -21.5t-11.5 -17t-17 -11.5t-20.5 -4t-21 4
t-17 11.5t-11.5 17t-4.5 21.5z" />
    <glyph glyph-name="semicolon" unicode=";" horiz-adv-x="172" 
d="M43 0q-15 4 -25.5 17t-10.5 32q0 23 15 38.5t38 15.5t38.5 -15t15.5 -42q0 -18 -8.5 -34t-19.5 -29l-69 -91h-56zM61 362q0 23 15.5 39t38.5 16q11 0 20.5 -4.5t17 -11.5t11.5 -17t4 -22t-4 -21.5t-11.5 -17t-17 -11.5t-20.5 -4t-21 4t-17 11.5t-11.5 17t-4.5 21.5z" />
    <glyph glyph-name="less" unicode="&#x3c;" horiz-adv-x="423" 
d="M80 335l323 151l-12 -75l-259 -119l217 -118l-13 -70l-269 152z" />
    <glyph glyph-name="equal" unicode="=" horiz-adv-x="551" 
d="M108 397h394l-10 -60h-395zM83 257h395l-10 -58h-395z" />
    <glyph glyph-name="greater" unicode="&#x3e;" horiz-adv-x="423" 
d="M367 255l-323 -151l13 74l258 120l-216 118l12 70l269 -152z" />
    <glyph glyph-name="question" unicode="?" horiz-adv-x="433" 
d="M277 553q-57 0 -94 -33t-51 -87h-79q12 43 33 78t50 60t65.5 38.5t80.5 13.5q38 0 68.5 -10t51 -29t31.5 -46t11 -61q0 -32 -12 -59.5t-30.5 -51.5t-42.5 -45l-48 -42q-16 -15 -26.5 -26.5t-17.5 -21.5t-10.5 -19t-5.5 -19h-75q4 19 10.5 35t16 30.5t22 29t30.5 31.5
l36 32t35.5 36t27.5 40t11 47q0 35 -23 57t-65 22zM138 49q0 12 4 22t11.5 17t17.5 11.5t20 4.5q23 0 38.5 -16t15.5 -39t-15.5 -38.5t-38.5 -15.5q-10 0 -20 4t-17.5 11.5t-11.5 17t-4 21.5z" />
    <glyph glyph-name="at" unicode="@" horiz-adv-x="774" 
d="M518 139q-6 -25 1.5 -40t36.5 -15q27 0 51 13.5t42.5 39.5t29.5 63.5t11 85.5q0 51 -19 92.5t-53 70.5t-81 45t-104 16q-73 0 -135 -26t-106 -72.5t-69 -110.5t-25 -138q0 -73 27 -122.5t69.5 -80.5t96 -44.5t106.5 -13.5q69 0 125.5 14t100.5 33l-9 -59
q-38 -18 -94.5 -31t-122.5 -13q-70 0 -135.5 18.5t-116 57t-80.5 98.5t-30 143q0 82 29.5 155.5t82 129t125.5 87.5t161 32q72 0 131 -21.5t100 -58.5t63.5 -89t22.5 -112q0 -65 -18.5 -113t-48 -79.5t-66.5 -47.5t-75 -16q-35 0 -61.5 15t-35.5 43q-16 -25 -45.5 -41
t-59.5 -16q-59 0 -91.5 38t-32.5 97q0 42 14.5 83t40 72t61 50t78.5 19q33 0 55.5 -14.5t32.5 -31.5l10 37h67zM482 275q-7 22 -25.5 37.5t-45.5 15.5q-29 0 -52 -14t-39 -36t-25 -50t-9 -57q0 -35 19 -56.5t53 -21.5q30 0 53 17t41 41z" />
    <glyph glyph-name="A" unicode="A" horiz-adv-x="596" 
d="M416 614l124 -614h-78l-36 185h-253l-105 -185h-82l355 614h75zM213 255h199l-50 261z" />
    <glyph glyph-name="B" unicode="B" horiz-adv-x="538" 
d="M408 315q41 -11 64.5 -43.5t23.5 -77.5q0 -47 -18.5 -83.5t-50.5 -61t-75 -37t-92 -12.5h-222l108 614h203q86 0 130.5 -37t44.5 -104q0 -32 -10 -58.5t-26 -46.5t-37 -33t-43 -20zM300 347q67 0 106.5 29t39.5 88q0 41 -27 61t-84 20h-125l-34 -198h124zM127 69h145
q68 0 107 34t39 91q0 40 -26.5 63.5t-82.5 23.5h-145z" />
    <glyph glyph-name="C" unicode="C" horiz-adv-x="588" 
d="M50 264q0 69 21.5 134t62 115t97 80t127.5 30q48 0 86 -13.5t66.5 -38.5t46 -60t22.5 -78h-77q-12 53 -48.5 85.5t-95.5 32.5q-53 0 -95 -23t-72 -62.5t-45.5 -91.5t-15.5 -110q0 -44 12 -81.5t34 -64t53.5 -41t70.5 -14.5q66 0 107 31t66 87h78q-13 -44 -36.5 -79
t-55.5 -59.5t-72.5 -38t-86.5 -13.5q-55 0 -101 19.5t-79 55.5t-51.5 86t-18.5 112z" />
    <glyph glyph-name="D" unicode="D" horiz-adv-x="608" 
d="M247 71q59 0 107 21t82 59.5t53 90.5t19 114q0 87 -46.5 137t-138.5 50h-111l-83 -472h118zM146 614h187q62 0 109.5 -17.5t80 -51t49 -81.5t16.5 -108q0 -75 -25.5 -140.5t-72 -113t-111 -75t-143.5 -27.5h-198z" />
    <glyph glyph-name="E" unicode="E" horiz-adv-x="514" 
d="M537 614l-12 -71h-314l-34 -193h284l-12 -70h-284l-37 -209h314l-13 -71h-391l108 614h391z" />
    <glyph glyph-name="F" unicode="F" horiz-adv-x="484" 
d="M38 0l108 614h375l-13 -71h-296l-36 -206h278l-12 -70h-279l-46 -267h-79z" />
    <glyph glyph-name="G" unicode="G" horiz-adv-x="610" 
d="M305 -9q-57 0 -104 19.5t-80.5 55.5t-52 86t-18.5 112q0 69 22 134t62.5 115t97.5 80t128 30q48 0 88 -13.5t69.5 -38t47.5 -59.5t24 -78h-77q-12 53 -51 85t-101 32q-53 0 -95.5 -23t-72.5 -62.5t-46 -91.5t-16 -110q0 -44 12 -81.5t34.5 -64t55 -41.5t73.5 -15
q38 0 71.5 12.5t59.5 35.5t43 55t24 70h-145l12 68h219l-10 -60q-9 -55 -33 -101.5t-59.5 -80t-81 -52t-100.5 -18.5z" />
    <glyph glyph-name="H" unicode="H" horiz-adv-x="651" 
d="M651 614l-108 -614h-79l49 280h-347l-49 -280h-79l108 614h79l-47 -263h347l47 263h79z" />
    <glyph glyph-name="I" unicode="I" horiz-adv-x="225" 
d="M117 0h-79l108 614h79z" />
    <glyph glyph-name="J" unicode="J" horiz-adv-x="487" 
d="M103 187v-11q0 -51 26.5 -82t80.5 -31q57 0 91.5 38t46.5 109l71 404h79l-72 -413q-9 -49 -28 -88t-46.5 -66t-63.5 -41.5t-78 -14.5q-44 0 -78.5 12.5t-59 35.5t-37.5 55.5t-13 72.5v12l1 8h80z" />
    <glyph glyph-name="K" unicode="K" horiz-adv-x="564" 
d="M171 308l339 306h103l-314 -281l215 -333h-90l-186 283l-85 -74l-36 -209h-79l108 614h79z" />
    <glyph glyph-name="L" unicode="L" horiz-adv-x="503" 
d="M146 614h79l-96 -543h313l-12 -71h-392z" />
    <glyph glyph-name="M" unicode="M" horiz-adv-x="737" 
d="M308 0l-113 467l-82 -467h-75l108 614h84l122 -509l296 509h89l-108 -614h-76l82 467l-273 -467h-54z" />
    <glyph glyph-name="N" unicode="N" horiz-adv-x="623" 
d="M515 0h-58l-256 498l-87 -498h-76l108 614h75l242 -477l84 477h76z" />
    <glyph glyph-name="O" unicode="O" horiz-adv-x="629" 
d="M299 62q51 0 93.5 22.5t72.5 61.5t47 91t17 112q0 44 -11.5 80.5t-33.5 64t-53 43t-71 15.5q-51 0 -93.5 -22.5t-72.5 -61.5t-47 -91.5t-17 -111.5q0 -44 11.5 -80.5t33.5 -64t53 -43t71 -15.5zM299 -9q-56 0 -101.5 20t-78.5 55.5t-51 86t-18 112.5q0 72 23 137
t64.5 114.5t98.5 78t124 28.5q56 0 101.5 -20t78.5 -55.5t51 -86.5t18 -112q0 -72 -23 -137t-64.5 -114.5t-98.5 -78t-124 -28.5z" />
    <glyph glyph-name="P" unicode="P" horiz-adv-x="537" 
d="M160 246l-43 -246h-79l108 614h229q82 0 127.5 -40t45.5 -118q0 -51 -18.5 -90t-50.5 -65.5t-75 -40.5t-93 -14h-151zM172 316h149q69 0 108.5 35.5t39.5 100.5q0 43 -26.5 68t-81.5 25h-148z" />
    <glyph glyph-name="Q" unicode="Q" horiz-adv-x="630" 
d="M301 -9q-56 0 -102 20t-79 56t-51 86.5t-18 112.5q0 73 23 137.5t64.5 113.5t98 77.5t123.5 28.5q56 0 101.5 -20t79 -56t51.5 -87t18 -112q0 -73 -23.5 -137.5t-64.5 -113.5q-18 -21 -38 -38l38 -62l-56 -36l-37 61q-2 -2 -5 -3q-56 -28 -123 -28zM301 62q51 0 92 20
l-42 70l56 35l40 -66q11 12 21 25q30 39 46 90.5t16 111.5q0 44 -12 81t-34 64.5t-53.5 43t-70.5 15.5q-51 0 -93.5 -22.5t-72.5 -61.5t-46.5 -91t-16.5 -111q0 -44 12 -81t34 -64.5t53.5 -43t70.5 -15.5z" />
    <glyph glyph-name="R" unicode="R" horiz-adv-x="549" 
d="M162 260l-45 -260h-79l108 614h217q43 0 77 -10t56.5 -29.5t34.5 -49t12 -66.5q0 -48 -17.5 -85.5t-48.5 -62.5t-74 -38q-22 -7 -47 -10l135 -263h-85l-131 260h-113zM174 327h146q66 0 105 33t39 97q0 41 -27.5 64.5t-82.5 23.5h-142z" />
    <glyph glyph-name="S" unicode="S" horiz-adv-x="509" 
d="M429 453q-6 44 -40.5 73.5t-94.5 29.5q-29 0 -54 -8t-43.5 -22t-29 -35t-10.5 -48q0 -31 19 -50.5t60 -31.5l103 -31q60 -18 92 -52t32 -90q0 -46 -18 -82.5t-48.5 -62t-71 -39t-85.5 -13.5q-46 0 -85 11.5t-68.5 33.5t-47.5 55.5t-22 76.5h78q4 -28 17 -48.5t32 -34
t43.5 -20.5t52.5 -7q32 0 58.5 8t46 23.5t30.5 38t11 52.5q0 28 -18 48.5t-63 34.5l-104 31q-27 8 -49 19.5t-38 28.5t-25 39.5t-9 52.5q0 42 16 77t45 59.5t68 38.5t85 14q48 0 86.5 -12.5t65 -35t42 -53.5t18.5 -69h-77z" />
    <glyph glyph-name="T" unicode="T" horiz-adv-x="567" 
d="M100 614h506l-12 -71h-214l-96 -543h-79l96 543h-214z" />
    <glyph glyph-name="U" unicode="U" horiz-adv-x="606" 
d="M282 -9q-48 0 -88 12.5t-69 37t-45 62t-16 85.5q0 14 1.5 29t5.5 36l63 361h79l-63 -361q-2 -14 -3.5 -27.5t-1.5 -25.5q0 -34 9 -60t27 -43.5t43.5 -26t57.5 -8.5q78 0 126 46.5t65 144.5l64 361h79l-65 -371q-11 -62 -34.5 -109t-58.5 -79t-79.5 -48t-96.5 -16z" />
    <glyph glyph-name="V" unicode="V" horiz-adv-x="591" 
d="M210 0l-115 614h80l90 -509l294 509h85l-359 -614h-75z" />
    <glyph glyph-name="W" unicode="W" horiz-adv-x="771" 
d="M491 614l34 -488l221 488h78l-283 -614h-72l-37 479l-223 -479h-72l-42 614h76l31 -488l225 488h64z" />
    <glyph glyph-name="X" unicode="X" horiz-adv-x="561" 
d="M340 309l157 -309h-83l-127 252l-224 -252h-91l283 316l-151 298h83l121 -241l214 241h91z" />
    <glyph glyph-name="Y" unicode="Y" horiz-adv-x="558" 
d="M526 614h87l-287 -361l-44 -253h-78l44 253l-159 361h83l126 -289z" />
    <glyph glyph-name="Z" unicode="Z" horiz-adv-x="534" 
d="M459 0h-451l9 57l432 486h-339l13 71h441l-10 -56l-430 -487h347z" />
    <glyph glyph-name="bracketleft" unicode="[" horiz-adv-x="313" 
d="M103 -15h145l-12 -69h-217l129 734h217l-13 -69h-145z" />
    <glyph glyph-name="backslash" unicode="\" horiz-adv-x="333" 
d="M288 -84h-72l-119 734h72z" />
    <glyph glyph-name="bracketright" unicode="]" horiz-adv-x="313" 
d="M234 581h-145l12 69h217l-129 -734h-217l13 69h145z" />
    <glyph glyph-name="asciicircum" unicode="^" horiz-adv-x="358" 
d="M280 614l90 -194h-74l-61 127l-106 -127h-83l160 194h74z" />
    <glyph glyph-name="underscore" unicode="_" horiz-adv-x="367" 
d="M-18 -42h327l-11 -67h-327z" />
    <glyph glyph-name="grave" unicode="`" 
d="M254 516l-66 134h74l56 -134h-64z" />
    <glyph glyph-name="a" unicode="a" horiz-adv-x="453" 
d="M354 0h-74l6 33q-17 -15 -47.5 -28t-68.5 -13q-31 0 -58.5 9t-47.5 25.5t-31.5 39.5t-11.5 53q0 35 16 63.5t42 49t60 31t71 10.5q19 0 36.5 -3t31.5 -8.5t25 -12t18 -14.5l11 58q1 6 1.5 12.5t0.5 11.5q0 31 -19 51t-60 20q-37 0 -62.5 -15.5t-42.5 -46.5h-74
q11 28 29 51.5t42 40.5t53.5 26t62.5 9q69 0 107.5 -35.5t38.5 -93.5q0 -7 -0.5 -14t-2.5 -15zM308 156q-6 24 -33.5 39.5t-64.5 15.5q-20 0 -40.5 -5t-37.5 -16t-27.5 -27.5t-10.5 -39.5q0 -17 7.5 -29.5t20.5 -21t29.5 -13t34.5 -4.5q37 0 68 15t45 40z" />
    <glyph glyph-name="b" unicode="b" horiz-adv-x="504" 
d="M105 0h-76l114 650h76l-46 -261q21 25 56.5 44.5t75.5 19.5q42 0 73 -14.5t51.5 -40t30.5 -60.5t10 -75q0 -55 -17 -104.5t-48.5 -86.5t-74.5 -59t-95 -22q-46 0 -77 19t-44 43zM128 132q11 -34 38.5 -53.5t65.5 -19.5q39 0 69 17t50.5 45t31.5 65t11 77q0 54 -26.5 88
t-78.5 34q-42 0 -74 -22t-56 -56z" />
    <glyph glyph-name="c" unicode="c" horiz-adv-x="446" 
d="M403 134q-19 -66 -69 -104.5t-123 -38.5q-40 0 -73 14t-56 39.5t-35.5 61.5t-12.5 80q0 51 16 99.5t46 85.5t72.5 59.5t95.5 22.5q37 0 66 -10t49.5 -29t32.5 -45.5t14 -58.5h-76q-4 35 -26.5 56t-60.5 21q-37 0 -65 -17t-47.5 -45t-29.5 -64t-10 -75q0 -59 27.5 -94
t78.5 -35q41 0 69 21t41 56h76z" />
    <glyph glyph-name="d" unicode="d" horiz-adv-x="504" 
d="M435 650h76l-114 -650h-76l10 55q-21 -25 -56.5 -44.5t-75.5 -19.5q-42 0 -73 14.5t-51.5 40t-30.5 60.5t-10 75q0 53 17 102t48.5 87t74.5 60.5t95 22.5q46 0 77 -19t43 -43zM376 312q-11 34 -38.5 53.5t-65.5 19.5q-39 0 -69 -18t-50.5 -47t-31.5 -65.5t-11 -73.5
q0 -54 26.5 -88t78.5 -34q42 0 74 22t56 56z" />
    <glyph glyph-name="e" unicode="e" horiz-adv-x="462" 
d="M414 134q-20 -64 -71.5 -103.5t-126.5 -39.5q-43 0 -76.5 14t-57 39.5t-36 61.5t-12.5 80q0 49 15.5 97t45.5 86t73 61t99 23q41 0 72 -12.5t52 -35.5t31.5 -56t10.5 -73q0 -13 -2 -30.5t-6 -37.5h-316v-22q0 -62 29 -96.5t82 -34.5q41 0 72 20.5t45 58.5h77zM358 265
q1 6 1 10v9q0 21 -5.5 40t-17.5 33.5t-29.5 23t-41.5 8.5q-39 0 -68.5 -18t-49.5 -47q-18 -26 -27 -59h238z" />
    <glyph glyph-name="f" unicode="f" horiz-adv-x="290" 
d="M353 582q-8 5 -19.5 8t-22.5 3q-35 0 -58.5 -20.5t-30.5 -60.5l-12 -68h100l-11 -64h-101l-66 -380h-75l67 380h-75l12 64h74l13 74q12 67 56 104t104 37q17 0 31.5 -2.5t26.5 -7.5z" />
    <glyph glyph-name="g" unicode="g" horiz-adv-x="502" 
d="M333 67q-11 -13 -25.5 -24.5t-31.5 -20.5t-36 -14t-39 -5q-42 0 -73 14.5t-52 39.5t-31 59t-10 74q0 51 17 99t48 84.5t74 58t95 21.5q23 0 42.5 -5t35 -14t26 -20t17.5 -22l9 52h76l-74 -417q-17 -101 -74.5 -154t-146.5 -53q-39 0 -71 10.5t-54.5 29.5t-35.5 46t-13 61
h74q3 -42 30.5 -62.5t70.5 -20.5q63 0 98 38.5t47 105.5zM377 314q-11 32 -38.5 52t-66.5 20t-69 -17.5t-50.5 -45t-31 -62.5t-10.5 -71q0 -53 27 -86t79 -33q42 0 74.5 22t55.5 55z" />
    <glyph glyph-name="h" unicode="h" horiz-adv-x="490" 
d="M314 453q64 0 97.5 -35.5t33.5 -92.5q0 -16 -3 -34l-51 -291h-76l49 279q2 8 2.5 15t0.5 14q0 34 -19.5 55t-60.5 21q-20 0 -39.5 -6.5t-36 -18t-30.5 -26.5t-23 -33l-53 -300h-76l114 650h76l-46 -263q22 27 58.5 46.5t82.5 19.5z" />
    <glyph glyph-name="i" unicode="i" horiz-adv-x="210" 
d="M105 0h-76l78 444h76zM217 578q0 -10 -3.5 -18.5t-10.5 -15.5t-16 -10.5t-18 -3.5q-21 0 -35 14t-14 34q0 11 4 19.5t10.5 15t15.5 10.5t19 4q20 0 34 -14t14 -35z" />
    <glyph glyph-name="j" unicode="j" horiz-adv-x="209" 
d="M-81 -101q7 -6 17 -9.5t21 -3.5q27 0 41.5 15.5t21.5 53.5l87 489h76l-88 -495q-11 -62 -45.5 -95t-90.5 -33q-19 0 -31.5 3t-20.5 8zM217 578q0 -10 -4 -18.5t-10.5 -15.5t-15.5 -10.5t-19 -3.5q-20 0 -34 14t-14 34q0 11 3.5 19.5t10 15t16 10.5t18.5 4q20 0 34.5 -14
t14.5 -35z" />
    <glyph glyph-name="k" unicode="k" horiz-adv-x="462" 
d="M190 206l-57 -46l-28 -160h-76l114 650h76l-71 -402l234 196h103l-237 -194l166 -250h-86z" />
    <glyph glyph-name="l" unicode="l" horiz-adv-x="209" 
d="M105 0h-76l114 650h76z" />
    <glyph glyph-name="m" unicode="m" horiz-adv-x="717" 
d="M409 382q26 31 61.5 51t79.5 20q31 0 54.5 -9.5t38.5 -26.5t22.5 -39.5t7.5 -48.5q0 -9 -0.5 -18.5t-2.5 -18.5l-51 -292h-76l48 275q2 12 3 20.5t1 16.5q0 33 -15.5 52.5t-51.5 19.5q-19 0 -35.5 -7t-31 -18t-26 -26t-20.5 -32l-53 -301h-76l48 275q2 12 3 20.5t1 16.5
q0 33 -15.5 52.5t-51.5 19.5q-19 0 -35.5 -7t-31 -18t-26.5 -26t-20 -32l-53 -301h-76l78 444h76l-10 -56q22 26 53 45.5t75 19.5q43 0 71 -20.5t37 -50.5z" />
    <glyph glyph-name="n" unicode="n" horiz-adv-x="490" 
d="M107 444h76l-10 -57q23 27 59 46.5t82 19.5q64 0 97.5 -35.5t33.5 -92.5q0 -16 -3 -34l-51 -291h-76l49 279q2 8 2.5 15t0.5 14q0 34 -19.5 55t-60.5 21q-20 0 -39.5 -6.5t-36 -18t-30.5 -26.5t-23 -33l-53 -300h-76z" />
    <glyph glyph-name="o" unicode="o" horiz-adv-x="478" 
d="M217 57q33 0 60 15t47.5 42t31.5 64.5t11 81.5q0 58 -27.5 92.5t-78.5 34.5q-33 0 -60.5 -15t-47.5 -42t-31.5 -64.5t-11.5 -81.5q0 -58 28 -92.5t79 -34.5zM216 -9q-43 0 -77 14t-57.5 39.5t-35.5 61t-12 78.5q0 58 18 107.5t48.5 85.5t72 56t88.5 20q44 0 77.5 -14
t57 -39.5t36 -61t12.5 -78.5q0 -58 -18 -107.5t-49 -85.5t-72 -56t-89 -20z" />
    <glyph glyph-name="p" unicode="p" horiz-adv-x="504" 
d="M75 -170h-76l108 614h76l-10 -55q21 25 56.5 44.5t75.5 19.5q42 0 73 -14.5t51.5 -40t30.5 -60.5t10 -75q0 -55 -17 -104.5t-48.5 -86.5t-74.5 -59t-95 -22q-46 0 -77 19t-44 43zM128 132q11 -34 38.5 -53.5t65.5 -19.5q39 0 69 17t50.5 45t31.5 65t11 77q0 54 -26.5 88
t-78.5 34q-42 0 -74 -22t-56 -56z" />
    <glyph glyph-name="q" unicode="q" horiz-adv-x="501" 
d="M399 444h76l-108 -614h-76l40 225q-21 -25 -56.5 -44.5t-75.5 -19.5q-42 0 -73 14.5t-51.5 40t-30.5 60.5t-10 75q0 53 17 102t48.5 87t74.5 60.5t95 22.5q46 0 77 -19t43 -43zM376 312q-11 34 -38.5 53.5t-65.5 19.5q-39 0 -69 -18t-50.5 -47t-31.5 -65.5t-11 -73.5
q0 -54 26.5 -88t78.5 -34q42 0 74 22t56 56z" />
    <glyph glyph-name="r" unicode="r" horiz-adv-x="322" 
d="M323 369q-9 6 -21.5 9t-27.5 3q-35 0 -67 -22t-50 -61l-52 -298h-76l78 444h76l-10 -58q19 29 51.5 48t69.5 19q15 0 25.5 -2t16.5 -5z" />
    <glyph glyph-name="s" unicode="s" horiz-adv-x="415" 
d="M89 124q6 -37 34 -53.5t66 -16.5q20 0 37.5 4.5t31 12.5t21.5 21.5t8 32.5q0 20 -13 33.5t-43 23.5l-77 23q-43 13 -68.5 37t-25.5 72q0 31 13 56.5t35.5 44t53 28.5t64.5 10q39 0 68 -9.5t49.5 -26.5t32 -40.5t14.5 -51.5h-73q-6 29 -28 47t-63 18q-19 0 -35.5 -4.5
t-29 -13t-20 -21.5t-7.5 -30q0 -19 12.5 -30.5t38.5 -20.5l77 -24q51 -16 75 -43t24 -68q0 -35 -13.5 -61.5t-37 -45t-55 -28t-66.5 -9.5q-39 0 -70 9.5t-53.5 27t-35.5 42t-16 54.5h75z" />
    <glyph glyph-name="t" unicode="t" horiz-adv-x="315" 
d="M119 380h-74l12 64h74l21 117h76l-21 -117h104l-11 -64h-105l-47 -254l-2 -12q-1 -6 -1 -13q0 -23 12.5 -32.5t36.5 -9.5q15 0 32 4.5t30 12.5l-12 -70q-14 -7 -33.5 -11t-40.5 -4q-47 0 -75.5 22.5t-28.5 68.5q0 7 1 14.5t3 17.5z" />
    <glyph glyph-name="u" unicode="u" horiz-adv-x="487" 
d="M381 0h-76l10 56q-23 -26 -59 -45.5t-82 -19.5q-63 0 -96 35t-33 92q0 17 3 35l51 291h76l-49 -282q-2 -8 -2.5 -16t-0.5 -15q0 -34 18 -54t59 -20q20 0 39.5 7t36.5 19t31 27t23 33l53 301h76z" />
    <glyph glyph-name="v" unicode="v" horiz-adv-x="455" 
d="M136 0l-78 444h75l58 -349l204 349h82l-267 -444h-74z" />
    <glyph glyph-name="w" unicode="w" horiz-adv-x="627" 
d="M405 105l167 339h77l-225 -444h-73l-22 336l-163 -336h-73l-37 444h72l27 -339l164 339h65z" />
    <glyph glyph-name="x" unicode="x" horiz-adv-x="449" 
d="M267 226l120 -226h-79l-92 173l-157 -173h-86l212 230l-113 214h79l84 -162l146 162h86z" />
    <glyph glyph-name="y" unicode="y" horiz-adv-x="455" 
d="M31 -170l103 175l-76 439h75l59 -349l203 349h82l-369 -614h-77z" />
    <glyph glyph-name="z" unicode="z" horiz-adv-x="431" 
d="M353 0h-349l9 50l306 330h-241l12 64h337l-8 -50l-306 -330h250z" />
    <glyph glyph-name="braceleft" unicode="{" horiz-adv-x="339" 
d="M140 21q-6 -36 29 -36h105l-12 -69h-104q-51 0 -75 31t-16 82l32 182q6 37 -29 37h-46l13 70h46q35 0 42 37l31 182q5 26 17 46.5t29 35.5t38.5 23t46.5 8h104l-13 -69h-104q-36 0 -42 -36l-32 -185q-6 -29 -21.5 -47.5t-36.5 -29.5q17 -12 26.5 -30.5t4.5 -46.5z" />
    <glyph glyph-name="bar" unicode="|" horiz-adv-x="219" 
d="M152 650h73l-129 -734h-73z" />
    <glyph glyph-name="braceright" unicode="}" horiz-adv-x="339" 
d="M223 545q6 36 -29 36h-105l12 69h104q51 0 75 -31t16 -82l-32 -182q-6 -37 29 -37h46l-13 -70h-46q-35 0 -42 -37l-31 -182q-5 -26 -17 -46.5t-29 -35.5t-38.5 -23t-46.5 -8h-104l13 69h104q36 0 42 36l32 185q6 29 21.5 47.5t36.5 29.5q-17 12 -26.5 30.5t-4.5 46.5z
" />
    <glyph glyph-name="asciitilde" unicode="~" horiz-adv-x="419" 
d="M400 335q-12 -61 -43 -95t-77 -34q-23 0 -39.5 10t-30 23t-26 23t-28.5 10q-20 0 -34 -16t-19 -46h-64q11 60 42 94.5t77 34.5q23 0 39 -10.5t29.5 -23t26.5 -23t29 -10.5q20 0 34.5 16.5t19.5 46.5h64z" />
    <glyph glyph-name="Adieresis" unicode="&#xc4;" horiz-adv-x="596" 
d="M416 614l124 -614h-78l-36 185h-253l-105 -185h-82l355 614h75zM213 255h199l-50 261zM279 722q0 20 13.5 33t33.5 13q19 0 32.5 -13t13.5 -33q0 -19 -13.5 -32.5t-32.5 -13.5q-20 0 -33.5 13.5t-13.5 32.5zM419 722q0 20 13.5 33t32.5 13t33 -13t14 -33q0 -19 -14 -32.5
t-33 -13.5t-32.5 13.5t-13.5 32.5z" />
    <glyph glyph-name="Aring" unicode="&#xc5;" horiz-adv-x="596" 
d="M416 614l124 -614h-78l-36 185h-253l-105 -185h-82l355 614h75zM213 255h199l-50 261zM396 689q18 0 32.5 13t14.5 35q0 18 -12.5 30.5t-30.5 12.5q-19 0 -33.5 -13t-14.5 -34q0 -19 12.5 -31.5t31.5 -12.5zM394 648q-18 0 -33.5 6.5t-27 17.5t-17.5 26t-6 33
q0 17 7 33.5t19 29t29 20t36 7.5q18 0 33.5 -6.5t27 -17.5t17.5 -26t6 -32q0 -18 -7 -34.5t-19 -29t-29 -20t-36 -7.5z" />
    <glyph glyph-name="Ccedilla" unicode="&#xc7;" horiz-adv-x="588" 
d="M50 264q0 69 21.5 134t62 115t97 80t127.5 30q48 0 86 -13.5t66.5 -38.5t46 -60t22.5 -78h-77q-12 53 -48.5 85.5t-95.5 32.5q-53 0 -95 -23t-72 -62.5t-45.5 -91.5t-15.5 -110q0 -44 12 -81.5t34 -64t53.5 -41t70.5 -14.5q66 0 107 31t66 87h78q-13 -44 -36.5 -79
t-55.5 -59.5t-72.5 -38t-86.5 -13.5q-55 0 -101 19.5t-79 55.5t-51.5 86t-18.5 112zM132 -183l89 132h78l-92 -132h-75z" />
    <glyph glyph-name="Eacute" unicode="&#xc9;" horiz-adv-x="514" 
d="M537 614l-12 -71h-314l-34 -193h284l-12 -70h-284l-37 -209h314l-13 -71h-391l108 614h391zM309 668l100 117h91l-112 -117h-79z" />
    <glyph glyph-name="Ntilde" unicode="&#xd1;" horiz-adv-x="623" 
d="M515 0h-58l-256 498l-87 -498h-76l108 614h75l242 -477l84 477h76zM547 785q-5 -26 -13.5 -48.5t-21 -37.5t-28 -23.5t-34.5 -8.5q-17 0 -29 9t-22 20t-19.5 20t-21.5 9q-17 0 -27.5 -15t-15.5 -40h-51q5 26 13.5 47.5t21 37.5t28 24.5t34.5 8.5q17 0 29 -9t22 -20
t19 -20t22 -9q16 0 27 15t16 40h51z" />
    <glyph glyph-name="Odieresis" unicode="&#xd6;" horiz-adv-x="629" 
d="M299 62q51 0 93.5 22.5t72.5 61.5t47 91t17 112q0 44 -11.5 80.5t-33.5 64t-53 43t-71 15.5q-51 0 -93.5 -22.5t-72.5 -61.5t-47 -91.5t-17 -111.5q0 -44 11.5 -80.5t33.5 -64t53 -43t71 -15.5zM299 -9q-56 0 -101.5 20t-78.5 55.5t-51 86t-18 112.5q0 72 23 137
t64.5 114.5t98.5 78t124 28.5q56 0 101.5 -20t78.5 -55.5t51 -86.5t18 -112q0 -72 -23 -137t-64.5 -114.5t-98.5 -78t-124 -28.5zM284 722q0 20 13.5 33t33.5 13q19 0 32.5 -13t13.5 -33q0 -19 -13.5 -32.5t-32.5 -13.5q-20 0 -33.5 13.5t-13.5 32.5zM424 722q0 20 13.5 33
t32.5 13t33 -13t14 -33q0 -19 -14 -32.5t-33 -13.5t-32.5 13.5t-13.5 32.5z" />
    <glyph glyph-name="Udieresis" unicode="&#xdc;" horiz-adv-x="606" 
d="M282 -9q-48 0 -88 12.5t-69 37t-45 62t-16 85.5q0 14 1.5 29t5.5 36l63 361h79l-63 -361q-2 -14 -3.5 -27.5t-1.5 -25.5q0 -34 9 -60t27 -43.5t43.5 -26t57.5 -8.5q78 0 126 46.5t65 144.5l64 361h79l-65 -371q-11 -62 -34.5 -109t-58.5 -79t-79.5 -48t-96.5 -16z
M273 722q0 20 13.5 33t33.5 13q19 0 32.5 -13t13.5 -33q0 -19 -13.5 -32.5t-32.5 -13.5q-20 0 -33.5 13.5t-13.5 32.5zM413 722q0 20 13.5 33t32.5 13t33 -13t14 -33q0 -19 -14 -32.5t-33 -13.5t-32.5 13.5t-13.5 32.5z" />
    <glyph glyph-name="aacute" unicode="&#xe1;" horiz-adv-x="453" 
d="M354 0h-74l6 33q-17 -15 -47.5 -28t-68.5 -13q-31 0 -58.5 9t-47.5 25.5t-31.5 39.5t-11.5 53q0 35 16 63.5t42 49t60 31t71 10.5q19 0 36.5 -3t31.5 -8.5t25 -12t18 -14.5l11 58q1 6 1.5 12.5t0.5 11.5q0 31 -19 51t-60 20q-37 0 -62.5 -15.5t-42.5 -46.5h-74
q11 28 29 51.5t42 40.5t53.5 26t62.5 9q69 0 107.5 -35.5t38.5 -93.5q0 -7 -0.5 -14t-2.5 -15zM308 156q-6 24 -33.5 39.5t-64.5 15.5q-20 0 -40.5 -5t-37.5 -16t-27.5 -27.5t-10.5 -39.5q0 -17 7.5 -29.5t20.5 -21t29.5 -13t34.5 -4.5q37 0 68 15t45 40zM248 516l103 134
h81l-113 -134h-71z" />
    <glyph glyph-name="agrave" unicode="&#xe0;" horiz-adv-x="453" 
d="M354 0h-74l6 33q-17 -15 -47.5 -28t-68.5 -13q-31 0 -58.5 9t-47.5 25.5t-31.5 39.5t-11.5 53q0 35 16 63.5t42 49t60 31t71 10.5q19 0 36.5 -3t31.5 -8.5t25 -12t18 -14.5l11 58q1 6 1.5 12.5t0.5 11.5q0 31 -19 51t-60 20q-37 0 -62.5 -15.5t-42.5 -46.5h-74
q11 28 29 51.5t42 40.5t53.5 26t62.5 9q69 0 107.5 -35.5t38.5 -93.5q0 -7 -0.5 -14t-2.5 -15zM308 156q-6 24 -33.5 39.5t-64.5 15.5q-20 0 -40.5 -5t-37.5 -16t-27.5 -27.5t-10.5 -39.5q0 -17 7.5 -29.5t20.5 -21t29.5 -13t34.5 -4.5q37 0 68 15t45 40zM254 516l-66 134
h74l56 -134h-64z" />
    <glyph glyph-name="acircumflex" unicode="&#xe2;" horiz-adv-x="453" 
d="M354 0h-74l6 33q-17 -15 -47.5 -28t-68.5 -13q-31 0 -58.5 9t-47.5 25.5t-31.5 39.5t-11.5 53q0 35 16 63.5t42 49t60 31t71 10.5q19 0 36.5 -3t31.5 -8.5t25 -12t18 -14.5l11 58q1 6 1.5 12.5t0.5 11.5q0 31 -19 51t-60 20q-37 0 -62.5 -15.5t-42.5 -46.5h-74
q11 28 29 51.5t42 40.5t53.5 26t62.5 9q69 0 107.5 -35.5t38.5 -93.5q0 -7 -0.5 -14t-2.5 -15zM308 156q-6 24 -33.5 39.5t-64.5 15.5q-20 0 -40.5 -5t-37.5 -16t-27.5 -27.5t-10.5 -39.5q0 -17 7.5 -29.5t20.5 -21t29.5 -13t34.5 -4.5q37 0 68 15t45 40zM410 509h-63
l-46 88l-78 -88h-68l117 136h69z" />
    <glyph glyph-name="adieresis" unicode="&#xe4;" horiz-adv-x="453" 
d="M354 0h-74l6 33q-17 -15 -47.5 -28t-68.5 -13q-31 0 -58.5 9t-47.5 25.5t-31.5 39.5t-11.5 53q0 35 16 63.5t42 49t60 31t71 10.5q19 0 36.5 -3t31.5 -8.5t25 -12t18 -14.5l11 58q1 6 1.5 12.5t0.5 11.5q0 31 -19 51t-60 20q-37 0 -62.5 -15.5t-42.5 -46.5h-74
q11 28 29 51.5t42 40.5t53.5 26t62.5 9q69 0 107.5 -35.5t38.5 -93.5q0 -7 -0.5 -14t-2.5 -15zM308 156q-6 24 -33.5 39.5t-64.5 15.5q-20 0 -40.5 -5t-37.5 -16t-27.5 -27.5t-10.5 -39.5q0 -17 7.5 -29.5t20.5 -21t29.5 -13t34.5 -4.5q37 0 68 15t45 40zM182 571
q0 21 13.5 34t33.5 13q9 0 17.5 -3.5t14.5 -10t10 -14.5t4 -19q0 -19 -13.5 -32.5t-32.5 -13.5q-20 0 -33.5 13.5t-13.5 32.5zM322 571q0 21 13.5 34t32.5 13q10 0 18 -3.5t15 -10t10.5 -14.5t3.5 -19q0 -19 -14 -32.5t-33 -13.5t-32.5 13.5t-13.5 32.5z" />
    <glyph glyph-name="atilde" unicode="&#xe3;" horiz-adv-x="453" 
d="M354 0h-74l6 33q-17 -15 -47.5 -28t-68.5 -13q-31 0 -58.5 9t-47.5 25.5t-31.5 39.5t-11.5 53q0 35 16 63.5t42 49t60 31t71 10.5q19 0 36.5 -3t31.5 -8.5t25 -12t18 -14.5l11 58q1 6 1.5 12.5t0.5 11.5q0 31 -19 51t-60 20q-37 0 -62.5 -15.5t-42.5 -46.5h-74
q11 28 29 51.5t42 40.5t53.5 26t62.5 9q69 0 107.5 -35.5t38.5 -93.5q0 -7 -0.5 -14t-2.5 -15zM308 156q-6 24 -33.5 39.5t-64.5 15.5q-20 0 -40.5 -5t-37.5 -16t-27.5 -27.5t-10.5 -39.5q0 -17 7.5 -29.5t20.5 -21t29.5 -13t34.5 -4.5q37 0 68 15t45 40zM439 633
q-5 -26 -13.5 -48t-21 -37.5t-28 -24t-34.5 -8.5q-17 0 -29 9t-22 20t-19.5 20t-21.5 9q-17 0 -27.5 -15t-15.5 -40h-51q5 26 13.5 48t21 37.5t28 24t34.5 8.5q17 0 29 -9t22 -20t19 -20t22 -9q16 0 27 15t16 40h51z" />
    <glyph glyph-name="aring" unicode="&#xe5;" horiz-adv-x="453" 
d="M354 0h-74l6 33q-17 -15 -47.5 -28t-68.5 -13q-31 0 -58.5 9t-47.5 25.5t-31.5 39.5t-11.5 53q0 35 16 63.5t42 49t60 31t71 10.5q19 0 36.5 -3t31.5 -8.5t25 -12t18 -14.5l11 58q1 6 1.5 12.5t0.5 11.5q0 31 -19 51t-60 20q-37 0 -62.5 -15.5t-42.5 -46.5h-74
q11 28 29 51.5t42 40.5t53.5 26t62.5 9q69 0 107.5 -35.5t38.5 -93.5q0 -7 -0.5 -14t-2.5 -15zM308 156q-6 24 -33.5 39.5t-64.5 15.5q-20 0 -40.5 -5t-37.5 -16t-27.5 -27.5t-10.5 -39.5q0 -17 7.5 -29.5t20.5 -21t29.5 -13t34.5 -4.5q37 0 68 15t45 40zM298 535
q18 0 32.5 13t14.5 34q0 18 -12.5 30.5t-30.5 12.5q-19 0 -33.5 -13t-14.5 -34q0 -18 12.5 -30.5t31.5 -12.5zM296 494q-18 0 -33.5 6t-27 17t-17.5 26t-6 33t7 34.5t19 29t29 19.5t36 7q18 0 33.5 -6t27 -17t17.5 -26t6 -33t-7 -34.5t-19 -29t-29 -19.5t-36 -7z" />
    <glyph glyph-name="ccedilla" unicode="&#xe7;" horiz-adv-x="446" 
d="M403 134q-19 -66 -69 -104.5t-123 -38.5q-40 0 -73 14t-56 39.5t-35.5 61.5t-12.5 80q0 51 16 99.5t46 85.5t72.5 59.5t95.5 22.5q37 0 66 -10t49.5 -29t32.5 -45.5t14 -58.5h-76q-4 35 -26.5 56t-60.5 21q-37 0 -65 -17t-47.5 -45t-29.5 -64t-10 -75q0 -59 27.5 -94
t78.5 -35q41 0 69 21t41 56h76zM65 -183l89 132h78l-92 -132h-75z" />
    <glyph glyph-name="eacute" unicode="&#xe9;" horiz-adv-x="462" 
d="M414 134q-20 -64 -71.5 -103.5t-126.5 -39.5q-43 0 -76.5 14t-57 39.5t-36 61.5t-12.5 80q0 49 15.5 97t45.5 86t73 61t99 23q41 0 72 -12.5t52 -35.5t31.5 -56t10.5 -73q0 -13 -2 -30.5t-6 -37.5h-316v-22q0 -62 29 -96.5t82 -34.5q41 0 72 20.5t45 58.5h77zM358 265
q1 6 1 10v9q0 21 -5.5 40t-17.5 33.5t-29.5 23t-41.5 8.5q-39 0 -68.5 -18t-49.5 -47q-18 -26 -27 -59h238zM249 516l103 134h81l-113 -134h-71z" />
    <glyph glyph-name="egrave" unicode="&#xe8;" horiz-adv-x="462" 
d="M414 134q-20 -64 -71.5 -103.5t-126.5 -39.5q-43 0 -76.5 14t-57 39.5t-36 61.5t-12.5 80q0 49 15.5 97t45.5 86t73 61t99 23q41 0 72 -12.5t52 -35.5t31.5 -56t10.5 -73q0 -13 -2 -30.5t-6 -37.5h-316v-22q0 -62 29 -96.5t82 -34.5q41 0 72 20.5t45 58.5h77zM358 265
q1 6 1 10v9q0 21 -5.5 40t-17.5 33.5t-29.5 23t-41.5 8.5q-39 0 -68.5 -18t-49.5 -47q-18 -26 -27 -59h238zM257 516l-66 134h74l56 -134h-64z" />
    <glyph glyph-name="ecircumflex" unicode="&#xea;" horiz-adv-x="462" 
d="M414 134q-20 -64 -71.5 -103.5t-126.5 -39.5q-43 0 -76.5 14t-57 39.5t-36 61.5t-12.5 80q0 49 15.5 97t45.5 86t73 61t99 23q41 0 72 -12.5t52 -35.5t31.5 -56t10.5 -73q0 -13 -2 -30.5t-6 -37.5h-316v-22q0 -62 29 -96.5t82 -34.5q41 0 72 20.5t45 58.5h77zM358 265
q1 6 1 10v9q0 21 -5.5 40t-17.5 33.5t-29.5 23t-41.5 8.5q-39 0 -68.5 -18t-49.5 -47q-18 -26 -27 -59h238zM412 509h-63l-46 88l-78 -88h-68l117 136h69z" />
    <glyph glyph-name="edieresis" unicode="&#xeb;" horiz-adv-x="462" 
d="M414 134q-20 -64 -71.5 -103.5t-126.5 -39.5q-43 0 -76.5 14t-57 39.5t-36 61.5t-12.5 80q0 49 15.5 97t45.5 86t73 61t99 23q41 0 72 -12.5t52 -35.5t31.5 -56t10.5 -73q0 -13 -2 -30.5t-6 -37.5h-316v-22q0 -62 29 -96.5t82 -34.5q41 0 72 20.5t45 58.5h77zM358 265
q1 6 1 10v9q0 21 -5.5 40t-17.5 33.5t-29.5 23t-41.5 8.5q-39 0 -68.5 -18t-49.5 -47q-18 -26 -27 -59h238zM184 571q0 21 13.5 34t33.5 13q9 0 17.5 -3.5t14.5 -10t10 -14.5t4 -19q0 -19 -13.5 -32.5t-32.5 -13.5q-20 0 -33.5 13.5t-13.5 32.5zM324 571q0 21 13.5 34
t32.5 13q10 0 18 -3.5t15 -10t10.5 -14.5t3.5 -19q0 -19 -14 -32.5t-33 -13.5t-32.5 13.5t-13.5 32.5z" />
    <glyph glyph-name="iacute" unicode="&#xed;" horiz-adv-x="209" 
d="M117 516l103 134h81l-113 -134h-71zM105 0h-76l78 444h76z" />
    <glyph glyph-name="igrave" unicode="&#xec;" horiz-adv-x="209" 
d="M125 516l-66 134h74l56 -134h-64zM105 0h-76l78 444h76z" />
    <glyph glyph-name="icircumflex" unicode="&#xee;" horiz-adv-x="209" 
d="M264 509h-62l-30 85l-60 -85h-66l98 136h69zM105 0h-76l78 444h76z" />
    <glyph glyph-name="idieresis" unicode="&#xef;" horiz-adv-x="209" 
d="M60 571q0 21 13.5 34t33.5 13q9 0 17.5 -3.5t14.5 -10t10 -14.5t4 -19q0 -19 -13.5 -32.5t-32.5 -13.5q-20 0 -33.5 13.5t-13.5 32.5zM184 571q0 21 13.5 34t32.5 13q10 0 18 -3.5t14.5 -10t10.5 -14.5t4 -19q0 -19 -14 -32.5t-33 -13.5t-32.5 13.5t-13.5 32.5zM105 0
h-76l78 444h76z" />
    <glyph glyph-name="ntilde" unicode="&#xf1;" horiz-adv-x="490" 
d="M107 444h76l-10 -57q23 27 59 46.5t82 19.5q64 0 97.5 -35.5t33.5 -92.5q0 -16 -3 -34l-51 -291h-76l49 279q2 8 2.5 15t0.5 14q0 34 -19.5 55t-60.5 21q-20 0 -39.5 -6.5t-36 -18t-30.5 -26.5t-23 -33l-53 -300h-76zM455 633q-5 -26 -13.5 -48t-21 -37.5t-28 -24
t-34.5 -8.5q-17 0 -29 9t-22 20t-19.5 20t-21.5 9q-17 0 -27.5 -15t-15.5 -40h-51q5 26 13.5 48t21 37.5t28 24t34.5 8.5q17 0 29 -9t22 -20t19 -20t22 -9q16 0 27 15t16 40h51z" />
    <glyph glyph-name="oacute" unicode="&#xf3;" horiz-adv-x="478" 
d="M217 57q33 0 60 15t47.5 42t31.5 64.5t11 81.5q0 58 -27.5 92.5t-78.5 34.5q-33 0 -60.5 -15t-47.5 -42t-31.5 -64.5t-11.5 -81.5q0 -58 28 -92.5t79 -34.5zM216 -9q-43 0 -77 14t-57.5 39.5t-35.5 61t-12 78.5q0 58 18 107.5t48.5 85.5t72 56t88.5 20q44 0 77.5 -14
t57 -39.5t36 -61t12.5 -78.5q0 -58 -18 -107.5t-49 -85.5t-72 -56t-89 -20zM248 516l103 134h81l-113 -134h-71z" />
    <glyph glyph-name="ograve" unicode="&#xf2;" horiz-adv-x="478" 
d="M217 57q33 0 60 15t47.5 42t31.5 64.5t11 81.5q0 58 -27.5 92.5t-78.5 34.5q-33 0 -60.5 -15t-47.5 -42t-31.5 -64.5t-11.5 -81.5q0 -58 28 -92.5t79 -34.5zM216 -9q-43 0 -77 14t-57.5 39.5t-35.5 61t-12 78.5q0 58 18 107.5t48.5 85.5t72 56t88.5 20q44 0 77.5 -14
t57 -39.5t36 -61t12.5 -78.5q0 -58 -18 -107.5t-49 -85.5t-72 -56t-89 -20zM254 516l-66 134h74l56 -134h-64z" />
    <glyph glyph-name="ocircumflex" unicode="&#xf4;" horiz-adv-x="478" 
d="M217 57q33 0 60 15t47.5 42t31.5 64.5t11 81.5q0 58 -27.5 92.5t-78.5 34.5q-33 0 -60.5 -15t-47.5 -42t-31.5 -64.5t-11.5 -81.5q0 -58 28 -92.5t79 -34.5zM216 -9q-43 0 -77 14t-57.5 39.5t-35.5 61t-12 78.5q0 58 18 107.5t48.5 85.5t72 56t88.5 20q44 0 77.5 -14
t57 -39.5t36 -61t12.5 -78.5q0 -58 -18 -107.5t-49 -85.5t-72 -56t-89 -20zM412 509h-63l-46 88l-78 -88h-68l117 136h69z" />
    <glyph glyph-name="odieresis" unicode="&#xf6;" horiz-adv-x="478" 
d="M217 57q33 0 60 15t47.5 42t31.5 64.5t11 81.5q0 58 -27.5 92.5t-78.5 34.5q-33 0 -60.5 -15t-47.5 -42t-31.5 -64.5t-11.5 -81.5q0 -58 28 -92.5t79 -34.5zM216 -9q-43 0 -77 14t-57.5 39.5t-35.5 61t-12 78.5q0 58 18 107.5t48.5 85.5t72 56t88.5 20q44 0 77.5 -14
t57 -39.5t36 -61t12.5 -78.5q0 -58 -18 -107.5t-49 -85.5t-72 -56t-89 -20zM182 571q0 21 13.5 34t33.5 13q9 0 17.5 -3.5t14.5 -10t10 -14.5t4 -19q0 -19 -13.5 -32.5t-32.5 -13.5q-20 0 -33.5 13.5t-13.5 32.5zM322 571q0 21 13.5 34t32.5 13q10 0 18 -3.5t15 -10
t10.5 -14.5t3.5 -19q0 -19 -14 -32.5t-33 -13.5t-32.5 13.5t-13.5 32.5z" />
    <glyph glyph-name="otilde" unicode="&#xf5;" horiz-adv-x="478" 
d="M217 57q33 0 60 15t47.5 42t31.5 64.5t11 81.5q0 58 -27.5 92.5t-78.5 34.5q-33 0 -60.5 -15t-47.5 -42t-31.5 -64.5t-11.5 -81.5q0 -58 28 -92.5t79 -34.5zM216 -9q-43 0 -77 14t-57.5 39.5t-35.5 61t-12 78.5q0 58 18 107.5t48.5 85.5t72 56t88.5 20q44 0 77.5 -14
t57 -39.5t36 -61t12.5 -78.5q0 -58 -18 -107.5t-49 -85.5t-72 -56t-89 -20zM441 633q-5 -26 -13.5 -48t-21 -37.5t-28 -24t-34.5 -8.5q-17 0 -29 9t-22 20t-19.5 20t-21.5 9q-17 0 -27.5 -15t-15.5 -40h-51q5 26 13.5 48t21 37.5t28 24t34.5 8.5q17 0 29 -9t22 -20t19 -20
t22 -9q16 0 27 15t16 40h51z" />
    <glyph glyph-name="uacute" unicode="&#xfa;" horiz-adv-x="487" 
d="M381 0h-76l10 56q-23 -26 -59 -45.5t-82 -19.5q-63 0 -96 35t-33 92q0 17 3 35l51 291h76l-49 -282q-2 -8 -2.5 -16t-0.5 -15q0 -34 18 -54t59 -20q20 0 39.5 7t36.5 19t31 27t23 33l53 301h76zM250 516l103 134h81l-113 -134h-71z" />
    <glyph glyph-name="ugrave" unicode="&#xf9;" horiz-adv-x="487" 
d="M381 0h-76l10 56q-23 -26 -59 -45.5t-82 -19.5q-63 0 -96 35t-33 92q0 17 3 35l51 291h76l-49 -282q-2 -8 -2.5 -16t-0.5 -15q0 -34 18 -54t59 -20q20 0 39.5 7t36.5 19t31 27t23 33l53 301h76zM259 516l-66 134h74l56 -134h-64z" />
    <glyph glyph-name="ucircumflex" unicode="&#xfb;" horiz-adv-x="487" 
d="M381 0h-76l10 56q-23 -26 -59 -45.5t-82 -19.5q-63 0 -96 35t-33 92q0 17 3 35l51 291h76l-49 -282q-2 -8 -2.5 -16t-0.5 -15q0 -34 18 -54t59 -20q20 0 39.5 7t36.5 19t31 27t23 33l53 301h76zM414 509h-63l-46 88l-78 -88h-68l117 136h69z" />
    <glyph glyph-name="udieresis" unicode="&#xfc;" horiz-adv-x="487" 
d="M381 0h-76l10 56q-23 -26 -59 -45.5t-82 -19.5q-63 0 -96 35t-33 92q0 17 3 35l51 291h76l-49 -282q-2 -8 -2.5 -16t-0.5 -15q0 -34 18 -54t59 -20q20 0 39.5 7t36.5 19t31 27t23 33l53 301h76zM185 571q0 21 13.5 34t33.5 13q9 0 17.5 -3.5t14.5 -10t10 -14.5t4 -19
q0 -19 -13.5 -32.5t-32.5 -13.5q-20 0 -33.5 13.5t-13.5 32.5zM325 571q0 21 13.5 34t32.5 13q10 0 18 -3.5t15 -10t10.5 -14.5t3.5 -19q0 -19 -14 -32.5t-33 -13.5t-32.5 13.5t-13.5 32.5z" />
    <glyph glyph-name="dagger" unicode="&#x2020;" horiz-adv-x="316" 
d="M89 558h99l16 92h58l-16 -92h99l-10 -56h-99l-36 -207h-58l36 207h-99z" />
    <glyph glyph-name="degree" unicode="&#xb0;" horiz-adv-x="335" 
d="M214 623q24 0 45 -8.5t36.5 -24t23.5 -36t8 -44.5q0 -28 -10 -52.5t-28 -43t-42 -29t-52 -10.5q-24 0 -44.5 9t-36 24t-24 36t-8.5 45q0 28 10.5 52t28.5 42.5t42 29t51 10.5zM209 568q-27 0 -49 -21.5t-22 -54.5q0 -26 18 -43.5t44 -17.5q27 0 49.5 21t22.5 55
q0 26 -18 43.5t-45 17.5z" />
    <glyph glyph-name="cent" unicode="&#xa2;" horiz-adv-x="444" 
d="M36 196q0 51 16 99.5t46 85.5t72 59q37 20 81 22l16 91h69l-17 -96q7 -2 14 -5q30 -10 50.5 -29.5t31.5 -47t13 -60.5h-75q-3 38 -26 60t-62 22q-37 0 -65 -17t-47.5 -45t-29.5 -64t-10 -75q0 -59 27.5 -94t78.5 -35q42 0 70.5 22t42.5 60h75q-19 -68 -70 -108
q-41 -33 -99 -39l-15 -89h-69l16 92q-16 4 -30 10q-32 14 -55 39.5t-36 61.5t-13 80z" />
    <glyph glyph-name="sterling" unicode="&#xa3;" horiz-adv-x="489" 
d="M179 156q-5 -26 -14.5 -51t-23.5 -40h295l-11 -65h-430l11 65h61q13 17 22.5 37.5t15.5 53.5l20 115h-83l11 63h83l16 91q8 43 24.5 79.5t41.5 63t58.5 41t75.5 14.5q40 0 69.5 -11t49 -30.5t29 -45.5t10.5 -58h-74q0 39 -22.5 59t-61.5 20q-52 0 -83 -35.5t-42 -96.5
l-17 -91h154l-11 -63h-154z" />
    <glyph glyph-name="section" unicode="&#xa7;" horiz-adv-x="457" 
d="M172 385q-11 -4 -22.5 -10.5t-20.5 -16t-15 -21.5t-6 -27q0 -22 16 -37.5t37 -32.5l137 -104q11 3 22.5 10t20.5 16t15 21t6 27q0 23 -16 38.5t-37 31.5zM337 88q5 -9 7 -19t2 -23q0 -34 -14.5 -62t-38.5 -47t-55 -29.5t-64 -10.5q-39 0 -68 10t-48.5 27.5t-29 42
t-10.5 54.5h73q2 -33 22.5 -52.5t64.5 -19.5q19 0 36 5t30 15t21 25t8 34t-12 32.5t-36 31.5l-108 81q-32 25 -54.5 52t-22.5 66q0 44 25.5 78.5t67.5 53.5q-5 9 -7 19t-2 22q0 35 14.5 62.5t38.5 47t55 29.5t64 10q39 0 68 -9.5t48.5 -27.5t29 -42.5t10.5 -54.5h-73
q-2 33 -22.5 52.5t-64.5 19.5q-19 0 -36 -5t-30 -14.5t-21 -24.5t-8 -34q0 -20 12 -33t36 -32l108 -81q32 -24 55 -51t23 -67q0 -44 -26 -78.5t-68 -52.5z" />
    <glyph glyph-name="bullet" unicode="&#x2022;" horiz-adv-x="343" 
d="M314 261q0 -30 -10.5 -55t-29 -43t-43.5 -28t-54 -10q-28 0 -53 10t-43.5 28t-29 43t-10.5 55t10.5 55t29 43t43.5 28t53 10q29 0 54 -10t43.5 -28t29 -43t10.5 -55z" />
    <glyph glyph-name="paragraph" unicode="&#xb6;" horiz-adv-x="490" 
d="M427 614h63l-124 -704h-63zM239 301q-33 0 -66 8.5t-58.5 25t-41 42t-15.5 59.5q0 48 22.5 82.5t58 55t79 30.5t85.5 10h54l-124 -704h-63z" />
    <glyph glyph-name="germandbls" unicode="&#xdf;" horiz-adv-x="510" 
d="M369 367q22 -6 41 -18.5t32.5 -31.5t21.5 -44t8 -56q0 -53 -18.5 -94t-49.5 -70t-71.5 -44t-83.5 -15q-28 0 -49.5 4t-39.5 13l12 69q15 -10 34.5 -14t42.5 -4q32 0 59 10.5t47.5 30.5t32 48.5t11.5 65.5q0 54 -33 83.5t-98 29.5h-42l12 66h41q26 0 48.5 8t40 23t27 36.5
t9.5 48.5q0 36 -21.5 59t-64.5 23q-58 0 -91 -37.5t-42 -93.5l-81 -463h-75l81 463q7 43 25.5 79t46 62.5t63 40.5t77.5 14q38 0 67.5 -10t49 -28.5t29.5 -43.5t10 -54q0 -31 -9.5 -56.5t-25 -45.5t-35 -33.5t-39.5 -20.5z" />
    <glyph glyph-name="registered" unicode="&#xae;" horiz-adv-x="412" 
d="M420 440q0 -40 -14.5 -73.5t-39 -58t-57.5 -38t-70 -13.5t-70 13.5t-57.5 38t-39 58t-14.5 73.5t14.5 73.5t39 58t57.5 38t70 13.5t70 -13.5t57.5 -38t39 -58t14.5 -73.5zM389 440q0 34 -11.5 62t-32 49t-48 32t-58.5 11t-58.5 -11t-48 -32t-32 -49t-11.5 -62
q0 -33 11.5 -61.5t32 -49t48 -31.5t58.5 -11t58.5 11t48 31.5t32 49t11.5 61.5zM211 414v-68h-43v192h84q31 0 50 -16.5t19 -46.5q0 -23 -11.5 -37.5t-30.5 -19.5l49 -72h-48l-44 68h-25zM280 475q0 12 -7.5 19t-21.5 7h-40v-52h40q14 0 21.5 7.5t7.5 18.5z" />
    <glyph glyph-name="copyright" unicode="&#xa9;" horiz-adv-x="706" 
d="M687 307q0 -69 -25 -127t-68 -100t-101 -65.5t-123 -23.5t-122.5 23.5t-100.5 65.5t-68 100t-25 127t25 127t68 100t100.5 65.5t122.5 23.5t123 -23.5t101 -65.5t68 -100t25 -127zM647 307q0 60 -22 111t-59.5 87.5t-88 57.5t-107.5 21t-107 -21t-87.5 -57.5t-59.5 -87.5
t-22 -111t22 -111t59.5 -87.5t87.5 -57.5t107 -21t107.5 21t88 57.5t59.5 87.5t22 111zM193 309q0 45 13.5 81.5t37.5 62.5t57.5 40.5t72.5 14.5q33 0 60 -9.5t47 -26t33 -40t19 -51.5h-75q-10 28 -31 43.5t-53 15.5q-49 0 -77.5 -36t-28.5 -95t28.5 -95t77.5 -36
q32 0 53 15.5t31 43.5h75q-6 -28 -19 -51.5t-33 -40t-47 -26t-60 -9.5q-39 0 -72.5 14.5t-57.5 40.5t-37.5 62.5t-13.5 81.5z" />
    <glyph glyph-name="trademark" unicode="&#x2122;" horiz-adv-x="586" 
d="M82 614h217l-8 -46h-82l-37 -208h-53l37 208h-82zM410 360l-35 168l-30 -168h-51l45 254h64l37 -179l101 179h65l-45 -254h-51l30 168l-94 -168h-36z" />
    <glyph glyph-name="acute" unicode="&#xb4;" 
d="M159 516l103 134h81l-113 -134h-71z" />
    <glyph glyph-name="dieresis" unicode="&#xa8;" 
d="M133 571q0 21 13.5 34t33.5 13q9 0 17.5 -3.5t14.5 -10t10 -14.5t4 -19q0 -19 -13.5 -32.5t-32.5 -13.5q-20 0 -33.5 13.5t-13.5 32.5zM273 571q0 21 13.5 34t32.5 13q10 0 18 -3.5t15 -10t10.5 -14.5t3.5 -19q0 -19 -14 -32.5t-33 -13.5t-32.5 13.5t-13.5 32.5z" />
    <glyph glyph-name="notequal" unicode="&#x2260;" horiz-adv-x="551" 
d="M83 257h138l73 81h-197l11 57h238l84 93h60l-84 -93h96l-10 -57h-138l-73 -81h197l-10 -58h-239l-84 -93h-60l84 93h-96z" />
    <glyph glyph-name="AE" unicode="&#xc6;" horiz-adv-x="869" 
d="M892 614l-12 -71h-304l-34 -193h274l-12 -70h-274l-37 -209h304l-13 -71h-381l33 185h-221l-144 -185h-85l475 614h431zM501 553l-232 -298h179z" />
    <glyph glyph-name="Oslash" unicode="&#xd8;" horiz-adv-x="639" 
d="M571 623l45 -33l-54 -63q21 -29 34 -66q18 -51 18 -112q0 -72 -23 -137t-64.5 -114.5t-98.5 -78t-124 -28.5q-56 0 -102 20q-29 13 -54 32l-50 -58l-46 33l57 66q-23 30 -36 68q-18 51 -18 113q0 72 23 137t64.5 114.5t98.5 78t124 28.5q56 0 102 -20q31 -14 57 -35z
M436 536q-31 16 -71 16q-51 0 -93.5 -22.5t-72.5 -61.5t-47 -91.5t-17 -111.5q0 -44 11 -81q7 -20 16 -38l312 364q-17 16 -38 26zM304 62q51 0 93.5 22.5t72.5 61.5t47 91t17 112q0 44 -12 80q-6 19 -14 35l-311 -363q16 -14 36 -24q31 -15 71 -15z" />
    <glyph glyph-name="plusminus" unicode="&#xb1;" horiz-adv-x="544" 
d="M106 389h164l23 129h62l-23 -129h163l-11 -62h-163l-23 -129h-62l23 129h-164zM64 150h389l-11 -62h-389z" />
    <glyph glyph-name="lessequal" unicode="&#x2264;" horiz-adv-x="428" 
d="M90 382l319 121l-13 -71l-245 -89l214 -91l-12 -65l-275 121zM50 153h297l-11 -62h-297z" />
    <glyph glyph-name="greaterequal" unicode="&#x2265;" horiz-adv-x="428" 
d="M340 91h-297l11 62h297zM379 308l-319 -121l13 71l245 90l-214 91l11 64l276 -120z" />
    <glyph glyph-name="yen" unicode="&#xa5;" horiz-adv-x="534" 
d="M68 194h158l12 70h-157l10 59h128l-122 291h79l111 -275l209 275h85l-226 -291h129l-11 -59h-159l-12 -70h159l-11 -60h-158l-23 -134h-76l23 134h-158z" />
    <glyph glyph-name="ordfeminine" unicode="&#xaa;" horiz-adv-x="309" 
d="M289 321h-66l3 20q-10 -10 -30 -17.5t-44 -7.5q-42 0 -70.5 22.5t-28.5 62.5q0 24 10.5 43t27.5 32.5t39.5 20.5t46.5 7q25 0 44.5 -7.5t28.5 -16.5l6 34q1 3 1 6v7q0 18 -10.5 29.5t-33.5 11.5q-22 0 -36.5 -9t-24.5 -27h-64q14 41 49 66.5t83 25.5q50 0 77 -24.5
t27 -65.5q0 -6 -0.5 -11t-1.5 -11zM240 424q-4 13 -19 22t-37 9q-11 0 -23 -3t-21 -9t-15 -15.5t-6 -22.5q0 -19 15.5 -29t36.5 -10t38.5 8.5t26.5 22.5z" />
    <glyph glyph-name="ordmasculine" unicode="&#xba;" horiz-adv-x="326" 
d="M192 374q19 0 35 9t27 24.5t17.5 37.5t6.5 48q0 33 -15.5 52.5t-44.5 19.5q-19 0 -34.5 -9t-27 -25t-18 -38t-6.5 -48q0 -32 16 -51.5t44 -19.5zM190 314q-29 0 -52.5 9.5t-40 26.5t-25.5 41.5t-9 54.5q0 39 12.5 71.5t33.5 56.5t50 37t61 13q29 0 52.5 -9.5t40 -26.5
t25.5 -41t9 -54q0 -39 -12.5 -71.5t-33.5 -56.5t-49.5 -37.5t-61.5 -13.5z" />
    <glyph glyph-name="ae" unicode="&#xe6;" horiz-adv-x="738" 
d="M689 134q-19 -64 -70.5 -103.5t-126.5 -39.5q-56 0 -95 23.5t-58 68.5q-15 -21 -35 -37.5t-43.5 -28.5t-49.5 -18.5t-54 -6.5q-60 0 -98 32.5t-38 89.5q0 35 15.5 63.5t42.5 48t62.5 30t76.5 10.5h110q3 22 4.5 31t1.5 18q0 32 -18.5 52.5t-60.5 20.5q-37 0 -62 -15.5
t-43 -46.5h-74q11 28 29 51.5t42 40.5t53.5 26t62.5 9q24 0 45 -5t37 -15t28 -24.5t19 -32.5q25 33 64.5 55t86.5 22q41 0 72 -12.5t52 -35.5t31.5 -56t10.5 -73q0 -13 -2 -31t-6 -38h-315q-1 -6 -1 -12v-11q0 -62 28.5 -95.5t82.5 -33.5q41 0 72 20.5t45 58.5h76zM317 207
h-103q-23 0 -44.5 -4.5t-38.5 -15t-27.5 -26.5t-10.5 -41q0 -32 23 -48.5t57 -16.5q22 0 42 6t36.5 17t30 26t23.5 32zM540 389q-27 0 -50.5 -10t-41 -26.5t-30.5 -39t-20 -47.5h236q1 5 1 9v10q0 21 -6 40t-17.5 33t-29 22.5t-42.5 8.5z" />
    <glyph glyph-name="oslash" unicode="&#xf8;" horiz-adv-x="489" 
d="M425 475l39 -29l-51 -61q15 -21 24 -47q12 -35 12 -78q0 -58 -18 -107.5t-48.5 -85.5t-72 -56t-88.5 -20q-43 0 -77 14q-17 7 -32 17l-46 -56l-39 29l50 60q-17 22 -26 50q-12 36 -12 79q0 58 18 107.5t48.5 85.5t72 56t88.5 20q44 0 77 -14q19 -8 35 -20zM266 389
q-32 0 -60 -15.5t-48.5 -43t-32.5 -65t-12 -81.5q0 -41 13 -70l209 253q-26 22 -69 22zM223 55q32 0 60 15.5t49 43t32.5 65t11.5 81.5q0 37 -12 65l-207 -251q25 -19 66 -19z" />
    <glyph glyph-name="questiondown" unicode="&#xbf;" horiz-adv-x="432" 
d="M173 -35q57 0 94 33t51 87h79q-12 -43 -33 -78t-50 -60t-65.5 -38.5t-80.5 -13.5q-38 0 -68.5 10t-51 29t-31.5 46t-11 61q0 32 12 59.5t30.5 51.5t42.5 45l48 42q16 15 26.5 26.5t17.5 21.5t10.5 19t5.5 19h75q-4 -19 -10.5 -35t-16 -30.5t-22 -29t-30.5 -31.5l-36 -32
t-35.5 -36t-27.5 -40t-11 -47q0 -35 23 -57t65 -22zM312 469q0 -12 -4 -22t-11.5 -17t-17.5 -11.5t-20 -4.5q-23 0 -38.5 16t-15.5 39t15.5 38.5t38.5 15.5q10 0 20 -4t17.5 -11.5t11.5 -17t4 -21.5z" />
    <glyph glyph-name="exclamdown" unicode="&#xa1;" horiz-adv-x="209" 
d="M99 -96h-90l94 421h54zM206 469q0 -12 -4.5 -22t-11.5 -17t-17 -11.5t-21 -4.5t-20.5 4.5t-17 11.5t-11.5 17t-4 22t4 21.5t11.5 17t17 11.5t20.5 4t21 -4t17 -11.5t11.5 -17t4.5 -21.5z" />
    <glyph glyph-name="florin" unicode="&#x192;" horiz-adv-x="402" 
d="M87 344h85l43 141q20 67 63.5 102.5t101.5 35.5q23 0 39 -3t28 -9l-12 -68q-13 7 -25.5 10.5t-29.5 3.5q-33 0 -55 -18t-34 -60l-41 -135h91l-11 -64h-100l-96 -318q-20 -67 -58.5 -103t-96.5 -36q-23 0 -39 3.5t-28 8.5l12 69q12 -7 25 -10.5t30 -3.5q33 0 50 18t29 59
l95 313h-78z" />
    <glyph glyph-name="approxequal" unicode="&#x2248;" horiz-adv-x="551" 
d="M81 246q32 22 60.5 31t52.5 9q25 0 46 -6.5t41 -14t40.5 -14t45.5 -6.5q24 0 53 9.5t63 32.5l-11 -62q-33 -22 -62.5 -31t-53.5 -9q-25 0 -46 6.5t-40.5 14t-40.5 14t-45 6.5q-25 0 -53 -10t-61 -32zM103 371q32 22 60 31t53 9t46 -6.5t41 -14.5t40.5 -14.5t44.5 -6.5
q25 0 54.5 10.5t62.5 32.5l-11 -62q-34 -22 -62.5 -31.5t-53.5 -9.5t-45.5 7l-40.5 14.5t-41 14t-45 6.5q-25 0 -53 -10.5t-60 -32.5z" />
    <glyph glyph-name="guillemotleft" unicode="&#xab;" horiz-adv-x="358" 
d="M92 74l-66 148l118 148h75l-122 -152l63 -144h-68zM237 74l-66 148l118 148h75l-121 -152l63 -144h-69z" />
    <glyph glyph-name="guillemotright" unicode="&#xbb;" horiz-adv-x="358" 
d="M278 370l66 -148l-118 -148h-75l122 152l-63 144h68zM133 370l66 -148l-118 -148h-75l121 152l-63 144h69z" />
    <glyph glyph-name="ellipsis" unicode="&#x2026;" horiz-adv-x="556" 
d="M7 49q0 23 15.5 39t38.5 16q11 0 20.5 -4.5t17 -11.5t11.5 -17t4 -22t-4 -21.5t-11.5 -17t-17 -11.5t-20.5 -4t-21 4t-17 11.5t-11.5 17t-4.5 21.5zM199 49q0 23 15.5 39t37.5 16q11 0 21 -4.5t17 -11.5t11.5 -17t4.5 -22t-4.5 -21.5t-11.5 -17t-17 -11.5t-21 -4
q-10 0 -20 4t-17.5 11.5t-11.5 17t-4 21.5zM391 49q0 23 15.5 39t37.5 16q11 0 21 -4.5t17 -11.5t11.5 -17t4.5 -22t-4.5 -21.5t-11.5 -17t-17 -11.5t-21 -4t-20.5 4t-17 11.5t-11.5 17t-4 21.5z" />
    <glyph glyph-name="Agrave" unicode="&#xc0;" horiz-adv-x="596" 
d="M416 614l124 -614h-78l-36 185h-253l-105 -185h-82l355 614h75zM213 255h199l-50 261zM353 668l-71 117h83l59 -117h-71z" />
    <glyph glyph-name="Atilde" unicode="&#xc3;" horiz-adv-x="596" 
d="M416 614l124 -614h-78l-36 185h-253l-105 -185h-82l355 614h75zM213 255h199l-50 261zM538 785q-5 -26 -13.5 -48.5t-21 -37.5t-28 -23.5t-34.5 -8.5q-17 0 -29 9t-22 20t-19.5 20t-21.5 9q-17 0 -27.5 -15t-15.5 -40h-51q5 26 13.5 47.5t21 37.5t28 24.5t34.5 8.5
q17 0 29 -9t22 -20t19 -20t22 -9q16 0 27 15t16 40h51z" />
    <glyph glyph-name="Otilde" unicode="&#xd5;" horiz-adv-x="629" 
d="M299 62q51 0 93.5 22.5t72.5 61.5t47 91t17 112q0 44 -11.5 80.5t-33.5 64t-53 43t-71 15.5q-51 0 -93.5 -22.5t-72.5 -61.5t-47 -91.5t-17 -111.5q0 -44 11.5 -80.5t33.5 -64t53 -43t71 -15.5zM299 -9q-56 0 -101.5 20t-78.5 55.5t-51 86t-18 112.5q0 72 23 137
t64.5 114.5t98.5 78t124 28.5q56 0 101.5 -20t78.5 -55.5t51 -86.5t18 -112q0 -72 -23 -137t-64.5 -114.5t-98.5 -78t-124 -28.5zM543 785q-5 -26 -13.5 -48.5t-21 -37.5t-28 -23.5t-34.5 -8.5q-17 0 -29 9t-22 20t-19.5 20t-21.5 9q-17 0 -27.5 -15t-15.5 -40h-51
q5 26 13.5 47.5t21 37.5t28 24.5t34.5 8.5q17 0 29 -9t22 -20t19 -20t22 -9q16 0 27 15t16 40h51z" />
    <glyph glyph-name="OE" unicode="&#x152;" horiz-adv-x="833" 
d="M843 543h-304l-34 -193h275l-13 -70h-274l-37 -209h304l-12 -71h-443q-62 0 -110 17.5t-80 51t-48.5 81t-16.5 108.5q0 75 25.5 140.5t71.5 113t111 75t143 27.5h455zM130 258q0 -87 46 -137t138 -50h65l82 472h-70q-59 0 -107.5 -21t-82.5 -59.5t-52.5 -91t-18.5 -113.5
z" />
    <glyph glyph-name="oe" unicode="&#x153;" horiz-adv-x="785" 
d="M737 134q-20 -64 -71.5 -103.5t-126.5 -39.5q-55 0 -94.5 26t-59.5 70q-29 -44 -73 -70t-96 -26q-43 0 -77 14t-57.5 39.5t-35.5 61t-12 78.5q0 58 18 107.5t48.5 85.5t72 56t88.5 20q57 0 96 -26t59 -71q14 21 32.5 39t40 31t47 20t54.5 7q41 0 72 -12.5t52 -35.5
t31.5 -56t10.5 -73q0 -13 -2 -30.5t-6 -37.5h-315q-1 -6 -1 -11v-11q0 -62 29 -96.5t82 -34.5q41 0 72 20.5t45 58.5h77zM217 57q33 0 60 15t47.5 42t31.5 64.5t11 81.5q0 58 -27.5 92.5t-78.5 34.5q-33 0 -60.5 -15t-47.5 -42t-31.5 -64.5t-11.5 -81.5q0 -58 28 -92.5
t79 -34.5zM588 389q-29 0 -52 -10t-41 -26.5t-31 -39t-20 -48.5h237q1 6 1 10v9q0 21 -5.5 40t-17.5 33.5t-29.5 23t-41.5 8.5z" />
    <glyph glyph-name="endash" unicode="&#x2013;" horiz-adv-x="475" 
d="M54 292h395l-11 -61h-395z" />
    <glyph glyph-name="emdash" unicode="&#x2014;" horiz-adv-x="846" 
d="M54 292h766l-11 -61h-766z" />
    <glyph glyph-name="quotedblleft" unicode="&#x201c;" horiz-adv-x="322" 
d="M140 509q16 -3 26.5 -16t10.5 -32q0 -23 -15.5 -38.5t-37.5 -15.5q-23 0 -38.5 15t-15.5 42q0 17 8.5 33t18.5 30l68 87h56zM294 509q16 -3 26.5 -16t10.5 -32q0 -23 -15.5 -38.5t-37.5 -15.5q-23 0 -38.5 15t-15.5 42q0 17 8.5 33t18.5 30l68 87h56z" />
    <glyph glyph-name="quotedblright" unicode="&#x201d;" horiz-adv-x="322" 
d="M132 522q-16 3 -26.5 16t-10.5 32q0 23 15.5 38.5t37.5 15.5q23 0 38.5 -15t15.5 -42q0 -17 -8.5 -33t-18.5 -30l-68 -87h-56zM286 522q-16 3 -26.5 16t-10.5 32q0 23 15.5 38.5t37.5 15.5q23 0 38.5 -15t15.5 -42q0 -17 -8.5 -33t-18.5 -30l-68 -87h-56z" />
    <glyph glyph-name="quoteleft" unicode="&#x2018;" horiz-adv-x="169" 
d="M140 509q16 -3 26.5 -16t10.5 -32q0 -23 -15.5 -38.5t-37.5 -15.5q-23 0 -38.5 15t-15.5 42q0 17 8.5 33t18.5 30l68 87h56z" />
    <glyph glyph-name="quoteright" unicode="&#x2019;" horiz-adv-x="168" 
d="M132 522q-16 3 -26.5 16t-10.5 32q0 23 15.5 38.5t37.5 15.5q23 0 38.5 -15t15.5 -42q0 -17 -8.5 -33t-18.5 -30l-68 -87h-56z" />
    <glyph glyph-name="divide" unicode="&#xf7;" horiz-adv-x="540" 
d="M90 328h395l-11 -62h-395zM260 458q0 21 15 36t36 15q20 0 35.5 -15t15.5 -36t-15.5 -36t-35.5 -15q-21 0 -36 15t-15 36zM204 136q0 21 14.5 36t35.5 15t36 -15t15 -36t-15 -36t-36 -15t-35.5 15t-14.5 36z" />
    <glyph glyph-name="ydieresis" unicode="&#xff;" horiz-adv-x="455" 
d="M31 -170l103 175l-76 439h75l59 -349l203 349h82l-369 -614h-77zM164 571q0 21 13.5 34t33.5 13q9 0 17.5 -3.5t14.5 -10t10 -14.5t4 -19q0 -19 -13.5 -32.5t-32.5 -13.5q-20 0 -33.5 13.5t-13.5 32.5zM304 571q0 21 13.5 34t32.5 13q10 0 18 -3.5t15 -10t10.5 -14.5
t3.5 -19q0 -19 -14 -32.5t-33 -13.5t-32.5 13.5t-13.5 32.5z" />
    <glyph glyph-name="Ydieresis" unicode="&#x178;" horiz-adv-x="557" 
d="M526 614h87l-287 -361l-44 -253h-78l44 253l-159 361h83l126 -289zM255 722q0 20 13.5 33t33.5 13q19 0 32.5 -13t13.5 -33q0 -19 -13.5 -32.5t-32.5 -13.5q-20 0 -33.5 13.5t-13.5 32.5zM395 722q0 20 13.5 33t32.5 13t33 -13t14 -33q0 -19 -14 -32.5t-33 -13.5
t-32.5 13.5t-13.5 32.5z" />
    <glyph glyph-name="fraction" unicode="&#x2044;" horiz-adv-x="210" 
d="M-119 0h-69l535 614h70z" />
    <glyph glyph-name="Euro" unicode="&#x20ac;" horiz-adv-x="530" 
d="M34 270h52q2 34 9 69h-49l10 60h54q18 55 49 101q36 54 89 88.5t121 34.5q40 0 72 -11.5t55 -33.5t36.5 -53t17.5 -70h-71q-8 45 -36.5 72t-75.5 27q-52 0 -90 -28t-64 -73q-15 -25 -26 -54h212l-22 -60h-206q-7 -35 -9 -69h193l-24 -60h-168q6 -60 33 -100
q35 -50 99 -50q50 0 82 26.5t52 72.5h73q-14 -40 -35.5 -71t-48.5 -53t-59.5 -33t-69.5 -11q-46 0 -83 18t-63.5 51t-41.5 79q-11 33 -14 71h-64z" />
    <glyph glyph-name="guilsinglleft" unicode="&#x2039;" horiz-adv-x="215" 
d="M92 74l-66 148l118 148h78l-122 -152l64 -144h-72z" />
    <glyph glyph-name="guilsinglright" unicode="&#x203a;" horiz-adv-x="215" 
d="M135 370l66 -148l-118 -148h-78l122 152l-64 144h72z" />
    <glyph glyph-name="fi" unicode="&#xfb01;" horiz-adv-x="499" 
d="M353 582q-8 5 -19.5 8t-22.5 3q-35 0 -58.5 -20.5t-30.5 -60.5l-12 -68h100l-11 -64h-101l-66 -380h-75l67 380h-75l12 64h74l13 74q12 67 56 104t104 37q17 0 31.5 -2.5t26.5 -7.5zM394 0h-76l78 444h76zM506 578q0 -10 -3.5 -18.5t-10.5 -15.5t-16 -10.5t-18 -3.5
q-21 0 -35 14t-14 34q0 11 4 19.5t10.5 15t15.5 10.5t19 4q20 0 34 -14t14 -35z" />
    <glyph glyph-name="fl" unicode="&#xfb02;" horiz-adv-x="499" 
d="M353 582q-8 5 -19.5 8t-22.5 3q-35 0 -58.5 -20.5t-30.5 -60.5l-12 -68h100l-11 -64h-101l-66 -380h-75l67 380h-75l12 64h74l13 74q12 67 56 104t104 37q17 0 31.5 -2.5t26.5 -7.5zM394 0h-76l114 650h76z" />
    <glyph glyph-name="daggerdbl" unicode="&#x2021;" horiz-adv-x="325" 
d="M69 432h99l14 80h-99l9 53h100l15 85h58l-15 -85h100l-9 -53h-101l-14 -80h101l-10 -53h-100l-15 -84h-58l15 84h-100z" />
    <glyph glyph-name="periodcentered" unicode="&#xb7;" horiz-adv-x="177" 
d="M37 261q0 23 15.5 39t38.5 16q11 0 20.5 -4.5t17 -11.5t11.5 -17t4 -22t-4 -21.5t-11.5 -17t-17 -11.5t-20.5 -4t-21 4t-17 11.5t-11.5 17t-4.5 21.5z" />
    <glyph glyph-name="quotesinglbase" unicode="&#x201a;" horiz-adv-x="161" 
d="M48 2q-16 3 -26.5 16t-10.5 32q0 23 15.5 38.5t37.5 15.5q23 0 38.5 -15t15.5 -42q0 -17 -8.5 -33t-18.5 -30l-68 -87h-56z" />
    <glyph glyph-name="quotedblbase" unicode="&#x201e;" horiz-adv-x="322" 
d="M48 2q-16 3 -26.5 16t-10.5 32q0 23 15.5 38.5t37.5 15.5q23 0 38.5 -15t15.5 -42q0 -17 -8.5 -33t-18.5 -30l-68 -87h-56zM202 2q-16 3 -26.5 16t-10.5 32q0 23 15.5 38.5t37.5 15.5q23 0 38.5 -15t15.5 -42q0 -17 -8.5 -33t-18.5 -30l-68 -87h-56z" />
    <glyph glyph-name="perthousand" unicode="&#x2030;" horiz-adv-x="929" 
d="M206 623q27 0 50 -9.5t40 -27t27 -40.5t10 -49q0 -28 -10.5 -52.5t-29 -44t-44 -31.5t-55.5 -12q-27 0 -50 10t-40 27t-26.5 40.5t-9.5 49.5t10.5 51.5t28.5 45t43 31t56 11.5zM197 417q15 0 29 6t24.5 16t16.5 24.5t6 31.5q0 14 -5.5 26.5t-15 22t-22.5 15t-27 5.5
q-15 0 -29 -6t-24.5 -16.5t-16.5 -24.5t-6 -31q0 -14 5.5 -27t15 -22t22.5 -14.5t27 -5.5zM542 614h67l-488 -614h-67zM457 -9q-27 0 -50 9.5t-40 27t-27 40.5t-10 49q0 27 10.5 52t29 44.5t43.5 31.5t56 12q27 0 50 -10t40 -27t26.5 -40.5t9.5 -49.5q0 -27 -10.5 -52
t-28.5 -44.5t-43.5 -31t-55.5 -11.5zM466 197q-15 0 -29 -6t-24.5 -16t-16.5 -24.5t-6 -31.5q0 -14 5.5 -26.5t15 -22t22.5 -15t27 -5.5q15 0 29 6t24.5 16.5t16.5 24.5t6 31q0 14 -5.5 27t-15 22t-22.5 14.5t-27 5.5zM751 -9q-27 0 -50 9.5t-40 27t-27 40.5t-10 49
q0 27 10.5 52t28.5 44.5t43.5 31.5t55.5 12q27 0 50.5 -10t40.5 -27t26.5 -40.5t9.5 -49.5q0 -27 -10.5 -52t-28.5 -44.5t-43.5 -31t-55.5 -11.5zM759 197q-15 0 -28.5 -6t-24 -16t-16.5 -24.5t-6 -31.5q0 -14 5.5 -26.5t15 -22t22.5 -15t27 -5.5q15 0 29 6t24 16.5
t16.5 24.5t6.5 31q0 14 -5.5 27t-15 22t-22.5 14.5t-28 5.5z" />
    <glyph glyph-name="Acircumflex" unicode="&#xc2;" horiz-adv-x="596" 
d="M416 614l124 -614h-78l-36 185h-253l-105 -185h-82l355 614h75zM213 255h199l-50 261zM511 669h-65l-47 71l-71 -71h-72l115 122h69z" />
    <glyph glyph-name="Ecircumflex" unicode="&#xca;" horiz-adv-x="514" 
d="M537 614l-12 -71h-314l-34 -193h284l-12 -70h-284l-37 -209h314l-13 -71h-391l108 614h391zM479 669h-65l-47 71l-71 -71h-72l115 122h69z" />
    <glyph glyph-name="Aacute" unicode="&#xc1;" horiz-adv-x="596" 
d="M416 614l124 -614h-78l-36 185h-253l-105 -185h-82l355 614h75zM213 255h199l-50 261zM343 668l100 117h91l-112 -117h-79z" />
    <glyph glyph-name="Edieresis" unicode="&#xcb;" horiz-adv-x="514" 
d="M537 614l-12 -71h-314l-34 -193h284l-12 -70h-284l-37 -209h314l-13 -71h-391l108 614h391zM247 722q0 20 13.5 33t33.5 13q19 0 32.5 -13t13.5 -33q0 -19 -13.5 -32.5t-32.5 -13.5q-20 0 -33.5 13.5t-13.5 32.5zM387 722q0 20 13.5 33t32.5 13t33 -13t14 -33
q0 -19 -14 -32.5t-33 -13.5t-32.5 13.5t-13.5 32.5z" />
    <glyph glyph-name="Egrave" unicode="&#xc8;" horiz-adv-x="514" 
d="M537 614l-12 -71h-314l-34 -193h284l-12 -70h-284l-37 -209h314l-13 -71h-391l108 614h391zM319 668l-71 117h83l59 -117h-71z" />
    <glyph glyph-name="Iacute" unicode="&#xcd;" horiz-adv-x="225" 
d="M117 0h-79l108 614h79zM150 668l100 117h91l-112 -117h-79z" />
    <glyph glyph-name="Icircumflex" unicode="&#xce;" horiz-adv-x="225" 
d="M117 0h-79l108 614h79zM320 669h-65l-47 71l-71 -71h-72l115 122h69z" />
    <glyph glyph-name="Idieresis" unicode="&#xcf;" horiz-adv-x="225" 
d="M117 0h-79l108 614h79zM89 722q0 20 13.5 33t33.5 13q19 0 32.5 -13t13.5 -33q0 -19 -13.5 -32.5t-32.5 -13.5q-20 0 -33.5 13.5t-13.5 32.5zM229 722q0 20 13.5 33t32.5 13t33 -13t14 -33q0 -19 -14 -32.5t-33 -13.5t-32.5 13.5t-13.5 32.5z" />
    <glyph glyph-name="Igrave" unicode="&#xcc;" horiz-adv-x="225" 
d="M117 0h-79l108 614h79zM161 668l-71 117h83l59 -117h-71z" />
    <glyph glyph-name="Oacute" unicode="&#xd3;" horiz-adv-x="629" 
d="M299 62q51 0 93.5 22.5t72.5 61.5t47 91t17 112q0 44 -11.5 80.5t-33.5 64t-53 43t-71 15.5q-51 0 -93.5 -22.5t-72.5 -61.5t-47 -91.5t-17 -111.5q0 -44 11.5 -80.5t33.5 -64t53 -43t71 -15.5zM299 -9q-56 0 -101.5 20t-78.5 55.5t-51 86t-18 112.5q0 72 23 137
t64.5 114.5t98.5 78t124 28.5q56 0 101.5 -20t78.5 -55.5t51 -86.5t18 -112q0 -72 -23 -137t-64.5 -114.5t-98.5 -78t-124 -28.5zM346 668l100 117h91l-112 -117h-79z" />
    <glyph glyph-name="Ocircumflex" unicode="&#xd4;" horiz-adv-x="629" 
d="M299 62q51 0 93.5 22.5t72.5 61.5t47 91t17 112q0 44 -11.5 80.5t-33.5 64t-53 43t-71 15.5q-51 0 -93.5 -22.5t-72.5 -61.5t-47 -91.5t-17 -111.5q0 -44 11.5 -80.5t33.5 -64t53 -43t71 -15.5zM299 -9q-56 0 -101.5 20t-78.5 55.5t-51 86t-18 112.5q0 72 23 137
t64.5 114.5t98.5 78t124 28.5q56 0 101.5 -20t78.5 -55.5t51 -86.5t18 -112q0 -72 -23 -137t-64.5 -114.5t-98.5 -78t-124 -28.5zM516 669h-65l-47 71l-71 -71h-72l115 122h69z" />
    <glyph glyph-name="Ograve" unicode="&#xd2;" horiz-adv-x="629" 
d="M299 62q51 0 93.5 22.5t72.5 61.5t47 91t17 112q0 44 -11.5 80.5t-33.5 64t-53 43t-71 15.5q-51 0 -93.5 -22.5t-72.5 -61.5t-47 -91.5t-17 -111.5q0 -44 11.5 -80.5t33.5 -64t53 -43t71 -15.5zM299 -9q-56 0 -101.5 20t-78.5 55.5t-51 86t-18 112.5q0 72 23 137
t64.5 114.5t98.5 78t124 28.5q56 0 101.5 -20t78.5 -55.5t51 -86.5t18 -112q0 -72 -23 -137t-64.5 -114.5t-98.5 -78t-124 -28.5zM356 668l-71 117h83l59 -117h-71z" />
    <glyph glyph-name="Uacute" unicode="&#xda;" horiz-adv-x="606" 
d="M282 -9q-48 0 -88 12.5t-69 37t-45 62t-16 85.5q0 14 1.5 29t5.5 36l63 361h79l-63 -361q-2 -14 -3.5 -27.5t-1.5 -25.5q0 -34 9 -60t27 -43.5t43.5 -26t57.5 -8.5q78 0 126 46.5t65 144.5l64 361h79l-65 -371q-11 -62 -34.5 -109t-58.5 -79t-79.5 -48t-96.5 -16z
M335 668l100 117h91l-112 -117h-79z" />
    <glyph glyph-name="Ucircumflex" unicode="&#xdb;" horiz-adv-x="606" 
d="M282 -9q-48 0 -88 12.5t-69 37t-45 62t-16 85.5q0 14 1.5 29t5.5 36l63 361h79l-63 -361q-2 -14 -3.5 -27.5t-1.5 -25.5q0 -34 9 -60t27 -43.5t43.5 -26t57.5 -8.5q78 0 126 46.5t65 144.5l64 361h79l-65 -371q-11 -62 -34.5 -109t-58.5 -79t-79.5 -48t-96.5 -16z
M505 669h-65l-47 71l-71 -71h-72l115 122h69z" />
    <glyph glyph-name="Ugrave" unicode="&#xd9;" horiz-adv-x="606" 
d="M282 -9q-48 0 -88 12.5t-69 37t-45 62t-16 85.5q0 14 1.5 29t5.5 36l63 361h79l-63 -361q-2 -14 -3.5 -27.5t-1.5 -25.5q0 -34 9 -60t27 -43.5t43.5 -26t57.5 -8.5q78 0 126 46.5t65 144.5l64 361h79l-65 -371q-11 -62 -34.5 -109t-58.5 -79t-79.5 -48t-96.5 -16z
M346 668l-71 117h83l59 -117h-71z" />
    <glyph glyph-name="dotlessi" unicode="&#x131;" horiz-adv-x="209" 
d="M105 0h-76l78 444h76z" />
    <glyph glyph-name="circumflex" unicode="&#x2c6;" 
d="M377 509h-63l-46 88l-78 -88h-68l117 136h69z" />
    <glyph glyph-name="tilde" unicode="&#x2dc;" 
d="M392 633q-5 -26 -13.5 -48t-21 -37.5t-28 -24t-34.5 -8.5q-17 0 -29 9t-22 20t-19.5 20t-21.5 9q-17 0 -27.5 -15t-15.5 -40h-51q5 26 13.5 48t21 37.5t28 24t34.5 8.5q17 0 29 -9t22 -20t19 -20t22 -9q16 0 27 15t16 40h51z" />
    <glyph glyph-name="macron" unicode="&#xaf;" 
d="M148 591h214l-11 -61h-214z" />
    <glyph glyph-name="breve" unicode="&#x2d8;" 
d="M233 500q-24 0 -44 8.5t-33 24.5t-18.5 40t0.5 55h57q-6 -34 5 -53.5t38 -19.5q28 0 46 19.5t24 53.5h58q-12 -63 -47 -95.5t-86 -32.5z" />
    <glyph glyph-name="dotaccent" unicode="&#x2d9;" 
d="M298 578q0 -20 -14 -34t-34 -14q-21 0 -35 14t-14 34q0 21 14 35t35 14q20 0 34 -14t14 -35z" />
    <glyph glyph-name="ring" unicode="&#x2da;" 
d="M247 535q18 0 32.5 13t14.5 34q0 18 -12.5 30.5t-30.5 12.5q-19 0 -33.5 -13t-14.5 -34q0 -18 12.5 -30.5t31.5 -12.5zM245 494q-18 0 -33.5 6t-27 17t-17.5 26t-6 33t7 34.5t19 29t29 19.5t36 7q18 0 33.5 -6t27 -17t17.5 -26t6 -33t-7 -34.5t-19 -29t-29 -19.5t-36 -7z
" />
    <glyph glyph-name="cedilla" unicode="&#xb8;" 
d="M164 -183l89 132h78l-92 -132h-75z" />
    <glyph glyph-name="hungarumlaut" unicode="&#x2dd;" 
d="M110 516l90 134h66l-91 -134h-65zM233 516l90 134h66l-91 -134h-65z" />
    <glyph glyph-name="ogonek" unicode="&#x2db;" 
d="M318 4l-31.5 -41l-22.5 -31t-13.5 -24t-4.5 -21q0 -19 18 -19q10 0 18.5 4t21.5 11l-9 -50q-13 -9 -26 -14t-29 -5q-27 0 -41.5 14.5t-14.5 37.5q0 18 6.5 34.5t17 33.5t24.5 34l29 36h57z" />
    <glyph glyph-name="caron" unicode="&#x2c7;" 
d="M122 646h63l46 -88l78 88h68l-116 -136h-70z" />
    <glyph glyph-name="Eth" unicode="&#xd0;" horiz-adv-x="622" 
d="M57 351h57l46 263h187q62 0 109.5 -17.5t80 -51t49 -81.5t16.5 -108q0 -75 -25.5 -140.5t-72 -113t-111 -75t-143.5 -27.5h-198l50 284h-57zM261 71q59 0 107 21t82 59.5t53 90.5t19 114q0 87 -46.5 137t-138.5 50h-111l-34 -192h123l-12 -67h-123l-37 -213h118z" />
    <glyph glyph-name="acute.cap" 
d="M156 668l100 117h91l-112 -117h-79z" />
    <glyph glyph-name="Abreve" unicode="&#x102;" horiz-adv-x="596" 
d="M416 614l124 -614h-78l-36 185h-253l-105 -185h-82l355 614h75zM213 255h199l-50 261zM388 666q-24 0 -43.5 7.5t-33.5 23t-19.5 38t-0.5 51.5h57q-6 -32 7.5 -48t39.5 -16t45 16t25 48h57q-11 -58 -45 -89t-89 -31z" />
    <glyph glyph-name="breve.cap" 
d="M233 666q-24 0 -43.5 7.5t-33.5 23t-19.5 38t-0.5 51.5h57q-6 -32 7.5 -48t39.5 -16t45 16t25 48h57q-11 -58 -45 -89t-89 -31z" />
    <glyph glyph-name="circumflex.cap" 
d="M377 669h-65l-47 71l-71 -71h-72l115 122h69z" />
    <glyph glyph-name="dieresis.cap" 
d="M133 722q0 20 13.5 33t33.5 13q19 0 32.5 -13t13.5 -33q0 -19 -13.5 -32.5t-32.5 -13.5q-20 0 -33.5 13.5t-13.5 32.5zM273 722q0 20 13.5 33t32.5 13t33 -13t14 -33q0 -19 -14 -32.5t-33 -13.5t-32.5 13.5t-13.5 32.5z" />
    <glyph glyph-name="grave.cap" 
d="M252 668l-71 117h83l59 -117h-71z" />
    <glyph glyph-name="Amacron" unicode="&#x100;" horiz-adv-x="596" 
d="M416 614l124 -614h-78l-36 185h-253l-105 -185h-82l355 614h75zM213 255h199l-50 261zM289 732h214l-11 -61h-214z" />
    <glyph glyph-name="macron.cap" 
d="M148 732h214l-11 -61h-214z" />
    <glyph glyph-name="Aogonek" unicode="&#x104;" horiz-adv-x="596" 
d="M416 614l124 -614l-29.5 -39.5t-21 -29.5t-13 -23.5t-4.5 -20.5q0 -19 18 -19q9 0 18 4t22 11l-9 -50q-13 -9 -26 -14t-29 -5q-27 0 -41.5 14.5t-14.5 37.5q0 35 22.5 66l51.5 68h-22l-36 185h-252l-106 -185h-82l355 614h75zM212 255h201l-51 261z" />
    <glyph glyph-name="ring.cap" 
d="M248 689q18 0 32.5 13t14.5 35q0 18 -12.5 30.5t-30.5 12.5q-19 0 -33.5 -13t-14.5 -34q0 -19 12.5 -31.5t31.5 -12.5zM246 648q-18 0 -33.5 6.5t-27 17.5t-17.5 26t-6 33q0 17 7 33.5t19 29t29 20t36 7.5q18 0 33.5 -6.5t27 -17.5t17.5 -26t6 -32q0 -18 -7 -34.5
t-19 -29t-29 -20t-36 -7.5z" />
    <glyph glyph-name="Aringacute" unicode="&#x1fa;" horiz-adv-x="596" 
d="M416 614l124 -614h-78l-36 185h-253l-105 -185h-82l355 614h75zM213 255h199l-50 261zM391 636q-18 0 -33.5 5.5t-27 15t-17.5 22.5t-6 28t7 29t19 25t28.5 17t35.5 6q36 0 60 -20t24 -50q0 -16 -7 -30t-19 -24.5t-28.5 -17t-35.5 -6.5zM376 807l73 86h85l-85 -86h-73z
M392 674q19 0 33 10t14 28q0 16 -12.5 25t-30.5 9q-19 0 -33 -9.5t-14 -28.5q0 -15 12.5 -24.5t30.5 -9.5z" />
    <glyph glyph-name="tilde.cap" 
d="M392 785q-5 -26 -13.5 -48.5t-21 -37.5t-28 -23.5t-34.5 -8.5q-17 0 -29 9t-22 20t-19.5 20t-21.5 9q-17 0 -27.5 -15t-15.5 -40h-51q5 26 13.5 47.5t21 37.5t28 24.5t34.5 8.5q17 0 29 -9t22 -20t19 -20t22 -9q16 0 27 15t16 40h51z" />
    <glyph glyph-name="AEacute" unicode="&#x1fc;" horiz-adv-x="869" 
d="M892 614l-12 -71h-304l-34 -193h274l-12 -70h-274l-37 -209h304l-13 -71h-381l33 185h-221l-144 -185h-85l475 614h431zM501 553l-232 -298h179zM639 668l100 117h91l-112 -117h-79z" />
    <glyph glyph-name="Cacute" unicode="&#x106;" horiz-adv-x="588" 
d="M50 264q0 69 21.5 134t62 115t97 80t127.5 30q48 0 86 -13.5t66.5 -38.5t46 -60t22.5 -78h-77q-12 53 -48.5 85.5t-95.5 32.5q-53 0 -95 -23t-72 -62.5t-45.5 -91.5t-15.5 -110q0 -44 12 -81.5t34 -64t53.5 -41t70.5 -14.5q66 0 107 31t66 87h78q-13 -44 -36.5 -79
t-55.5 -59.5t-72.5 -38t-86.5 -13.5q-55 0 -101 19.5t-79 55.5t-51.5 86t-18.5 112zM333 668l100 117h91l-112 -117h-79z" />
    <glyph glyph-name="Ccaron" unicode="&#x10c;" horiz-adv-x="588" 
d="M50 264q0 69 21.5 134t62 115t97 80t127.5 30q48 0 86 -13.5t66.5 -38.5t46 -60t22.5 -78h-77q-12 53 -48.5 85.5t-95.5 32.5q-53 0 -95 -23t-72 -62.5t-45.5 -91.5t-15.5 -110q0 -44 12 -81.5t34 -64t53.5 -41t70.5 -14.5q66 0 107 31t66 87h78q-13 -44 -36.5 -79
t-55.5 -59.5t-72.5 -38t-86.5 -13.5q-55 0 -101 19.5t-79 55.5t-51.5 86t-18.5 112zM277 787h66l46 -71l71 71h72l-114 -121h-70z" />
    <glyph glyph-name="caron.cap" 
d="M122 787h66l46 -71l71 71h72l-114 -121h-70z" />
    <glyph glyph-name="Ccircumflex" unicode="&#x108;" horiz-adv-x="588" 
d="M50 264q0 69 21.5 134t62 115t97 80t127.5 30q48 0 86 -13.5t66.5 -38.5t46 -60t22.5 -78h-77q-12 53 -48.5 85.5t-95.5 32.5q-53 0 -95 -23t-72 -62.5t-45.5 -91.5t-15.5 -110q0 -44 12 -81.5t34 -64t53.5 -41t70.5 -14.5q66 0 107 31t66 87h78q-13 -44 -36.5 -79
t-55.5 -59.5t-72.5 -38t-86.5 -13.5q-55 0 -101 19.5t-79 55.5t-51.5 86t-18.5 112zM506 669h-65l-47 71l-71 -71h-72l115 122h69z" />
    <glyph glyph-name="Cdotaccent" unicode="&#x10a;" horiz-adv-x="588" 
d="M50 264q0 69 21.5 134t62 115t97 80t127.5 30q48 0 86 -13.5t66.5 -38.5t46 -60t22.5 -78h-77q-12 53 -48.5 85.5t-95.5 32.5q-53 0 -95 -23t-72 -62.5t-45.5 -91.5t-15.5 -110q0 -44 12 -81.5t34 -64t53.5 -41t70.5 -14.5q66 0 107 31t66 87h78q-13 -44 -36.5 -79
t-55.5 -59.5t-72.5 -38t-86.5 -13.5q-55 0 -101 19.5t-79 55.5t-51.5 86t-18.5 112zM439 721q0 -20 -14 -34t-34 -14q-21 0 -35 14t-14 34q0 21 14 35t35 14q20 0 34 -14t14 -35z" />
    <glyph glyph-name="dotaccent.cap" 
d="M298 721q0 -20 -14 -34t-34 -14q-21 0 -35 14t-14 34q0 21 14 35t35 14q20 0 34 -14t14 -35z" />
    <glyph glyph-name="Dcaron" unicode="&#x10e;" horiz-adv-x="608" 
d="M247 71q59 0 107 21t82 59.5t53 90.5t19 114q0 87 -46.5 137t-138.5 50h-111l-83 -472h118zM146 614h187q62 0 109.5 -17.5t80 -51t49 -81.5t16.5 -108q0 -75 -25.5 -140.5t-72 -113t-111 -75t-143.5 -27.5h-198zM256 787h66l46 -71l71 71h72l-114 -121h-70z" />
    <glyph glyph-name="Dcroat" unicode="&#x110;" horiz-adv-x="622" 
d="M57 351h57l46 263h187q62 0 109.5 -17.5t80 -51t49 -81.5t16.5 -108q0 -75 -25.5 -140.5t-72 -113t-111 -75t-143.5 -27.5h-198l50 284h-57zM261 71q59 0 107 21t82 59.5t53 90.5t19 114q0 87 -46.5 137t-138.5 50h-111l-34 -192h123l-12 -67h-123l-37 -213h118z" />
    <glyph glyph-name="Ebreve" unicode="&#x114;" horiz-adv-x="514" 
d="M537 614l-12 -71h-314l-34 -193h284l-12 -70h-284l-37 -209h314l-13 -71h-391l108 614h391zM357 666q-24 0 -43.5 7.5t-33.5 23t-19.5 38t-0.5 51.5h57q-6 -32 7.5 -48t39.5 -16t45 16t25 48h57q-11 -58 -45 -89t-89 -31z" />
    <glyph glyph-name="Ecaron" unicode="&#x11a;" horiz-adv-x="514" 
d="M537 614l-12 -71h-314l-34 -193h284l-12 -70h-284l-37 -209h314l-13 -71h-391l108 614h391zM250 787h66l46 -71l71 71h72l-114 -121h-70z" />
    <glyph glyph-name="Edotaccent" unicode="&#x116;" horiz-adv-x="514" 
d="M537 614l-12 -71h-314l-34 -193h284l-12 -70h-284l-37 -209h314l-13 -71h-391l108 614h391zM412 721q0 -20 -14 -34t-34 -14q-21 0 -35 14t-14 34q0 21 14 35t35 14q20 0 34 -14t14 -35z" />
    <glyph glyph-name="Emacron" unicode="&#x112;" horiz-adv-x="514" 
d="M537 614l-12 -71h-314l-34 -193h284l-12 -70h-284l-37 -209h314l-13 -71h-391l108 614h391zM259 732h214l-11 -61h-214z" />
    <glyph glyph-name="Eogonek" unicode="&#x118;" horiz-adv-x="514" 
d="M537 614l-12 -71h-314l-34 -193h284l-12 -70h-284l-37 -209h314l-13 -71h-391l108 614h391zM396 4l-31.5 -41l-22.5 -31t-13.5 -24t-4.5 -21q0 -19 18 -19q10 0 18.5 4t21.5 11l-9 -50q-13 -9 -26 -14t-29 -5q-27 0 -41.5 14.5t-14.5 37.5q0 18 6.5 34.5t17 33.5t24.5 34
l29 36h57z" />
    <glyph glyph-name="Gbreve" unicode="&#x11e;" horiz-adv-x="610" 
d="M305 -9q-57 0 -104 19.5t-80.5 55.5t-52 86t-18.5 112q0 69 22 134t62.5 115t97.5 80t128 30q48 0 88 -13.5t69.5 -38t47.5 -59.5t24 -78h-77q-12 53 -51 85t-101 32q-53 0 -95.5 -23t-72.5 -62.5t-46 -91.5t-16 -110q0 -44 12 -81.5t34.5 -64t55 -41.5t73.5 -15
q38 0 71.5 12.5t59.5 35.5t43 55t24 70h-145l12 68h219l-10 -60q-9 -55 -33 -101.5t-59.5 -80t-81 -52t-100.5 -18.5zM390 666q-24 0 -43.5 7.5t-33.5 23t-19.5 38t-0.5 51.5h57q-6 -32 7.5 -48t39.5 -16t45 16t25 48h57q-11 -58 -45 -89t-89 -31z" />
    <glyph glyph-name="Gcircumflex" unicode="&#x11c;" horiz-adv-x="610" 
d="M305 -9q-57 0 -104 19.5t-80.5 55.5t-52 86t-18.5 112q0 69 22 134t62.5 115t97.5 80t128 30q48 0 88 -13.5t69.5 -38t47.5 -59.5t24 -78h-77q-12 53 -51 85t-101 32q-53 0 -95.5 -23t-72.5 -62.5t-46 -91.5t-16 -110q0 -44 12 -81.5t34.5 -64t55 -41.5t73.5 -15
q38 0 71.5 12.5t59.5 35.5t43 55t24 70h-145l12 68h219l-10 -60q-9 -55 -33 -101.5t-59.5 -80t-81 -52t-100.5 -18.5zM512 669h-65l-47 71l-71 -71h-72l115 122h69z" />
    <glyph glyph-name="Gcommaaccent" unicode="&#x122;" horiz-adv-x="610" 
d="M305 -9q-57 0 -104 19.5t-80.5 55.5t-52 86t-18.5 112q0 69 22 134t62.5 115t97.5 80t128 30q48 0 88 -13.5t69.5 -38t47.5 -59.5t24 -78h-77q-12 53 -51 85t-101 32q-53 0 -95.5 -23t-72.5 -62.5t-46 -91.5t-16 -110q0 -44 12 -81.5t34.5 -64t55 -41.5t73.5 -15
q38 0 71.5 12.5t59.5 35.5t43 55t24 70h-145l12 68h219l-10 -60q-9 -55 -33 -101.5t-59.5 -80t-81 -52t-100.5 -18.5zM253 -140q-15 4 -24.5 15.5t-9.5 29.5q0 22 14 36t35 14t35.5 -14t14.5 -38q0 -17 -8 -31.5t-18 -26.5l-34 -46h-51z" />
    <glyph glyph-name="commaaccent" 
d="M243 -140q-15 4 -24.5 15.5t-9.5 29.5q0 22 14 36t35 14t35.5 -14t14.5 -38q0 -17 -8 -31.5t-18 -26.5l-34 -46h-51z" />
    <glyph glyph-name="Gdotaccent" unicode="&#x120;" horiz-adv-x="610" 
d="M305 -9q-57 0 -104 19.5t-80.5 55.5t-52 86t-18.5 112q0 69 22 134t62.5 115t97.5 80t128 30q48 0 88 -13.5t69.5 -38t47.5 -59.5t24 -78h-77q-12 53 -51 85t-101 32q-53 0 -95.5 -23t-72.5 -62.5t-46 -91.5t-16 -110q0 -44 12 -81.5t34.5 -64t55 -41.5t73.5 -15
q38 0 71.5 12.5t59.5 35.5t43 55t24 70h-145l12 68h219l-10 -60q-9 -55 -33 -101.5t-59.5 -80t-81 -52t-100.5 -18.5zM447 721q0 -20 -14 -34t-34 -14q-21 0 -35 14t-14 34q0 21 14 35t35 14q20 0 34 -14t14 -35z" />
    <glyph glyph-name="Hbar" unicode="&#x126;" horiz-adv-x="679" 
d="M82 496h57l21 118h79l-21 -118h347l21 118h79l-21 -118h57l-12 -66h-57l-75 -430h-79l44 255h-347l-44 -255h-79l75 430h-56zM534 321l19 109h-347l-19 -109h347z" />
    <glyph glyph-name="Hcircumflex" unicode="&#x124;" horiz-adv-x="651" 
d="M651 614l-108 -614h-79l49 280h-347l-49 -280h-79l108 614h79l-47 -263h347l47 263h79zM533 669h-65l-47 71l-71 -71h-72l115 122h69z" />
    <glyph glyph-name="Ibreve" unicode="&#x12c;" horiz-adv-x="225" 
d="M117 0h-79l108 614h79zM198 666q-24 0 -43.5 7.5t-33.5 23t-19.5 38t-0.5 51.5h57q-6 -32 7.5 -48t39.5 -16t45 16t25 48h57q-11 -58 -45 -89t-89 -31z" />
    <glyph glyph-name="Idotaccent" unicode="&#x130;" horiz-adv-x="225" 
d="M117 0h-79l108 614h79zM253 721q0 -20 -14 -34t-34 -14q-21 0 -35 14t-14 34q0 21 14 35t35 14q20 0 34 -14t14 -35z" />
    <glyph glyph-name="Imacron" unicode="&#x12a;" horiz-adv-x="225" 
d="M117 0h-79l108 614h79zM100 732h214l-11 -61h-214z" />
    <glyph glyph-name="Iogonek" unicode="&#x12e;" horiz-adv-x="225" 
d="M117 0q-16 -23 -29 -39.5t-21.5 -29.5t-13 -23.5t-4.5 -20.5q0 -19 18 -19q10 0 18.5 4t21.5 11l-9 -50q-13 -9 -26 -14t-29 -5q-27 0 -41.5 14.5t-14.5 37.5q0 35 22.5 66l51.5 68h-23l108 614h79z" />
    <glyph glyph-name="Itilde" unicode="&#x128;" horiz-adv-x="225" 
d="M117 0h-79l108 614h79zM348 785q-5 -26 -13.5 -48.5t-21 -37.5t-28 -23.5t-34.5 -8.5q-17 0 -29 9t-22 20t-19.5 20t-21.5 9q-17 0 -27.5 -15t-15.5 -40h-51q5 26 13.5 47.5t21 37.5t28 24.5t34.5 8.5q17 0 29 -9t22 -20t19 -20t22 -9q16 0 27 15t16 40h51z" />
    <glyph glyph-name="Jcircumflex" unicode="&#x134;" horiz-adv-x="487" 
d="M103 187v-11q0 -51 26.5 -82t80.5 -31q57 0 91.5 38t46.5 109l71 404h79l-72 -413q-9 -49 -28 -88t-46.5 -66t-63.5 -41.5t-78 -14.5q-44 0 -78.5 12.5t-59 35.5t-37.5 55.5t-13 72.5v12l1 8h80zM591 669h-65l-47 71l-71 -71h-72l115 122h69z" />
    <glyph glyph-name="Kcommaaccent" unicode="&#x136;" horiz-adv-x="558" 
d="M171 308l339 306h103l-314 -281l215 -333h-90l-186 283l-85 -74l-36 -209h-79l108 614h79zM210 -140q-15 4 -24.5 15.5t-9.5 29.5q0 22 14 36t35 14t35.5 -14t14.5 -38q0 -17 -8 -31.5t-18 -26.5l-34 -46h-51z" />
    <glyph glyph-name="Lacute" unicode="&#x139;" horiz-adv-x="503" 
d="M146 614h79l-96 -543h313l-12 -71h-392zM163 668l100 117h91l-112 -117h-79z" />
    <glyph glyph-name="Lcaron" unicode="&#x13d;" horiz-adv-x="503" 
d="M146 614h79l-96 -543h313l-12 -71h-392zM328 450l77 164h64l-78 -164h-63z" />
    <glyph glyph-name="caron.Slovak" 
d="M182 486l77 164h64l-78 -164h-63z" />
    <glyph glyph-name="Lcommaaccent" unicode="&#x13b;" horiz-adv-x="503" 
d="M146 614h79l-96 -543h313l-12 -71h-392zM206 -140q-15 4 -24.5 15.5t-9.5 29.5q0 22 14 36t35 14t35.5 -14t14.5 -38q0 -17 -8 -31.5t-18 -26.5l-34 -46h-51z" />
    <glyph glyph-name="Ldot" unicode="&#x13f;" horiz-adv-x="503" 
d="M146 614h79l-96 -543h313l-12 -71h-392zM436 309q0 -20 -14 -34t-34 -14q-21 0 -35 14t-14 34q0 21 14 35t35 14q20 0 34 -14t14 -35z" />
    <glyph glyph-name="Nacute" unicode="&#x143;" horiz-adv-x="623" 
d="M515 0h-58l-256 498l-87 -498h-76l108 614h75l242 -477l84 477h76zM350 668l100 117h91l-112 -117h-79z" />
    <glyph glyph-name="Ncaron" unicode="&#x147;" horiz-adv-x="623" 
d="M515 0h-58l-256 498l-87 -498h-76l108 614h75l242 -477l84 477h76zM290 787h66l46 -71l71 71h72l-114 -121h-70z" />
    <glyph glyph-name="Ncommaaccent" unicode="&#x145;" horiz-adv-x="624" 
d="M515 0h-58l-256 498l-87 -498h-76l108 614h75l242 -477l84 477h76zM243 -140q-15 4 -24.5 15.5t-9.5 29.5q0 22 14 36t35 14t35.5 -14t14.5 -38q0 -17 -8 -31.5t-18 -26.5l-34 -46h-51z" />
    <glyph glyph-name="Eng" unicode="&#x14a;" horiz-adv-x="623" 
d="M201 498l-87 -498h-76l108 614h75l242 -477l84 477h76l-104 -591q-19 -111 -71 -160.5t-136 -49.5q-35 0 -60.5 10t-42.5 21l13 76q21 -16 43.5 -25t49.5 -9q28 0 48.5 8.5t35.5 25.5t25.5 44t17.5 65z" />
    <glyph glyph-name="Obreve" unicode="&#x14e;" horiz-adv-x="629" 
d="M299 62q51 0 93.5 22.5t72.5 61.5t47 91t17 112q0 44 -11.5 80.5t-33.5 64t-53 43t-71 15.5q-51 0 -93.5 -22.5t-72.5 -61.5t-47 -91.5t-17 -111.5q0 -44 11.5 -80.5t33.5 -64t53 -43t71 -15.5zM299 -9q-56 0 -101.5 20t-78.5 55.5t-51 86t-18 112.5q0 72 23 137
t64.5 114.5t98.5 78t124 28.5q56 0 101.5 -20t78.5 -55.5t51 -86.5t18 -112q0 -72 -23 -137t-64.5 -114.5t-98.5 -78t-124 -28.5zM394 666q-24 0 -43.5 7.5t-33.5 23t-19.5 38t-0.5 51.5h57q-6 -32 7.5 -48t39.5 -16t45 16t25 48h57q-11 -58 -45 -89t-89 -31z" />
    <glyph glyph-name="Ohungarumlaut" unicode="&#x150;" horiz-adv-x="629" 
d="M299 62q51 0 93.5 22.5t72.5 61.5t47 91t17 112q0 44 -11.5 80.5t-33.5 64t-53 43t-71 15.5q-51 0 -93.5 -22.5t-72.5 -61.5t-47 -91.5t-17 -111.5q0 -44 11.5 -80.5t33.5 -64t53 -43t71 -15.5zM299 -9q-56 0 -101.5 20t-78.5 55.5t-51 86t-18 112.5q0 72 23 137
t64.5 114.5t98.5 78t124 28.5q56 0 101.5 -20t78.5 -55.5t51 -86.5t18 -112q0 -72 -23 -137t-64.5 -114.5t-98.5 -78t-124 -28.5zM288 668l87 117h70l-89 -117h-68zM416 668l87 117h69l-88 -117h-68z" />
    <glyph glyph-name="hungarumlaut.cap" 
d="M108 668l87 117h70l-89 -117h-68zM236 668l87 117h69l-88 -117h-68z" />
    <glyph glyph-name="Omacron" unicode="&#x14c;" horiz-adv-x="629" 
d="M299 62q51 0 93.5 22.5t72.5 61.5t47 91t17 112q0 44 -11.5 80.5t-33.5 64t-53 43t-71 15.5q-51 0 -93.5 -22.5t-72.5 -61.5t-47 -91.5t-17 -111.5q0 -44 11.5 -80.5t33.5 -64t53 -43t71 -15.5zM299 -9q-56 0 -101.5 20t-78.5 55.5t-51 86t-18 112.5q0 72 23 137
t64.5 114.5t98.5 78t124 28.5q56 0 101.5 -20t78.5 -55.5t51 -86.5t18 -112q0 -72 -23 -137t-64.5 -114.5t-98.5 -78t-124 -28.5zM296 732h214l-11 -61h-214z" />
    <glyph glyph-name="Oslashacute" unicode="&#x1fe;" horiz-adv-x="639" 
d="M571 623l45 -33l-54 -63q21 -29 34 -66q18 -51 18 -112q0 -72 -23 -137t-64.5 -114.5t-98.5 -78t-124 -28.5q-56 0 -102 20q-29 13 -54 32l-50 -58l-46 33l57 66q-23 30 -36 68q-18 51 -18 113q0 72 23 137t64.5 114.5t98.5 78t124 28.5q56 0 102 -20q31 -14 57 -35z
M436 536q-31 16 -71 16q-51 0 -93.5 -22.5t-72.5 -61.5t-47 -91.5t-17 -111.5q0 -44 11 -81q7 -20 16 -38l312 364q-17 16 -38 26zM304 62q51 0 93.5 22.5t72.5 61.5t47 91t17 112q0 44 -12 80q-6 19 -14 35l-311 -363q16 -14 36 -24q31 -15 71 -15zM348 668l100 117h91
l-112 -117h-79z" />
    <glyph glyph-name="Racute" unicode="&#x154;" horiz-adv-x="549" 
d="M162 260l-45 -260h-79l108 614h217q43 0 77 -10t56.5 -29.5t34.5 -49t12 -66.5q0 -48 -17.5 -85.5t-48.5 -62.5t-74 -38q-22 -7 -47 -10l135 -263h-85l-131 260h-113zM174 327h146q66 0 105 33t39 97q0 41 -27.5 64.5t-82.5 23.5h-142zM310 668l100 117h91l-112 -117h-79
z" />
    <glyph glyph-name="Rcaron" unicode="&#x158;" horiz-adv-x="549" 
d="M162 260l-45 -260h-79l108 614h217q43 0 77 -10t56.5 -29.5t34.5 -49t12 -66.5q0 -48 -17.5 -85.5t-48.5 -62.5t-74 -38q-22 -7 -47 -10l135 -263h-85l-131 260h-113zM174 327h146q66 0 105 33t39 97q0 41 -27.5 64.5t-82.5 23.5h-142zM250 787h66l46 -71l71 71h72
l-114 -121h-70z" />
    <glyph glyph-name="Rcommaaccent" unicode="&#x156;" horiz-adv-x="549" 
d="M162 260l-45 -260h-79l108 614h217q43 0 77 -10t56.5 -29.5t34.5 -49t12 -66.5q0 -48 -17.5 -85.5t-48.5 -62.5t-74 -38q-22 -7 -47 -10l135 -263h-85l-131 260h-113zM174 327h146q66 0 105 33t39 97q0 41 -27.5 64.5t-82.5 23.5h-142zM204 -140q-15 4 -24.5 15.5
t-9.5 29.5q0 22 14 36t35 14t35.5 -14t14.5 -38q0 -17 -8 -31.5t-18 -26.5l-34 -46h-51z" />
    <glyph glyph-name="Sacute" unicode="&#x15a;" horiz-adv-x="509" 
d="M429 453q-6 44 -40.5 73.5t-94.5 29.5q-29 0 -54 -8t-43.5 -22t-29 -35t-10.5 -48q0 -31 19 -50.5t60 -31.5l103 -31q60 -18 92 -52t32 -90q0 -46 -18 -82.5t-48.5 -62t-71 -39t-85.5 -13.5q-46 0 -85 11.5t-68.5 33.5t-47.5 55.5t-22 76.5h78q4 -28 17 -48.5t32 -34
t43.5 -20.5t52.5 -7q32 0 58.5 8t46 23.5t30.5 38t11 52.5q0 28 -18 48.5t-63 34.5l-104 31q-27 8 -49 19.5t-38 28.5t-25 39.5t-9 52.5q0 42 16 77t45 59.5t68 38.5t85 14q48 0 86.5 -12.5t65 -35t42 -53.5t18.5 -69h-77zM277 668l100 117h91l-112 -117h-79z" />
    <glyph glyph-name="Scedilla" unicode="&#x15e;" horiz-adv-x="509" 
d="M429 453q-6 44 -40.5 73.5t-94.5 29.5q-29 0 -54 -8t-43.5 -22t-29 -35t-10.5 -48q0 -31 19 -50.5t60 -31.5l103 -31q60 -18 92 -52t32 -90q0 -46 -18 -82.5t-48.5 -62t-71 -39t-85.5 -13.5q-46 0 -85 11.5t-68.5 33.5t-47.5 55.5t-22 76.5h78q4 -28 17 -48.5t32 -34
t43.5 -20.5t52.5 -7q32 0 58.5 8t46 23.5t30.5 38t11 52.5q0 28 -18 48.5t-63 34.5l-104 31q-27 8 -49 19.5t-38 28.5t-25 39.5t-9 52.5q0 42 16 77t45 59.5t68 38.5t85 14q48 0 86.5 -12.5t65 -35t42 -53.5t18.5 -69h-77zM73 -183l89 132h78l-92 -132h-75z" />
    <glyph glyph-name="Scircumflex" unicode="&#x15c;" horiz-adv-x="509" 
d="M429 453q-6 44 -40.5 73.5t-94.5 29.5q-29 0 -54 -8t-43.5 -22t-29 -35t-10.5 -48q0 -31 19 -50.5t60 -31.5l103 -31q60 -18 92 -52t32 -90q0 -46 -18 -82.5t-48.5 -62t-71 -39t-85.5 -13.5q-46 0 -85 11.5t-68.5 33.5t-47.5 55.5t-22 76.5h78q4 -28 17 -48.5t32 -34
t43.5 -20.5t52.5 -7q32 0 58.5 8t46 23.5t30.5 38t11 52.5q0 28 -18 48.5t-63 34.5l-104 31q-27 8 -49 19.5t-38 28.5t-25 39.5t-9 52.5q0 42 16 77t45 59.5t68 38.5t85 14q48 0 86.5 -12.5t65 -35t42 -53.5t18.5 -69h-77zM447 669h-65l-47 71l-71 -71h-72l115 122h69z" />
    <glyph glyph-name="Scommaaccent" unicode="&#x218;" horiz-adv-x="509" 
d="M429 453q-6 44 -40.5 73.5t-94.5 29.5q-29 0 -54 -8t-43.5 -22t-29 -35t-10.5 -48q0 -31 19 -50.5t60 -31.5l103 -31q60 -18 92 -52t32 -90q0 -46 -18 -82.5t-48.5 -62t-71 -39t-85.5 -13.5q-46 0 -85 11.5t-68.5 33.5t-47.5 55.5t-22 76.5h78q4 -28 17 -48.5t32 -34
t43.5 -20.5t52.5 -7q32 0 58.5 8t46 23.5t30.5 38t11 52.5q0 28 -18 48.5t-63 34.5l-104 31q-27 8 -49 19.5t-38 28.5t-25 39.5t-9 52.5q0 42 16 77t45 59.5t68 38.5t85 14q48 0 86.5 -12.5t65 -35t42 -53.5t18.5 -69h-77zM185 -140q-15 4 -24.5 15.5t-9.5 29.5q0 22 14 36
t35 14t35.5 -14t14.5 -38q0 -17 -8 -31.5t-18 -26.5l-34 -46h-51z" />
    <glyph glyph-name="Tbar" unicode="&#x166;" horiz-adv-x="567" 
d="M154 351h113l34 192h-214l13 71h506l-12 -71h-214l-34 -192h114l-12 -67h-114l-50 -284h-79l50 284h-113z" />
    <glyph glyph-name="Tcaron" unicode="&#x164;" horiz-adv-x="567" 
d="M100 614h506l-12 -71h-214l-96 -543h-79l96 543h-214zM259 787h66l46 -71l71 71h72l-114 -121h-70z" />
    <glyph glyph-name="Tcommaaccent" unicode="&#x162;" horiz-adv-x="567" 
d="M100 614h506l-12 -71h-214l-96 -543h-79l96 543h-214zM213 -140q-15 4 -24.5 15.5t-9.5 29.5q0 22 14 36t35 14t35.5 -14t14.5 -38q0 -17 -8 -31.5t-18 -26.5l-34 -46h-51z" />
    <glyph glyph-name="Ubreve" unicode="&#x16c;" horiz-adv-x="606" 
d="M282 -9q-48 0 -88 12.5t-69 37t-45 62t-16 85.5q0 14 1.5 29t5.5 36l63 361h79l-63 -361q-2 -14 -3.5 -27.5t-1.5 -25.5q0 -34 9 -60t27 -43.5t43.5 -26t57.5 -8.5q78 0 126 46.5t65 144.5l64 361h79l-65 -371q-11 -62 -34.5 -109t-58.5 -79t-79.5 -48t-96.5 -16z
M383 666q-24 0 -43.5 7.5t-33.5 23t-19.5 38t-0.5 51.5h57q-6 -32 7.5 -48t39.5 -16t45 16t25 48h57q-11 -58 -45 -89t-89 -31z" />
    <glyph glyph-name="Uhungarumlaut" unicode="&#x170;" horiz-adv-x="606" 
d="M282 -9q-48 0 -88 12.5t-69 37t-45 62t-16 85.5q0 14 1.5 29t5.5 36l63 361h79l-63 -361q-2 -14 -3.5 -27.5t-1.5 -25.5q0 -34 9 -60t27 -43.5t43.5 -26t57.5 -8.5q78 0 126 46.5t65 144.5l64 361h79l-65 -371q-11 -62 -34.5 -109t-58.5 -79t-79.5 -48t-96.5 -16z
M274 668l87 117h70l-89 -117h-68zM402 668l87 117h69l-88 -117h-68z" />
    <glyph glyph-name="Umacron" unicode="&#x16a;" horiz-adv-x="606" 
d="M282 -9q-48 0 -88 12.5t-69 37t-45 62t-16 85.5q0 14 1.5 29t5.5 36l63 361h79l-63 -361q-2 -14 -3.5 -27.5t-1.5 -25.5q0 -34 9 -60t27 -43.5t43.5 -26t57.5 -8.5q78 0 126 46.5t65 144.5l64 361h79l-65 -371q-11 -62 -34.5 -109t-58.5 -79t-79.5 -48t-96.5 -16z
M285 732h214l-11 -61h-214z" />
    <glyph glyph-name="Uogonek" unicode="&#x172;" horiz-adv-x="606" 
d="M282 -9q-48 0 -88 12.5t-69 37t-45 62t-16 85.5q0 14 1.5 29t5.5 36l63 361h79l-63 -361q-2 -14 -3.5 -27.5t-1.5 -25.5q0 -34 9 -60t27 -43.5t43.5 -26t57.5 -8.5q78 0 126 46.5t65 144.5l64 361h79l-65 -371q-8 -42 -20.5 -75t-29.5 -59t-38 -47.5t-44 -40.5
q-48 -38 -72.5 -74t-24.5 -60q0 -19 18 -19q10 0 18.5 4t21.5 11l-9 -50q-12 -9 -25.5 -14t-28.5 -5q-28 0 -42.5 14.5t-14.5 37.5q0 11 2.5 22t7 21.5t11 21t14 21l16 21.5t19.5 22q-12 -2 -23.5 -3t-24.5 -1z" />
    <glyph glyph-name="Uring" unicode="&#x16e;" horiz-adv-x="606" 
d="M282 -9q-48 0 -88 12.5t-69 37t-45 62t-16 85.5q0 14 1.5 29t5.5 36l63 361h79l-63 -361q-2 -14 -3.5 -27.5t-1.5 -25.5q0 -34 9 -60t27 -43.5t43.5 -26t57.5 -8.5q78 0 126 46.5t65 144.5l64 361h79l-65 -371q-11 -62 -34.5 -109t-58.5 -79t-79.5 -48t-96.5 -16z
M388 689q18 0 32.5 13t14.5 35q0 18 -12.5 30.5t-30.5 12.5q-19 0 -33.5 -13t-14.5 -34q0 -19 12.5 -31.5t31.5 -12.5zM386 648q-18 0 -33.5 6.5t-27 17.5t-17.5 26t-6 33q0 17 7 33.5t19 29t29 20t36 7.5q18 0 33.5 -6.5t27 -17.5t17.5 -26t6 -32q0 -18 -7 -34.5t-19 -29
t-29 -20t-36 -7.5z" />
    <glyph glyph-name="Utilde" unicode="&#x168;" horiz-adv-x="606" 
d="M282 -9q-48 0 -88 12.5t-69 37t-45 62t-16 85.5q0 14 1.5 29t5.5 36l63 361h79l-63 -361q-2 -14 -3.5 -27.5t-1.5 -25.5q0 -34 9 -60t27 -43.5t43.5 -26t57.5 -8.5q78 0 126 46.5t65 144.5l64 361h79l-65 -371q-11 -62 -34.5 -109t-58.5 -79t-79.5 -48t-96.5 -16z
M532 785q-5 -26 -13.5 -48.5t-21 -37.5t-28 -23.5t-34.5 -8.5q-17 0 -29 9t-22 20t-19.5 20t-21.5 9q-17 0 -27.5 -15t-15.5 -40h-51q5 26 13.5 47.5t21 37.5t28 24.5t34.5 8.5q17 0 29 -9t22 -20t19 -20t22 -9q16 0 27 15t16 40h51z" />
    <glyph glyph-name="Wacute" unicode="&#x1e82;" horiz-adv-x="771" 
d="M491 614l34 -488l221 488h78l-283 -614h-72l-37 479l-223 -479h-72l-42 614h76l31 -488l225 488h64zM423 668l100 117h91l-112 -117h-79z" />
    <glyph glyph-name="Wcircumflex" unicode="&#x174;" horiz-adv-x="771" 
d="M491 614l34 -488l221 488h78l-283 -614h-72l-37 479l-223 -479h-72l-42 614h76l31 -488l225 488h64zM593 669h-65l-47 71l-71 -71h-72l115 122h69z" />
    <glyph glyph-name="Wgrave" unicode="&#x1e80;" horiz-adv-x="771" 
d="M491 614l34 -488l221 488h78l-283 -614h-72l-37 479l-223 -479h-72l-42 614h76l31 -488l225 488h64zM433 668l-71 117h83l59 -117h-71z" />
    <glyph glyph-name="Wdieresis" unicode="&#x1e84;" horiz-adv-x="771" 
d="M491 614l34 -488l221 488h78l-283 -614h-72l-37 479l-223 -479h-72l-42 614h76l31 -488l225 488h64zM361 722q0 20 13.5 33t33.5 13q19 0 32.5 -13t13.5 -33q0 -19 -13.5 -32.5t-32.5 -13.5q-20 0 -33.5 13.5t-13.5 32.5zM501 722q0 20 13.5 33t32.5 13t33 -13t14 -33
q0 -19 -14 -32.5t-33 -13.5t-32.5 13.5t-13.5 32.5z" />
    <glyph glyph-name="Ycircumflex" unicode="&#x176;" horiz-adv-x="557" 
d="M526 614h87l-287 -361l-44 -253h-78l44 253l-159 361h83l126 -289zM486 669h-65l-47 71l-71 -71h-72l115 122h69z" />
    <glyph glyph-name="Ygrave" unicode="&#x1ef2;" horiz-adv-x="557" 
d="M526 614h87l-287 -361l-44 -253h-78l44 253l-159 361h83l126 -289zM326 668l-71 117h83l59 -117h-71z" />
    <glyph glyph-name="Zacute" unicode="&#x179;" horiz-adv-x="534" 
d="M459 0h-451l9 57l432 486h-339l13 71h441l-10 -56l-430 -487h347zM302 668l100 117h91l-112 -117h-79z" />
    <glyph glyph-name="Zdotaccent" unicode="&#x17b;" horiz-adv-x="534" 
d="M459 0h-451l9 57l432 486h-339l13 71h441l-10 -56l-430 -487h347zM405 721q0 -20 -14 -34t-34 -14q-21 0 -35 14t-14 34q0 21 14 35t35 14q20 0 34 -14t14 -35z" />
    <glyph glyph-name="abreve" unicode="&#x103;" horiz-adv-x="453" 
d="M354 0h-74l6 33q-17 -15 -47.5 -28t-68.5 -13q-31 0 -58.5 9t-47.5 25.5t-31.5 39.5t-11.5 53q0 35 16 63.5t42 49t60 31t71 10.5q19 0 36.5 -3t31.5 -8.5t25 -12t18 -14.5l11 58q1 6 1.5 12.5t0.5 11.5q0 31 -19 51t-60 20q-37 0 -62.5 -15.5t-42.5 -46.5h-74
q11 28 29 51.5t42 40.5t53.5 26t62.5 9q69 0 107.5 -35.5t38.5 -93.5q0 -7 -0.5 -14t-2.5 -15zM308 156q-6 24 -33.5 39.5t-64.5 15.5q-20 0 -40.5 -5t-37.5 -16t-27.5 -27.5t-10.5 -39.5q0 -17 7.5 -29.5t20.5 -21t29.5 -13t34.5 -4.5q37 0 68 15t45 40zM288 500
q-24 0 -44 8.5t-33 24.5t-18.5 40t0.5 55h57q-6 -34 5 -53.5t38 -19.5q28 0 46 19.5t24 53.5h58q-12 -63 -47 -95.5t-86 -32.5z" />
    <glyph glyph-name="amacron" unicode="&#x101;" horiz-adv-x="453" 
d="M354 0h-74l6 33q-17 -15 -47.5 -28t-68.5 -13q-31 0 -58.5 9t-47.5 25.5t-31.5 39.5t-11.5 53q0 35 16 63.5t42 49t60 31t71 10.5q19 0 36.5 -3t31.5 -8.5t25 -12t18 -14.5l11 58q1 6 1.5 12.5t0.5 11.5q0 31 -19 51t-60 20q-37 0 -62.5 -15.5t-42.5 -46.5h-74
q11 28 29 51.5t42 40.5t53.5 26t62.5 9q69 0 107.5 -35.5t38.5 -93.5q0 -7 -0.5 -14t-2.5 -15zM308 156q-6 24 -33.5 39.5t-64.5 15.5q-20 0 -40.5 -5t-37.5 -16t-27.5 -27.5t-10.5 -39.5q0 -17 7.5 -29.5t20.5 -21t29.5 -13t34.5 -4.5q37 0 68 15t45 40zM194 591h214
l-11 -61h-214z" />
    <glyph glyph-name="aogonek" unicode="&#x105;" horiz-adv-x="453" 
d="M308 156q-6 24 -33.5 39.5t-64.5 15.5q-20 0 -40.5 -5t-37.5 -16t-27.5 -27.5t-10.5 -39.5q0 -17 7.5 -29.5t20.5 -21t29.5 -13t34.5 -4.5q37 0 68 15t45 40zM286 33q-17 -15 -47.5 -28t-68.5 -13q-31 0 -58.5 9t-47.5 25.5t-31.5 39.5t-11.5 53q0 35 16 63.5t42 49
t60 31t71 10.5q19 0 36.5 -3t31.5 -8.5t25 -12t18 -14.5l11 58q1 6 1.5 12.5t0.5 11.5q0 31 -19 51t-60 20q-37 0 -62.5 -15.5t-42.5 -46.5h-74q11 28 29 51.5t42 40.5t53.5 26t62.5 9q69 0 107.5 -35.5t38.5 -93.5q0 -7 -0.5 -14t-2.5 -15l-52 -295l-29.5 -39.5
t-21.5 -29.5t-13.5 -23.5t-4.5 -20.5q0 -19 18 -19q10 0 19 4t21 11l-8 -50q-13 -9 -26.5 -14t-28.5 -5q-28 0 -42 14.5t-14 37.5q0 35 22.5 66l51.5 68h-18z" />
    <glyph glyph-name="aringacute" unicode="&#x1fb;" horiz-adv-x="453" 
d="M299 514q18 0 32.5 10t14.5 28q0 15 -12.5 24.5t-31.5 9.5q-18 0 -32.5 -10t-14.5 -28q0 -15 13 -24.5t31 -9.5zM297 476q-18 0 -33.5 5.5t-26.5 15t-17.5 22t-6.5 28.5q0 15 7 29t19.5 24.5t29 17t35.5 6.5q18 0 33.5 -5.5t26.5 -15t17.5 -22.5t6.5 -28t-7 -29
t-19.5 -24.5t-29 -17t-35.5 -6.5zM282 647l74 86h85l-86 -86h-73zM354 0h-74l6 33q-17 -15 -47.5 -28t-68.5 -13q-31 0 -58.5 9t-47.5 25.5t-31.5 39.5t-11.5 53q0 35 16 63.5t42 49t60 31t71 10.5q19 0 36.5 -3t31.5 -8.5t25 -12t18 -14.5l11 58q1 6 1.5 12.5t0.5 11.5
q0 31 -19 51t-60 20q-37 0 -62.5 -15.5t-42.5 -46.5h-74q11 28 29 51.5t42 40.5t53.5 26t62.5 9q69 0 107.5 -35.5t38.5 -93.5q0 -7 -0.5 -14t-2.5 -15zM308 156q-6 24 -33.5 39.5t-64.5 15.5q-20 0 -40.5 -5t-37.5 -16t-27.5 -27.5t-10.5 -39.5q0 -17 7.5 -29.5t20.5 -21
t29.5 -13t34.5 -4.5q37 0 68 15t45 40z" />
    <glyph glyph-name="aeacute" unicode="&#x1fd;" horiz-adv-x="738" 
d="M689 134q-19 -64 -70.5 -103.5t-126.5 -39.5q-56 0 -95 23.5t-58 68.5q-15 -21 -35 -37.5t-43.5 -28.5t-49.5 -18.5t-54 -6.5q-60 0 -98 32.5t-38 89.5q0 35 15.5 63.5t42.5 48t62.5 30t76.5 10.5h110q3 22 4.5 31t1.5 18q0 32 -18.5 52.5t-60.5 20.5q-37 0 -62 -15.5
t-43 -46.5h-74q11 28 29 51.5t42 40.5t53.5 26t62.5 9q24 0 45 -5t37 -15t28 -24.5t19 -32.5q25 33 64.5 55t86.5 22q41 0 72 -12.5t52 -35.5t31.5 -56t10.5 -73q0 -13 -2 -31t-6 -38h-315q-1 -6 -1 -12v-11q0 -62 28.5 -95.5t82.5 -33.5q41 0 72 20.5t45 58.5h76zM317 207
h-103q-23 0 -44.5 -4.5t-38.5 -15t-27.5 -26.5t-10.5 -41q0 -32 23 -48.5t57 -16.5q22 0 42 6t36.5 17t30 26t23.5 32zM540 389q-27 0 -50.5 -10t-41 -26.5t-30.5 -39t-20 -47.5h236q1 5 1 9v10q0 21 -6 40t-17.5 33t-29 22.5t-42.5 8.5zM382 516l103 134h81l-113 -134h-71z
" />
    <glyph glyph-name="cacute" unicode="&#x107;" horiz-adv-x="446" 
d="M403 134q-19 -66 -69 -104.5t-123 -38.5q-40 0 -73 14t-56 39.5t-35.5 61.5t-12.5 80q0 51 16 99.5t46 85.5t72.5 59.5t95.5 22.5q37 0 66 -10t49.5 -29t32.5 -45.5t14 -58.5h-76q-4 35 -26.5 56t-60.5 21q-37 0 -65 -17t-47.5 -45t-29.5 -64t-10 -75q0 -59 27.5 -94
t78.5 -35q41 0 69 21t41 56h76zM246 516l103 134h81l-113 -134h-71z" />
    <glyph glyph-name="ccaron" unicode="&#x10d;" horiz-adv-x="446" 
d="M403 134q-19 -66 -69 -104.5t-123 -38.5q-40 0 -73 14t-56 39.5t-35.5 61.5t-12.5 80q0 51 16 99.5t46 85.5t72.5 59.5t95.5 22.5q37 0 66 -10t49.5 -29t32.5 -45.5t14 -58.5h-76q-4 35 -26.5 56t-60.5 21q-37 0 -65 -17t-47.5 -45t-29.5 -64t-10 -75q0 -59 27.5 -94
t78.5 -35q41 0 69 21t41 56h76zM183 646h63l46 -88l78 88h68l-116 -136h-70z" />
    <glyph glyph-name="ccircumflex" unicode="&#x109;" horiz-adv-x="446" 
d="M403 134q-19 -66 -69 -104.5t-123 -38.5q-40 0 -73 14t-56 39.5t-35.5 61.5t-12.5 80q0 51 16 99.5t46 85.5t72.5 59.5t95.5 22.5q37 0 66 -10t49.5 -29t32.5 -45.5t14 -58.5h-76q-4 35 -26.5 56t-60.5 21q-37 0 -65 -17t-47.5 -45t-29.5 -64t-10 -75q0 -59 27.5 -94
t78.5 -35q41 0 69 21t41 56h76zM410 509h-63l-46 88l-78 -88h-68l117 136h69z" />
    <glyph glyph-name="cdotaccent" unicode="&#x10b;" horiz-adv-x="446" 
d="M403 134q-19 -66 -69 -104.5t-123 -38.5q-40 0 -73 14t-56 39.5t-35.5 61.5t-12.5 80q0 51 16 99.5t46 85.5t72.5 59.5t95.5 22.5q37 0 66 -10t49.5 -29t32.5 -45.5t14 -58.5h-76q-4 35 -26.5 56t-60.5 21q-37 0 -65 -17t-47.5 -45t-29.5 -64t-10 -75q0 -59 27.5 -94
t78.5 -35q41 0 69 21t41 56h76zM346 578q0 -20 -14 -34t-34 -14q-21 0 -35 14t-14 34q0 21 14 35t35 14q20 0 34 -14t14 -35z" />
    <glyph glyph-name="dcaron" unicode="&#x10f;" horiz-adv-x="504" 
d="M435 650h76l-114 -650h-76l10 55q-21 -25 -56.5 -44.5t-75.5 -19.5q-42 0 -73 14.5t-51.5 40t-30.5 60.5t-10 75q0 53 17 102t48.5 87t74.5 60.5t95 22.5q46 0 77 -19t43 -43zM376 312q-11 34 -38.5 53.5t-65.5 19.5q-39 0 -69 -18t-50.5 -47t-31.5 -65.5t-11 -73.5
q0 -54 26.5 -88t78.5 -34q42 0 74 22t56 56zM530 486l77 164h64l-78 -164h-63z" />
    <glyph glyph-name="dcroat" unicode="&#x111;" horiz-adv-x="503" 
d="M312 565h108l15 85h76l-15 -85h56l-9 -54h-57l-89 -511h-76l10 55q-21 -25 -56.5 -44.5t-75.5 -19.5q-42 0 -73 14.5t-51.5 40t-30.5 60.5t-10 75q0 53 17 102t48.5 87t74.5 60.5t95 22.5q46 0 77 -19t43 -43l21 120h-108zM376 312q-11 34 -38.5 53.5t-65.5 19.5
q-39 0 -69 -18t-50.5 -47t-31.5 -65.5t-11 -73.5q0 -54 26.5 -88t78.5 -34q42 0 74 22t56 56z" />
    <glyph glyph-name="ebreve" unicode="&#x115;" horiz-adv-x="462" 
d="M414 134q-20 -64 -71.5 -103.5t-126.5 -39.5q-43 0 -76.5 14t-57 39.5t-36 61.5t-12.5 80q0 49 15.5 97t45.5 86t73 61t99 23q41 0 72 -12.5t52 -35.5t31.5 -56t10.5 -73q0 -13 -2 -30.5t-6 -37.5h-316v-22q0 -62 29 -96.5t82 -34.5q41 0 72 20.5t45 58.5h77zM358 265
q1 6 1 10v9q0 21 -5.5 40t-17.5 33.5t-29.5 23t-41.5 8.5q-39 0 -68.5 -18t-49.5 -47q-18 -26 -27 -59h238zM288 500q-24 0 -44 8.5t-33 24.5t-18.5 40t0.5 55h57q-6 -34 5 -53.5t38 -19.5q28 0 46 19.5t24 53.5h58q-12 -63 -47 -95.5t-86 -32.5z" />
    <glyph glyph-name="ecaron" unicode="&#x11b;" horiz-adv-x="462" 
d="M414 134q-20 -64 -71.5 -103.5t-126.5 -39.5q-43 0 -76.5 14t-57 39.5t-36 61.5t-12.5 80q0 49 15.5 97t45.5 86t73 61t99 23q41 0 72 -12.5t52 -35.5t31.5 -56t10.5 -73q0 -13 -2 -30.5t-6 -37.5h-316v-22q0 -62 29 -96.5t82 -34.5q41 0 72 20.5t45 58.5h77zM358 265
q1 6 1 10v9q0 21 -5.5 40t-17.5 33.5t-29.5 23t-41.5 8.5q-39 0 -68.5 -18t-49.5 -47q-18 -26 -27 -59h238zM184 646h63l46 -88l78 88h68l-116 -136h-70z" />
    <glyph glyph-name="edotaccent" unicode="&#x117;" horiz-adv-x="462" 
d="M414 134q-20 -64 -71.5 -103.5t-126.5 -39.5q-43 0 -76.5 14t-57 39.5t-36 61.5t-12.5 80q0 49 15.5 97t45.5 86t73 61t99 23q41 0 72 -12.5t52 -35.5t31.5 -56t10.5 -73q0 -13 -2 -30.5t-6 -37.5h-316v-22q0 -62 29 -96.5t82 -34.5q41 0 72 20.5t45 58.5h77zM358 265
q1 6 1 10v9q0 21 -5.5 40t-17.5 33.5t-29.5 23t-41.5 8.5q-39 0 -68.5 -18t-49.5 -47q-18 -26 -27 -59h238zM349 578q0 -20 -14 -34t-34 -14q-21 0 -35 14t-14 34q0 21 14 35t35 14q20 0 34 -14t14 -35z" />
    <glyph glyph-name="emacron" unicode="&#x113;" horiz-adv-x="462" 
d="M414 134q-20 -64 -71.5 -103.5t-126.5 -39.5q-43 0 -76.5 14t-57 39.5t-36 61.5t-12.5 80q0 49 15.5 97t45.5 86t73 61t99 23q41 0 72 -12.5t52 -35.5t31.5 -56t10.5 -73q0 -13 -2 -30.5t-6 -37.5h-316v-22q0 -62 29 -96.5t82 -34.5q41 0 72 20.5t45 58.5h77zM358 265
q1 6 1 10v9q0 21 -5.5 40t-17.5 33.5t-29.5 23t-41.5 8.5q-39 0 -68.5 -18t-49.5 -47q-18 -26 -27 -59h238zM194 591h214l-11 -61h-214z" />
    <glyph glyph-name="eogonek" unicode="&#x119;" horiz-adv-x="462" 
d="M414 134q-9 -26 -24.5 -49.5t-37.5 -49.5q-27 -30 -45.5 -52.5t-29.5 -40t-16 -31t-5 -24.5q0 -19 18 -19q9 0 18 4t22 11l-9 -50q-13 -9 -26.5 -14t-28.5 -5q-28 0 -42 14.5t-14 37.5q0 17 5.5 33.5t15 32.5t22 32.5t27.5 33.5q-11 -4 -23 -5.5t-25 -1.5q-43 0 -76.5 14
t-57 39.5t-36 61.5t-12.5 80q0 49 15.5 97t45.5 86t73 61t99 23q41 0 72 -12.5t52 -35.5t31.5 -56t10.5 -73q0 -13 -2 -30.5t-6 -37.5h-315q-1 -6 -1 -11v-11q0 -62 29 -96.5t82 -34.5q41 0 72 20.5t45 58.5h77zM265 389q-29 0 -52 -10t-41 -26.5t-31 -39t-20 -48.5h237
q1 6 1 10v9q0 21 -5.5 40t-17.5 33.5t-29.5 23t-41.5 8.5z" />
    <glyph glyph-name="gbreve" unicode="&#x11f;" horiz-adv-x="502" 
d="M333 67q-11 -13 -25.5 -24.5t-31.5 -20.5t-36 -14t-39 -5q-42 0 -73 14.5t-52 39.5t-31 59t-10 74q0 51 17 99t48 84.5t74 58t95 21.5q23 0 42.5 -5t35 -14t26 -20t17.5 -22l9 52h76l-74 -417q-17 -101 -74.5 -154t-146.5 -53q-39 0 -71 10.5t-54.5 29.5t-35.5 46t-13 61
h74q3 -42 30.5 -62.5t70.5 -20.5q63 0 98 38.5t47 105.5zM377 314q-11 32 -38.5 52t-66.5 20t-69 -17.5t-50.5 -45t-31 -62.5t-10.5 -71q0 -53 27 -86t79 -33q42 0 74.5 22t55.5 55zM310 500q-24 0 -44 8.5t-33 24.5t-18.5 40t0.5 55h57q-6 -34 5 -53.5t38 -19.5
q28 0 46 19.5t24 53.5h58q-12 -63 -47 -95.5t-86 -32.5z" />
    <glyph glyph-name="gcircumflex" unicode="&#x11d;" horiz-adv-x="502" 
d="M333 67q-11 -13 -25.5 -24.5t-31.5 -20.5t-36 -14t-39 -5q-42 0 -73 14.5t-52 39.5t-31 59t-10 74q0 51 17 99t48 84.5t74 58t95 21.5q23 0 42.5 -5t35 -14t26 -20t17.5 -22l9 52h76l-74 -417q-17 -101 -74.5 -154t-146.5 -53q-39 0 -71 10.5t-54.5 29.5t-35.5 46t-13 61
h74q3 -42 30.5 -62.5t70.5 -20.5q63 0 98 38.5t47 105.5zM377 314q-11 32 -38.5 52t-66.5 20t-69 -17.5t-50.5 -45t-31 -62.5t-10.5 -71q0 -53 27 -86t79 -33q42 0 74.5 22t55.5 55zM433 509h-63l-46 88l-78 -88h-68l117 136h69z" />
    <glyph glyph-name="gcommaaccent" unicode="&#x123;" horiz-adv-x="502" 
d="M333 67q-11 -13 -25.5 -24.5t-31.5 -20.5t-36 -14t-39 -5q-42 0 -73 14.5t-52 39.5t-31 59t-10 74q0 51 17 99t48 84.5t74 58t95 21.5q23 0 42.5 -5t35 -14t26 -20t17.5 -22l9 52h76l-74 -417q-17 -101 -74.5 -154t-146.5 -53q-39 0 -71 10.5t-54.5 29.5t-35.5 46t-13 61
h74q3 -42 30.5 -62.5t70.5 -20.5q63 0 98 38.5t47 105.5zM377 314q-11 32 -38.5 52t-66.5 20t-69 -17.5t-50.5 -45t-31 -62.5t-10.5 -71q0 -53 27 -86t79 -33q42 0 74.5 22t55.5 55zM334 615q15 -4 24.5 -15.5t9.5 -29.5q0 -21 -14 -35t-35 -14t-35.5 14t-14.5 38
q0 16 7.5 30.5t17.5 27.5l38 49h51z" />
    <glyph glyph-name="commaturn" 
d="M258 615q15 -4 24.5 -15.5t9.5 -29.5q0 -21 -14 -35t-35 -14t-35.5 14t-14.5 38q0 16 7.5 30.5t17.5 27.5l38 49h51z" />
    <glyph glyph-name="gdotaccent" unicode="&#x121;" horiz-adv-x="502" 
d="M333 67q-11 -13 -25.5 -24.5t-31.5 -20.5t-36 -14t-39 -5q-42 0 -73 14.5t-52 39.5t-31 59t-10 74q0 51 17 99t48 84.5t74 58t95 21.5q23 0 42.5 -5t35 -14t26 -20t17.5 -22l9 52h76l-74 -417q-17 -101 -74.5 -154t-146.5 -53q-39 0 -71 10.5t-54.5 29.5t-35.5 46t-13 61
h74q3 -42 30.5 -62.5t70.5 -20.5q63 0 98 38.5t47 105.5zM377 314q-11 32 -38.5 52t-66.5 20t-69 -17.5t-50.5 -45t-31 -62.5t-10.5 -71q0 -53 27 -86t79 -33q42 0 74.5 22t55.5 55zM370 578q0 -20 -14 -34t-34 -14q-21 0 -35 14t-14 34q0 21 14 35t35 14q20 0 34 -14
t14 -35z" />
    <glyph glyph-name="hbar" unicode="&#x127;" horiz-adv-x="490" 
d="M314 453q64 0 97.5 -35.5t33.5 -92.5q0 -16 -3 -34l-51 -291h-76l49 279q2 8 2.5 15t0.5 14q0 34 -19.5 55t-60.5 21q-20 0 -39.5 -6.5t-36 -18t-30.5 -26.5t-23 -33l-53 -300h-76l89 511h-56l9 54h57l15 85h76l-15 -85h108l-10 -54h-108l-21 -124q22 27 58.5 46.5
t82.5 19.5z" />
    <glyph glyph-name="hcircumflex" unicode="&#x125;" horiz-adv-x="490" 
d="M314 453q64 0 97.5 -35.5t33.5 -92.5q0 -16 -3 -34l-51 -291h-76l49 279q2 8 2.5 15t0.5 14q0 34 -19.5 55t-60.5 21q-20 0 -39.5 -6.5t-36 -18t-30.5 -26.5t-23 -33l-53 -300h-76l114 650h76l-46 -263q22 27 58.5 46.5t82.5 19.5zM422 676h-65l-47 71l-71 -71h-72
l115 122h69z" />
    <glyph glyph-name="ibreve" unicode="&#x12d;" horiz-adv-x="209" 
d="M156 500q-23 0 -40.5 8.5t-28.5 24.5t-14.5 40t2.5 55h55q-6 -34 1 -53.5t32 -19.5q24 0 38.5 19.5t20.5 53.5h56q-11 -63 -43.5 -95.5t-78.5 -32.5zM105 0h-76l78 444h76z" />
    <glyph glyph-name="idotaccent" horiz-adv-x="209" 
d="M105 0h-76l78 444h76zM217 578q0 -20 -14 -34t-34 -14q-21 0 -35 14t-14 34q0 21 14 35t35 14q20 0 34 -14t14 -35z" />
    <glyph glyph-name="imacron" unicode="&#x12b;" horiz-adv-x="209" 
d="M81 591h179l-11 -61h-179zM105 0h-76l78 444h76z" />
    <glyph glyph-name="iogonek" unicode="&#x12f;" horiz-adv-x="210" 
d="M218 578q0 -10 -4 -18.5t-10.5 -15.5t-16 -10.5t-18.5 -3.5q-20 0 -34.5 14t-14.5 34q0 11 4 19.5t10.5 15t15.5 10.5t19 4q20 0 34.5 -14t14.5 -35zM107 444h76l-78 -444q-16 -23 -29 -39.5t-21.5 -29.5t-13 -23.5t-4.5 -20.5q0 -19 18 -19q10 0 18.5 4t21.5 11l-9 -50
q-13 -9 -26 -14t-29 -5q-27 0 -41.5 14.5t-14.5 37.5q0 35 22.5 66l51.5 68h-20z" />
    <glyph glyph-name="itilde" unicode="&#x129;" horiz-adv-x="209" 
d="M288 633q-4 -26 -12.5 -48t-19 -37.5t-24 -24t-29.5 -8.5q-14 0 -23.5 8.5t-16.5 19.5t-13.5 19.5t-16.5 8.5q-14 0 -22 -14t-13 -39h-51q5 26 13 48t19 37.5t24.5 24t28.5 8.5t24.5 -8.5t16.5 -19t14 -19.5t15 -9q14 0 22.5 14t13.5 39h50zM105 0h-76l78 444h76z" />
    <glyph glyph-name="dotlessj" unicode="&#x237;" horiz-adv-x="209" 
d="M-81 -101q7 -6 17 -9.5t21 -3.5q27 0 41.5 15.5t21.5 53.5l87 489h76l-88 -495q-11 -62 -45.5 -95t-90.5 -33q-19 0 -31.5 3t-20.5 8z" />
    <glyph glyph-name="jcircumflex" unicode="&#x135;" horiz-adv-x="209" 
d="M264 509h-63l-30 85l-59 -85h-66l98 136h69zM-81 -101q7 -6 17 -9.5t21 -3.5q27 0 41.5 15.5t21.5 53.5l87 489h76l-88 -495q-11 -62 -45.5 -95t-90.5 -33q-19 0 -31.5 3t-20.5 8z" />
    <glyph glyph-name="kcommaaccent" unicode="&#x137;" horiz-adv-x="455" 
d="M190 206l-57 -46l-28 -160h-76l114 650h76l-71 -402l234 196h103l-237 -194l166 -250h-86zM164 -140q-15 4 -24.5 15.5t-9.5 29.5q0 22 14 36t35 14t35.5 -14t14.5 -38q0 -17 -8 -31.5t-18 -26.5l-34 -46h-51z" />
    <glyph glyph-name="kgreenlandic" unicode="&#x138;" horiz-adv-x="462" 
d="M190 206l-57 -46l-28 -160h-76l77 444h76l-34 -196l234 196h103l-237 -194l166 -250h-86z" />
    <glyph glyph-name="lacute" unicode="&#x13a;" horiz-adv-x="209" 
d="M105 0h-76l114 650h76zM149 683l100 117h91l-112 -117h-79z" />
    <glyph glyph-name="lcaron" unicode="&#x13e;" horiz-adv-x="209" 
d="M105 0h-76l114 650h76zM236 486l77 164h64l-78 -164h-63z" />
    <glyph glyph-name="lcommaaccent" unicode="&#x13c;" horiz-adv-x="209" 
d="M105 0h-76l114 650h76zM34 -140q-15 4 -24.5 15.5t-9.5 29.5q0 22 14 36t35 14t35.5 -14t14.5 -38q0 -17 -8 -31.5t-18 -26.5l-34 -46h-51z" />
    <glyph glyph-name="ldot" unicode="&#x140;" horiz-adv-x="338" 
d="M105 0h-76l114 650h76zM339 325q0 -20 -14 -34t-34 -14q-21 0 -35 14t-14 34q0 21 14 35t35 14q20 0 34 -14t14 -35z" />
    <glyph glyph-name="nacute" unicode="&#x144;" horiz-adv-x="490" 
d="M107 444h76l-10 -57q23 27 59 46.5t82 19.5q64 0 97.5 -35.5t33.5 -92.5q0 -16 -3 -34l-51 -291h-76l49 279q2 8 2.5 15t0.5 14q0 34 -19.5 55t-60.5 21q-20 0 -39.5 -6.5t-36 -18t-30.5 -26.5t-23 -33l-53 -300h-76zM261 516l103 134h81l-113 -134h-71z" />
    <glyph glyph-name="ncaron" unicode="&#x148;" horiz-adv-x="490" 
d="M107 444h76l-10 -57q23 27 59 46.5t82 19.5q64 0 97.5 -35.5t33.5 -92.5q0 -16 -3 -34l-51 -291h-76l49 279q2 8 2.5 15t0.5 14q0 34 -19.5 55t-60.5 21q-20 0 -39.5 -6.5t-36 -18t-30.5 -26.5t-23 -33l-53 -300h-76zM199 646h63l46 -88l78 88h68l-116 -136h-70z" />
    <glyph glyph-name="ncommaaccent" unicode="&#x146;" horiz-adv-x="490" 
d="M107 444h76l-10 -57q23 27 59 46.5t82 19.5q64 0 97.5 -35.5t33.5 -92.5q0 -16 -3 -34l-51 -291h-76l49 279q2 8 2.5 15t0.5 14q0 34 -19.5 55t-60.5 21q-20 0 -39.5 -6.5t-36 -18t-30.5 -26.5t-23 -33l-53 -300h-76zM178 -140q-15 4 -24.5 15.5t-9.5 29.5q0 22 14 36
t35 14t35.5 -14t14.5 -38q0 -17 -8 -31.5t-18 -26.5l-34 -46h-51z" />
    <glyph glyph-name="eng" unicode="&#x14b;" horiz-adv-x="490" 
d="M205 -101q7 -6 17 -9.5t22 -3.5q27 0 41.5 15.5t21.5 53.5l57 324q2 8 2.5 15t0.5 14q0 34 -19.5 55t-60.5 21q-20 0 -39.5 -6.5t-36 -18t-30.5 -26.5t-23 -33l-53 -300h-76l78 444h76l-10 -57q23 27 59 46.5t82 19.5q64 0 97.5 -35.5t33.5 -92.5q0 -16 -3 -34l-60 -342
q-11 -62 -45.5 -95t-91.5 -33q-18 0 -30.5 3t-20.5 8z" />
    <glyph glyph-name="obreve" unicode="&#x14f;" horiz-adv-x="478" 
d="M217 57q33 0 60 15t47.5 42t31.5 64.5t11 81.5q0 58 -27.5 92.5t-78.5 34.5q-33 0 -60.5 -15t-47.5 -42t-31.5 -64.5t-11.5 -81.5q0 -58 28 -92.5t79 -34.5zM216 -9q-43 0 -77 14t-57.5 39.5t-35.5 61t-12 78.5q0 58 18 107.5t48.5 85.5t72 56t88.5 20q44 0 77.5 -14
t57 -39.5t36 -61t12.5 -78.5q0 -58 -18 -107.5t-49 -85.5t-72 -56t-89 -20zM288 500q-24 0 -44 8.5t-33 24.5t-18.5 40t0.5 55h57q-6 -34 5 -53.5t38 -19.5q28 0 46 19.5t24 53.5h58q-12 -63 -47 -95.5t-86 -32.5z" />
    <glyph glyph-name="ohungarumlaut" unicode="&#x151;" horiz-adv-x="478" 
d="M217 57q33 0 60 15t47.5 42t31.5 64.5t11 81.5q0 58 -27.5 92.5t-78.5 34.5q-33 0 -60.5 -15t-47.5 -42t-31.5 -64.5t-11.5 -81.5q0 -58 28 -92.5t79 -34.5zM216 -9q-43 0 -77 14t-57.5 39.5t-35.5 61t-12 78.5q0 58 18 107.5t48.5 85.5t72 56t88.5 20q44 0 77.5 -14
t57 -39.5t36 -61t12.5 -78.5q0 -58 -18 -107.5t-49 -85.5t-72 -56t-89 -20zM186 516l90 134h66l-91 -134h-65zM309 516l90 134h66l-91 -134h-65z" />
    <glyph glyph-name="omacron" unicode="&#x14d;" horiz-adv-x="478" 
d="M217 57q33 0 60 15t47.5 42t31.5 64.5t11 81.5q0 58 -27.5 92.5t-78.5 34.5q-33 0 -60.5 -15t-47.5 -42t-31.5 -64.5t-11.5 -81.5q0 -58 28 -92.5t79 -34.5zM216 -9q-43 0 -77 14t-57.5 39.5t-35.5 61t-12 78.5q0 58 18 107.5t48.5 85.5t72 56t88.5 20q44 0 77.5 -14
t57 -39.5t36 -61t12.5 -78.5q0 -58 -18 -107.5t-49 -85.5t-72 -56t-89 -20zM195 591h214l-11 -61h-214z" />
    <glyph glyph-name="oslashacute" unicode="&#x1ff;" horiz-adv-x="489" 
d="M251 516l103 134h81l-113 -134h-71zM425 475l39 -29l-51 -61q15 -21 24 -47q12 -35 12 -78q0 -58 -18 -107.5t-48.5 -85.5t-72 -56t-88.5 -20q-43 0 -77 14q-17 7 -32 17l-46 -56l-39 29l50 60q-17 22 -26 50q-12 36 -12 79q0 58 18 107.5t48.5 85.5t72 56t88.5 20
q44 0 77 -14q19 -8 35 -20zM266 389q-32 0 -60 -15.5t-48.5 -43t-32.5 -65t-12 -81.5q0 -41 13 -70l209 253q-26 22 -69 22zM223 55q32 0 60 15.5t49 43t32.5 65t11.5 81.5q0 37 -12 65l-207 -251q25 -19 66 -19z" />
    <glyph glyph-name="racute" unicode="&#x155;" horiz-adv-x="322" 
d="M323 369q-9 6 -21.5 9t-27.5 3q-35 0 -67 -22t-50 -61l-52 -298h-76l78 444h76l-10 -58q19 29 51.5 48t69.5 19q15 0 25.5 -2t16.5 -5zM192 516l103 134h81l-113 -134h-71z" />
    <glyph glyph-name="rcaron" unicode="&#x159;" horiz-adv-x="322" 
d="M323 369q-9 6 -21.5 9t-27.5 3q-35 0 -67 -22t-50 -61l-52 -298h-76l78 444h76l-10 -58q19 29 51.5 48t69.5 19q15 0 25.5 -2t16.5 -5zM130 646h63l46 -88l78 88h68l-116 -136h-70z" />
    <glyph glyph-name="rcommaaccent" unicode="&#x157;" horiz-adv-x="322" 
d="M323 369q-9 6 -21.5 9t-27.5 3q-35 0 -67 -22t-50 -61l-52 -298h-76l78 444h76l-10 -58q19 29 51.5 48t69.5 19q15 0 25.5 -2t16.5 -5zM36 -140q-15 4 -24.5 15.5t-9.5 29.5q0 22 14 36t35 14t35.5 -14t14.5 -38q0 -17 -8 -31.5t-18 -26.5l-34 -46h-51z" />
    <glyph glyph-name="sacute" unicode="&#x15b;" horiz-adv-x="415" 
d="M89 124q6 -37 34 -53.5t66 -16.5q20 0 37.5 4.5t31 12.5t21.5 21.5t8 32.5q0 20 -13 33.5t-43 23.5l-77 23q-43 13 -68.5 37t-25.5 72q0 31 13 56.5t35.5 44t53 28.5t64.5 10q39 0 68 -9.5t49.5 -26.5t32 -40.5t14.5 -51.5h-73q-6 29 -28 47t-63 18q-19 0 -35.5 -4.5
t-29 -13t-20 -21.5t-7.5 -30q0 -19 12.5 -30.5t38.5 -20.5l77 -24q51 -16 75 -43t24 -68q0 -35 -13.5 -61.5t-37 -45t-55 -28t-66.5 -9.5q-39 0 -70 9.5t-53.5 27t-35.5 42t-16 54.5h75zM218 516l103 134h81l-113 -134h-71z" />
    <glyph glyph-name="scedilla" unicode="&#x15f;" horiz-adv-x="415" 
d="M89 124q6 -37 34 -53.5t66 -16.5q20 0 37.5 4.5t31 12.5t21.5 21.5t8 32.5q0 20 -13 33.5t-43 23.5l-77 23q-43 13 -68.5 37t-25.5 72q0 31 13 56.5t35.5 44t53 28.5t64.5 10q39 0 68 -9.5t49.5 -26.5t32 -40.5t14.5 -51.5h-73q-6 29 -28 47t-63 18q-19 0 -35.5 -4.5
t-29 -13t-20 -21.5t-7.5 -30q0 -19 12.5 -30.5t38.5 -20.5l77 -24q51 -16 75 -43t24 -68q0 -35 -13.5 -61.5t-37 -45t-55 -28t-66.5 -9.5q-39 0 -70 9.5t-53.5 27t-35.5 42t-16 54.5h75zM36 -183l89 132h78l-92 -132h-75z" />
    <glyph glyph-name="scircumflex" unicode="&#x15d;" horiz-adv-x="415" 
d="M89 124q6 -37 34 -53.5t66 -16.5q20 0 37.5 4.5t31 12.5t21.5 21.5t8 32.5q0 20 -13 33.5t-43 23.5l-77 23q-43 13 -68.5 37t-25.5 72q0 31 13 56.5t35.5 44t53 28.5t64.5 10q39 0 68 -9.5t49.5 -26.5t32 -40.5t14.5 -51.5h-73q-6 29 -28 47t-63 18q-19 0 -35.5 -4.5
t-29 -13t-20 -21.5t-7.5 -30q0 -19 12.5 -30.5t38.5 -20.5l77 -24q51 -16 75 -43t24 -68q0 -35 -13.5 -61.5t-37 -45t-55 -28t-66.5 -9.5q-39 0 -70 9.5t-53.5 27t-35.5 42t-16 54.5h75zM381 509h-63l-46 88l-78 -88h-68l117 136h69z" />
    <glyph glyph-name="scommaaccent" unicode="&#x219;" horiz-adv-x="415" 
d="M89 124q6 -37 34 -53.5t66 -16.5q20 0 37.5 4.5t31 12.5t21.5 21.5t8 32.5q0 20 -13 33.5t-43 23.5l-77 23q-43 13 -68.5 37t-25.5 72q0 31 13 56.5t35.5 44t53 28.5t64.5 10q39 0 68 -9.5t49.5 -26.5t32 -40.5t14.5 -51.5h-73q-6 29 -28 47t-63 18q-19 0 -35.5 -4.5
t-29 -13t-20 -21.5t-7.5 -30q0 -19 12.5 -30.5t38.5 -20.5l77 -24q51 -16 75 -43t24 -68q0 -35 -13.5 -61.5t-37 -45t-55 -28t-66.5 -9.5q-39 0 -70 9.5t-53.5 27t-35.5 42t-16 54.5h75zM135 -140q-15 4 -24.5 15.5t-9.5 29.5q0 22 14 36t35 14t35.5 -14t14.5 -38
q0 -17 -8 -31.5t-18 -26.5l-34 -46h-51z" />
    <glyph glyph-name="tbar" unicode="&#x167;" horiz-adv-x="315" 
d="M36 280h63l19 100h-73l11 64h74l22 117h76l-22 -117h105l-11 -64h-106l-18 -100h89l-11 -61h-89l-17 -93q-2 -6 -2.5 -12t-0.5 -13q0 -23 12.5 -32.5t35.5 -9.5q16 0 33 4.5t30 12.5l-13 -70q-14 -7 -33 -11t-40 -4q-48 0 -76 22.5t-28 68.5q0 7 0.5 14.5t2.5 17.5
l19 105h-63z" />
    <glyph glyph-name="tcaron" unicode="&#x165;" horiz-adv-x="315" 
d="M119 380h-74l12 64h74l21 117h76l-21 -117h104l-11 -64h-105l-47 -254l-2 -12q-1 -6 -1 -13q0 -23 12.5 -32.5t36.5 -9.5q15 0 32 4.5t30 12.5l-12 -70q-14 -7 -33.5 -11t-40.5 -4q-47 0 -75.5 22.5t-28.5 68.5q0 7 1 14.5t3 17.5zM264 496l77 164h64l-78 -164h-63z" />
    <glyph glyph-name="tcommaaccent" unicode="&#x163;" horiz-adv-x="315" 
d="M119 380h-74l12 64h74l21 117h76l-21 -117h104l-11 -64h-105l-47 -254l-2 -12q-1 -6 -1 -13q0 -23 12.5 -32.5t36.5 -9.5q15 0 32 4.5t30 12.5l-12 -70q-14 -7 -33.5 -11t-40.5 -4q-47 0 -75.5 22.5t-28.5 68.5q0 7 1 14.5t3 17.5zM113 -140q-15 4 -24.5 15.5t-9.5 29.5
q0 22 14 36t35 14t35.5 -14t14.5 -38q0 -17 -8 -31.5t-18 -26.5l-34 -46h-51z" />
    <glyph glyph-name="ubreve" unicode="&#x16d;" horiz-adv-x="487" 
d="M381 0h-76l10 56q-23 -26 -59 -45.5t-82 -19.5q-63 0 -96 35t-33 92q0 17 3 35l51 291h76l-49 -282q-2 -8 -2.5 -16t-0.5 -15q0 -34 18 -54t59 -20q20 0 39.5 7t36.5 19t31 27t23 33l53 301h76zM291 500q-24 0 -44 8.5t-33 24.5t-18.5 40t0.5 55h57q-6 -34 5 -53.5
t38 -19.5q28 0 46 19.5t24 53.5h58q-12 -63 -47 -95.5t-86 -32.5z" />
    <glyph glyph-name="uhungarumlaut" unicode="&#x171;" horiz-adv-x="487" 
d="M381 0h-76l10 56q-23 -26 -59 -45.5t-82 -19.5q-63 0 -96 35t-33 92q0 17 3 35l51 291h76l-49 -282q-2 -8 -2.5 -16t-0.5 -15q0 -34 18 -54t59 -20q20 0 39.5 7t36.5 19t31 27t23 33l53 301h76zM190 516l90 134h66l-91 -134h-65zM313 516l90 134h66l-91 -134h-65z" />
    <glyph glyph-name="umacron" unicode="&#x16b;" horiz-adv-x="487" 
d="M381 0h-76l10 56q-23 -26 -59 -45.5t-82 -19.5q-63 0 -96 35t-33 92q0 17 3 35l51 291h76l-49 -282q-2 -8 -2.5 -16t-0.5 -15q0 -34 18 -54t59 -20q20 0 39.5 7t36.5 19t31 27t23 33l53 301h76zM198 591h214l-11 -61h-214z" />
    <glyph glyph-name="uogonek" unicode="&#x173;" horiz-adv-x="487" 
d="M315 56q-23 -26 -59 -45.5t-82 -19.5q-63 0 -96 35t-33 92q0 17 3 35l51 291h76l-49 -282q-2 -8 -2.5 -16t-0.5 -15q0 -34 18 -54t59 -20q20 0 39.5 7t36.5 19t31 27t23 33l53 301h76l-78 -444q-16 -23 -29 -39.5t-21.5 -29.5t-13 -23.5t-4.5 -20.5q0 -19 18 -19
q9 0 18 4t22 11l-9 -50q-13 -9 -26.5 -14t-28.5 -5q-28 0 -42 14.5t-14 37.5q0 35 22.5 66l51.5 68h-20z" />
    <glyph glyph-name="uring" unicode="&#x16f;" horiz-adv-x="487" 
d="M381 0h-76l10 56q-23 -26 -59 -45.5t-82 -19.5q-63 0 -96 35t-33 92q0 17 3 35l51 291h76l-49 -282q-2 -8 -2.5 -16t-0.5 -15q0 -34 18 -54t59 -20q20 0 39.5 7t36.5 19t31 27t23 33l53 301h76zM301 535q18 0 32.5 13t14.5 34q0 18 -12.5 30.5t-30.5 12.5
q-19 0 -33.5 -13t-14.5 -34q0 -18 12.5 -30.5t31.5 -12.5zM299 494q-18 0 -33.5 6t-27 17t-17.5 26t-6 33t7 34.5t19 29t29 19.5t36 7q18 0 33.5 -6t27 -17t17.5 -26t6 -33t-7 -34.5t-19 -29t-29 -19.5t-36 -7z" />
    <glyph glyph-name="utilde" unicode="&#x169;" horiz-adv-x="487" 
d="M381 0h-76l10 56q-23 -26 -59 -45.5t-82 -19.5q-63 0 -96 35t-33 92q0 17 3 35l51 291h76l-49 -282q-2 -8 -2.5 -16t-0.5 -15q0 -34 18 -54t59 -20q20 0 39.5 7t36.5 19t31 27t23 33l53 301h76zM443 633q-5 -26 -13.5 -48t-21 -37.5t-28 -24t-34.5 -8.5q-17 0 -29 9
t-22 20t-19.5 20t-21.5 9q-17 0 -27.5 -15t-15.5 -40h-51q5 26 13.5 48t21 37.5t28 24t34.5 8.5q17 0 29 -9t22 -20t19 -20t22 -9q16 0 27 15t16 40h51z" />
    <glyph glyph-name="wacute" unicode="&#x1e83;" horiz-adv-x="627" 
d="M405 105l167 339h77l-225 -444h-73l-22 336l-163 -336h-73l-37 444h72l27 -339l164 339h65zM323 516l103 134h81l-113 -134h-71z" />
    <glyph glyph-name="wcircumflex" unicode="&#x175;" horiz-adv-x="627" 
d="M405 105l167 339h77l-225 -444h-73l-22 336l-163 -336h-73l-37 444h72l27 -339l164 339h65zM487 509h-63l-46 88l-78 -88h-68l117 136h69z" />
    <glyph glyph-name="wgrave" unicode="&#x1e81;" horiz-adv-x="627" 
d="M405 105l167 339h77l-225 -444h-73l-22 336l-163 -336h-73l-37 444h72l27 -339l164 339h65zM332 516l-66 134h74l56 -134h-64z" />
    <glyph glyph-name="wdieresis" unicode="&#x1e85;" horiz-adv-x="627" 
d="M405 105l167 339h77l-225 -444h-73l-22 336l-163 -336h-73l-37 444h72l27 -339l164 339h65zM258 571q0 21 13.5 34t33.5 13q9 0 17.5 -3.5t14.5 -10t10 -14.5t4 -19q0 -19 -13.5 -32.5t-32.5 -13.5q-20 0 -33.5 13.5t-13.5 32.5zM398 571q0 21 13.5 34t32.5 13
q10 0 18 -3.5t15 -10t10.5 -14.5t3.5 -19q0 -19 -14 -32.5t-33 -13.5t-32.5 13.5t-13.5 32.5z" />
    <glyph glyph-name="ycircumflex" unicode="&#x177;" horiz-adv-x="455" 
d="M31 -170l103 175l-76 439h75l59 -349l203 349h82l-369 -614h-77zM392 509h-63l-46 88l-78 -88h-68l117 136h69z" />
    <glyph glyph-name="ygrave" unicode="&#x1ef3;" horiz-adv-x="455" 
d="M31 -170l103 175l-76 439h75l59 -349l203 349h82l-369 -614h-77zM237 516l-66 134h74l56 -134h-64z" />
    <glyph glyph-name="zacute" unicode="&#x17a;" horiz-adv-x="431" 
d="M353 0h-349l9 50l306 330h-241l12 64h337l-8 -50l-306 -330h250zM231 516l103 134h81l-113 -134h-71z" />
    <glyph glyph-name="zdotaccent" unicode="&#x17c;" horiz-adv-x="431" 
d="M353 0h-349l9 50l306 330h-241l12 64h337l-8 -50l-306 -330h250zM332 578q0 -20 -14 -34t-34 -14q-21 0 -35 14t-14 34q0 21 14 35t35 14q20 0 34 -14t14 -35z" />
    <glyph glyph-name="dotbelow" 
d="M298 -108q0 -21 -14 -34.5t-34 -13.5q-21 0 -35 13.5t-14 34.5q0 20 14 34t35 14q20 0 34 -14t14 -34z" />
    <glyph glyph-name="cedilla.alt" 
d="M164 -183l89 132h78l-92 -132h-75z" />
    <glyph glyph-name="exclamdown.cap" horiz-adv-x="203" 
d="M110 0h-90l94 421h54zM217 565q0 -12 -4.5 -22t-11.5 -17t-17 -11.5t-21 -4.5t-20.5 4.5t-17 11.5t-11.5 17t-4 22t4 21.5t11.5 17t17 11.5t20.5 4t21 -4t17 -11.5t11.5 -17t4.5 -21.5z" />
    <glyph glyph-name="questiondown.cap" horiz-adv-x="432" 
d="M183 60q57 0 94 33t51 87h79q-12 -43 -33 -78t-50 -60t-65.5 -38.5t-80.5 -13.5q-38 0 -68.5 10t-51 29t-31.5 46t-11 61q0 32 12 59.5t30.5 51.5t42.5 45l48 42q16 15 26.5 26.5t17.5 21.5t10.5 19t5.5 19h75q-4 -19 -10.5 -35t-16 -30.5t-22 -29t-30.5 -31.5l-36 -32
t-35.5 -36t-27.5 -40t-11 -47q0 -35 23 -57t65 -22zM322 564q0 -12 -4 -22t-11.5 -17t-17.5 -11.5t-20 -4.5q-23 0 -38.5 16t-15.5 39t15.5 38.5t38.5 15.5q10 0 20 -4t17.5 -11.5t11.5 -17t4 -21.5z" />
    <glyph glyph-name="guilsinglleft.cap" horiz-adv-x="215" 
d="M115 158l-66 147l118 148h78l-122 -152l64 -143h-72z" />
    <glyph glyph-name="guilsinglright.cap" horiz-adv-x="215" 
d="M150 453l66 -148l-118 -147h-78l122 152l-64 143h72z" />
    <glyph glyph-name="guillemotleft.cap" horiz-adv-x="358" 
d="M115 158l-66 147l118 148h75l-122 -152l63 -143h-68zM260 158l-66 147l118 148h75l-121 -152l63 -143h-69z" />
    <glyph glyph-name="guillemotright.cap" horiz-adv-x="358" 
d="M292 453l66 -148l-118 -147h-75l122 152l-63 143h68zM147 453l66 -148l-118 -147h-75l122 152l-64 143h69z" />
    <glyph glyph-name="slash.cap" horiz-adv-x="333" 
d="M333 670h83l-377 -734h-82z" />
    <glyph glyph-name="backslash.cap" horiz-adv-x="333" 
d="M289 -64h-72l-119 734h72z" />
    <glyph glyph-name="bar.cap" horiz-adv-x="219" 
d="M156 670h73l-129 -734h-73z" />
    <glyph glyph-name="periodcentered.cap" horiz-adv-x="177" 
d="M48 301q0 23 15.5 39t38.5 16q11 0 20.5 -4.5t17 -11.5t11.5 -17t4 -22t-4 -21.5t-11.5 -17t-17 -11.5t-20.5 -4t-21 4t-17 11.5t-11.5 17t-4.5 21.5z" />
    <glyph glyph-name="bullet.cap" horiz-adv-x="342" 
d="M320 301q0 -30 -10.5 -55t-29 -43t-43.5 -28t-54 -10q-28 0 -53 10t-43.5 28t-29 43t-10.5 55t10.5 55t29 43t43.5 28t53 10q29 0 54 -10t43.5 -28t29 -43t10.5 -55z" />
    <glyph glyph-name="hyphen.cap" horiz-adv-x="321" 
d="M61 336h241l-12 -70h-241z" />
    <glyph glyph-name="endash.cap" horiz-adv-x="475" 
d="M60 332h395l-11 -61h-395z" />
    <glyph glyph-name="emdash.cap" horiz-adv-x="846" 
d="M60 332h766l-11 -61h-766z" />
    <glyph glyph-name="parenleft.cap" horiz-adv-x="321" 
d="M37 234q0 79 23.5 148.5t67.5 125.5t107 97.5t142 62.5l-14 -81q-53 -15 -99 -47.5t-79.5 -78.5t-52.5 -103.5t-19 -123.5q0 -87 40 -143.5t109 -75.5l-14 -81q-49 15 -87.5 42t-66.5 65t-42.5 86.5t-14.5 106.5z" />
    <glyph glyph-name="parenright.cap" horiz-adv-x="322" 
d="M317 368q0 -78 -23.5 -147.5t-67.5 -126t-107 -97.5t-142 -63l14 81q53 16 99 48.5t79.5 78.5t52.5 103.5t19 122.5q0 88 -40 144.5t-109 75.5l14 80q49 -14 87.5 -41t66.5 -65t42.5 -86.5t14.5 -107.5z" />
    <glyph glyph-name="bracketleft.cap" horiz-adv-x="314" 
d="M108 3h145l-12 -69h-217l129 734h217l-13 -68h-145z" />
    <glyph glyph-name="bracketright.cap" horiz-adv-x="313" 
d="M238 600h-145l12 68h217l-129 -734h-217l12 69h145z" />
    <glyph glyph-name="braceleft.cap" horiz-adv-x="340" 
d="M145 40q-6 -37 29 -37h105l-12 -69h-104q-51 0 -75 31.5t-16 81.5l32 183q6 36 -29 36h-46l13 70h46q35 0 42 37l31 183q5 25 17 45.5t29 35.5t38.5 23t46.5 8h104l-13 -68h-104q-36 0 -42 -37l-32 -185q-6 -28 -21.5 -47t-36.5 -30q17 -12 26.5 -30t4.5 -47z" />
    <glyph glyph-name="braceright.cap" horiz-adv-x="339" 
d="M226 563q7 37 -28 37h-105l12 68h104q51 0 75 -31t15 -81l-31 -183q-7 -37 28 -37h47l-13 -70h-46q-36 0 -42 -36l-32 -183q-4 -25 -16 -46t-29.5 -35.5t-39.5 -23t-45 -8.5h-104l12 69h105q35 0 42 37l32 184q5 29 21 47.5t37 30.5q-17 11 -26.5 29.5t-4.5 46.5z" />
    <glyph glyph-name="at.cap" horiz-adv-x="774" 
d="M528 231q-6 -25 1.5 -40t36.5 -15q27 0 51 13.5t42.5 39.5t29.5 63.5t11 85.5q0 51 -19 92.5t-53 70.5t-81 45t-104 16q-73 0 -135 -26t-106 -72.5t-69 -110.5t-25 -138q0 -73 27 -122.5t69.5 -80.5t96 -44.5t106.5 -13.5q69 0 125.5 14t100.5 33l-9 -59
q-38 -18 -94.5 -31t-122.5 -13q-70 0 -135.5 18.5t-116 57t-80.5 98.5t-30 143q0 82 29.5 155.5t82 129t125.5 87.5t161 32q72 0 131 -21.5t100 -58.5t63.5 -89t22.5 -112q0 -65 -18.5 -113t-48 -79.5t-66.5 -47.5t-75 -16q-35 0 -61.5 15t-35.5 43q-16 -25 -45.5 -41
t-59.5 -16q-59 0 -91.5 38t-32.5 97q0 42 14.5 83t40 72t61 50t78.5 19q33 0 55.5 -14.5t32.5 -31.5l10 37h67zM492 367q-7 22 -25.5 37.5t-45.5 15.5q-29 0 -52 -14t-39 -36t-25 -50t-9 -57q0 -35 19 -56.5t53 -21.5q30 0 53 17t41 41z" />
    <glyph glyph-name="published" horiz-adv-x="706" 
d="M687 307q0 -69 -25 -127t-68 -100t-101 -65.5t-123 -23.5t-122.5 23.5t-100.5 65.5t-68 100t-25 127t25 127t68 100t100.5 65.5t122.5 23.5t123 -23.5t101 -65.5t68 -100t25 -127zM647 307q0 60 -22 111t-59.5 87.5t-88 57.5t-107.5 21t-107 -21t-87.5 -57.5t-59.5 -87.5
t-22 -111t22 -111t59.5 -87.5t87.5 -57.5t107 -21t107.5 21t88 57.5t59.5 87.5t22 111zM323 254v-130h-69v369h152q58 0 93 -30.5t35 -88.5q0 -59 -35 -89.5t-93 -30.5h-83zM466 374q0 26 -16 41.5t-48 15.5h-79v-115h79q32 0 48 15.5t16 42.5z" />
    <glyph glyph-name="Euro.lt" horiz-adv-x="520" 
d="M34 270h50q2 34 9 69h-47l10 60h52q17 53 45 98q35 56 85 91t116 35q38 0 68 -11.5t52 -33.5t34.5 -53t16.5 -70h-68q-4 22 -12.5 40.5t-22 31.5t-31 20t-39.5 7q-50 0 -86.5 -28.5t-60.5 -74.5q-13 -25 -23 -52h199l-22 -60h-192q-7 -35 -9 -69h180l-24 -60h-156
q4 -64 31 -103q32 -47 93 -47q47 0 77 26.5t49 72.5h71q-14 -40 -34 -71t-46 -53t-57 -33t-66 -11q-43 0 -78.5 17t-61 49t-39.5 78q-11 34 -14 75h-60z" />
    <glyph glyph-name="dollar.lt" horiz-adv-x="520" 
d="M99 174q8 -52 46 -76t89 -24q30 0 55 7.5t43.5 21.5t29 35.5t10.5 49.5q0 25 -17.5 44.5t-59.5 31.5l-98 30q-26 7 -47 18.5t-36.5 27.5t-24.5 37.5t-9 49.5q0 39 16 72t43 57t64.5 37t80.5 13l17 93h69l-18 -101q7 -1 14 -4q36 -11 61 -32.5t39 -51t17 -64.5h-72
q-6 41 -38 68t-89 27q-27 0 -50.5 -7t-41 -20.5t-28 -33.5t-10.5 -45q0 -28 19 -46.5t58 -30.5l96 -28q57 -18 87.5 -50t30.5 -85q0 -44 -17 -78.5t-46 -58.5t-68 -37q-32 -11 -66 -13l-17 -97h-69l18 101q-14 3 -26 6q-37 11 -64.5 32t-45 52t-20.5 72h75z" />
    <glyph glyph-name="cent.lt" horiz-adv-x="520" 
d="M61 196q0 51 16 99.5t46 85.5t72 59q37 20 81 22l16 91h69l-17 -96q7 -2 14 -5q30 -10 50.5 -29.5t31.5 -47t13 -60.5h-75q-3 38 -26 60t-62 22q-37 0 -65 -17t-47.5 -45t-29.5 -64t-10 -75q0 -59 27.5 -94t78.5 -35q42 0 70.5 22t42.5 60h75q-19 -68 -70 -108
q-41 -33 -99 -39l-15 -89h-69l16 92q-16 4 -30 10q-32 14 -55 39.5t-36 61.5t-13 80z" />
    <glyph glyph-name="sterling.lt" horiz-adv-x="520" 
d="M195 156q-5 -26 -14.5 -51t-23.5 -40h295l-11 -65h-430l11 65h61q13 17 22.5 37.5t15.5 53.5l20 115h-83l11 63h83l16 91q8 43 24.5 79.5t41.5 63t58.5 41t75.5 14.5q40 0 69.5 -11t49 -30.5t29 -45.5t10.5 -58h-74q0 39 -22.5 59t-61.5 20q-52 0 -83 -35.5t-42 -96.5
l-17 -91h154l-11 -63h-154z" />
    <glyph glyph-name="yen.lt" horiz-adv-x="520" 
d="M47 194h158l12 70h-157l10 59h129l-116 291h76l108 -278l204 278h83l-221 -291h130l-11 -59h-159l-12 -70h159l-11 -60h-158l-23 -134h-76l23 134h-158z" />
    <glyph glyph-name="florin.lt" horiz-adv-x="520" 
d="M167 344h85l43 141q20 67 63.5 102.5t101.5 35.5q23 0 39 -3t28 -9l-12 -68q-13 7 -25.5 10.5t-29.5 3.5q-33 0 -55 -18t-34 -60l-41 -135h91l-11 -64h-100l-96 -318q-20 -67 -58.5 -103t-96.5 -36q-23 0 -39 3.5t-28 8.5l12 69q12 -7 25 -10.5t30 -3.5q33 0 50 18t29 59
l95 313h-78z" />
    <glyph glyph-name="zero.lt" horiz-adv-x="520" 
d="M231 62q46 0 82 28.5t61 74t38.5 103t13.5 117.5q0 74 -29.5 120.5t-87.5 46.5q-46 0 -82 -28.5t-61 -74t-38.5 -103.5t-13.5 -117q0 -74 29.5 -120.5t87.5 -46.5zM232 -9q-47 0 -83 16.5t-61 48t-38 75.5t-13 98q0 79 20.5 151t57 125.5t85.5 85.5t108 32q47 0 83 -16.5
t61 -48t38 -75.5t13 -98q0 -79 -20.5 -151t-57 -125.5t-86 -85.5t-107.5 -32z" />
    <glyph glyph-name="one.lt" horiz-adv-x="520" 
d="M46 70h175l79 449l-188 -88l15 81l220 103h47l-96 -545h154l-12 -70h-406z" />
    <glyph glyph-name="two.lt" horiz-adv-x="520" 
d="M285 283l47.5 44t43 45.5t31 48t11.5 49.5q0 38 -24 60.5t-69 22.5q-57 0 -91.5 -34.5t-49.5 -88.5h-82q12 43 33.5 78.5t51 61t66.5 39.5t80 14q79 0 121.5 -38.5t42.5 -105.5q0 -36 -13 -67t-35 -58.5t-51.5 -55l-61.5 -57.5l-186 -171h286l-13 -70h-397l8 52z" />
    <glyph glyph-name="three.lt" horiz-adv-x="520" 
d="M230 348h43q26 0 51 7.5t44 22.5t30.5 37.5t11.5 52.5q0 38 -26 62t-73 24q-51 0 -87.5 -30t-52.5 -78h-82q12 39 33.5 71.5t51 56t66.5 36.5t78 13q42 0 73 -10.5t52.5 -30t32 -47t10.5 -61.5q0 -30 -10 -56.5t-27.5 -48t-40.5 -36.5t-49 -21q42 -14 64.5 -46t22.5 -77
q0 -41 -16.5 -77t-46 -63t-69 -42.5t-86.5 -15.5q-46 0 -82.5 12t-61.5 34t-38 53.5t-13 70.5v9q0 3 1 6h76v-5q0 -54 30.5 -83t87.5 -29q30 0 56 9.5t45 26.5t30.5 40.5t11.5 53.5q0 42 -30.5 67t-79.5 25h-42z" />
    <glyph glyph-name="four.lt" horiz-adv-x="520" 
d="M125 205h189l27 148h73l-26 -148h108l-12 -66h-108l-24 -139h-73l24 139h-282l10 56l305 419h86z" />
    <glyph glyph-name="five.lt" horiz-adv-x="520" 
d="M230 -9q-43 0 -78.5 12.5t-60.5 35t-38.5 53.5t-13.5 70v8q0 4 1 6h77v-6q0 -51 31 -80.5t85 -29.5q33 0 61 12.5t48 33t31.5 49t11.5 61.5q0 25 -7.5 46t-22.5 36t-35.5 23t-45.5 8q-39 0 -67.5 -15t-49.5 -37h-65l60 337h345l-13 -71h-278l-33 -184q19 14 49 26.5
t67 12.5q40 0 71.5 -13t53.5 -36t34 -55.5t12 -71.5q0 -45 -17 -87t-46.5 -74t-72 -51t-94.5 -19z" />
    <glyph glyph-name="six.lt" horiz-adv-x="520" 
d="M426 464q-2 19 -9 35t-19 28.5t-30 20t-41 7.5q-40 0 -73.5 -20t-59.5 -54t-43 -78t-23 -93h1q24 41 66.5 66t90.5 25q41 0 74.5 -14t57 -39t36.5 -57.5t13 -68.5q0 -46 -17 -88t-47 -73.5t-70.5 -50.5t-88.5 -19q-51 0 -88 18t-61 50t-35.5 74t-11.5 91q0 73 19.5 145
t56 128t88.5 91t116 35q39 0 69.5 -11t52.5 -31.5t35.5 -50t17.5 -66.5h-77zM127 180q0 -24 7 -45.5t22 -38.5t37 -27t53 -10q29 0 55.5 11.5t46.5 32.5t31.5 49.5t11.5 62.5q0 25 -7.5 46.5t-22 38t-37 26t-51.5 9.5t-55.5 -11.5t-47 -32.5t-32 -49.5t-11.5 -61.5z" />
    <glyph glyph-name="seven.lt" horiz-adv-x="520" 
d="M182 0h-83l313 543h-333l13 71h416l-11 -61z" />
    <glyph glyph-name="eight.lt" horiz-adv-x="520" 
d="M114 160q0 -24 9 -43t26 -32.5t39 -21.5t49 -8q30 0 56.5 9.5t46.5 26t32 41t12 53.5q0 24 -9.5 43.5t-26.5 33t-40 21t-49 7.5q-30 0 -56.5 -9t-46 -26t-31 -41.5t-11.5 -53.5zM234 -9q-36 0 -71.5 10t-63.5 30t-45.5 51t-17.5 72q0 35 12.5 64.5t33 52.5t48 38t57.5 20
q-34 16 -55 46t-21 74q0 38 15.5 70t42.5 55.5t63.5 36t78.5 12.5q36 0 68.5 -10t57 -29t39 -47t14.5 -63q0 -30 -10 -55.5t-27.5 -46t-40 -34.5t-48.5 -22q43 -16 69.5 -50.5t26.5 -84.5q0 -46 -19 -81t-50.5 -59.5t-72.5 -37t-84 -12.5zM412 469q0 21 -8 37.5t-21.5 28.5
t-32.5 18t-39 6q-26 0 -49 -8.5t-39.5 -23.5t-26.5 -36t-10 -46q0 -21 8.5 -37.5t22.5 -28t32.5 -18t38.5 -6.5q26 0 49 9t39.5 24t26 36t9.5 45z" />
    <glyph glyph-name="nine.lt" horiz-adv-x="520" 
d="M108 150q2 -19 9 -35t19 -28.5t30 -20t41 -7.5q40 0 73.5 20t59.5 54t43 78t23 93h-1q-24 -41 -66.5 -66t-90.5 -25q-41 0 -74.5 14t-57 39t-36.5 57.5t-13 68.5q0 46 17 88t47 73.5t70.5 50.5t88.5 19q51 0 88 -18t61 -50t35.5 -74t11.5 -91q0 -73 -19.5 -145t-56 -128
t-88.5 -91t-116 -35q-39 0 -69.5 11t-52.5 31.5t-35.5 50t-17.5 66.5h77zM407 434q0 24 -7 45.5t-22 38.5t-37 27t-53 10q-29 0 -55.5 -11.5t-46.5 -32.5t-31.5 -49.5t-11.5 -62.5q0 -25 7.5 -46.5t22 -38t37 -26t51.5 -9.5t55.5 11.5t47 32.5t32 49.5t11.5 61.5z" />
    <glyph glyph-name="period.tab" horiz-adv-x="260" 
d="M43 49q0 23 15.5 39t38.5 16q11 0 20.5 -4.5t17 -11.5t11.5 -17t4 -22t-4 -21.5t-11.5 -17t-17 -11.5t-20.5 -4t-21 4t-17 11.5t-11.5 17t-4.5 21.5z" />
    <glyph glyph-name="comma.tab" horiz-adv-x="260" 
d="M93 0q-15 4 -25.5 17t-10.5 32q0 23 15 38.5t38 15.5t38.5 -15t15.5 -42q0 -18 -8.5 -34t-19.5 -29l-69 -91h-56z" />
    <glyph glyph-name="colon.tab" horiz-adv-x="260" 
d="M43 49q0 23 15.5 39t38.5 16q11 0 20.5 -4.5t17 -11.5t11.5 -17t4 -22t-4 -21.5t-11.5 -17t-17 -11.5t-20.5 -4t-21 4t-17 11.5t-11.5 17t-4.5 21.5zM97 362q0 23 15.5 39t38.5 16q11 0 20.5 -4.5t17 -11.5t11.5 -17t4 -22t-4 -21.5t-11.5 -17t-17 -11.5t-20.5 -4t-21 4
t-17 11.5t-11.5 17t-4.5 21.5z" />
    <glyph glyph-name="semicolon.tab" horiz-adv-x="260" 
d="M93 0q-15 4 -25.5 17t-10.5 32q0 23 15 38.5t38 15.5t38.5 -15t15.5 -42q0 -18 -8.5 -34t-19.5 -29l-69 -91h-56zM97 362q0 23 15.5 39t38.5 16q11 0 20.5 -4.5t17 -11.5t11.5 -17t4 -22t-4 -21.5t-11.5 -17t-17 -11.5t-20.5 -4t-21 4t-17 11.5t-11.5 17t-4.5 21.5z" />
    <glyph glyph-name="space.tab" horiz-adv-x="260" 
 />
    <glyph glyph-name="uni2153" unicode="&#x2153;" horiz-adv-x="685" 
d="M101 0h-69l535 614h70zM198 282h-61l46 259l-96 -44l12 64l118 54h40zM487 193h20q24 0 42.5 13t18.5 40q0 16 -10.5 26.5t-30.5 10.5q-21 0 -36 -13.5t-22 -34.5h-66q12 45 46 74t84 29q47 0 71.5 -24t24.5 -62q0 -31 -18 -54t-42 -30q19 -9 29.5 -25.5t10.5 -39.5
t-9 -42.5t-25.5 -34.5t-38.5 -23t-48 -8q-52 0 -82 26.5t-30 71.5v5q0 2 1 3h64v-3q0 -23 12 -35.5t37 -12.5t42 14.5t17 39.5q0 19 -13 30t-35 11h-23z" />
    <glyph glyph-name="uni2154" unicode="&#x2154;" horiz-adv-x="745" 
d="M162 0h-70l536 614h69zM203 449q10 8 20 18t18.5 20t14.5 20.5t6 21.5q0 18 -10.5 27t-28.5 9q-23 0 -38.5 -15t-20.5 -37h-66q6 24 18 43.5t28.5 34.5t38 23t46.5 8q46 0 71 -22.5t25 -60.5q0 -39 -24.5 -67.5t-57.5 -57.5l-86 -75h138l-10 -55h-226l7 43zM547 193h21
q24 0 42 13t18 40q0 16 -10.5 26.5t-29.5 10.5q-22 0 -37 -13.5t-22 -34.5h-65q12 45 45.5 74t83.5 29q47 0 72 -24t25 -62q0 -31 -18.5 -54t-41.5 -30q19 -9 29.5 -25.5t10.5 -39.5t-9.5 -42.5t-25.5 -34.5t-38.5 -23t-47.5 -8q-53 0 -82.5 26.5t-29.5 71.5v8h64v-3
q0 -23 12.5 -35.5t36.5 -12.5q25 0 42 14.5t17 39.5q0 19 -13 30t-35 11h-23z" />
    <glyph glyph-name="uni215B" unicode="&#x215b;" horiz-adv-x="691" 
d="M101 0h-69l535 614h70zM198 282h-61l46 259l-96 -44l12 64l118 54h40zM439 92q0 -21 15 -33.5t38 -12.5q26 0 45 15t19 40q0 21 -15.5 33.5t-38.5 12.5q-26 0 -44.5 -15t-18.5 -40zM491 -4q-20 0 -40.5 5.5t-37 16t-26.5 28t-10 40.5q0 35 21.5 59t51.5 31
q-17 9 -26.5 25.5t-9.5 37.5q0 23 9.5 41.5t25 31t36 19.5t44.5 7q21 0 40 -5.5t33 -16.5t22 -27t8 -36q0 -30 -17.5 -52.5t-44.5 -32.5q20 -9 33.5 -26.5t13.5 -42.5t-10.5 -44.5t-28 -32.5t-40.5 -19.5t-47 -6.5zM573 248q0 19 -13.5 30t-32.5 11q-23 0 -39 -13.5
t-16 -36.5q0 -19 13.5 -29.5t31.5 -10.5q24 0 40 13.5t16 35.5z" />
    <glyph glyph-name="uni215C" unicode="&#x215c;" horiz-adv-x="735" 
d="M145 0h-69l535 614h70zM483 92q0 -21 15 -33.5t38 -12.5q26 0 45 15t19 40q0 21 -15 33.5t-39 12.5q-26 0 -44.5 -15t-18.5 -40zM536 -4q-21 0 -41.5 5.5t-37 16t-26.5 28t-10 40.5q0 35 22 59t52 31q-17 9 -27 25.5t-10 37.5q0 23 9.5 41.5t25 31t36.5 19.5t44 7
q21 0 40 -5.5t33 -16.5t22.5 -27t8.5 -36q0 -30 -18 -52.5t-44 -32.5q20 -9 33.5 -26.5t13.5 -42.5t-11 -44.5t-28.5 -32.5t-40 -19.5t-46.5 -6.5zM617 248q0 19 -13 30t-33 11q-23 0 -39 -13.5t-16 -36.5q0 -19 13.5 -29.5t32.5 -10.5q23 0 39 13.5t16 35.5zM179 475h20
q24 0 42.5 12.5t18.5 40.5q0 15 -10.5 26t-30.5 11q-22 0 -36.5 -13.5t-21.5 -34.5h-66q12 45 46 73.5t84 28.5q47 0 71.5 -23.5t24.5 -61.5q0 -31 -18.5 -54t-41.5 -31q19 -9 29.5 -25t10.5 -39t-9 -42.5t-25.5 -34.5t-38.5 -23t-48 -8q-52 0 -82 26.5t-30 70.5v6q0 1 1 2
h64v-2q0 -23 12 -36t36 -13q25 0 42 15t17 40q0 19 -12.5 30t-34.5 11h-23z" />
    <glyph glyph-name="uni215D" unicode="&#x215d;" horiz-adv-x="734" 
d="M144 0h-69l535 614h70zM482 92q0 -21 15 -33.5t38 -12.5q26 0 45 15t19 40q0 21 -15 33.5t-39 12.5q-25 0 -44 -15t-19 -40zM535 -4q-21 0 -41.5 5.5t-37 16t-26.5 28t-10 40.5q0 35 22 59t52 31q-17 9 -26.5 25.5t-9.5 37.5q0 23 9 41.5t24.5 31t36.5 19.5t44 7
q21 0 40 -5.5t33 -16.5t22.5 -27t8.5 -36q0 -30 -18 -52.5t-44 -32.5q20 -9 33.5 -26.5t13.5 -42.5t-11 -44.5t-28.5 -32.5t-40 -19.5t-46.5 -6.5zM616 248q0 19 -13 30t-33 11q-23 0 -39 -13.5t-16 -36.5q0 -19 13.5 -29.5t32.5 -10.5q23 0 39 13.5t16 35.5zM180 277
q-52 0 -81 27t-29 70v6q0 1 1 2h62v-3q0 -22 13.5 -35t36.5 -13q28 0 45.5 19t17.5 47q0 22 -12 35.5t-35 13.5q-16 0 -28.5 -6.5t-21.5 -16.5h-54l34 191h194l-10 -55h-141l-13 -76q9 6 23 11t31 5q44 0 69 -26t25 -70q0 -26 -9.5 -49t-26 -40t-40 -27t-51.5 -10z" />
    <glyph glyph-name="uni215E" unicode="&#x215e;" horiz-adv-x="674" 
d="M84 0h-69l535 614h70zM170 281h-65l156 276h-157l10 57h224l-8 -46zM422 92q0 -21 15 -33.5t39 -12.5q26 0 45 15t19 40q0 21 -15.5 33.5t-38.5 12.5q-26 0 -45 -15t-19 -40zM475 -4q-20 0 -40.5 5.5t-37.5 16t-27 28t-10 40.5q0 35 22 59t52 31q-17 9 -26.5 25.5
t-9.5 37.5q0 23 9 41.5t25 31t36.5 19.5t44.5 7q20 0 39 -5.5t33.5 -16.5t22.5 -27t8 -36q0 -30 -18 -52.5t-44 -32.5q20 -9 33.5 -26.5t13.5 -42.5t-10.5 -44.5t-28 -32.5t-40.5 -19.5t-47 -6.5zM557 248q0 19 -13.5 30t-32.5 11q-23 0 -39 -13.5t-16 -36.5q0 -19 13 -29.5
t32 -10.5q24 0 40 13.5t16 35.5z" />
    <glyph glyph-name="percent.lt" horiz-adv-x="520" 
d="M176 623q24 0 45.5 -9t37 -24.5t24.5 -36.5t9 -46q0 -24 -9.5 -47t-26.5 -41t-40 -28.5t-50 -10.5q-25 0 -46 9t-37 24.5t-25 36.5t-9 46q0 24 9.5 47t26.5 41t40.5 28.5t50.5 10.5zM168 433q14 0 26.5 5.5t22.5 15t15.5 23t5.5 28.5q0 14 -5 25.5t-13.5 20.5t-20.5 14
t-26 5q-13 0 -26 -5.5t-22.5 -15t-15.5 -23t-6 -28.5q0 -14 5 -25.5t13.5 -20.5t20.5 -14t26 -5zM355 -9q-24 0 -45.5 9t-37 24.5t-24.5 36.5t-9 46q0 24 9.5 47t26 41t39.5 28.5t51 10.5q24 0 45.5 -9t37 -24.5t24.5 -36.5t9 -46q0 -24 -9.5 -47t-26 -41t-40 -28.5
t-50.5 -10.5zM363 181q-14 0 -27 -5.5t-22.5 -15t-15.5 -23t-6 -28.5q0 -14 5 -25.5t14 -20.5t20.5 -14t25.5 -5t26.5 5.5t22.5 15t16 23t6 28.5q0 14 -5 25.5t-14 20.5t-21 14t-25 5zM63 0h-67l471 614h68z" />
    <glyph glyph-name="perthousand.lt" horiz-adv-x="800" 
d="M190 623q24 0 45.5 -9t37 -24.5t24.5 -36.5t9 -46q0 -24 -9.5 -47t-26.5 -41t-40 -28.5t-50 -10.5q-25 0 -46 9t-37 24.5t-25 36.5t-9 46q0 24 9.5 47t26.5 41t40.5 28.5t50.5 10.5zM182 433q14 0 26.5 5.5t22.5 15t15.5 23t5.5 28.5q0 14 -5 25.5t-13.5 20.5t-20.5 14
t-26 5q-13 0 -26 -5.5t-22.5 -15t-15.5 -23t-6 -28.5q0 -14 5 -25.5t13.5 -20.5t20.5 -14t26 -5zM369 -9q-24 0 -45.5 9t-37 24.5t-24.5 36.5t-9 46q0 24 9.5 47t26 41t39.5 28.5t51 10.5q24 0 45.5 -9t37 -24.5t24.5 -36.5t9 -46q0 -24 -9.5 -47t-26 -41t-40 -28.5
t-50.5 -10.5zM377 181q-14 0 -27 -5.5t-22.5 -15t-15.5 -23t-6 -28.5q0 -14 5 -25.5t14 -20.5t20.5 -14t25.5 -5t26.5 5.5t22.5 15t16 23t6 28.5q0 14 -5 25.5t-14 20.5t-21 14t-25 5zM77 0h-67l471 614h68zM642 -9q-24 0 -45.5 9t-37 24.5t-24.5 36.5t-9 46q0 24 9.5 47
t26.5 41t40 28.5t50 10.5q25 0 46 -9t37 -24.5t25 -36.5t9 -46q0 -24 -9.5 -47t-26.5 -41t-40.5 -28.5t-50.5 -10.5zM650 181q-14 0 -26.5 -5.5t-22.5 -15t-15.5 -23t-5.5 -28.5q0 -14 5 -25.5t13.5 -20.5t20.5 -14t26 -5q13 0 26 5.5t22.5 15t15.5 23t6 28.5q0 14 -5 25.5
t-14 20.5t-20.5 14t-25.5 5z" />
    <glyph glyph-name="plus.lt" horiz-adv-x="520" 
d="M75 328h166l30 166h62l-29 -166h166l-11 -62h-166l-29 -166h-63l29 166h-166z" />
    <glyph glyph-name="minus.lt" horiz-adv-x="520" 
d="M75 328h395l-11 -62h-395z" />
    <glyph glyph-name="multiply.lt" horiz-adv-x="520" 
d="M125 417l47 40l99 -122l144 124l36 -43l-144 -123l100 -121l-47 -41l-101 122l-143 -123l-35 44l145 122z" />
    <glyph glyph-name="divide.lt" horiz-adv-x="520" 
d="M75 328h395l-11 -62h-395zM245 458q0 21 15 36t36 15q20 0 35.5 -15t15.5 -36t-15.5 -36t-35.5 -15q-21 0 -36 15t-15 36zM189 136q0 21 14.5 36t35.5 15t36 -15t15 -36t-15 -36t-36 -15t-35.5 15t-14.5 36z" />
    <glyph glyph-name="equal.lt" horiz-adv-x="520" 
d="M87 397h394l-10 -60h-395zM62 257h395l-10 -58h-395z" />
    <glyph glyph-name="less.lt" horiz-adv-x="520" 
d="M111 335l323 151l-12 -75l-259 -119l217 -118l-13 -70l-269 152z" />
    <glyph glyph-name="greater.lt" horiz-adv-x="520" 
d="M421 255l-323 -151l13 74l258 120l-216 118l12 70l269 -152z" />
    <glyph glyph-name="plusminus.lt" horiz-adv-x="520" 
d="M98 389h164l23 129h62l-23 -129h163l-11 -62h-163l-23 -129h-62l23 129h-164zM56 150h389l-11 -62h-389z" />
    <glyph glyph-name="lessequal.lt" horiz-adv-x="520" 
d="M132 382l319 121l-13 -71l-245 -89l214 -91l-12 -65l-275 121zM92 153h297l-11 -62h-297z" />
    <glyph glyph-name="greaterequal.lt" horiz-adv-x="520" 
d="M389 91h-297l11 62h297zM428 308l-319 -121l13 71l245 90l-214 91l11 64l276 -120z" />
    <glyph glyph-name="notequal.lt" horiz-adv-x="520" 
d="M62 257h138l73 81h-197l11 57h238l84 93h60l-84 -93h96l-10 -57h-138l-73 -81h197l-10 -58h-239l-84 -93h-60l84 93h-96z" />
    <glyph glyph-name="approxequal.lt" horiz-adv-x="520" 
d="M60 246q32 22 60.5 31t52.5 9q25 0 46 -6.5t41 -14t40.5 -14t45.5 -6.5q24 0 53 9.5t63 32.5l-11 -62q-33 -22 -62.5 -31t-53.5 -9q-25 0 -46 6.5t-40.5 14t-40.5 14t-45 6.5q-25 0 -53 -10t-61 -32zM82 371q32 22 60 31t53 9t46 -6.5t41 -14.5t40.5 -14.5t44.5 -6.5
q25 0 54.5 10.5t62.5 32.5l-11 -62q-34 -22 -62.5 -31.5t-53.5 -9.5t-45.5 7l-40.5 14.5t-41 14t-45 6.5q-25 0 -53 -10.5t-60 -32.5z" />
    <glyph glyph-name="ij" unicode="&#x133;" horiz-adv-x="418" 
d="M105 0h-76l78 444h76zM217 578q0 -10 -3.5 -18.5t-10.5 -15.5t-16 -10.5t-18 -3.5q-21 0 -35 14t-14 34q0 11 4 19.5t10.5 15t15.5 10.5t19 4q20 0 34 -14t14 -35zM128 -101q7 -6 17 -9.5t21 -3.5q27 0 41.5 15.5t21.5 53.5l87 489h76l-88 -495q-11 -62 -45.5 -95
t-90.5 -33q-19 0 -31.5 3t-20.5 8zM426 578q0 -10 -4 -18.5t-10.5 -15.5t-15.5 -10.5t-19 -3.5q-20 0 -34 14t-14 34q0 11 3.5 19.5t10 15t16 10.5t18.5 4q20 0 34.5 -14t14.5 -35z" />
    <glyph glyph-name="IJ" unicode="&#x132;" horiz-adv-x="712" 
d="M117 0h-79l108 614h79zM328 187v-11q0 -51 26.5 -82t80.5 -31q57 0 91.5 38t46.5 109l71 404h79l-72 -413q-9 -49 -28 -88t-46.5 -66t-63.5 -41.5t-78 -14.5q-44 0 -78.5 12.5t-59 35.5t-37.5 55.5t-13 72.5v12l1 8h80z" />
    </font>
</defs>
</svg>
