<svg width="90" height="90" viewBox="0 0 90 90" fill="none" xmlns="http://www.w3.org/2000/svg">
<path fill-rule="evenodd" clip-rule="evenodd" d="M0.631836 45.2437C0.631836 44.212 1.46815 43.3757 2.4998 43.3757H87.5201C88.5517 43.3757 89.388 44.212 89.388 45.2437C89.388 46.2753 88.5517 47.1117 87.5201 47.1117H2.4998C1.46815 47.1117 0.631836 46.2753 0.631836 45.2437Z" fill="#252525"/>
<path fill-rule="evenodd" clip-rule="evenodd" d="M45.0101 0.63208C46.0417 0.63208 46.878 1.46839 46.878 2.50004V45.2437C46.878 46.2754 46.0417 47.1117 45.0101 47.1117C43.9784 47.1117 43.1421 46.2754 43.1421 45.2437V2.50004C43.1421 1.46839 43.9784 0.63208 45.0101 0.63208Z" fill="#252525"/>
<path fill-rule="evenodd" clip-rule="evenodd" d="M61.9913 4.02118C62.9452 4.41412 63.3999 5.50593 63.007 6.45982L46.7372 45.9554C46.3443 46.9093 45.2525 47.364 44.2986 46.9711C43.3447 46.5781 42.89 45.4863 43.2829 44.5324L59.5526 5.03685C59.9456 4.08297 61.0374 3.62824 61.9913 4.02118Z" fill="#252525"/>
<path fill-rule="evenodd" clip-rule="evenodd" d="M76.385 13.6938C77.1165 14.4213 77.1198 15.604 76.3924 16.3355L46.3346 46.5612C45.6071 47.2927 44.4244 47.296 43.6929 46.5686C42.9614 45.8411 42.9581 44.6584 43.6855 43.9269L73.7433 13.7012C74.4708 12.9697 75.6535 12.9664 76.385 13.6938Z" fill="#252525"/>
<path fill-rule="evenodd" clip-rule="evenodd" d="M86.0111 28.1686C86.4077 29.121 85.9572 30.2145 85.0048 30.6112L45.7282 46.9685C44.7758 47.3651 43.6823 46.9146 43.2857 45.9623C42.889 45.0099 43.3395 43.9163 44.2919 43.5197L83.5685 27.1624C84.5209 26.7657 85.6144 27.2163 86.0111 28.1686Z" fill="#252525"/>
<path fill-rule="evenodd" clip-rule="evenodd" d="M28.0285 4.02118C28.9824 3.62824 30.0742 4.08297 30.4672 5.03685L46.737 44.5324C47.1299 45.4863 46.6752 46.5781 45.7213 46.9711C44.7674 47.364 43.6756 46.9093 43.2826 45.9554L27.0129 6.45982C26.6199 5.50593 27.0747 4.41412 28.0285 4.02118Z" fill="#252525"/>
<path fill-rule="evenodd" clip-rule="evenodd" d="M13.6348 13.6938C14.3663 12.9664 15.549 12.9697 16.2765 13.7012L46.3343 43.9269C47.0617 44.6584 47.0584 45.8411 46.3269 46.5686C45.5954 47.296 44.4127 47.2927 43.6852 46.5612L13.6274 16.3355C12.9 15.604 12.9033 14.4213 13.6348 13.6938Z" fill="#252525"/>
<path fill-rule="evenodd" clip-rule="evenodd" d="M4.0088 28.1686C4.40542 27.2163 5.49899 26.7657 6.45134 27.1624L45.728 43.5197C46.6803 43.9163 47.1308 45.0099 46.7342 45.9623C46.3376 46.9146 45.244 47.3651 44.2917 46.9685L5.01504 30.6112C4.06269 30.2145 3.61218 29.121 4.0088 28.1686Z" fill="#252525"/>
<path fill-rule="evenodd" clip-rule="evenodd" d="M45.0101 43.2805C46.0417 43.2805 46.878 44.1168 46.878 45.1485V87.8922C46.878 88.9238 46.0417 89.7601 45.0101 89.7601C43.9784 89.7601 43.1421 88.9238 43.1421 87.8922V45.1485C43.1421 44.1168 43.9784 43.2805 45.0101 43.2805Z" fill="#252525"/>
<path fill-rule="evenodd" clip-rule="evenodd" d="M45.7214 43.5166C46.6753 43.9096 47.1299 45.0014 46.7369 45.9553L30.4671 85.4436C30.0741 86.3975 28.9823 86.8521 28.0284 86.4591C27.0746 86.0661 26.6199 84.9743 27.0129 84.0204L43.2827 44.5321C43.6757 43.5782 44.7675 43.1236 45.7214 43.5166Z" fill="#252525"/>
<path fill-rule="evenodd" clip-rule="evenodd" d="M46.3269 43.9192C47.0584 44.6466 47.0617 45.8293 46.3343 46.5609L16.2765 76.7866C15.549 77.5181 14.3663 77.5214 13.6348 76.7939C12.9033 76.0665 12.9 74.8838 13.6274 74.1523L43.6852 43.9265C44.4127 43.195 45.5954 43.1917 46.3269 43.9192Z" fill="#252525"/>
<path fill-rule="evenodd" clip-rule="evenodd" d="M46.7342 44.5255C47.1308 45.4779 46.6803 46.5715 45.728 46.9681L6.45135 63.3255C5.49899 63.7221 4.40542 63.2716 4.0088 62.3192C3.61218 61.3669 4.06269 60.2733 5.01504 59.8767L44.2917 43.5193C45.244 43.1227 46.3376 43.5732 46.7342 44.5255Z" fill="#252525"/>
<path fill-rule="evenodd" clip-rule="evenodd" d="M44.2985 43.5166C45.2523 43.1236 46.3442 43.5782 46.7372 44.5321L63.0069 84.0204C63.3999 84.9743 62.9452 86.0661 61.9914 86.4591C61.0375 86.8521 59.9457 86.3975 59.5527 85.4436L43.2829 45.9553C42.8899 45.0014 43.3446 43.9096 44.2985 43.5166Z" fill="#252525"/>
<path fill-rule="evenodd" clip-rule="evenodd" d="M43.6929 43.9192C44.4244 43.1917 45.6071 43.195 46.3346 43.9265L76.3924 74.1523C77.1198 74.8838 77.1165 76.0665 76.385 76.7939C75.6535 77.5214 74.4708 77.5181 73.7433 76.7866L43.6855 46.5609C42.9581 45.8293 42.9614 44.6466 43.6929 43.9192Z" fill="#252525"/>
<path fill-rule="evenodd" clip-rule="evenodd" d="M43.2857 44.5255C43.6823 43.5732 44.7758 43.1227 45.7282 43.5193L85.0048 59.8767C85.9572 60.2733 86.4077 61.3669 86.0111 62.3192C85.6144 63.2716 84.5209 63.7221 83.5685 63.3255L44.2919 46.9681C43.3395 46.5715 42.889 45.4779 43.2857 44.5255Z" fill="#252525"/>
</svg>
