<svg width="106" height="106" viewBox="0 0 106 106" fill="none" xmlns="http://www.w3.org/2000/svg">
<path fill-rule="evenodd" clip-rule="evenodd" d="M52.7418 0.301514C53.956 0.301514 54.9402 1.28576 54.9402 2.4999V32.9552C54.9402 34.1693 53.956 35.1536 52.7418 35.1536C51.5277 35.1536 50.5435 34.1693 50.5435 32.9552V2.4999C50.5435 1.28576 51.5277 0.301514 52.7418 0.301514Z" fill="#252525"/>
<path fill-rule="evenodd" clip-rule="evenodd" d="M15.6605 15.661C16.519 14.8025 17.911 14.8025 18.7695 15.661L40.3037 37.1952C41.1622 38.0537 41.1622 39.4457 40.3037 40.3042C39.4452 41.1627 38.0532 41.1627 37.1947 40.3042L15.6605 18.77C14.802 17.9114 14.802 16.5195 15.6605 15.661Z" fill="#252525"/>
<path fill-rule="evenodd" clip-rule="evenodd" d="M0.301758 52.7423C0.301758 51.5282 1.28601 50.5439 2.50014 50.5439H32.9423C34.1564 50.5439 35.1407 51.5282 35.1407 52.7423C35.1407 53.9565 34.1564 54.9407 32.9423 54.9407H2.50014C1.28601 54.9407 0.301758 53.9565 0.301758 52.7423Z" fill="#252525"/>
<path fill-rule="evenodd" clip-rule="evenodd" d="M40.3042 65.1937C41.1624 66.0525 41.162 67.4444 40.3032 68.3027L18.769 89.8237C17.9102 90.682 16.5183 90.6816 15.66 89.8228C14.8018 88.964 14.8022 87.5721 15.661 86.7138L37.1952 65.1927C38.054 64.3345 39.4459 64.3349 40.3042 65.1937Z" fill="#252525"/>
<path fill-rule="evenodd" clip-rule="evenodd" d="M52.7418 70.3438C53.956 70.3438 54.9402 71.328 54.9402 72.5421V102.998C54.9402 104.212 53.956 105.196 52.7418 105.196C51.5277 105.196 50.5435 104.212 50.5435 102.998V72.5421C50.5435 71.328 51.5277 70.3438 52.7418 70.3438Z" fill="#252525"/>
<path fill-rule="evenodd" clip-rule="evenodd" d="M65.1796 65.1937C66.0378 64.3349 67.4297 64.3345 68.2885 65.1927L89.8227 86.7138C90.6815 87.5721 90.6819 88.964 89.8237 89.8228C88.9654 90.6816 87.5735 90.682 86.7147 89.8237L65.1805 68.3027C64.3217 67.4444 64.3213 66.0525 65.1796 65.1937Z" fill="#252525"/>
<path fill-rule="evenodd" clip-rule="evenodd" d="M70.3438 52.7423C70.3438 51.5282 71.328 50.5439 72.5421 50.5439H102.984C104.198 50.5439 105.183 51.5282 105.183 52.7423C105.183 53.9565 104.198 54.9407 102.984 54.9407H72.5421C71.328 54.9407 70.3438 53.9565 70.3438 52.7423Z" fill="#252525"/>
<path fill-rule="evenodd" clip-rule="evenodd" d="M89.8232 15.661C90.6817 16.5195 90.6817 17.9114 89.8232 18.77L68.289 40.3042C67.4305 41.1627 66.0385 41.1627 65.18 40.3042C64.3215 39.4457 64.3215 38.0537 65.18 37.1952L86.7142 15.661C87.5727 14.8025 88.9647 14.8025 89.8232 15.661Z" fill="#252525"/>
</svg>
