<svg width="49" height="50" viewBox="0 0 49 50" fill="none" xmlns="http://www.w3.org/2000/svg">
<path fill-rule="evenodd" clip-rule="evenodd" d="M0.238281 25.1468C0.238281 24.5881 0.691168 24.1353 1.24983 24.1353H47.2906C47.8493 24.1353 48.3022 24.5881 48.3022 25.1468C48.3022 25.7055 47.8493 26.1584 47.2906 26.1584H1.24983C0.691168 26.1584 0.238281 25.7055 0.238281 25.1468Z" fill="#252525"/>
<path fill-rule="evenodd" clip-rule="evenodd" d="M24.2703 0.988525C24.829 0.988525 25.2819 1.44141 25.2819 2.00008V25.1469C25.2819 25.7056 24.829 26.1585 24.2703 26.1585C23.7117 26.1585 23.2588 25.7056 23.2588 25.1469V2.00008C23.2588 1.44141 23.7117 0.988525 24.2703 0.988525Z" fill="#252525"/>
<path fill-rule="evenodd" clip-rule="evenodd" d="M33.4664 2.82383C33.983 3.03662 34.2292 3.62786 34.0164 4.14442L25.2059 25.5323C24.9931 26.0489 24.4019 26.2951 23.8853 26.0824C23.3688 25.8696 23.1225 25.2783 23.3353 24.7618L32.1458 3.37384C32.3586 2.85729 32.9498 2.61104 33.4664 2.82383Z" fill="#252525"/>
<path fill-rule="evenodd" clip-rule="evenodd" d="M41.2607 8.06162C41.6569 8.45555 41.6587 9.09603 41.2647 9.49216L24.9876 25.8602C24.5937 26.2563 23.9532 26.2581 23.5571 25.8642C23.1609 25.4702 23.1591 24.8298 23.5531 24.4336L39.8302 8.06561C40.2241 7.66947 40.8646 7.66769 41.2607 8.06162Z" fill="#252525"/>
<path fill-rule="evenodd" clip-rule="evenodd" d="M46.4738 15.9003C46.6885 16.416 46.4446 17.0082 45.9289 17.223L24.6595 26.0809C24.1438 26.2957 23.5516 26.0517 23.3368 25.536C23.122 25.0203 23.366 24.4281 23.8817 24.2133L45.1511 15.3554C45.6668 15.1406 46.259 15.3845 46.4738 15.9003Z" fill="#252525"/>
<path fill-rule="evenodd" clip-rule="evenodd" d="M15.0748 2.82383C15.5913 2.61104 16.1826 2.85729 16.3954 3.37384L25.2059 24.7618C25.4187 25.2783 25.1724 25.8696 24.6559 26.0824C24.1393 26.2951 23.5481 26.0489 23.3353 25.5323L14.5248 4.14442C14.312 3.62787 14.5582 3.03662 15.0748 2.82383Z" fill="#252525"/>
<path fill-rule="evenodd" clip-rule="evenodd" d="M7.2802 8.06162C7.67634 7.66769 8.31681 7.66947 8.71075 8.06561L24.9879 24.4336C25.3818 24.8298 25.38 25.4702 24.9839 25.8642C24.5877 26.2581 23.9473 26.2563 23.5533 25.8602L7.27622 9.49216C6.88229 9.09603 6.88407 8.45555 7.2802 8.06162Z" fill="#252525"/>
<path fill-rule="evenodd" clip-rule="evenodd" d="M2.06727 15.9003C2.28205 15.3845 2.87424 15.1406 3.38997 15.3554L24.6593 24.2133C25.1751 24.4281 25.419 25.0203 25.2042 25.536C24.9894 26.0517 24.3973 26.2957 23.8815 26.0809L2.61217 17.223C2.09645 17.0082 1.85248 16.416 2.06727 15.9003Z" fill="#252525"/>
<path fill-rule="evenodd" clip-rule="evenodd" d="M24.2703 24.0837C24.829 24.0837 25.2819 24.5366 25.2819 25.0953V48.2422C25.2819 48.8008 24.829 49.2537 24.2703 49.2537C23.7117 49.2537 23.2588 48.8008 23.2588 48.2422V25.0953C23.2588 24.5366 23.7117 24.0837 24.2703 24.0837Z" fill="#252525"/>
<path fill-rule="evenodd" clip-rule="evenodd" d="M24.6559 24.2115C25.1725 24.4244 25.4187 25.0156 25.2059 25.5322L16.3953 46.9162C16.1825 47.4327 15.5912 47.6789 15.0747 47.4661C14.5582 47.2533 14.312 46.662 14.5248 46.1455L23.3353 24.7615C23.5481 24.2449 24.1394 23.9987 24.6559 24.2115Z" fill="#252525"/>
<path fill-rule="evenodd" clip-rule="evenodd" d="M24.9839 24.4295C25.38 24.8235 25.3818 25.464 24.9879 25.8601L8.71075 42.2281C8.31682 42.6243 7.67634 42.626 7.28021 42.2321C6.88407 41.8382 6.88229 41.1977 7.27622 40.8016L23.5533 24.4335C23.9473 24.0374 24.5877 24.0356 24.9839 24.4295Z" fill="#252525"/>
<path fill-rule="evenodd" clip-rule="evenodd" d="M25.2042 24.7579C25.419 25.2737 25.1751 25.8658 24.6593 26.0806L3.38997 34.9386C2.87424 35.1534 2.28205 34.9094 2.06727 34.3937C1.85248 33.878 2.09645 33.2858 2.61217 33.071L23.8815 24.213C24.3973 23.9982 24.9894 24.2422 25.2042 24.7579Z" fill="#252525"/>
<path fill-rule="evenodd" clip-rule="evenodd" d="M23.8853 24.2115C24.4018 23.9987 24.9931 24.2449 25.2059 24.7615L34.0164 46.1455C34.2292 46.662 33.983 47.2533 33.4665 47.4661C32.9499 47.6789 32.3587 47.4327 32.1458 46.9162L23.3353 25.5322C23.1225 25.0156 23.3687 24.4244 23.8853 24.2115Z" fill="#252525"/>
<path fill-rule="evenodd" clip-rule="evenodd" d="M23.5571 24.4295C23.9532 24.0356 24.5937 24.0374 24.9876 24.4335L41.2647 40.8016C41.6587 41.1977 41.6569 41.8382 41.2607 42.2321C40.8646 42.626 40.2241 42.6243 39.8302 42.2281L23.5531 25.8601C23.1591 25.464 23.1609 24.8235 23.5571 24.4295Z" fill="#252525"/>
<path fill-rule="evenodd" clip-rule="evenodd" d="M23.3368 24.7579C23.5516 24.2422 24.1438 23.9982 24.6595 24.213L45.9289 33.071C46.4446 33.2858 46.6885 33.878 46.4738 34.3937C46.259 34.9094 45.6668 35.1534 45.1511 34.9386L23.8817 26.0806C23.366 25.8658 23.122 25.2737 23.3368 24.7579Z" fill="#252525"/>
</svg>
