<?xml version="1.0" standalone="no"?>
<!DOCTYPE svg PUBLIC "-//W3C//DTD SVG 1.1//EN" "http://www.w3.org/Graphics/SVG/1.1/DTD/svg11.dtd" >
<svg>
<metadata>
Created by FontForge 20090622 at Fri Jan 11 09:39:36 2019
 By deploy user
&#194;&#169; 2011 Klim Type Foundry. All rights reserved.
</metadata>
<defs>
<font id="Calibre-SemiboldItalic" horiz-adv-x="520" >
  <font-face 
    font-family="Calibre Semibold"
    font-weight="600"
    font-style="italic"
    font-stretch="normal"
    units-per-em="1000"
    panose-1="2 11 7 3 3 2 2 13 2 3"
    ascent="650"
    descent="-350"
    x-height="447"
    cap-height="614"
    bbox="-189 -225 944 906"
    underline-thickness="30"
    underline-position="-40"
    slope="-10"
    unicode-range="U+0020-U+FB02"
  />
<missing-glyph horiz-adv-x="608" 
 />
    <glyph glyph-name="f_f" unicode="ff" horiz-adv-x="617" 
d="M684 647l-19 -104q-16 11 -40 11q-62 0 -74 -62l-8 -45h93l-18 -100h-93l-60 -347h-123l61 347h-169l-60 -347h-123l61 347h-73l18 100h73l8 47q13 77 63 118t123 41q42 0 67 -12l-18 -103q-17 11 -40 11q-62 0 -74 -62l-7 -40h169l9 53q13 77 63 118t124 41q40 0 67 -12
z" />
    <glyph glyph-name=".notdef" horiz-adv-x="608" 
 />
    <glyph glyph-name=".null" horiz-adv-x="0" 
 />
    <glyph glyph-name="nonmarkingreturn" horiz-adv-x="333" 
 />
    <glyph glyph-name="space" unicode=" " horiz-adv-x="212" 
 />
    <glyph glyph-name="exclam" unicode="!" horiz-adv-x="217" 
d="M63 198l46 416h150l-105 -416h-91zM12 70q0 33 23 55.5t56 22.5t56 -22.5t23 -55.5q0 -32 -23 -54.5t-56 -22.5t-56 22.5t-23 54.5z" />
    <glyph glyph-name="quotedbl" unicode="&#x22;" horiz-adv-x="327" 
d="M60 366l44 248h101l-45 -248h-100zM210 366l44 248h101l-45 -248h-100z" />
    <glyph glyph-name="numbersign" unicode="#" horiz-adv-x="630" 
d="M572 245l-18 -86h-113l-48 -159h-98l48 159h-119l-48 -159h-98l48 159h-86l19 86h93l37 124h-104l18 86h112l49 159h99l-49 -159h119l49 159h97l-49 -159h87l-19 -86h-94l-37 -124h105zM288 369l-38 -124h119l38 124h-119z" />
    <glyph glyph-name="dollar" unicode="$" horiz-adv-x="498" 
d="M12 188h123q6 -41 34.5 -61.5t71.5 -20.5q47 0 75.5 20.5t28.5 59.5q0 21 -14.5 35t-48.5 24l-95 28q-122 34 -122 141q0 82 58.5 136t148.5 59l16 91h106l-18 -102q117 -37 127 -162h-118q-5 32 -30.5 52.5t-68.5 20.5t-70.5 -20.5t-27.5 -55.5q0 -40 56 -57l100 -29
q125 -37 125 -144q0 -83 -56 -136t-141 -62l-17 -94h-107l18 100q-69 15 -109.5 60.5t-44.5 116.5z" />
    <glyph glyph-name="percent" unicode="%" horiz-adv-x="685" 
d="M213 624q57 0 96 -39.5t39 -95.5q0 -59 -43 -104t-105 -45q-57 0 -96 39.5t-39 95.5q0 59 43 104t105 45zM204 423q25 0 43 18t18 45q0 23 -16.5 39t-39.5 16q-24 0 -42.5 -18t-18.5 -45q0 -23 16.5 -39t39.5 -16zM66 0l480 614h89l-480 -614h-89zM489 -10
q-57 0 -96 39.5t-39 95.5q0 59 42.5 104t104.5 45q57 0 96 -39t39 -96q0 -59 -42.5 -104t-104.5 -45zM498 191q-25 0 -43 -18t-18 -45q0 -23 16 -39t39 -16q25 0 43.5 18t18.5 45q0 23 -16.5 39t-39.5 16z" />
    <glyph glyph-name="ampersand" unicode="&#x26;" horiz-adv-x="582" 
d="M327 525q-34 0 -55 -22t-21 -57t32 -77l115 -158q22 40 35 98h111q-18 -100 -84 -184l92 -125h-141l-34 45q-80 -55 -167 -55q-91 0 -141.5 46t-50.5 125q0 61 37 109t100 75q-25 44 -25 92q0 82 58 134.5t143 52.5q83 0 128.5 -44t47.5 -119h-121q-2 64 -59 64zM217 89
q56 0 103 32l-109 145q-34 -10 -55 -37t-21 -63q0 -34 23 -55.5t59 -21.5z" />
    <glyph glyph-name="quotesingle" unicode="'" horiz-adv-x="182" 
d="M60 366l44 248h106l-44 -248h-106z" />
    <glyph glyph-name="parenleft" unicode="(" horiz-adv-x="325" 
d="M32 223q0 157 93 274t253 153l-22 -125q-86 -23 -145.5 -106t-59.5 -196q0 -71 32.5 -118.5t87.5 -63.5l-22 -125q-102 31 -159.5 109.5t-57.5 197.5z" />
    <glyph glyph-name="parenright" unicode=")" horiz-adv-x="325" 
d="M316 343q0 -157 -93 -274t-253 -153l22 125q86 23 145.5 106t59.5 196q0 71 -32.5 118.5t-87.5 63.5l22 125q102 -31 159.5 -109.5t57.5 -197.5z" />
    <glyph glyph-name="asterisk" unicode="*" horiz-adv-x="346" 
d="M222 344l-63 10l16 94l-89 -32l-21 60l88 32l-73 61l41 49l73 -61l15 93l64 -10l-17 -94l89 32l22 -59l-89 -33l73 -61l-41 -49l-72 61z" />
    <glyph glyph-name="plus" unicode="+" horiz-adv-x="560" 
d="M283 515h96l-30 -168h168l-17 -96h-168l-29 -167h-96l29 167h-168l17 96h168z" />
    <glyph glyph-name="comma" unicode="," horiz-adv-x="210" 
d="M-35 -109l89 114q-50 14 -50 69q0 33 22.5 55t55.5 22q34 0 56.5 -22.5t22.5 -60.5q0 -39 -39 -88l-72 -89h-85z" />
    <glyph glyph-name="hyphen" unicode="-" horiz-adv-x="317" 
d="M37 208l19 108h241l-19 -108h-241z" />
    <glyph glyph-name="period" unicode="." horiz-adv-x="210" 
d="M4 73q0 34 22.5 56.5t55.5 22.5t56 -22.5t23 -56.5t-23 -57t-56 -23t-55.5 23t-22.5 57z" />
    <glyph glyph-name="slash" unicode="/" horiz-adv-x="373" 
d="M-50 -84l376 734h119l-377 -734h-118z" />
    <glyph glyph-name="zero" unicode="0" horiz-adv-x="545" 
d="M255 104q72 0 113.5 83.5t41.5 188.5q0 61 -22.5 97.5t-67.5 36.5q-48 0 -84.5 -42t-53.5 -103t-17 -127q0 -61 22.5 -97.5t67.5 -36.5zM253 -10q-99 0 -154.5 68t-55.5 180q0 104 36 192.5t101 141t143 52.5q99 0 154 -68t55 -180q0 -158 -80.5 -272t-198.5 -114z" />
    <glyph glyph-name="one" unicode="1" horiz-adv-x="345" 
d="M349 614l-108 -614h-125l82 466l-156 -72l22 128l204 92h81z" />
    <glyph glyph-name="two" unicode="2" horiz-adv-x="476" 
d="M-2 85l246 217l40.5 37t32 33.5t29 41.5t8.5 37q0 27 -17.5 43t-49.5 16q-72 0 -96 -85h-133q24 89 89 144t156 55q85 0 132.5 -41.5t47.5 -112.5q0 -33 -9 -61t-35 -59.5t-40.5 -46t-58.5 -53.5q-8 -8 -13 -12l-141 -127h242l-20 -111h-424z" />
    <glyph glyph-name="three" unicode="3" horiz-adv-x="474" 
d="M199 263l18 99h36q45 0 75.5 23t30.5 68q0 28 -18 45t-50 17q-37 0 -63.5 -24t-36.5 -60h-130q22 86 86.5 139.5t154.5 53.5q86 0 132 -43t46 -115q0 -54 -30 -97t-74 -60q65 -37 65 -118q0 -86 -64.5 -143.5t-158.5 -57.5q-97 0 -152 49.5t-55 131.5l1 19h125v-6
q0 -85 83 -85q44 0 72.5 25t28.5 69q0 32 -22 51t-61 19h-39z" />
    <glyph glyph-name="four" unicode="4" 
d="M435 614l-269 -387h132l22 127h114l-22 -127h93l-18 -105h-94l-21 -122h-114l21 122h-275l17 93l278 399h136z" />
    <glyph glyph-name="five" unicode="5" horiz-adv-x="486" 
d="M225 -10q-94 0 -149 50.5t-55 131.5l1 18h125v-7q0 -38 22 -61t62 -23q47 0 77.5 33t30.5 83q0 39 -22 62t-61 23q-49 0 -88 -41h-104l63 355h361l-20 -111h-256l-22 -125q44 28 96 28q80 0 126 -48.5t46 -130.5q0 -99 -65 -168t-168 -69z" />
    <glyph glyph-name="six" unicode="6" horiz-adv-x="510" 
d="M521 453h-122q-5 27 -24 45t-50 18q-57 0 -98.5 -50t-55.5 -122h2q20 26 56 42t73 16q82 0 132 -51.5t50 -123.5q0 -96 -67 -166.5t-166 -70.5q-105 0 -156.5 68.5t-51.5 175.5q0 92 31.5 179t99.5 149t157 62q82 0 132 -46t58 -125zM164 185q0 -39 22.5 -64t66.5 -25
q45 0 78.5 34.5t33.5 83.5q0 39 -22.5 64.5t-66.5 25.5q-46 0 -79 -34.5t-33 -84.5z" />
    <glyph glyph-name="seven" unicode="7" horiz-adv-x="457" 
d="M485 523l-293 -523h-134l284 502h-276l20 112h415z" />
    <glyph glyph-name="eight" unicode="8" horiz-adv-x="499" 
d="M147 169q0 -36 25 -57t65 -21q45 0 76 25.5t31 70.5q0 36 -25 57t-65 21q-46 0 -76.5 -25.5t-30.5 -70.5zM234 -10q-84 0 -148 43.5t-64 123.5q0 64 40 109.5t95 57.5q-67 34 -67 116q0 83 62 133.5t150 50.5q82 0 137.5 -42.5t55.5 -115.5q0 -57 -32 -99t-81 -59
q37 -16 60.5 -49t23.5 -78q0 -91 -69 -141t-163 -50zM376 457q0 30 -22 49.5t-54 19.5q-39 0 -66 -24t-27 -65q0 -30 21.5 -49.5t53.5 -19.5q40 0 67 24t27 65z" />
    <glyph glyph-name="nine" unicode="9" horiz-adv-x="510" 
d="M19 161h122q5 -27 24 -45t50 -18q57 0 98.5 50t55.5 122h-2q-20 -26 -56 -42t-73 -16q-82 0 -132 51.5t-50 123.5q0 96 67 166.5t166 70.5q105 0 156.5 -68.5t51.5 -175.5q0 -92 -31.5 -179t-99.5 -149t-157 -62q-82 0 -132 46t-58 125zM376 429q0 39 -22.5 64t-66.5 25
q-45 0 -78.5 -34.5t-33.5 -83.5q0 -39 22.5 -64.5t66.5 -25.5q46 0 79 34.5t33 84.5z" />
    <glyph glyph-name="colon" unicode=":" horiz-adv-x="210" 
d="M4 73q0 34 22.5 56.5t55.5 22.5t56 -22.5t23 -56.5t-23 -57t-56 -23t-55.5 23t-22.5 57zM54 358q0 34 22.5 56.5t55.5 22.5t56 -22.5t23 -56.5t-23 -57t-56 -23t-55.5 23t-22.5 57z" />
    <glyph glyph-name="semicolon" unicode=";" horiz-adv-x="210" 
d="M-35 -109l89 114q-50 14 -50 69q0 33 22.5 55t55.5 22q34 0 56.5 -22.5t22.5 -60.5q0 -39 -39 -88l-72 -89h-85zM54 358q0 34 22.5 56.5t55.5 22.5t56 -22.5t23 -56.5t-23 -57t-56 -23t-55.5 23t-22.5 57z" />
    <glyph glyph-name="less" unicode="&#x3c;" horiz-adv-x="441" 
d="M57 236l21 123l355 152l-19 -111l-258 -106l221 -106l-19 -105z" />
    <glyph glyph-name="equal" unicode="=" horiz-adv-x="576" 
d="M64 175l15 87h432l-16 -87h-431zM93 338l15 88h431l-15 -88h-431z" />
    <glyph glyph-name="greater" unicode="&#x3e;" horiz-adv-x="441" 
d="M409 358l-21 -123l-355 -152l19 111l259 106l-222 106l19 105z" />
    <glyph glyph-name="question" unicode="?" horiz-adv-x="456" 
d="M278 510q-39 0 -65 -24t-36 -61h-130q25 89 89.5 144t156.5 55q83 0 130 -41t47 -113q0 -31 -9.5 -58t-31.5 -53.5t-37.5 -41.5t-47.5 -43q-49 -43 -54 -76h-123q8 37 24 64.5t51 59.5q5 5 30.5 28.5t34.5 33.5t20.5 30t11.5 39q0 25 -16 41t-45 16zM134 70q0 34 22.5 56
t55.5 22q34 0 57 -22t23 -56q0 -32 -23 -54.5t-57 -22.5q-33 0 -55.5 22.5t-22.5 54.5z" />
    <glyph glyph-name="at" unicode="@" horiz-adv-x="768" 
d="M589 386l-55 -236q-10 -47 29 -47q47 0 79 50t32 134q0 98 -68.5 154.5t-177.5 56.5q-140 0 -229.5 -92.5t-89.5 -239.5q0 -55 17.5 -98.5t46 -71t66.5 -45.5t76.5 -25.5t78.5 -7.5q123 0 237 51l-13 -77q-94 -46 -224 -46q-73 0 -137.5 19t-116.5 56.5t-82.5 100.5
t-30.5 144q0 169 114 287t288 118q145 0 233.5 -79.5t88.5 -203.5q0 -122 -64 -189.5t-152 -67.5q-76 0 -109 53q-15 -24 -43 -38t-57 -14q-59 0 -93 38.5t-34 99.5q0 90 56 157.5t139 67.5q61 0 83 -37l8 28h104zM432 166l24 100q-11 37 -55 37q-40 0 -67 -35.5t-27 -83.5
q0 -27 14.5 -43t41.5 -16q41 0 69 41z" />
    <glyph glyph-name="A" unicode="A" horiz-adv-x="627" 
d="M327 614h127l122 -614h-128l-28 148h-230l-82 -148h-129zM363 460l-113 -204h150z" />
    <glyph glyph-name="B" unicode="B" horiz-adv-x="552" 
d="M439 314q36 -14 56.5 -45t20.5 -74q0 -92 -67.5 -143.5t-171.5 -51.5h-255l108 614h236q86 0 132.5 -37.5t46.5 -106.5q0 -57 -30.5 -99t-75.5 -57zM209 362h104q50 0 78.5 21.5t28.5 63.5q0 59 -81 59h-105zM191 262l-27 -154h122q48 0 77 24.5t29 65.5q0 64 -79 64
h-122z" />
    <glyph glyph-name="C" unicode="C" horiz-adv-x="603" 
d="M43 269q0 144 89 249.5t227 105.5q105 0 168 -57t71 -151h-127q-21 94 -114 94q-85 0 -134.5 -69t-49.5 -171q0 -74 37.5 -120t101.5 -46q95 0 138 95h128q-29 -96 -98 -152.5t-170 -56.5q-119 0 -193 77t-74 202z" />
    <glyph glyph-name="D" unicode="D" horiz-adv-x="611" 
d="M169 113h87q99 0 156 65.5t57 170.5q0 73 -38 113t-113 40h-80zM22 0l108 614h208q126 0 193 -67.5t67 -190.5q0 -153 -98 -254.5t-258 -101.5h-220z" />
    <glyph glyph-name="E" unicode="E" horiz-adv-x="516" 
d="M130 614h418l-20 -112h-291l-24 -134h265l-20 -109h-264l-26 -146h291l-19 -113h-418z" />
    <glyph glyph-name="F" unicode="F" horiz-adv-x="501" 
d="M150 0h-128l108 614h409l-19 -112h-282l-28 -156h261l-19 -111h-261z" />
    <glyph glyph-name="G" unicode="G" horiz-adv-x="623" 
d="M315 -10q-123 0 -197.5 77t-74.5 202q0 144 89.5 249.5t228.5 105.5q107 0 172.5 -57t73.5 -151h-126q-10 43 -41 68.5t-81 25.5q-86 0 -136 -69t-50 -171q0 -74 38.5 -120t105.5 -46q55 0 97.5 33t53.5 83h-115l18 102h240l-14 -81q-19 -111 -96 -181t-186 -70z" />
    <glyph glyph-name="H" unicode="H" horiz-adv-x="652" 
d="M537 614h128l-108 -614h-128l45 258h-278l-45 -258h-129l108 614h129l-44 -244h279z" />
    <glyph glyph-name="I" unicode="I" horiz-adv-x="245" 
d="M259 614l-108 -614h-129l108 614h129z" />
    <glyph glyph-name="J" unicode="J" horiz-adv-x="514" 
d="M22 203h130q-1 -6 -1 -10q0 -87 82 -87q87 0 109 123l68 385h128l-69 -395q-20 -108 -82 -168.5t-157 -60.5q-97 0 -153 51.5t-56 137.5q0 5 1 15v9z" />
    <glyph glyph-name="K" unicode="K" horiz-adv-x="594" 
d="M259 614l-49 -276l279 276h160l-285 -277l184 -337h-146l-142 255l-78 -74l-31 -181h-129l108 614h129z" />
    <glyph glyph-name="L" unicode="L" horiz-adv-x="507" 
d="M22 0l108 614h129l-89 -501h287l-20 -113h-415z" />
    <glyph glyph-name="M" unicode="M" horiz-adv-x="748" 
d="M382 0h-86l-82 401l-71 -401h-121l108 614h148l89 -439l240 439h154l-108 -614h-122l71 401z" />
    <glyph glyph-name="N" unicode="N" horiz-adv-x="631" 
d="M644 614l-108 -614h-99l-218 421l-73 -421h-124l108 614h118l202 -400l70 400h124z" />
    <glyph glyph-name="O" unicode="O" horiz-adv-x="640" 
d="M311 104q80 0 133.5 66.5t53.5 173.5q0 72 -38 119t-101 47q-80 0 -133 -66.5t-53 -173.5q0 -72 37.5 -119t100.5 -47zM309 -10q-121 0 -193.5 77.5t-72.5 201.5q0 151 92.5 253t225.5 102q121 0 193.5 -77.5t72.5 -201.5q0 -151 -92 -253t-226 -102z" />
    <glyph glyph-name="P" unicode="P" horiz-adv-x="551" 
d="M310 213h-123l-37 -213h-128l108 614h246q89 0 138 -44.5t49 -128.5q0 -106 -71.5 -167t-181.5 -61zM238 505l-31 -183h114q54 0 85 29t31 79q0 75 -85 75h-114z" />
    <glyph glyph-name="Q" unicode="Q" horiz-adv-x="640" 
d="M309 -10q-121 0 -193.5 77.5t-72.5 201.5q0 151 92.5 253t225.5 102q121 0 193.5 -77.5t72.5 -201.5q0 -85 -32 -157.5t-87 -121.5l37 -59l-84 -55l-38 61q-54 -23 -114 -23zM311 101q26 0 53 8l-40 64l86 54l36 -60q52 68 52 177q0 72 -38 119t-101 47q-80 0 -133 -66.5
t-53 -173.5q0 -73 37.5 -121t100.5 -48z" />
    <glyph glyph-name="R" unicode="R" horiz-adv-x="563" 
d="M263 229h-73l-40 -229h-128l108 614h242q92 0 141.5 -44t49.5 -126q0 -81 -47 -134.5t-125 -72.5l123 -237h-137zM238 505l-30 -171h117q53 0 82.5 26.5t29.5 75.5q0 69 -84 69h-115z" />
    <glyph glyph-name="S" unicode="S" horiz-adv-x="531" 
d="M533 441h-126q-5 34 -32 56t-72 22t-73 -21.5t-28 -58.5q0 -44 56 -60l105 -31q129 -39 129 -149q0 -96 -69.5 -152.5t-170.5 -56.5q-104 0 -168 49.5t-71 140.5h128q7 -41 38 -62.5t74 -21.5q50 0 80 22t30 63q0 44 -66 63l-99 28q-125 36 -125 147q0 89 65.5 147
t165.5 58q106 0 165 -50t64 -133z" />
    <glyph glyph-name="T" unicode="T" horiz-adv-x="575" 
d="M75 502l20 112h524l-20 -112h-198l-88 -502h-129l89 502h-198z" />
    <glyph glyph-name="U" unicode="U" horiz-adv-x="610" 
d="M284 -10q-106 0 -169 53t-63 150q0 28 8 67l62 354h128l-63 -354q-4 -34 -4 -46q0 -109 106 -109q125 0 153 155l62 354h128l-65 -367q-22 -125 -95 -191t-188 -66z" />
    <glyph glyph-name="V" unicode="V" horiz-adv-x="614" 
d="M322 0h-125l-110 614h129l73 -444l247 444h136z" />
    <glyph glyph-name="W" unicode="W" horiz-adv-x="798" 
d="M420 614h101l25 -413l181 413h129l-281 -614h-118l-28 405l-188 -405h-117l-37 614h125l19 -413z" />
    <glyph glyph-name="X" unicode="X" horiz-adv-x="584" 
d="M645 614l-267 -305l153 -309h-134l-105 216l-188 -216h-143l279 318l-146 296h134l98 -202l176 202h143z" />
    <glyph glyph-name="Y" unicode="Y" horiz-adv-x="593" 
d="M319 354l194 260h141l-290 -381l-41 -233h-127l40 233l-153 381h134z" />
    <glyph glyph-name="Z" unicode="Z" horiz-adv-x="554" 
d="M499 113l-20 -113h-474l16 93l378 409h-299l20 112h465l-17 -92l-375 -409h306z" />
    <glyph glyph-name="bracketleft" unicode="[" horiz-adv-x="322" 
d="M232 543l-91 -520h127l-19 -107h-244l129 734h244l-19 -107h-127z" />
    <glyph glyph-name="backslash" unicode="\" horiz-adv-x="373" 
d="M206 650l119 -734h-109l-119 734h109z" />
    <glyph glyph-name="bracketright" unicode="]" horiz-adv-x="322" 
d="M115 23l91 520h-127l19 107h244l-129 -734h-244l19 107h127z" />
    <glyph glyph-name="asciicircum" unicode="^" horiz-adv-x="409" 
d="M215 614h113l98 -220h-110l-56 126l-101 -126h-121z" />
    <glyph glyph-name="underscore" unicode="_" horiz-adv-x="381" 
d="M-38 -143l17 101h341l-18 -101h-340z" />
    <glyph glyph-name="grave" unicode="`" horiz-adv-x="500" 
d="M338 508h-105l-64 142h115z" />
    <glyph glyph-name="a" unicode="a" horiz-adv-x="473" 
d="M436 285l-50 -285h-120l4 24q-38 -32 -105 -32q-65 0 -108 34.5t-43 94.5q0 72 57.5 115.5t137.5 43.5q69 0 102 -26l6 32q2 10 2 18q0 52 -59 52q-52 0 -76 -42h-118q19 63 76 103t133 40t120 -38t44 -102q0 -15 -3 -32zM287 121l6 33q-5 18 -25.5 28.5t-47.5 10.5
q-34 0 -61.5 -16.5t-27.5 -47.5q0 -23 20.5 -34.5t50.5 -11.5q61 0 85 38z" />
    <glyph glyph-name="b" unicode="b" horiz-adv-x="522" 
d="M147 38l-7 -38h-124l114 650h124l-43 -245q20 22 52 37t66 15q80 0 124 -54.5t44 -139.5q0 -115 -68 -194t-171 -79q-38 0 -68 14t-43 34zM191 291l-24 -141q7 -24 28 -38t51 -14q57 0 91 44.5t34 113.5q0 41 -21.5 67t-60.5 26q-59 0 -98 -58z" />
    <glyph glyph-name="c" unicode="c" horiz-adv-x="459" 
d="M307 151h121q-18 -76 -73 -118.5t-137 -42.5q-88 0 -140 55.5t-52 144.5q0 108 67.5 187.5t173.5 79.5q84 0 130.5 -43.5t49.5 -117.5h-122q-5 55 -62 55q-54 0 -83.5 -48t-29.5 -111q0 -45 20.5 -70.5t56.5 -25.5q59 0 80 55z" />
    <glyph glyph-name="d" unicode="d" horiz-adv-x="522" 
d="M375 409l42 241h124l-114 -650h-124l8 42q-46 -52 -118 -52q-80 0 -123.5 54.5t-43.5 139.5q0 111 68 192t170 81q38 0 68 -14t43 -34zM331 156l25 141q-8 23 -29 37.5t-51 14.5q-55 0 -90 -47.5t-35 -110.5q0 -41 21.5 -67t60.5 -26q59 0 98 58z" />
    <glyph glyph-name="e" unicode="e" horiz-adv-x="474" 
d="M317 146h120q-21 -73 -76.5 -114.5t-137.5 -41.5q-91 0 -144 54.5t-53 145.5q0 107 68 187t177 80q86 0 133.5 -49t47.5 -134q0 -36 -9 -77h-298v-8q0 -47 22 -73t64 -26q62 0 86 56zM266 356q-75 0 -107 -84h175q1 5 1 12q0 31 -18.5 51.5t-50.5 20.5z" />
    <glyph glyph-name="f" unicode="f" horiz-adv-x="326" 
d="M392 647l-18 -104q-17 11 -40 11q-63 0 -74 -62l-8 -45h93l-18 -100h-93l-60 -347h-123l61 347h-73l18 100h73l9 53q13 77 63 118t123 41q42 0 67 -12z" />
    <glyph glyph-name="g" unicode="g" 
d="M309 31l5 30q-44 -51 -116 -51q-81 0 -125.5 53.5t-44.5 135.5q0 106 67 182t169 76q39 0 68.5 -13.5t42.5 -33.5l7 37h124l-72 -407q-18 -105 -81 -160t-162 -55q-87 0 -140 43.5t-54 115.5h120q5 -63 78 -63q93 0 114 110zM333 169l24 135q-6 21 -28.5 35t-52.5 14
q-55 0 -89 -44t-34 -105q0 -41 21.5 -65.5t60.5 -24.5q60 0 98 55z" />
    <glyph glyph-name="h" unicode="h" horiz-adv-x="505" 
d="M339 457q62 0 97.5 -36.5t35.5 -95.5q0 -17 -3 -35l-50 -290h-125l46 266q3 14 3 22q0 57 -61 57q-28 0 -53.5 -17t-38.5 -45l-50 -283h-124l114 650h124l-43 -245q50 52 128 52z" />
    <glyph glyph-name="i" unicode="i" horiz-adv-x="232" 
d="M219 447l-79 -447h-124l79 447h124zM253 577q0 -31 -22 -51.5t-52 -20.5t-51.5 19.5t-21.5 49.5q0 32 22 52.5t53 20.5q30 0 51 -20t21 -50z" />
    <glyph glyph-name="j" unicode="j" horiz-adv-x="232" 
d="M-99 -161l18 100q19 -13 42 -13q22 0 34 13.5t18 43.5l82 464h124l-83 -465q-13 -76 -55 -116.5t-111 -40.5q-43 0 -69 14zM253 577q0 -31 -22 -51.5t-52 -20.5t-51.5 19.5t-21.5 49.5q0 32 22 52.5t53 20.5q30 0 51 -20t21 -50z" />
    <glyph glyph-name="k" unicode="k" horiz-adv-x="496" 
d="M318 0l-108 182l-45 -41l-25 -141h-124l114 650h124l-65 -371l179 168h159l-220 -195l147 -252h-136z" />
    <glyph glyph-name="l" unicode="l" horiz-adv-x="232" 
d="M254 650l-114 -650h-124l114 650h124z" />
    <glyph glyph-name="m" unicode="m" horiz-adv-x="742" 
d="M442 399q56 58 134 58q64 0 98.5 -36.5t34.5 -94.5q0 -18 -3 -34l-50 -292h-125l46 261q3 21 3 29q0 55 -51 55q-25 0 -47 -17t-35 -45l-49 -283h-124l45 261q3 21 3 29q0 55 -51 55q-25 0 -47 -17t-34 -45l-50 -283h-124l79 447h124l-8 -42q50 52 122 52
q36 0 65.5 -16.5t43.5 -41.5z" />
    <glyph glyph-name="n" unicode="n" horiz-adv-x="505" 
d="M16 0l79 447h124l-8 -42q50 52 128 52q62 0 97.5 -36.5t35.5 -95.5q0 -17 -3 -35l-50 -290h-125l46 266q3 14 3 22q0 57 -61 57q-28 0 -53.5 -17t-38.5 -45l-50 -283h-124z" />
    <glyph glyph-name="o" unicode="o" horiz-adv-x="490" 
d="M227 95q50 0 82 46.5t32 116.5q0 42 -20.5 68t-57.5 26q-50 0 -82 -46.5t-32 -116.5q0 -42 20.5 -68t57.5 -26zM225 -10q-92 0 -145.5 54.5t-53.5 145.5q0 115 69.5 191t169.5 76q92 0 145.5 -54.5t53.5 -145.5q0 -115 -69.5 -191t-169.5 -76z" />
    <glyph glyph-name="p" unicode="p" horiz-adv-x="522" 
d="M147 38l-36 -203h-124l108 612h124l-8 -42q20 22 52 37t66 15q80 0 124 -54.5t44 -139.5q0 -115 -68 -194t-171 -79q-38 0 -68 14t-43 34zM191 291l-24 -141q7 -24 28 -38t51 -14q57 0 91 44.5t34 113.5q0 41 -21.5 67t-60.5 26q-59 0 -98 -58z" />
    <glyph glyph-name="q" unicode="q" horiz-adv-x="519" 
d="M375 409l7 38h124l-108 -612h-124l37 207q-46 -52 -118 -52q-80 0 -123.5 54.5t-43.5 139.5q0 111 68 192t170 81q38 0 68 -14t43 -34zM331 156l25 141q-8 23 -29 37.5t-51 14.5q-55 0 -90 -47.5t-35 -110.5q0 -41 21.5 -67t60.5 -26q59 0 98 58z" />
    <glyph glyph-name="r" unicode="r" horiz-adv-x="351" 
d="M366 449l-22 -124q-22 15 -59 15q-32 0 -58 -16.5t-38 -46.5l-49 -277h-124l79 447h124l-8 -44q17 24 47 39t62 15q34 0 46 -8z" />
    <glyph glyph-name="s" unicode="s" horiz-adv-x="437" 
d="M9 135h118q8 -51 73 -51q67 0 67 44q0 15 -8.5 23t-30.5 14l-76 21q-102 28 -102 117q0 68 54 111t132 43q86 0 131 -38t50 -102h-115q-9 46 -66 46q-27 0 -45 -12t-18 -32q0 -23 31 -33l82 -24q104 -30 104 -117q0 -73 -55 -114t-137 -41q-86 0 -135.5 40t-53.5 105z
" />
    <glyph glyph-name="t" unicode="t" horiz-adv-x="343" 
d="M66 135l40 212h-70l18 100h70l22 121h123l-22 -121h96l-17 -100h-97l-36 -191q-2 -14 -2 -19q0 -37 43 -37q32 0 57 15l-19 -110q-30 -14 -82 -14q-128 0 -128 108q0 10 4 36z" />
    <glyph glyph-name="u" unicode="u" horiz-adv-x="501" 
d="M487 447l-78 -447h-124l7 41q-51 -51 -127 -51q-62 0 -97 36t-35 95q0 17 3 36l51 290h124l-46 -269q-3 -14 -3 -26q0 -55 58 -55q29 0 55 18.5t38 46.5l50 285h124z" />
    <glyph glyph-name="v" unicode="v" horiz-adv-x="485" 
d="M246 0h-120l-73 447h119l43 -297l168 297h129z" />
    <glyph glyph-name="w" unicode="w" horiz-adv-x="668" 
d="M420 447l14 -285l139 285h122l-230 -447h-113l-16 274l-130 -274h-113l-41 447h117l21 -285l135 285h95z" />
    <glyph glyph-name="x" unicode="x" horiz-adv-x="480" 
d="M507 447l-200 -220l119 -227h-127l-73 142l-127 -142h-136l212 232l-113 215h128l66 -130l114 130h137z" />
    <glyph glyph-name="y" unicode="y" horiz-adv-x="485" 
d="M147 -165h-124l101 172l-71 440h119l45 -297l166 297h129z" />
    <glyph glyph-name="z" unicode="z" horiz-adv-x="450" 
d="M390 100l-17 -100h-374l14 80l261 267h-207l18 100h364l-15 -80l-258 -267h214z" />
    <glyph glyph-name="braceleft" unicode="{" horiz-adv-x="353" 
d="M210 200l-26 -148q-5 -29 24 -29h91l-19 -107h-108q-59 0 -87.5 35.5t-18.5 94.5l27 154q5 29 -24 29h-47l19 108h48q29 0 34 29l26 154q10 58 52.5 94t99.5 36h108l-19 -107h-91q-29 0 -34 -29l-26 -148q-10 -55 -62 -84q43 -29 33 -82z" />
    <glyph glyph-name="bar" unicode="|" horiz-adv-x="228" 
d="M7 -84l129 734h111l-129 -734h-111z" />
    <glyph glyph-name="braceright" unicode="}" horiz-adv-x="353" 
d="M169 366l26 148q5 29 -24 29h-91l19 107h108q59 0 87.5 -35.5t18.5 -94.5l-27 -154q-5 -29 24 -29h47l-19 -108h-48q-29 0 -34 -29l-26 -154q-10 -58 -52.5 -94t-99.5 -36h-108l19 107h91q29 0 34 29l26 148q10 55 62 84q-43 29 -33 82z" />
    <glyph glyph-name="asciitilde" unicode="~" horiz-adv-x="428" 
d="M327 347h88q-13 -73 -48 -112.5t-85 -39.5q-27 0 -48 14.5t-37 29.5t-31 15q-36 0 -46 -55h-87q12 72 47 112t85 40q26 0 47 -14.5t37.5 -29.5t31.5 -15q36 0 46 55z" />
    <glyph glyph-name="exclamdown" unicode="&#xa1;" horiz-adv-x="224" 
d="M182 320l-46 -416h-150l105 416h91zM233 448q0 -33 -23 -55.5t-56 -22.5t-56 22.5t-23 55.5q0 32 23 54.5t56 22.5t56 -22.5t23 -54.5z" />
    <glyph glyph-name="cent" unicode="&#xa2;" horiz-adv-x="459" 
d="M27 200q0 100 58.5 176.5t152.5 88.5l16 90h107l-19 -100q104 -35 106 -155h-120q-2 28 -18 44.5t-45 16.5q-54 0 -84 -48t-30 -111q0 -45 20.5 -70.5t56.5 -25.5q64 0 83 60h120q-15 -67 -58 -109.5t-109 -53.5l-16 -90h-106l16 95q-61 18 -96 69t-35 123z" />
    <glyph glyph-name="sterling" unicode="&#xa3;" horiz-adv-x="497" 
d="M262 424l-13 -73h127l-16 -97h-129l-10 -60q-11 -64 -37 -91h275l-17 -103h-446l18 103h51q26 35 36 91l11 60h-71l16 97h72l13 71q16 90 70 146t141 56q84 0 127.5 -46t41.5 -120h-114q0 61 -58 61q-71 0 -88 -95z" />
    <glyph glyph-name="yen" unicode="&#xa5;" horiz-adv-x="561" 
d="M50 116l14 84h153l10 56h-153l15 84h106l-104 274h131l84 -242l171 242h138l-203 -274h106l-15 -84h-153l-10 -56h153l-14 -84h-153l-20 -116h-124l20 116h-152z" />
    <glyph glyph-name="section" unicode="&#xa7;" horiz-adv-x="473" 
d="M297 276l-107 80q-19 -5 -33.5 -19.5t-14.5 -33.5q0 -24 42 -55l107 -80q19 5 33.5 19.5t14.5 33.5q0 24 -42 55zM355 102q10 -16 10 -43q0 -71 -55 -115t-131 -44q-85 0 -128 40t-43 107h113q0 -55 61 -55q29 0 48 14t19 40q0 22 -36 48l-99 69q-82 59 -82 123
q0 92 94 136q-10 16 -10 43q0 71 55.5 115t131.5 44q84 0 127.5 -40t43.5 -107h-113q0 55 -62 55q-29 0 -48 -14t-19 -40q0 -22 37 -48l98 -69q82 -58 82 -123q0 -92 -94 -136z" />
    <glyph glyph-name="dieresis" unicode="&#xa8;" horiz-adv-x="500" 
d="M101 570q0 28 19.5 47.5t47.5 19.5q27 0 46.5 -19.5t19.5 -47.5q0 -27 -19.5 -46.5t-46.5 -19.5q-28 0 -47.5 19.5t-19.5 46.5zM265 570q0 28 19.5 47.5t46.5 19.5t47 -19.5t20 -47.5q0 -27 -20 -46.5t-47 -19.5t-46.5 19.5t-19.5 46.5z" />
    <glyph glyph-name="copyright" unicode="&#xa9;" horiz-adv-x="704" 
d="M685 307q0 -136 -92.5 -226.5t-224.5 -90.5t-224.5 90.5t-92.5 226.5t92.5 226.5t224.5 90.5t224.5 -90.5t92.5 -226.5zM638 307q0 116 -79 193.5t-191 77.5t-191 -77.5t-79 -193.5t79 -193.5t191 -77.5t191 77.5t79 193.5zM184 309q0 88 52.5 143.5t134.5 55.5
q72 0 115 -37.5t53 -99.5h-104q-15 43 -64 43q-39 0 -61 -29.5t-22 -75.5t22 -76t61 -30q48 0 64 44h104q-10 -62 -53.5 -99.5t-114.5 -37.5q-82 0 -134.5 55.5t-52.5 143.5z" />
    <glyph glyph-name="ordfeminine" unicode="&#xaa;" horiz-adv-x="333" 
d="M346 506l-33 -186h-95l2 16q-23 -21 -68 -21q-43 0 -71.5 24t-28.5 64q0 48 37 76.5t89 28.5q46 0 69 -17l4 21q1 1 1 9q0 29 -33 29q-31 0 -43 -25h-92q15 46 53.5 75t94.5 29q54 0 85 -26.5t31 -71.5q0 -7 -2 -25zM232 404l3 19q-7 22 -41 22q-18 0 -32.5 -9t-14.5 -26
q0 -26 38 -26q32 0 47 20z" />
    <glyph glyph-name="guillemotleft" unicode="&#xab;" horiz-adv-x="420" 
d="M193 61h-106l-63 161l120 161h110l-123 -167zM365 61h-106l-63 158l120 164h110l-123 -167z" />
    <glyph glyph-name="registered" unicode="&#xae;" horiz-adv-x="407" 
d="M418 441q0 -78 -53 -130.5t-128 -52.5t-128 52.5t-53 130.5t53 130.5t128 52.5t128 -52.5t53 -130.5zM385 441q0 66 -43 109t-105 43t-105 -43t-43 -109t43 -109t105 -43t105 43t43 109zM233 407h-17v-61h-54v192h91q32 0 51 -18t19 -49q0 -46 -37 -58l44 -67h-59z
M271 471q0 22 -25 22h-30v-43h30q25 0 25 21z" />
    <glyph glyph-name="macron" unicode="&#xaf;" horiz-adv-x="500" 
d="M123 516l16 91h237l-16 -91h-237z" />
    <glyph glyph-name="degree" unicode="&#xb0;" horiz-adv-x="357" 
d="M224 624q53 0 88.5 -36.5t35.5 -89.5q0 -60 -43 -103.5t-102 -43.5q-53 0 -89 36.5t-36 89.5q0 60 43 103.5t103 43.5zM218 549q-25 0 -44.5 -20t-19.5 -48q0 -23 16 -39t39 -16q25 0 44.5 20t19.5 48q0 23 -16 39t-39 16z" />
    <glyph glyph-name="plusminus" unicode="&#xb1;" horiz-adv-x="569" 
d="M297 548h90l-23 -130h164l-16 -90h-164l-23 -130h-91l23 130h-164l16 90h164zM46 62l16 91h419l-16 -91h-419z" />
    <glyph glyph-name="twosuperior" unicode="&#xb2;" horiz-adv-x="309" 
d="M45 333l143 120q43 36 43 59q0 24 -24 24q-29 0 -37 -32h-97q14 51 51.5 83t92.5 32q51 0 80 -24.5t29 -66.5q0 -26 -12.5 -49t-26.5 -37t-42 -37l-63 -53h115l-13 -79h-249z" />
    <glyph glyph-name="threesuperior" unicode="&#xb3;" horiz-adv-x="309" 
d="M158 412l12 66h20q49 0 49 39q0 11 -7.5 18.5t-21.5 7.5q-16 0 -27.5 -10.5t-15.5 -26.5h-93q13 51 50.5 82t92.5 31q51 0 79 -25.5t28 -67.5q0 -28 -15.5 -51t-35.5 -32q32 -21 32 -63q0 -48 -37.5 -80.5t-92.5 -32.5q-57 0 -91 29.5t-34 77.5l1 9h93v-3q0 -36 35 -36
q17 0 29 10t12 27q0 31 -38 31h-24z" />
    <glyph glyph-name="acute" unicode="&#xb4;" horiz-adv-x="500" 
d="M251 508h-115l105 142h124z" />
    <glyph glyph-name="paragraph" unicode="&#xb6;" horiz-adv-x="538" 
d="M336 -90l124 704h91l-124 -704h-91zM181 -90l62 349q-80 0 -136.5 39.5t-56.5 113.5q0 52 24 92.5t63.5 63.5t84.5 34.5t93 11.5h81l-124 -704h-91z" />
    <glyph glyph-name="periodcentered" unicode="&#xb7;" horiz-adv-x="214" 
d="M33 263q0 34 22.5 56.5t55.5 22.5t56 -22.5t23 -56.5t-23 -57t-56 -23t-55.5 23t-22.5 57z" />
    <glyph glyph-name="cedilla" unicode="&#xb8;" horiz-adv-x="500" 
d="M256 -186h-114l95 139h117z" />
    <glyph glyph-name="onesuperior" unicode="&#xb9;" horiz-adv-x="244" 
d="M261 614l-60 -341h-92l42 236l-84 -38l15 92l116 51h63z" />
    <glyph glyph-name="ordmasculine" unicode="&#xba;" horiz-adv-x="347" 
d="M204 399q28 0 45.5 27t17.5 67q0 23 -11 37t-31 14q-28 0 -45.5 -27t-17.5 -68q0 -22 11 -36t31 -14zM201 313q-63 0 -101.5 37.5t-38.5 99.5q0 78 48.5 128.5t118.5 50.5q63 0 101.5 -37t38.5 -99q0 -78 -48.5 -129t-118.5 -51z" />
    <glyph glyph-name="guillemotright" unicode="&#xbb;" horiz-adv-x="420" 
d="M236 383h106l63 -161l-120 -161h-110l123 167zM64 383h106l63 -158l-120 -164h-110l123 167z" />
    <glyph glyph-name="onequarter" unicode="&#xbc;" horiz-adv-x="702" 
d="M667 614l-536 -614h-93l536 614h93zM274 614l-60 -341h-88l42 237l-96 -43l17 92l125 55h60zM598 341l-133 -204h54l10 55h79l-10 -55h48l-13 -75h-48l-10 -62h-80l11 62h-152l11 68l144 211h89z" />
    <glyph glyph-name="onehalf" unicode="&#xbd;" horiz-adv-x="716" 
d="M667 614l-536 -614h-93l536 614h93zM274 614l-60 -341h-88l42 237l-96 -43l17 92l125 55h60zM387 61l143 119q46 39 46 62q0 24 -25 24q-14 0 -25.5 -10.5t-14.5 -23.5h-95q13 50 51 82t92 32q51 0 80 -24.5t29 -66.5q0 -24 -12.5 -47.5t-27.5 -38t-42 -37.5l-66 -54h119
l-13 -78h-249z" />
    <glyph glyph-name="threequarters" unicode="&#xbe;" horiz-adv-x="736" 
d="M700 614l-536 -614h-92l536 614h92zM168 412l12 66h20q49 0 49 39q0 11 -7.5 18.5t-21.5 7.5q-33 0 -44 -37h-92q12 50 49.5 81.5t92.5 31.5q51 0 79.5 -25.5t28.5 -67.5q0 -28 -15.5 -51t-36.5 -32q32 -21 32 -63q0 -48 -37.5 -80.5t-92.5 -32.5q-56 0 -90 29.5
t-34 77.5l1 9h92v-3q0 -36 36 -36q17 0 28.5 10t11.5 27q0 31 -38 31h-23zM632 341l-133 -204h54l9 55h80l-10 -55h48l-13 -75h-48l-11 -62h-79l11 62h-152l11 68l143 211h90z" />
    <glyph glyph-name="questiondown" unicode="&#xbf;" horiz-adv-x="456" 
d="M195 8q39 0 65 24t36 61h130q-25 -89 -89.5 -144t-156.5 -55q-83 0 -130 41t-47 113q0 31 9.5 58t31.5 53.5t37.5 41.5t47.5 43q49 43 54 76h123q-8 -37 -24 -64.5t-51 -59.5q-5 -5 -30.5 -28.5t-34.5 -33.5t-20.5 -30t-11.5 -39q0 -25 16 -41t45 -16zM339 448
q0 -34 -22.5 -56t-55.5 -22q-34 0 -57 22t-23 56q0 32 23 54.5t57 22.5q33 0 55.5 -22.5t22.5 -54.5z" />
    <glyph glyph-name="Agrave" unicode="&#xc0;" horiz-adv-x="627" 
d="M327 614h127l122 -614h-128l-28 148h-230l-82 -148h-129zM363 460l-113 -204h150zM456 669h-114l-71 122h128z" />
    <glyph glyph-name="Aacute" unicode="&#xc1;" horiz-adv-x="627" 
d="M327 614h127l122 -614h-128l-28 148h-230l-82 -148h-129zM457 669h-126l100 122h139zM363 460l-113 -204h150z" />
    <glyph glyph-name="Acircumflex" unicode="&#xc2;" horiz-adv-x="627" 
d="M327 614h127l122 -614h-128l-28 148h-230l-82 -148h-129zM469 796l77 -127h-101l-38 54l-56 -54h-109l123 127h104zM363 460l-113 -204h150z" />
    <glyph glyph-name="Atilde" unicode="&#xc3;" horiz-adv-x="627" 
d="M327 614h127l122 -614h-128l-28 148h-230l-82 -148h-129zM493 804h74q-10 -63 -38.5 -101.5t-71.5 -38.5q-24 0 -52.5 23t-41.5 23q-28 0 -36 -42h-74q11 63 39 101t70 38q24 0 53 -22.5t42 -22.5q28 0 36 42zM363 460l-113 -204h150z" />
    <glyph glyph-name="Adieresis" unicode="&#xc4;" horiz-adv-x="627" 
d="M327 614h127l122 -614h-128l-28 148h-230l-82 -148h-129zM363 460l-113 -204h150zM423 730q0 29 19.5 48.5t47.5 19.5t48 -19.5t20 -48.5q0 -27 -20 -46.5t-48 -19.5t-47.5 19.5t-19.5 46.5zM258 730q0 29 19 48.5t48 19.5q28 0 47.5 -19.5t19.5 -48.5q0 -27 -19.5 -46.5
t-47.5 -19.5t-47.5 19.5t-19.5 46.5z" />
    <glyph glyph-name="Aring" unicode="&#xc5;" horiz-adv-x="627" 
d="M327 614h127l122 -614h-128l-28 148h-230l-82 -148h-129zM405 646q-41 0 -68 26.5t-27 66.5q0 42 30 71.5t74 29.5q41 0 68 -26.5t27 -66.5q0 -42 -30 -71.5t-74 -29.5zM363 460l-113 -204h150zM408 704q16 0 28.5 11.5t12.5 29.5q0 16 -10.5 27t-26.5 11
q-17 0 -29.5 -12t-12.5 -30q0 -16 11 -26.5t27 -10.5z" />
    <glyph glyph-name="AE" unicode="&#xc6;" horiz-adv-x="879" 
d="M428 614h483l-19 -112h-276l-25 -134h250l-19 -109h-250l-25 -146h276l-20 -113h-402l26 148h-204l-108 -148h-136zM492 517l-191 -261h145z" />
    <glyph glyph-name="Ccedilla" unicode="&#xc7;" horiz-adv-x="603" 
d="M43 269q0 144 89 249.5t227 105.5q105 0 168 -57t71 -151h-127q-21 94 -114 94q-85 0 -134.5 -69t-49.5 -171q0 -74 37.5 -120t101.5 -46q95 0 138 95h128q-29 -96 -98 -152.5t-170 -56.5q-119 0 -193 77t-74 202zM230 -186h-114l95 139h117z" />
    <glyph glyph-name="Egrave" unicode="&#xc8;" horiz-adv-x="516" 
d="M405 669h-114l-71 122h128zM130 614h418l-20 -112h-291l-24 -134h265l-20 -109h-264l-26 -146h291l-19 -113h-418z" />
    <glyph glyph-name="Eacute" unicode="&#xc9;" horiz-adv-x="516" 
d="M406 669h-126l100 122h139zM130 614h418l-20 -112h-291l-24 -134h265l-20 -109h-264l-26 -146h291l-19 -113h-418z" />
    <glyph glyph-name="Ecircumflex" unicode="&#xca;" horiz-adv-x="516" 
d="M130 614h418l-20 -112h-291l-24 -134h265l-20 -109h-264l-26 -146h291l-19 -113h-418zM420 796l77 -127h-101l-38 54l-56 -54h-109l123 127h104z" />
    <glyph glyph-name="Edieresis" unicode="&#xcb;" horiz-adv-x="516" 
d="M210 730q0 29 19 48.5t48 19.5q28 0 47.5 -19.5t19.5 -48.5q0 -27 -19.5 -46.5t-47.5 -19.5t-47.5 19.5t-19.5 46.5zM375 730q0 29 19.5 48.5t47.5 19.5t48 -19.5t20 -48.5q0 -27 -20 -46.5t-48 -19.5t-47.5 19.5t-19.5 46.5zM130 614h418l-20 -112h-291l-24 -134h265
l-20 -109h-264l-26 -146h291l-19 -113h-418z" />
    <glyph glyph-name="Igrave" unicode="&#xcc;" horiz-adv-x="245" 
d="M259 614l-108 -614h-129l108 614h129zM260 669h-114l-71 122h128z" />
    <glyph glyph-name="Iacute" unicode="&#xcd;" horiz-adv-x="245" 
d="M259 614l-108 -614h-129l108 614h129zM262 669h-126l100 122h139z" />
    <glyph glyph-name="Icircumflex" unicode="&#xce;" horiz-adv-x="245" 
d="M259 614l-108 -614h-129l108 614h129zM276 796l77 -127h-101l-38 54l-56 -54h-109l123 127h104z" />
    <glyph glyph-name="Idieresis" unicode="&#xcf;" horiz-adv-x="245" 
d="M259 614l-108 -614h-129l108 614h129zM66 730q0 29 19 48.5t48 19.5q28 0 47.5 -19.5t19.5 -48.5q0 -27 -19.5 -46.5t-47.5 -19.5t-47.5 19.5t-19.5 46.5zM231 730q0 29 19.5 48.5t47.5 19.5t48 -19.5t20 -48.5q0 -27 -20 -46.5t-48 -19.5t-47.5 19.5t-19.5 46.5z" />
    <glyph glyph-name="Eth" unicode="&#xd0;" horiz-adv-x="626" 
d="M33 264l18 103h50l44 247h208q126 0 193 -67.5t67 -190.5q0 -153 -98 -254.5t-258 -101.5h-220l46 264h-50zM184 113h87q99 0 156 65.5t57 170.5q0 73 -38 113t-113 40h-80l-24 -135h103l-18 -103h-103z" />
    <glyph glyph-name="Ntilde" unicode="&#xd1;" horiz-adv-x="631" 
d="M492 804h74q-10 -63 -38.5 -101.5t-71.5 -38.5q-24 0 -52.5 23t-41.5 23q-28 0 -36 -42h-74q11 63 39 101t70 38q25 0 54 -22.5t41 -22.5q28 0 36 42zM644 614l-108 -614h-99l-218 421l-73 -421h-124l108 614h118l202 -400l70 400h124z" />
    <glyph glyph-name="Ograve" unicode="&#xd2;" horiz-adv-x="640" 
d="M452 669h-114l-71 122h128zM311 104q80 0 133.5 66.5t53.5 173.5q0 72 -38 119t-101 47q-80 0 -133 -66.5t-53 -173.5q0 -72 37.5 -119t100.5 -47zM309 -10q-121 0 -193.5 77.5t-72.5 201.5q0 151 92.5 253t225.5 102q121 0 193.5 -77.5t72.5 -201.5q0 -151 -92 -253
t-226 -102z" />
    <glyph glyph-name="Oacute" unicode="&#xd3;" horiz-adv-x="640" 
d="M453 669h-126l100 122h139zM311 104q80 0 133.5 66.5t53.5 173.5q0 72 -38 119t-101 47q-80 0 -133 -66.5t-53 -173.5q0 -72 37.5 -119t100.5 -47zM309 -10q-121 0 -193.5 77.5t-72.5 201.5q0 151 92.5 253t225.5 102q121 0 193.5 -77.5t72.5 -201.5q0 -151 -92 -253
t-226 -102z" />
    <glyph glyph-name="Ocircumflex" unicode="&#xd4;" horiz-adv-x="640" 
d="M311 104q80 0 133.5 66.5t53.5 173.5q0 72 -38 119t-101 47q-80 0 -133 -66.5t-53 -173.5q0 -72 37.5 -119t100.5 -47zM309 -10q-121 0 -193.5 77.5t-72.5 201.5q0 151 92.5 253t225.5 102q121 0 193.5 -77.5t72.5 -201.5q0 -151 -92 -253t-226 -102zM467 796l77 -127
h-101l-38 54l-56 -54h-109l123 127h104z" />
    <glyph glyph-name="Otilde" unicode="&#xd5;" horiz-adv-x="640" 
d="M489 804h74q-10 -63 -38.5 -101.5t-71.5 -38.5q-24 0 -52.5 23t-41.5 23q-28 0 -36 -42h-74q11 63 39 101t70 38q24 0 53 -22.5t42 -22.5q28 0 36 42zM311 104q80 0 133.5 66.5t53.5 173.5q0 72 -38 119t-101 47q-80 0 -133 -66.5t-53 -173.5q0 -72 37.5 -119t100.5 -47z
M309 -10q-121 0 -193.5 77.5t-72.5 201.5q0 151 92.5 253t225.5 102q121 0 193.5 -77.5t72.5 -201.5q0 -151 -92 -253t-226 -102z" />
    <glyph glyph-name="Odieresis" unicode="&#xd6;" horiz-adv-x="640" 
d="M256 730q0 29 19 48.5t48 19.5q28 0 47.5 -19.5t19.5 -48.5q0 -27 -19.5 -46.5t-47.5 -19.5t-47.5 19.5t-19.5 46.5zM421 730q0 29 19.5 48.5t47.5 19.5t48 -19.5t20 -48.5q0 -27 -20 -46.5t-48 -19.5t-47.5 19.5t-19.5 46.5zM311 104q80 0 133.5 66.5t53.5 173.5
q0 72 -38 119t-101 47q-80 0 -133 -66.5t-53 -173.5q0 -72 37.5 -119t100.5 -47zM309 -10q-121 0 -193.5 77.5t-72.5 201.5q0 151 92.5 253t225.5 102q121 0 193.5 -77.5t72.5 -201.5q0 -151 -92 -253t-226 -102z" />
    <glyph glyph-name="multiply" unicode="&#xd7;" horiz-adv-x="495" 
d="M197 299l-101 121l74 63l99 -121l144 122l55 -66l-144 -122l100 -121l-74 -63l-100 121l-143 -122l-55 67z" />
    <glyph glyph-name="Oslash" unicode="&#xd8;" horiz-adv-x="649" 
d="M46 31l54 61q-52 72 -52 177q0 151 92 253t226 102q96 0 163 -50l47 53l57 -44l-54 -61q53 -73 53 -177q0 -151 -92.5 -253t-225.5 -102q-96 0 -163 50l-47 -53zM316 102q80 0 134 67.5t54 174.5q0 42 -14 78l-258 -291q35 -29 84 -29zM176 270q0 -45 13 -78l258 290
q-35 30 -83 30q-80 0 -134 -67.5t-54 -174.5z" />
    <glyph glyph-name="Ugrave" unicode="&#xd9;" horiz-adv-x="610" 
d="M438 669h-114l-71 122h128zM284 -10q-106 0 -169 53t-63 150q0 28 8 67l62 354h128l-63 -354q-4 -34 -4 -46q0 -109 106 -109q125 0 153 155l62 354h128l-65 -367q-22 -125 -95 -191t-188 -66z" />
    <glyph glyph-name="Uacute" unicode="&#xda;" horiz-adv-x="610" 
d="M440 669h-126l100 122h139zM284 -10q-106 0 -169 53t-63 150q0 28 8 67l62 354h128l-63 -354q-4 -34 -4 -46q0 -109 106 -109q125 0 153 155l62 354h128l-65 -367q-22 -125 -95 -191t-188 -66z" />
    <glyph glyph-name="Ucircumflex" unicode="&#xdb;" horiz-adv-x="610" 
d="M284 -10q-106 0 -169 53t-63 150q0 28 8 67l62 354h128l-63 -354q-4 -34 -4 -46q0 -109 106 -109q125 0 153 155l62 354h128l-65 -367q-22 -125 -95 -191t-188 -66zM453 796l77 -127h-101l-38 54l-56 -54h-109l123 127h104z" />
    <glyph glyph-name="Udieresis" unicode="&#xdc;" horiz-adv-x="610" 
d="M244 730q0 29 19 48.5t48 19.5q28 0 47.5 -19.5t19.5 -48.5q0 -27 -19.5 -46.5t-47.5 -19.5t-47.5 19.5t-19.5 46.5zM409 730q0 29 19.5 48.5t47.5 19.5t48 -19.5t20 -48.5q0 -27 -20 -46.5t-48 -19.5t-47.5 19.5t-19.5 46.5zM284 -10q-106 0 -169 53t-63 150q0 28 8 67
l62 354h128l-63 -354q-4 -34 -4 -46q0 -109 106 -109q125 0 153 155l62 354h128l-65 -367q-22 -125 -95 -191t-188 -66z" />
    <glyph glyph-name="Yacute" unicode="&#xdd;" horiz-adv-x="593" 
d="M319 354l194 260h141l-290 -381l-41 -233h-127l40 233l-153 381h134zM433 669h-126l100 122h139z" />
    <glyph glyph-name="Thorn" unicode="&#xde;" horiz-adv-x="551" 
d="M293 114h-124l-19 -114h-128l108 614h127l-17 -99h118q89 0 138.5 -44.5t49.5 -128.5q0 -106 -72 -167t-181 -61zM221 406l-32 -183h115q54 0 84.5 29t30.5 79q0 75 -84 75h-114z" />
    <glyph glyph-name="germandbls" unicode="&#xdf;" horiz-adv-x="529" 
d="M415 360q39 -15 62 -52.5t23 -91.5q0 -100 -68 -160.5t-162 -60.5q-48 0 -81 11l18 104q23 -9 59 -9q51 0 84 31.5t33 84.5q0 40 -26.5 62t-76.5 22h-35l18 101h30q42 0 69 23t27 66q0 29 -17.5 46t-50.5 17q-42 0 -68.5 -28.5t-34.5 -73.5l-79 -452h-123l78 447
q17 98 80.5 155t156.5 57q85 0 131 -40.5t46 -106.5q0 -54 -27.5 -94.5t-65.5 -57.5z" />
    <glyph glyph-name="agrave" unicode="&#xe0;" horiz-adv-x="473" 
d="M436 285l-50 -285h-120l4 24q-38 -32 -105 -32q-65 0 -108 34.5t-43 94.5q0 72 57.5 115.5t137.5 43.5q69 0 102 -26l6 32q2 10 2 18q0 52 -59 52q-52 0 -76 -42h-118q19 63 76 103t133 40t120 -38t44 -102q0 -15 -3 -32zM287 121l6 33q-5 18 -25.5 28.5t-47.5 10.5
q-34 0 -61.5 -16.5t-27.5 -47.5q0 -23 20.5 -34.5t50.5 -11.5q61 0 85 38zM347 508h-105l-64 142h115z" />
    <glyph glyph-name="aacute" unicode="&#xe1;" horiz-adv-x="473" 
d="M436 285l-50 -285h-120l4 24q-38 -32 -105 -32q-65 0 -108 34.5t-43 94.5q0 72 57.5 115.5t137.5 43.5q69 0 102 -26l6 32q2 10 2 18q0 52 -59 52q-52 0 -76 -42h-118q19 63 76 103t133 40t120 -38t44 -102q0 -15 -3 -32zM287 121l6 33q-5 18 -25.5 28.5t-47.5 10.5
q-34 0 -61.5 -16.5t-27.5 -47.5q0 -23 20.5 -34.5t50.5 -11.5q61 0 85 38zM349 508h-115l105 142h124z" />
    <glyph glyph-name="acircumflex" unicode="&#xe2;" horiz-adv-x="473" 
d="M370 647l70 -145h-95l-37 69l-61 -69h-101l120 145h104zM436 285l-50 -285h-120l4 24q-38 -32 -105 -32q-65 0 -108 34.5t-43 94.5q0 72 57.5 115.5t137.5 43.5q69 0 102 -26l6 32q2 10 2 18q0 52 -59 52q-52 0 -76 -42h-118q19 63 76 103t133 40t120 -38t44 -102
q0 -15 -3 -32zM287 121l6 33q-5 18 -25.5 28.5t-47.5 10.5q-34 0 -61.5 -16.5t-27.5 -47.5q0 -23 20.5 -34.5t50.5 -11.5q61 0 85 38z" />
    <glyph glyph-name="atilde" unicode="&#xe3;" horiz-adv-x="473" 
d="M436 285l-50 -285h-120l4 24q-38 -32 -105 -32q-65 0 -108 34.5t-43 94.5q0 72 57.5 115.5t137.5 43.5q69 0 102 -26l6 32q2 10 2 18q0 52 -59 52q-52 0 -76 -42h-118q19 63 76 103t133 40t120 -38t44 -102q0 -15 -3 -32zM287 121l6 33q-5 18 -25.5 28.5t-47.5 10.5
q-34 0 -61.5 -16.5t-27.5 -47.5q0 -23 20.5 -34.5t50.5 -11.5q61 0 85 38zM390 643h73q-10 -63 -38 -101t-71 -38q-24 0 -50 23t-39 23q-27 0 -37 -42h-73q11 63 39 101t70 38q24 0 50 -23t39 -23q29 0 37 42z" />
    <glyph glyph-name="adieresis" unicode="&#xe4;" horiz-adv-x="473" 
d="M159 570q0 28 19.5 47.5t47.5 19.5q27 0 46.5 -19.5t19.5 -47.5q0 -27 -19.5 -46.5t-46.5 -19.5q-28 0 -47.5 19.5t-19.5 46.5zM323 570q0 28 19.5 47.5t46.5 19.5t47 -19.5t20 -47.5q0 -27 -20 -46.5t-47 -19.5t-46.5 19.5t-19.5 46.5zM436 285l-50 -285h-120l4 24
q-38 -32 -105 -32q-65 0 -108 34.5t-43 94.5q0 72 57.5 115.5t137.5 43.5q69 0 102 -26l6 32q2 10 2 18q0 52 -59 52q-52 0 -76 -42h-118q19 63 76 103t133 40t120 -38t44 -102q0 -15 -3 -32zM287 121l6 33q-5 18 -25.5 28.5t-47.5 10.5q-34 0 -61.5 -16.5t-27.5 -47.5
q0 -23 20.5 -34.5t50.5 -11.5q61 0 85 38z" />
    <glyph glyph-name="aring" unicode="&#xe5;" horiz-adv-x="473" 
d="M436 285l-50 -285h-120l4 24q-38 -32 -105 -32q-65 0 -108 34.5t-43 94.5q0 72 57.5 115.5t137.5 43.5q69 0 102 -26l6 32q2 10 2 18q0 52 -59 52q-52 0 -76 -42h-118q19 63 76 103t133 40t120 -38t44 -102q0 -15 -3 -32zM287 121l6 33q-5 18 -25.5 28.5t-47.5 10.5
q-34 0 -61.5 -16.5t-27.5 -47.5q0 -23 20.5 -34.5t50.5 -11.5q61 0 85 38zM309 545q17 0 29 11.5t12 29.5q0 16 -10.5 27t-26.5 11q-17 0 -29 -12t-12 -30q0 -16 10.5 -26.5t26.5 -10.5zM307 487q-41 0 -68 26.5t-27 66.5q0 42 30 71.5t73 29.5q41 0 68 -26.5t27 -66.5
q0 -41 -30 -71t-73 -30z" />
    <glyph glyph-name="ae" unicode="&#xe6;" horiz-adv-x="738" 
d="M580 144h121q-21 -72 -77 -113t-137 -41q-105 0 -152 67q-66 -66 -172 -66q-67 0 -108 34t-41 92q0 72 59 114t144 42h96q3 17 3 30q0 54 -59 54q-52 0 -77 -43h-118q21 62 77.5 102.5t129.5 40.5q91 0 129 -59q23 26 61.5 42.5t78.5 16.5q84 0 131.5 -49t47.5 -134
q0 -28 -10 -80h-298v-9q2 -95 85 -95q64 0 86 54zM288 136l11 58h-81q-36 0 -61.5 -15t-25.5 -48q0 -22 17.5 -34t45.5 -12q64 0 94 51zM532 356q-76 0 -106 -83h174q0 2 0.5 6.5t0.5 6.5q0 31 -18.5 50.5t-50.5 19.5z" />
    <glyph glyph-name="ccedilla" unicode="&#xe7;" horiz-adv-x="459" 
d="M307 151h121q-18 -76 -73 -118.5t-137 -42.5q-88 0 -140 55.5t-52 144.5q0 108 67.5 187.5t173.5 79.5q84 0 130.5 -43.5t49.5 -117.5h-122q-5 55 -62 55q-54 0 -83.5 -48t-29.5 -111q0 -45 20.5 -70.5t56.5 -25.5q59 0 80 55zM161 -186h-114l95 139h117z" />
    <glyph glyph-name="egrave" unicode="&#xe8;" horiz-adv-x="474" 
d="M317 146h120q-21 -73 -76.5 -114.5t-137.5 -41.5q-91 0 -144 54.5t-53 145.5q0 107 68 187t177 80q86 0 133.5 -49t47.5 -134q0 -36 -9 -77h-298v-8q0 -47 22 -73t64 -26q62 0 86 56zM342 508h-105l-64 142h115zM266 356q-75 0 -107 -84h175q1 5 1 12q0 31 -18.5 51.5
t-50.5 20.5z" />
    <glyph glyph-name="eacute" unicode="&#xe9;" horiz-adv-x="474" 
d="M317 146h120q-21 -73 -76.5 -114.5t-137.5 -41.5q-91 0 -144 54.5t-53 145.5q0 107 68 187t177 80q86 0 133.5 -49t47.5 -134q0 -36 -9 -77h-298v-8q0 -47 22 -73t64 -26q62 0 86 56zM343 508h-115l105 142h124zM266 356q-75 0 -107 -84h175q1 5 1 12q0 31 -18.5 51.5
t-50.5 20.5z" />
    <glyph glyph-name="ecircumflex" unicode="&#xea;" horiz-adv-x="474" 
d="M317 146h120q-21 -73 -76.5 -114.5t-137.5 -41.5q-91 0 -144 54.5t-53 145.5q0 107 68 187t177 80q86 0 133.5 -49t47.5 -134q0 -36 -9 -77h-298v-8q0 -47 22 -73t64 -26q62 0 86 56zM364 647l70 -145h-95l-37 69l-61 -69h-101l120 145h104zM266 356q-75 0 -107 -84h175
q1 5 1 12q0 31 -18.5 51.5t-50.5 20.5z" />
    <glyph glyph-name="edieresis" unicode="&#xeb;" horiz-adv-x="474" 
d="M317 146h120q-21 -73 -76.5 -114.5t-137.5 -41.5q-91 0 -144 54.5t-53 145.5q0 107 68 187t177 80q86 0 133.5 -49t47.5 -134q0 -36 -9 -77h-298v-8q0 -47 22 -73t64 -26q62 0 86 56zM154 570q0 28 19.5 47.5t47.5 19.5q27 0 46.5 -19.5t19.5 -47.5q0 -27 -19.5 -46.5
t-46.5 -19.5q-28 0 -47.5 19.5t-19.5 46.5zM318 570q0 28 19.5 47.5t46.5 19.5t47 -19.5t20 -47.5q0 -27 -20 -46.5t-47 -19.5t-46.5 19.5t-19.5 46.5zM266 356q-75 0 -107 -84h175q1 5 1 12q0 31 -18.5 51.5t-50.5 20.5z" />
    <glyph glyph-name="igrave" unicode="&#xec;" horiz-adv-x="232" 
d="M219 447l-79 -447h-124l79 447h124zM218 508h-105l-64 142h115z" />
    <glyph glyph-name="iacute" unicode="&#xed;" horiz-adv-x="232" 
d="M219 508h-115l105 142h124zM219 447l-79 -447h-124l79 447h124z" />
    <glyph glyph-name="icircumflex" unicode="&#xee;" horiz-adv-x="232" 
d="M242 647l56 -145h-94l-25 67l-49 -67h-99l107 145h104zM219 447l-79 -447h-124l79 447h124z" />
    <glyph glyph-name="idieresis" unicode="&#xef;" horiz-adv-x="232" 
d="M37 570q0 28 19 47.5t47 19.5t47.5 -19.5t19.5 -47.5q0 -27 -19.5 -46.5t-47.5 -19.5t-47 19.5t-19 46.5zM190 570q0 28 19.5 47.5t46.5 19.5q28 0 47.5 -19.5t19.5 -47.5q0 -27 -19.5 -46.5t-47.5 -19.5q-27 0 -46.5 19.5t-19.5 46.5zM219 447l-79 -447h-124l79 447h124
z" />
    <glyph glyph-name="eth" unicode="&#xf0;" horiz-adv-x="490" 
d="M199 484l-21 61l71 23q-35 41 -76 78v4h137q24 -21 46 -48l82 27l21 -61l-63 -21q68 -116 68 -255q0 -138 -68.5 -220t-170.5 -82q-92 0 -145.5 54.5t-53.5 145.5q0 114 68 189.5t164 75.5q44 0 71 -25h3q-12 37 -42 83zM227 95q50 0 82 46t32 116q0 42 -20.5 68
t-57.5 26q-50 0 -82 -46.5t-32 -116.5q0 -42 20.5 -67.5t57.5 -25.5z" />
    <glyph glyph-name="ntilde" unicode="&#xf1;" horiz-adv-x="505" 
d="M16 0l79 447h124l-8 -42q50 52 128 52q62 0 97.5 -36.5t35.5 -95.5q0 -17 -3 -35l-50 -290h-125l46 266q3 14 3 22q0 57 -61 57q-28 0 -53.5 -17t-38.5 -45l-50 -283h-124zM403 643h73q-10 -63 -38 -101t-71 -38q-24 0 -50 23t-39 23q-27 0 -37 -42h-73q11 63 39 101
t70 38q24 0 50.5 -23t38.5 -23q29 0 37 42z" />
    <glyph glyph-name="ograve" unicode="&#xf2;" horiz-adv-x="490" 
d="M227 95q50 0 82 46.5t32 116.5q0 42 -20.5 68t-57.5 26q-50 0 -82 -46.5t-32 -116.5q0 -42 20.5 -68t57.5 -26zM225 -10q-92 0 -145.5 54.5t-53.5 145.5q0 115 69.5 191t169.5 76q92 0 145.5 -54.5t53.5 -145.5q0 -115 -69.5 -191t-169.5 -76zM342 508h-105l-64 142h115z
" />
    <glyph glyph-name="oacute" unicode="&#xf3;" horiz-adv-x="490" 
d="M344 508h-115l105 142h124zM227 95q50 0 82 46.5t32 116.5q0 42 -20.5 68t-57.5 26q-50 0 -82 -46.5t-32 -116.5q0 -42 20.5 -68t57.5 -26zM225 -10q-92 0 -145.5 54.5t-53.5 145.5q0 115 69.5 191t169.5 76q92 0 145.5 -54.5t53.5 -145.5q0 -115 -69.5 -191t-169.5 -76z
" />
    <glyph glyph-name="ocircumflex" unicode="&#xf4;" horiz-adv-x="490" 
d="M365 647l70 -145h-95l-37 69l-61 -69h-101l120 145h104zM227 95q50 0 82 46.5t32 116.5q0 42 -20.5 68t-57.5 26q-50 0 -82 -46.5t-32 -116.5q0 -42 20.5 -68t57.5 -26zM225 -10q-92 0 -145.5 54.5t-53.5 145.5q0 115 69.5 191t169.5 76q92 0 145.5 -54.5t53.5 -145.5
q0 -115 -69.5 -191t-169.5 -76z" />
    <glyph glyph-name="otilde" unicode="&#xf5;" horiz-adv-x="490" 
d="M227 95q50 0 82 46.5t32 116.5q0 42 -20.5 68t-57.5 26q-50 0 -82 -46.5t-32 -116.5q0 -42 20.5 -68t57.5 -26zM225 -10q-92 0 -145.5 54.5t-53.5 145.5q0 115 69.5 191t169.5 76q92 0 145.5 -54.5t53.5 -145.5q0 -115 -69.5 -191t-169.5 -76zM386 643h73
q-10 -63 -38 -101t-71 -38q-24 0 -50 23t-39 23q-27 0 -37 -42h-73q11 63 39 101t70 38q24 0 50 -23t39 -23q29 0 37 42z" />
    <glyph glyph-name="odieresis" unicode="&#xf6;" horiz-adv-x="490" 
d="M155 570q0 28 19.5 47.5t47.5 19.5q27 0 46.5 -19.5t19.5 -47.5q0 -27 -19.5 -46.5t-46.5 -19.5q-28 0 -47.5 19.5t-19.5 46.5zM319 570q0 28 19.5 47.5t46.5 19.5t47 -19.5t20 -47.5q0 -27 -20 -46.5t-47 -19.5t-46.5 19.5t-19.5 46.5zM227 95q50 0 82 46.5t32 116.5
q0 42 -20.5 68t-57.5 26q-50 0 -82 -46.5t-32 -116.5q0 -42 20.5 -68t57.5 -26zM225 -10q-92 0 -145.5 54.5t-53.5 145.5q0 115 69.5 191t169.5 76q92 0 145.5 -54.5t53.5 -145.5q0 -115 -69.5 -191t-169.5 -76z" />
    <glyph glyph-name="divide" unicode="&#xf7;" horiz-adv-x="560" 
d="M68 251l17 96h432l-17 -96h-432zM254 472q0 29 20.5 50t49.5 21q30 0 51 -21t21 -50t-21 -49.5t-51 -20.5q-29 0 -49.5 20.5t-20.5 49.5zM193 126q0 29 20.5 49.5t49.5 20.5t50 -20.5t21 -49.5t-21 -50t-50 -21t-49.5 21t-20.5 50z" />
    <glyph glyph-name="oslash" unicode="&#xf8;" horiz-adv-x="500" 
d="M23 6l47 54q-39 53 -39 130q0 115 69.5 191t169.5 76q70 0 117 -32l44 50l46 -36l-47 -54q39 -51 39 -128q0 -115 -69.5 -191t-169.5 -76q-70 0 -116 30l-44 -50zM148 187q0 -20 4 -33l163 188q-19 14 -47 14q-51 0 -85.5 -49t-34.5 -120zM232 91q51 0 85.5 49t34.5 120
q0 18 -4 31l-162 -188q18 -12 46 -12z" />
    <glyph glyph-name="ugrave" unicode="&#xf9;" horiz-adv-x="501" 
d="M487 447l-78 -447h-124l7 41q-51 -51 -127 -51q-62 0 -97 36t-35 95q0 17 3 36l51 290h124l-46 -269q-3 -14 -3 -26q0 -55 58 -55q29 0 55 18.5t38 46.5l50 285h124zM350 508h-105l-64 142h115z" />
    <glyph glyph-name="uacute" unicode="&#xfa;" horiz-adv-x="501" 
d="M350 508h-115l105 142h124zM487 447l-78 -447h-124l7 41q-51 -51 -127 -51q-62 0 -97 36t-35 95q0 17 3 36l51 290h124l-46 -269q-3 -14 -3 -26q0 -55 58 -55q29 0 55 18.5t38 46.5l50 285h124z" />
    <glyph glyph-name="ucircumflex" unicode="&#xfb;" horiz-adv-x="501" 
d="M372 647l70 -145h-95l-37 69l-61 -69h-101l120 145h104zM487 447l-78 -447h-124l7 41q-51 -51 -127 -51q-62 0 -97 36t-35 95q0 17 3 36l51 290h124l-46 -269q-3 -14 -3 -26q0 -55 58 -55q29 0 55 18.5t38 46.5l50 285h124z" />
    <glyph glyph-name="udieresis" unicode="&#xfc;" horiz-adv-x="501" 
d="M162 570q0 28 19.5 47.5t47.5 19.5q27 0 46.5 -19.5t19.5 -47.5q0 -27 -19.5 -46.5t-46.5 -19.5q-28 0 -47.5 19.5t-19.5 46.5zM326 570q0 28 19.5 47.5t46.5 19.5t47 -19.5t20 -47.5q0 -27 -20 -46.5t-47 -19.5t-46.5 19.5t-19.5 46.5zM487 447l-78 -447h-124l7 41
q-51 -51 -127 -51q-62 0 -97 36t-35 95q0 17 3 36l51 290h124l-46 -269q-3 -14 -3 -26q0 -55 58 -55q29 0 55 18.5t38 46.5l50 285h124z" />
    <glyph glyph-name="yacute" unicode="&#xfd;" horiz-adv-x="485" 
d="M147 -165h-124l101 172l-71 440h119l45 -297l166 297h129zM334 508h-115l105 142h124z" />
    <glyph glyph-name="thorn" unicode="&#xfe;" horiz-adv-x="522" 
d="M147 38l-36 -203h-124l143 815h124l-43 -245q20 22 52 37t66 15q80 0 124 -54.5t44 -139.5q0 -115 -68 -194t-171 -79q-38 0 -68 14t-43 34zM191 291l-24 -141q7 -24 28 -38t51 -14q57 0 91 44.5t34 113.5q0 41 -21.5 67t-60.5 26q-59 0 -98 -58z" />
    <glyph glyph-name="ydieresis" unicode="&#xff;" horiz-adv-x="485" 
d="M147 -165h-124l101 172l-71 440h119l45 -297l166 297h129zM146 570q0 28 19.5 47.5t47.5 19.5q27 0 46.5 -19.5t19.5 -47.5q0 -27 -19.5 -46.5t-46.5 -19.5q-28 0 -47.5 19.5t-19.5 46.5zM310 570q0 28 19.5 47.5t46.5 19.5t47 -19.5t20 -47.5q0 -27 -20 -46.5t-47 -19.5
t-46.5 19.5t-19.5 46.5z" />
    <glyph glyph-name="Amacron" unicode="&#x100;" horiz-adv-x="627" 
d="M327 614h127l122 -614h-128l-28 148h-230l-82 -148h-129zM275 669l16 91h243l-16 -91h-243zM363 460l-113 -204h150z" />
    <glyph glyph-name="amacron" unicode="&#x101;" horiz-adv-x="473" 
d="M436 285l-50 -285h-120l4 24q-38 -32 -105 -32q-65 0 -108 34.5t-43 94.5q0 72 57.5 115.5t137.5 43.5q69 0 102 -26l6 32q2 10 2 18q0 52 -59 52q-52 0 -76 -42h-118q19 63 76 103t133 40t120 -38t44 -102q0 -15 -3 -32zM287 121l6 33q-5 18 -25.5 28.5t-47.5 10.5
q-34 0 -61.5 -16.5t-27.5 -47.5q0 -23 20.5 -34.5t50.5 -11.5q61 0 85 38zM180 516l16 91h237l-16 -91h-237z" />
    <glyph glyph-name="Abreve" unicode="&#x102;" horiz-adv-x="627" 
d="M327 614h127l122 -614h-128l-28 148h-230l-82 -148h-129zM399 663q-59 0 -93 36t-23 98h88q-9 -48 38 -48q48 0 55 48h88q-11 -65 -50.5 -99.5t-102.5 -34.5zM363 460l-113 -204h150z" />
    <glyph glyph-name="abreve" unicode="&#x103;" horiz-adv-x="473" 
d="M436 285l-50 -285h-120l4 24q-38 -32 -105 -32q-65 0 -108 34.5t-43 94.5q0 72 57.5 115.5t137.5 43.5q69 0 102 -26l6 32q2 10 2 18q0 52 -59 52q-52 0 -76 -42h-118q19 63 76 103t133 40t120 -38t44 -102q0 -15 -3 -32zM287 121l6 33q-5 18 -25.5 28.5t-47.5 10.5
q-34 0 -61.5 -16.5t-27.5 -47.5q0 -23 20.5 -34.5t50.5 -11.5q61 0 85 38zM299 492q-60 0 -93 38t-21 104h88q-10 -58 34 -58q46 0 56 58h88q-13 -69 -52.5 -105.5t-99.5 -36.5z" />
    <glyph glyph-name="Aogonek" unicode="&#x104;" horiz-adv-x="627" 
d="M327 614h127l122 -614l-20 -23l-18.5 -21.5t-13 -16.5t-10 -17t-2.5 -14q0 -17 16 -17q13 0 39 16l-12 -74q-33 -21 -66 -21t-51 16t-18 44q0 8 1 16t4.5 16.5t5.5 14.5t8 14.5l9 13t11 14l11 13t12.5 13.5t11.5 13h-46l-27 148h-231l-82 -148h-129zM363 460l-113 -204
h151z" />
    <glyph glyph-name="aogonek" unicode="&#x105;" horiz-adv-x="473" 
d="M287 121l6 33q-5 18 -25.5 28.5t-47.5 10.5q-34 0 -61.5 -16.5t-27.5 -47.5q0 -23 20.5 -34.5t50.5 -11.5q61 0 85 38zM266 0l4 24q-38 -32 -105 -32q-65 0 -108 34.5t-43 94.5q0 72 57.5 115.5t137.5 43.5q69 0 102 -26l6 32q2 10 2 18q0 52 -59 52q-52 0 -76 -42h-118
q19 63 76 103t133 40t120 -38t44 -102q0 -15 -3 -32l-50 -285l-20 -23l-18 -21.5l-13 -16.5t-10 -16.5t-3 -14.5q0 -17 17 -17q13 0 39 16l-13 -74q-33 -21 -66 -21t-51 16t-18 44q0 8 1 16t4.5 16.5t5.5 14.5t8 14.5l9 13t11 14l11 13t12.5 13.5t11.5 13h-38z" />
    <glyph glyph-name="Cacute" unicode="&#x106;" horiz-adv-x="603" 
d="M43 269q0 144 89 249.5t227 105.5q105 0 168 -57t71 -151h-127q-21 94 -114 94q-85 0 -134.5 -69t-49.5 -171q0 -74 37.5 -120t101.5 -46q95 0 138 95h128q-29 -96 -98 -152.5t-170 -56.5q-119 0 -193 77t-74 202zM438 669h-126l100 122h139z" />
    <glyph glyph-name="cacute" unicode="&#x107;" horiz-adv-x="459" 
d="M341 508h-115l105 142h124zM307 151h121q-18 -76 -73 -118.5t-137 -42.5q-88 0 -140 55.5t-52 144.5q0 108 67.5 187.5t173.5 79.5q84 0 130.5 -43.5t49.5 -117.5h-122q-5 55 -62 55q-54 0 -83.5 -48t-29.5 -111q0 -45 20.5 -70.5t56.5 -25.5q59 0 80 55z" />
    <glyph glyph-name="Ccircumflex" unicode="&#x108;" horiz-adv-x="603" 
d="M43 269q0 144 89 249.5t227 105.5q105 0 168 -57t71 -151h-127q-21 94 -114 94q-85 0 -134.5 -69t-49.5 -171q0 -74 37.5 -120t101.5 -46q95 0 138 95h128q-29 -96 -98 -152.5t-170 -56.5q-119 0 -193 77t-74 202zM453 796l77 -127h-101l-38 54l-56 -54h-109l123 127h104
z" />
    <glyph glyph-name="ccircumflex" unicode="&#x109;" horiz-adv-x="459" 
d="M362 647l70 -145h-95l-37 69l-61 -69h-101l120 145h104zM307 151h121q-18 -76 -73 -118.5t-137 -42.5q-88 0 -140 55.5t-52 144.5q0 108 67.5 187.5t173.5 79.5q84 0 130.5 -43.5t49.5 -117.5h-122q-5 55 -62 55q-54 0 -83.5 -48t-29.5 -111q0 -45 20.5 -70.5t56.5 -25.5
q59 0 80 55z" />
    <glyph glyph-name="Cdotaccent" unicode="&#x10a;" horiz-adv-x="603" 
d="M467 734q0 -30 -22 -50.5t-52 -20.5t-52 20.5t-22 50.5q0 31 22 51t52 20t52 -20t22 -51zM43 269q0 144 89 249.5t227 105.5q105 0 168 -57t71 -151h-127q-21 94 -114 94q-85 0 -134.5 -69t-49.5 -171q0 -74 37.5 -120t101.5 -46q95 0 138 95h128q-29 -96 -98 -152.5
t-170 -56.5q-119 0 -193 77t-74 202z" />
    <glyph glyph-name="cdotaccent" unicode="&#x10b;" horiz-adv-x="459" 
d="M307 151h121q-18 -76 -73 -118.5t-137 -42.5q-88 0 -140 55.5t-52 144.5q0 108 67.5 187.5t173.5 79.5q84 0 130.5 -43.5t49.5 -117.5h-122q-5 55 -62 55q-54 0 -83.5 -48t-29.5 -111q0 -45 20.5 -70.5t56.5 -25.5q59 0 80 55zM376 579q0 -31 -22 -51t-52 -20t-52 20
t-22 51q0 30 22 50.5t52 20.5t52 -20.5t22 -50.5z" />
    <glyph glyph-name="Ccaron" unicode="&#x10c;" horiz-adv-x="603" 
d="M332 668l-77 127h101l38 -54l56 54h109l-123 -127h-104zM43 269q0 144 89 249.5t227 105.5q105 0 168 -57t71 -151h-127q-21 94 -114 94q-85 0 -134.5 -69t-49.5 -171q0 -74 37.5 -120t101.5 -46q95 0 138 95h128q-29 -96 -98 -152.5t-170 -56.5q-119 0 -193 77t-74 202z
" />
    <glyph glyph-name="ccaron" unicode="&#x10d;" horiz-adv-x="459" 
d="M239 502l-70 145h95l37 -69l61 69h101l-120 -145h-104zM307 151h121q-18 -76 -73 -118.5t-137 -42.5q-88 0 -140 55.5t-52 144.5q0 108 67.5 187.5t173.5 79.5q84 0 130.5 -43.5t49.5 -117.5h-122q-5 55 -62 55q-54 0 -83.5 -48t-29.5 -111q0 -45 20.5 -70.5t56.5 -25.5
q59 0 80 55z" />
    <glyph glyph-name="Dcaron" unicode="&#x10e;" horiz-adv-x="611" 
d="M309 668l-77 127h101l38 -54l56 54h109l-123 -127h-104zM169 113h87q99 0 156 65.5t57 170.5q0 73 -38 113t-113 40h-80zM22 0l108 614h208q126 0 193 -67.5t67 -190.5q0 -153 -98 -254.5t-258 -101.5h-220z" />
    <glyph glyph-name="dcaron" unicode="&#x10f;" horiz-adv-x="522" 
d="M651 483h-99l76 167h100zM375 409l42 241h124l-114 -650h-124l8 42q-46 -52 -118 -52q-80 0 -123.5 54.5t-43.5 139.5q0 111 68 192t170 81q38 0 68 -14t43 -34zM331 156l25 141q-8 23 -29 37.5t-51 14.5q-55 0 -90 -47.5t-35 -110.5q0 -41 21.5 -67t60.5 -26q59 0 98 58
z" />
    <glyph glyph-name="Dcroat" unicode="&#x110;" horiz-adv-x="626" 
d="M33 264l18 103h50l44 247h208q126 0 193 -67.5t67 -190.5q0 -153 -98 -254.5t-258 -101.5h-220l46 264h-50zM184 113h87q99 0 156 65.5t57 170.5q0 73 -38 113t-113 40h-80l-24 -135h103l-18 -103h-103z" />
    <glyph glyph-name="dcroat" unicode="&#x111;" horiz-adv-x="522" 
d="M297 497l15 84h93l12 69h124l-12 -69h55l-15 -84h-55l-87 -497h-124l8 42q-46 -52 -118 -52q-80 0 -123.5 54.5t-43.5 139.5q0 111 68 192t170 81q38 0 68 -14t43 -34l15 88h-93zM331 156l25 141q-8 23 -29 37.5t-51 14.5q-55 0 -90 -47.5t-35 -110.5q0 -41 21.5 -67
t60.5 -26q59 0 98 58z" />
    <glyph glyph-name="Emacron" unicode="&#x112;" horiz-adv-x="516" 
d="M228 669l16 91h243l-16 -91h-243zM130 614h418l-20 -112h-291l-24 -134h265l-20 -109h-264l-26 -146h291l-19 -113h-418z" />
    <glyph glyph-name="emacron" unicode="&#x113;" horiz-adv-x="474" 
d="M317 146h120q-21 -73 -76.5 -114.5t-137.5 -41.5q-91 0 -144 54.5t-53 145.5q0 107 68 187t177 80q86 0 133.5 -49t47.5 -134q0 -36 -9 -77h-298v-8q0 -47 22 -73t64 -26q62 0 86 56zM174 516l16 91h237l-16 -91h-237zM266 356q-75 0 -107 -84h175q1 5 1 12
q0 31 -18.5 51.5t-50.5 20.5z" />
    <glyph glyph-name="Ebreve" unicode="&#x114;" horiz-adv-x="516" 
d="M353 663q-59 0 -93 36t-23 98h88q-9 -48 38 -48q48 0 55 48h88q-11 -65 -50.5 -99.5t-102.5 -34.5zM130 614h418l-20 -112h-291l-24 -134h265l-20 -109h-264l-26 -146h291l-19 -113h-418z" />
    <glyph glyph-name="ebreve" unicode="&#x115;" horiz-adv-x="474" 
d="M317 146h120q-21 -73 -76.5 -114.5t-137.5 -41.5q-91 0 -144 54.5t-53 145.5q0 107 68 187t177 80q86 0 133.5 -49t47.5 -134q0 -36 -9 -77h-298v-8q0 -47 22 -73t64 -26q62 0 86 56zM293 492q-60 0 -93 38t-21 104h88q-10 -58 34 -58q46 0 56 58h88
q-13 -69 -52.5 -105.5t-99.5 -36.5zM266 356q-75 0 -107 -84h175q1 5 1 12q0 31 -18.5 51.5t-50.5 20.5z" />
    <glyph glyph-name="Edotaccent" unicode="&#x116;" horiz-adv-x="516" 
d="M434 734q0 -30 -22 -50.5t-52 -20.5t-52 20.5t-22 50.5q0 31 22 51t52 20t52 -20t22 -51zM130 614h418l-20 -112h-291l-24 -134h265l-20 -109h-264l-26 -146h291l-19 -113h-418z" />
    <glyph glyph-name="edotaccent" unicode="&#x117;" horiz-adv-x="474" 
d="M317 146h120q-21 -73 -76.5 -114.5t-137.5 -41.5q-91 0 -144 54.5t-53 145.5q0 107 68 187t177 80q86 0 133.5 -49t47.5 -134q0 -36 -9 -77h-298v-8q0 -47 22 -73t64 -26q62 0 86 56zM378 579q0 -31 -22 -51t-52 -20t-52 20t-22 51q0 30 22 50.5t52 20.5t52 -20.5
t22 -50.5zM266 356q-75 0 -107 -84h175q1 5 1 12q0 31 -18.5 51.5t-50.5 20.5z" />
    <glyph glyph-name="Eogonek" unicode="&#x118;" horiz-adv-x="516" 
d="M130 614h418l-20 -112h-291l-24 -134h265l-20 -109h-264l-26 -146h291l-19 -113h-38l-20.5 -23l-18.5 -21t-13 -16.5t-10 -17t-3 -14.5q0 -17 16 -17q14 0 40 16l-13 -74q-33 -21 -66 -21t-51 16t-18 44q0 10 2 19.5t4.5 16.5t8.5 17l9 15t12 15.5t12 14.5t14 15.5
l14 14.5h-299z" />
    <glyph glyph-name="eogonek" unicode="&#x119;" horiz-adv-x="474" 
d="M317 146h120q-17 -56 -67 -108q-54 -58 -73.5 -84.5t-19.5 -45.5q0 -17 16 -17q14 0 40 16l-13 -74q-33 -21 -66 -21t-51 16t-18 44q0 22 11 45t21.5 36.5t33.5 38.5q-16 -2 -28 -2q-91 0 -144 54.5t-53 145.5q0 107 68 187t177 80q86 0 133.5 -49t47.5 -134
q0 -36 -9 -77h-298v-8q0 -47 22 -73t64 -26q62 0 86 56zM266 356q-76 0 -107 -84h175q1 5 1 12q0 31 -18.5 51.5t-50.5 20.5z" />
    <glyph glyph-name="Ecaron" unicode="&#x11a;" horiz-adv-x="516" 
d="M299 668l-77 127h101l38 -54l56 54h109l-123 -127h-104zM130 614h418l-20 -112h-291l-24 -134h265l-20 -109h-264l-26 -146h291l-19 -113h-418z" />
    <glyph glyph-name="ecaron" unicode="&#x11b;" horiz-adv-x="474" 
d="M317 146h120q-21 -73 -76.5 -114.5t-137.5 -41.5q-91 0 -144 54.5t-53 145.5q0 107 68 187t177 80q86 0 133.5 -49t47.5 -134q0 -36 -9 -77h-298v-8q0 -47 22 -73t64 -26q62 0 86 56zM240 502l-70 145h95l37 -69l61 69h101l-120 -145h-104zM266 356q-75 0 -107 -84h175
q1 5 1 12q0 31 -18.5 51.5t-50.5 20.5z" />
    <glyph glyph-name="Gcircumflex" unicode="&#x11c;" horiz-adv-x="623" 
d="M460 796l77 -127h-101l-38 54l-56 -54h-109l123 127h104zM315 -10q-123 0 -197.5 77t-74.5 202q0 144 89.5 249.5t228.5 105.5q107 0 172.5 -57t73.5 -151h-126q-10 43 -41 68.5t-81 25.5q-86 0 -136 -69t-50 -171q0 -74 38.5 -120t105.5 -46q55 0 97.5 33t53.5 83h-115
l18 102h240l-14 -81q-19 -111 -96 -181t-186 -70z" />
    <glyph glyph-name="gcircumflex" unicode="&#x11d;" 
d="M393 647l70 -145h-95l-37 69l-61 -69h-101l120 145h104zM309 31l5 30q-44 -51 -116 -51q-81 0 -125.5 53.5t-44.5 135.5q0 106 67 182t169 76q39 0 68.5 -13.5t42.5 -33.5l7 37h124l-72 -407q-18 -105 -81 -160t-162 -55q-87 0 -140 43.5t-54 115.5h120q5 -63 78 -63
q93 0 114 110zM333 169l24 135q-6 21 -28.5 35t-52.5 14q-55 0 -89 -44t-34 -105q0 -41 21.5 -65.5t60.5 -24.5q60 0 98 55z" />
    <glyph glyph-name="Gbreve" unicode="&#x11e;" horiz-adv-x="623" 
d="M393 663q-59 0 -93 36t-23 98h88q-9 -48 38 -48q48 0 55 48h88q-11 -65 -50.5 -99.5t-102.5 -34.5zM315 -10q-123 0 -197.5 77t-74.5 202q0 144 89.5 249.5t228.5 105.5q107 0 172.5 -57t73.5 -151h-126q-10 43 -41 68.5t-81 25.5q-86 0 -136 -69t-50 -171
q0 -74 38.5 -120t105.5 -46q55 0 97.5 33t53.5 83h-115l18 102h240l-14 -81q-19 -111 -96 -181t-186 -70z" />
    <glyph glyph-name="gbreve" unicode="&#x11f;" 
d="M309 31l5 30q-44 -51 -116 -51q-81 0 -125.5 53.5t-44.5 135.5q0 106 67 182t169 76q39 0 68.5 -13.5t42.5 -33.5l7 37h124l-72 -407q-18 -105 -81 -160t-162 -55q-87 0 -140 43.5t-54 115.5h120q5 -63 78 -63q93 0 114 110zM333 169l24 135q-6 21 -28.5 35t-52.5 14
q-55 0 -89 -44t-34 -105q0 -41 21.5 -65.5t60.5 -24.5q60 0 98 55zM323 492q-60 0 -93 38t-21 104h88q-10 -58 34 -58q46 0 56 58h88q-13 -69 -52.5 -105.5t-99.5 -36.5z" />
    <glyph glyph-name="Gdotaccent" unicode="&#x120;" horiz-adv-x="623" 
d="M475 734q0 -30 -22 -50.5t-52 -20.5t-52 20.5t-22 50.5q0 31 22 51t52 20t52 -20t22 -51zM315 -10q-123 0 -197.5 77t-74.5 202q0 144 89.5 249.5t228.5 105.5q107 0 172.5 -57t73.5 -151h-126q-10 43 -41 68.5t-81 25.5q-86 0 -136 -69t-50 -171q0 -74 38.5 -120
t105.5 -46q55 0 97.5 33t53.5 83h-115l18 102h240l-14 -81q-19 -111 -96 -181t-186 -70z" />
    <glyph glyph-name="gdotaccent" unicode="&#x121;" 
d="M407 579q0 -31 -22 -51t-52 -20t-52 20t-22 51q0 30 22 50.5t52 20.5t52 -20.5t22 -50.5zM309 31l5 30q-44 -51 -116 -51q-81 0 -125.5 53.5t-44.5 135.5q0 106 67 182t169 76q39 0 68.5 -13.5t42.5 -33.5l7 37h124l-72 -407q-18 -105 -81 -160t-162 -55q-87 0 -140 43.5
t-54 115.5h120q5 -63 78 -63q93 0 114 110zM333 169l24 135q-6 21 -28.5 35t-52.5 14q-55 0 -89 -44t-34 -105q0 -41 21.5 -65.5t60.5 -24.5q60 0 98 55z" />
    <glyph glyph-name="Gcommaaccent" unicode="&#x122;" horiz-adv-x="623" 
d="M201 -225l49 59q-43 14 -43 60q0 29 20 48t49 19q30 0 50 -19t20 -52q0 -39 -39 -83l-27 -32h-79zM315 -10q-123 0 -197.5 77t-74.5 202q0 144 89.5 249.5t228.5 105.5q107 0 172.5 -57t73.5 -151h-126q-10 43 -41 68.5t-81 25.5q-86 0 -136 -69t-50 -171
q0 -74 38.5 -120t105.5 -46q55 0 97.5 33t53.5 83h-115l18 102h240l-14 -81q-19 -111 -96 -181t-186 -70z" />
    <glyph glyph-name="gcommaaccent" unicode="&#x123;" 
d="M412 696l-54 -64q44 -14 44 -61q0 -29 -20 -47.5t-50 -18.5t-50 19t-20 52q0 40 39 82l32 38h79zM309 31l5 30q-44 -51 -116 -51q-81 0 -125.5 53.5t-44.5 135.5q0 106 67 182t169 76q39 0 68.5 -13.5t42.5 -33.5l7 37h124l-72 -407q-18 -105 -81 -160t-162 -55
q-87 0 -140 43.5t-54 115.5h120q5 -63 78 -63q93 0 114 110zM333 169l24 135q-6 21 -28.5 35t-52.5 14q-55 0 -89 -44t-34 -105q0 -41 21.5 -65.5t60.5 -24.5q60 0 98 55z" />
    <glyph glyph-name="Hcircumflex" unicode="&#x124;" horiz-adv-x="652" 
d="M537 614h128l-108 -614h-128l45 258h-278l-45 -258h-129l108 614h129l-44 -244h279zM478 796l77 -127h-101l-38 54l-56 -54h-109l123 127h104z" />
    <glyph glyph-name="hcircumflex" unicode="&#x125;" horiz-adv-x="505" 
d="M339 457q62 0 97.5 -36.5t35.5 -95.5q0 -17 -3 -35l-50 -290h-125l46 266q3 14 3 22q0 57 -61 57q-28 0 -53.5 -17t-38.5 -45l-50 -283h-124l114 650h124l-43 -245q50 52 128 52zM376 803l77 -127h-101l-38 54l-56 -54h-109l123 127h104z" />
    <glyph glyph-name="Hbar" unicode="&#x126;" horiz-adv-x="683" 
d="M552 614h128l-17 -94h51l-18 -102h-51l-73 -418h-128l38 217h-279l-37 -217h-129l73 418h-50l17 102h51l17 94h129l-17 -94h278zM221 318h278l18 100h-278z" />
    <glyph glyph-name="hbar" unicode="&#x127;" horiz-adv-x="505" 
d="M49 497l14 84h55l12 69h124l-12 -69h93l-15 -84h-93l-16 -92q50 52 128 52q62 0 97.5 -36.5t35.5 -95.5q0 -17 -3 -35l-50 -290h-125l46 266q3 14 3 22q0 57 -61 57q-28 0 -53.5 -17t-38.5 -45l-50 -283h-124l87 497h-54z" />
    <glyph glyph-name="Itilde" unicode="&#x128;" horiz-adv-x="245" 
d="M259 614l-108 -614h-129l108 614h129zM300 804h74q-10 -63 -38.5 -101.5t-71.5 -38.5q-24 0 -52.5 23t-41.5 23q-28 0 -36 -42h-74q11 63 39 101t70 38q25 0 54 -22.5t41 -22.5q28 0 36 42z" />
    <glyph glyph-name="itilde" unicode="&#x129;" horiz-adv-x="232" 
d="M248 643h73q-11 -62 -37.5 -100.5t-65.5 -38.5q-22 0 -43.5 21.5t-32.5 21.5q-24 0 -32 -39h-73q11 63 37 101t65 38q22 0 43.5 -21.5t32.5 -21.5q25 0 33 39zM219 447l-79 -447h-124l79 447h124z" />
    <glyph glyph-name="Imacron" unicode="&#x12a;" horiz-adv-x="245" 
d="M259 614l-108 -614h-129l108 614h129zM83 669l16 91h243l-16 -91h-243z" />
    <glyph glyph-name="imacron" unicode="&#x12b;" horiz-adv-x="232" 
d="M60 516l17 91h217l-16 -91h-218zM219 447l-79 -447h-124l79 447h124z" />
    <glyph glyph-name="Ibreve" unicode="&#x12c;" horiz-adv-x="245" 
d="M259 614l-108 -614h-129l108 614h129zM208 663q-59 0 -93 36t-23 98h88q-9 -48 38 -48q48 0 55 48h88q-11 -65 -50.5 -99.5t-102.5 -34.5z" />
    <glyph glyph-name="ibreve" unicode="&#x12d;" horiz-adv-x="232" 
d="M168 492q-57 0 -85.5 37.5t-16.5 104.5h86q-12 -58 26 -58q37 0 47 58h87q-12 -69 -50 -105.5t-94 -36.5zM219 447l-79 -447h-124l79 447h124z" />
    <glyph glyph-name="Iogonek" unicode="&#x12e;" horiz-adv-x="245" 
d="M259 614l-108 -614l-20 -23l-18.5 -21.5t-13 -16.5t-10 -17t-2.5 -14q0 -17 16 -17q13 0 39 16l-13 -74q-31 -21 -65 -21q-33 0 -51 16t-18 44q0 8 1 16t4.5 16.5t5.5 14.5t8 14.5l9 13t11 14l11 13t12.5 13.5t11.5 13h-47l108 614h129z" />
    <glyph glyph-name="iogonek" unicode="&#x12f;" horiz-adv-x="232" 
d="M253 577q0 -31 -22 -51.5t-52 -20.5t-51.5 19.5t-21.5 49.5q0 32 22 52.5t53 20.5q30 0 51 -20t21 -50zM16 0l79 447h124l-79 -447l-20 -23l-18 -21.5l-13 -16.5t-10 -16.5t-3 -14.5q0 -17 17 -17q13 0 39 16l-13 -74q-31 -21 -65 -21q-33 0 -51 16t-18 44q0 24 13 49
t23.5 37.5t37.5 41.5h-43z" />
    <glyph glyph-name="Idotaccent" unicode="&#x130;" horiz-adv-x="245" 
d="M259 614l-108 -614h-129l108 614h129zM290 734q0 -30 -22 -50.5t-52 -20.5t-52 20.5t-22 50.5q0 31 22 51t52 20t52 -20t22 -51z" />
    <glyph glyph-name="dotlessi" unicode="&#x131;" horiz-adv-x="232" 
d="M219 447l-79 -447h-124l79 447h124z" />
    <glyph glyph-name="IJ" unicode="&#x132;" horiz-adv-x="760" 
d="M259 614l-108 -614h-129l108 614h129zM267 203h130q-1 -6 -1 -10q0 -87 82 -87q87 0 109 123l68 385h128l-69 -395q-20 -108 -82 -168.5t-157 -60.5q-97 0 -153 51.5t-56 137.5v15z" />
    <glyph glyph-name="ij" unicode="&#x133;" horiz-adv-x="463" 
d="M219 447l-79 -447h-124l79 447h124zM253 577q0 -31 -22 -51.5t-52 -20.5t-51.5 19.5t-21.5 49.5q0 32 22 52.5t53 20.5q30 0 51 -20t21 -50zM133 -161l18 100q19 -13 42 -13q22 0 34 13.5t18 43.5l82 464h124l-83 -465q-13 -76 -55 -116.5t-111 -40.5q-43 0 -69 14z
M485 577q0 -31 -22 -51.5t-52 -20.5t-51.5 19.5t-21.5 49.5q0 32 22 52.5t53 20.5q30 0 51 -20t21 -50z" />
    <glyph glyph-name="Jcircumflex" unicode="&#x134;" horiz-adv-x="514" 
d="M22 203h130q-1 -6 -1 -10q0 -87 82 -87q87 0 109 123l68 385h128l-69 -395q-20 -108 -82 -168.5t-157 -60.5q-97 0 -153 51.5t-56 137.5q0 5 1 15v9zM554 796l77 -127h-101l-38 54l-56 -54h-109l123 127h104z" />
    <glyph glyph-name="jcircumflex" unicode="&#x135;" horiz-adv-x="232" 
d="M242 647l56 -145h-94l-25 67l-49 -67h-99l107 145h104zM-99 -161l18 100q19 -13 42 -13q22 0 34 13.5t18 43.5l82 464h124l-83 -465q-13 -76 -55 -116.5t-111 -40.5q-43 0 -69 14z" />
    <glyph glyph-name="Kcommaaccent" unicode="&#x136;" horiz-adv-x="589" 
d="M158 -225l49 59q-43 14 -43 60q0 29 20 48t49 19q30 0 50 -19t20 -52q0 -39 -39 -83l-27 -32h-79zM259 614l-49 -276l279 276h160l-285 -277l184 -337h-146l-142 255l-78 -74l-31 -181h-129l108 614h129z" />
    <glyph glyph-name="kcommaaccent" unicode="&#x137;" horiz-adv-x="488" 
d="M116 -225l49 59q-43 14 -43 60q0 29 20 48t49 19q30 0 50 -19t20 -52q0 -39 -39 -83l-27 -32h-79zM318 0l-108 182l-45 -41l-25 -141h-124l114 650h124l-65 -371l179 168h159l-220 -195l147 -252h-136z" />
    <glyph glyph-name="kgreenlandic" unicode="&#x138;" horiz-adv-x="496" 
d="M318 0l-108 182l-45 -41l-25 -141h-124l78 447h124l-29 -168l179 168h159l-220 -195l147 -252h-136z" />
    <glyph glyph-name="Lacute" unicode="&#x139;" horiz-adv-x="507" 
d="M274 669h-126l100 122h139zM22 0l108 614h129l-89 -501h287l-20 -113h-415z" />
    <glyph glyph-name="lacute" unicode="&#x13a;" horiz-adv-x="232" 
d="M261 679h-126l100 122h139zM254 650l-114 -650h-124l114 650h124z" />
    <glyph glyph-name="Lcommaaccent" unicode="&#x13b;" horiz-adv-x="507" 
d="M136 -225l49 59q-43 14 -43 60q0 29 20 48t49 19q30 0 50 -19t20 -52q0 -39 -39 -83l-27 -32h-79zM22 0l108 614h129l-89 -501h287l-20 -113h-415z" />
    <glyph glyph-name="lcommaaccent" unicode="&#x13c;" horiz-adv-x="232" 
d="M-19 -225l49 59q-43 14 -43 60q0 29 20 48t49 19q30 0 50 -19t20 -52q0 -39 -39 -83l-27 -32h-79zM254 650l-114 -650h-124l114 650h124z" />
    <glyph glyph-name="Lcaron" unicode="&#x13d;" horiz-adv-x="507" 
d="M411 447h-99l76 167h100zM22 0l108 614h129l-89 -501h287l-20 -113h-415z" />
    <glyph glyph-name="lcaron" unicode="&#x13e;" horiz-adv-x="232" 
d="M363 483h-99l76 167h100zM254 650l-114 -650h-124l114 650h124z" />
    <glyph glyph-name="Ldot" unicode="&#x13f;" horiz-adv-x="507" 
d="M22 0l108 614h129l-89 -501h287l-20 -113h-415zM468 315q0 -31 -22 -51t-52 -20t-52 20t-22 51q0 30 22 50.5t52 20.5t52 -20.5t22 -50.5z" />
    <glyph glyph-name="ldot" unicode="&#x140;" horiz-adv-x="403" 
d="M254 650l-114 -650h-124l114 650h124zM405 325q0 -31 -22 -51t-52 -20t-52 20t-22 51q0 30 22 50.5t52 20.5t52 -20.5t22 -50.5z" />
    <glyph glyph-name="Lslash" unicode="&#x141;" horiz-adv-x="522" 
d="M21 202l20 111l55 22l49 279h129l-42 -235l131 53l-20 -111l-131 -52l-27 -156h287l-20 -113h-415l39 224z" />
    <glyph glyph-name="lslash" unicode="&#x142;" horiz-adv-x="274" 
d="M275 650l-40 -225l68 31l-18 -98l-67 -30l-57 -328h-124l49 278l-59 -27l18 98l58 27l48 274h124z" />
    <glyph glyph-name="Nacute" unicode="&#x143;" horiz-adv-x="631" 
d="M454 669h-126l100 122h139zM644 614l-108 -614h-99l-218 421l-73 -421h-124l108 614h118l202 -400l70 400h124z" />
    <glyph glyph-name="nacute" unicode="&#x144;" horiz-adv-x="505" 
d="M361 508h-115l105 142h124zM16 0l79 447h124l-8 -42q50 52 128 52q62 0 97.5 -36.5t35.5 -95.5q0 -17 -3 -35l-50 -290h-125l46 266q3 14 3 22q0 57 -61 57q-28 0 -53.5 -17t-38.5 -45l-50 -283h-124z" />
    <glyph glyph-name="Ncommaaccent" unicode="&#x145;" horiz-adv-x="631" 
d="M182 -225l49 59q-43 14 -43 60q0 29 20 48t49 19q30 0 50 -19t20 -52q0 -39 -39 -83l-27 -32h-79zM644 614l-108 -614h-99l-218 421l-73 -421h-124l108 614h118l202 -400l70 400h124z" />
    <glyph glyph-name="ncommaaccent" unicode="&#x146;" horiz-adv-x="505" 
d="M122 -225l49 59q-43 14 -43 60q0 29 20 48t49 19q30 0 50 -19t20 -52q0 -39 -39 -83l-27 -32h-79zM16 0l79 447h124l-8 -42q50 52 128 52q62 0 97.5 -36.5t35.5 -95.5q0 -17 -3 -35l-50 -290h-125l46 266q3 14 3 22q0 57 -61 57q-28 0 -53.5 -17t-38.5 -45l-50 -283h-124
z" />
    <glyph glyph-name="Ncaron" unicode="&#x147;" horiz-adv-x="631" 
d="M347 668l-77 127h101l38 -54l56 54h109l-123 -127h-104zM644 614l-108 -614h-99l-218 421l-73 -421h-124l108 614h118l202 -400l70 400h124z" />
    <glyph glyph-name="ncaron" unicode="&#x148;" horiz-adv-x="505" 
d="M256 502l-70 145h95l37 -69l61 69h101l-120 -145h-104zM16 0l79 447h124l-8 -42q50 52 128 52q62 0 97.5 -36.5t35.5 -95.5q0 -17 -3 -35l-50 -290h-125l46 266q3 14 3 22q0 57 -61 57q-28 0 -53.5 -17t-38.5 -45l-50 -283h-124z" />
    <glyph glyph-name="Eng" unicode="&#x14a;" horiz-adv-x="631" 
d="M415 41l-196 380l-73 -421h-124l108 614h118l202 -400l70 400h124l-100 -573q-40 -224 -236 -224q-44 0 -92 22l20 113q34 -21 73 -21q45 0 69.5 25.5t36.5 84.5z" />
    <glyph glyph-name="eng" unicode="&#x14b;" horiz-adv-x="505" 
d="M179 -161l18 100q19 -13 42 -13q22 0 34.5 13.5t17.5 43.5l49 283q3 14 3 22q0 57 -61 57q-28 0 -53.5 -17t-38.5 -45l-50 -283h-124l79 447h124l-8 -42q50 52 128 52q62 0 97.5 -36.5t35.5 -95.5q0 -17 -3 -35l-54 -308q-26 -157 -167 -157q-41 0 -69 14z" />
    <glyph glyph-name="Omacron" unicode="&#x14c;" horiz-adv-x="640" 
d="M275 669l16 91h243l-16 -91h-243zM311 104q80 0 133.5 66.5t53.5 173.5q0 72 -38 119t-101 47q-80 0 -133 -66.5t-53 -173.5q0 -72 37.5 -119t100.5 -47zM309 -10q-121 0 -193.5 77.5t-72.5 201.5q0 151 92.5 253t225.5 102q121 0 193.5 -77.5t72.5 -201.5
q0 -151 -92 -253t-226 -102z" />
    <glyph glyph-name="omacron" unicode="&#x14d;" horiz-adv-x="490" 
d="M175 516l16 91h237l-16 -91h-237zM227 95q50 0 82 46.5t32 116.5q0 42 -20.5 68t-57.5 26q-50 0 -82 -46.5t-32 -116.5q0 -42 20.5 -68t57.5 -26zM225 -10q-92 0 -145.5 54.5t-53.5 145.5q0 115 69.5 191t169.5 76q92 0 145.5 -54.5t53.5 -145.5q0 -115 -69.5 -191
t-169.5 -76z" />
    <glyph glyph-name="Obreve" unicode="&#x14e;" horiz-adv-x="640" 
d="M400 663q-59 0 -93 36t-23 98h88q-9 -48 38 -48q48 0 55 48h88q-11 -65 -50.5 -99.5t-102.5 -34.5zM311 104q80 0 133.5 66.5t53.5 173.5q0 72 -38 119t-101 47q-80 0 -133 -66.5t-53 -173.5q0 -72 37.5 -119t100.5 -47zM309 -10q-121 0 -193.5 77.5t-72.5 201.5
q0 151 92.5 253t225.5 102q121 0 193.5 -77.5t72.5 -201.5q0 -151 -92 -253t-226 -102z" />
    <glyph glyph-name="obreve" unicode="&#x14f;" horiz-adv-x="490" 
d="M227 95q50 0 82 46.5t32 116.5q0 42 -20.5 68t-57.5 26q-50 0 -82 -46.5t-32 -116.5q0 -42 20.5 -68t57.5 -26zM225 -10q-92 0 -145.5 54.5t-53.5 145.5q0 115 69.5 191t169.5 76q92 0 145.5 -54.5t53.5 -145.5q0 -115 -69.5 -191t-169.5 -76zM294 492q-60 0 -93 38
t-21 104h88q-10 -58 34 -58q46 0 56 58h88q-13 -69 -52.5 -105.5t-99.5 -36.5z" />
    <glyph glyph-name="Ohungarumlaut" unicode="&#x150;" horiz-adv-x="640" 
d="M311 104q80 0 133.5 66.5t53.5 173.5q0 72 -38 119t-101 47q-80 0 -133 -66.5t-53 -173.5q0 -72 37.5 -119t100.5 -47zM309 -10q-121 0 -193.5 77.5t-72.5 201.5q0 151 92.5 253t225.5 102q121 0 193.5 -77.5t72.5 -201.5q0 -151 -92 -253t-226 -102zM364 669h-106
l88 122h108zM518 669h-106l88 122h108z" />
    <glyph glyph-name="ohungarumlaut" unicode="&#x151;" horiz-adv-x="490" 
d="M262 508h-99l92 142h100zM408 508h-100l92 142h101zM227 95q50 0 82 46.5t32 116.5q0 42 -20.5 68t-57.5 26q-50 0 -82 -46.5t-32 -116.5q0 -42 20.5 -68t57.5 -26zM225 -10q-92 0 -145.5 54.5t-53.5 145.5q0 115 69.5 191t169.5 76q92 0 145.5 -54.5t53.5 -145.5
q0 -115 -69.5 -191t-169.5 -76z" />
    <glyph glyph-name="OE" unicode="&#x152;" horiz-adv-x="826" 
d="M858 614l-20 -112h-267l-25 -134h242l-20 -109h-241l-25 -146h267l-19 -113h-447q-126 0 -193 67.5t-67 190.5q0 153 98 254.5t258 101.5h459zM172 265q0 -73 38 -113t114 -40h52l69 389h-60q-99 0 -156 -65.5t-57 -170.5z" />
    <glyph glyph-name="oe" unicode="&#x153;" horiz-adv-x="779" 
d="M622 146h120q-21 -73 -76.5 -114.5t-137.5 -41.5q-98 0 -150 69q-64 -69 -153 -69q-92 0 -145.5 54.5t-53.5 145.5q0 115 69.5 191t169.5 76q97 0 149 -70q68 70 162 70q86 0 134 -49t48 -134q0 -28 -9 -77h-299v-8q0 -47 22 -73t64 -26q62 0 86 56zM227 95q50 0 82 46.5
t32 116.5q0 42 -20.5 68t-57.5 26q-50 0 -82 -46.5t-32 -116.5q0 -42 20.5 -68t57.5 -26zM571 356q-75 0 -107 -84h175q1 5 1 12q0 31 -18.5 51.5t-50.5 20.5z" />
    <glyph glyph-name="Racute" unicode="&#x154;" horiz-adv-x="563" 
d="M263 229h-73l-40 -229h-128l108 614h242q92 0 141.5 -44t49.5 -126q0 -81 -47 -134.5t-125 -72.5l123 -237h-137zM238 505l-30 -171h117q53 0 82.5 26.5t29.5 75.5q0 69 -84 69h-115zM414 669h-126l100 122h139z" />
    <glyph glyph-name="racute" unicode="&#x155;" horiz-adv-x="351" 
d="M293 508h-115l105 142h124zM366 449l-22 -124q-22 15 -59 15q-32 0 -58 -16.5t-38 -46.5l-49 -277h-124l79 447h124l-8 -44q17 24 47 39t62 15q34 0 46 -8z" />
    <glyph glyph-name="Rcommaaccent" unicode="&#x156;" horiz-adv-x="563" 
d="M263 229h-73l-40 -229h-128l108 614h242q92 0 141.5 -44t49.5 -126q0 -81 -47 -134.5t-125 -72.5l123 -237h-137zM238 505l-30 -171h117q53 0 82.5 26.5t29.5 75.5q0 69 -84 69h-115zM150 -225l49 59q-43 14 -43 60q0 29 20 48t49 19q30 0 50 -19t20 -52q0 -39 -39 -83
l-27 -32h-79z" />
    <glyph glyph-name="rcommaaccent" unicode="&#x157;" horiz-adv-x="351" 
d="M-17 -225l49 59q-43 14 -43 60q0 29 20 48t49 19q30 0 50 -19t20 -52q0 -39 -39 -83l-27 -32h-79zM366 449l-22 -124q-22 15 -59 15q-32 0 -58 -16.5t-38 -46.5l-49 -277h-124l79 447h124l-8 -44q17 24 47 39t62 15q34 0 46 -8z" />
    <glyph glyph-name="Rcaron" unicode="&#x158;" horiz-adv-x="563" 
d="M263 229h-73l-40 -229h-128l108 614h242q92 0 141.5 -44t49.5 -126q0 -81 -47 -134.5t-125 -72.5l123 -237h-137zM238 505l-30 -171h117q53 0 82.5 26.5t29.5 75.5q0 69 -84 69h-115zM307 668l-77 127h101l38 -54l56 54h109l-123 -127h-104z" />
    <glyph glyph-name="rcaron" unicode="&#x159;" horiz-adv-x="351" 
d="M190 502l-70 145h95l37 -69l61 69h101l-120 -145h-104zM366 449l-22 -124q-22 15 -59 15q-32 0 -58 -16.5t-38 -46.5l-49 -277h-124l79 447h124l-8 -44q17 24 47 39t62 15q34 0 46 -8z" />
    <glyph glyph-name="Sacute" unicode="&#x15a;" horiz-adv-x="531" 
d="M533 441h-126q-5 34 -32 56t-72 22t-73 -21.5t-28 -58.5q0 -44 56 -60l105 -31q129 -39 129 -149q0 -96 -69.5 -152.5t-170.5 -56.5q-104 0 -168 49.5t-71 140.5h128q7 -41 38 -62.5t74 -21.5q50 0 80 22t30 63q0 44 -66 63l-99 28q-125 36 -125 147q0 89 65.5 147
t165.5 58q106 0 165 -50t64 -133zM390 669h-126l100 122h139z" />
    <glyph glyph-name="sacute" unicode="&#x15b;" horiz-adv-x="437" 
d="M318 508h-115l105 142h124zM9 135h118q8 -51 73 -51q67 0 67 44q0 15 -8.5 23t-30.5 14l-76 21q-102 28 -102 117q0 68 54 111t132 43q86 0 131 -38t50 -102h-115q-9 46 -66 46q-27 0 -45 -12t-18 -32q0 -23 31 -33l82 -24q104 -30 104 -117q0 -73 -55 -114t-137 -41
q-86 0 -135.5 40t-53.5 105z" />
    <glyph glyph-name="Scircumflex" unicode="&#x15c;" horiz-adv-x="531" 
d="M533 441h-126q-5 34 -32 56t-72 22t-73 -21.5t-28 -58.5q0 -44 56 -60l105 -31q129 -39 129 -149q0 -96 -69.5 -152.5t-170.5 -56.5q-104 0 -168 49.5t-71 140.5h128q7 -41 38 -62.5t74 -21.5q50 0 80 22t30 63q0 44 -66 63l-99 28q-125 36 -125 147q0 89 65.5 147
t165.5 58q106 0 165 -50t64 -133zM404 796l77 -127h-101l-38 54l-56 -54h-109l123 127h104z" />
    <glyph glyph-name="scircumflex" unicode="&#x15d;" horiz-adv-x="437" 
d="M340 647l70 -145h-95l-37 69l-61 -69h-101l120 145h104zM9 135h118q8 -51 73 -51q67 0 67 44q0 15 -8.5 23t-30.5 14l-76 21q-102 28 -102 117q0 68 54 111t132 43q86 0 131 -38t50 -102h-115q-9 46 -66 46q-27 0 -45 -12t-18 -32q0 -23 31 -33l82 -24q104 -30 104 -117
q0 -73 -55 -114t-137 -41q-86 0 -135.5 40t-53.5 105z" />
    <glyph glyph-name="Scedilla" unicode="&#x15e;" horiz-adv-x="531" 
d="M533 441h-126q-5 34 -32 56t-72 22t-73 -21.5t-28 -58.5q0 -44 56 -60l105 -31q129 -39 129 -149q0 -96 -69.5 -152.5t-170.5 -56.5q-104 0 -168 49.5t-71 140.5h128q7 -41 38 -62.5t74 -21.5q50 0 80 22t30 63q0 44 -66 63l-99 28q-125 36 -125 147q0 89 65.5 147
t165.5 58q106 0 165 -50t64 -133zM181 -186h-114l95 139h117z" />
    <glyph glyph-name="scedilla" unicode="&#x15f;" horiz-adv-x="437" 
d="M9 135h118q8 -51 73 -51q67 0 67 44q0 15 -8.5 23t-30.5 14l-76 21q-102 28 -102 117q0 68 54 111t132 43q86 0 131 -38t50 -102h-115q-9 46 -66 46q-27 0 -45 -12t-18 -32q0 -23 31 -33l82 -24q104 -30 104 -117q0 -73 -55 -114t-137 -41q-86 0 -135.5 40t-53.5 105z
M138 -186h-114l95 139h117z" />
    <glyph glyph-name="Scaron" unicode="&#x160;" horiz-adv-x="531" 
d="M283 668l-77 127h101l38 -54l56 54h109l-123 -127h-104zM533 441h-126q-5 34 -32 56t-72 22t-73 -21.5t-28 -58.5q0 -44 56 -60l105 -31q129 -39 129 -149q0 -96 -69.5 -152.5t-170.5 -56.5q-104 0 -168 49.5t-71 140.5h128q7 -41 38 -62.5t74 -21.5q50 0 80 22t30 63
q0 44 -66 63l-99 28q-125 36 -125 147q0 89 65.5 147t165.5 58q106 0 165 -50t64 -133z" />
    <glyph glyph-name="scaron" unicode="&#x161;" horiz-adv-x="437" 
d="M216 502l-70 145h95l37 -69l61 69h101l-120 -145h-104zM9 135h118q8 -51 73 -51q67 0 67 44q0 15 -8.5 23t-30.5 14l-76 21q-102 28 -102 117q0 68 54 111t132 43q86 0 131 -38t50 -102h-115q-9 46 -66 46q-27 0 -45 -12t-18 -32q0 -23 31 -33l82 -24q104 -30 104 -117
q0 -73 -55 -114t-137 -41q-86 0 -135.5 40t-53.5 105z" />
    <glyph glyph-name="Tcedilla" unicode="&#x162;" horiz-adv-x="575" 
d="M154 -225l49 59q-43 14 -43 60q0 29 20 48t49 19q30 0 50 -19t20 -52q0 -39 -39 -83l-27 -32h-79zM75 502l20 112h524l-20 -112h-198l-88 -502h-129l89 502h-198z" />
    <glyph glyph-name="tcedilla" unicode="&#x163;" horiz-adv-x="343" 
d="M67 -225l49 59q-43 14 -43 60q0 29 20 48t49 19q30 0 50 -19t20 -52q0 -39 -39 -83l-27 -32h-79zM66 135l40 212h-70l18 100h70l22 121h123l-22 -121h96l-17 -100h-97l-36 -191q-2 -14 -2 -19q0 -37 43 -37q32 0 57 15l-19 -110q-30 -14 -82 -14q-128 0 -128 108
q0 10 4 36z" />
    <glyph glyph-name="Tcaron" unicode="&#x164;" horiz-adv-x="575" 
d="M318 668l-77 127h101l38 -54l56 54h109l-123 -127h-104zM75 502l20 112h524l-20 -112h-198l-88 -502h-129l89 502h-198z" />
    <glyph glyph-name="tcaron" unicode="&#x165;" horiz-adv-x="343" 
d="M393 490h-99l76 167h100zM66 135l40 212h-70l18 100h70l22 121h123l-22 -121h96l-17 -100h-97l-36 -191q-2 -14 -2 -19q0 -37 43 -37q32 0 57 15l-19 -110q-30 -14 -82 -14q-128 0 -128 108q0 10 4 36z" />
    <glyph glyph-name="Tbar" unicode="&#x166;" horiz-adv-x="575" 
d="M75 502l20 112h524l-20 -112h-198l-25 -140h103l-19 -106h-102l-45 -256h-129l45 256h-101l19 106h101l25 140h-198z" />
    <glyph glyph-name="tbar" unicode="&#x167;" horiz-adv-x="343" 
d="M23 199l15 86h56l14 70h-70l16 92h70l22 121h123l-22 -121h96l-16 -92h-96l-14 -70h79l-15 -86h-80l-8 -42q-2 -14 -2 -20q0 -36 44 -36q29 0 57 14l-20 -110q-30 -14 -82 -14q-128 0 -128 108q0 10 4 36l12 64h-55z" />
    <glyph glyph-name="Utilde" unicode="&#x168;" horiz-adv-x="610" 
d="M478 804h74q-10 -63 -38.5 -101.5t-71.5 -38.5q-24 0 -52.5 23t-41.5 23q-28 0 -36 -42h-74q11 63 39 101t70 38q25 0 53.5 -22.5t41.5 -22.5q28 0 36 42zM284 -10q-106 0 -169 53t-63 150q0 28 8 67l62 354h128l-63 -354q-4 -34 -4 -46q0 -109 106 -109q125 0 153 155
l62 354h128l-65 -367q-22 -125 -95 -191t-188 -66z" />
    <glyph glyph-name="utilde" unicode="&#x169;" horiz-adv-x="501" 
d="M487 447l-78 -447h-124l7 41q-51 -51 -127 -51q-62 0 -97 36t-35 95q0 17 3 36l51 290h124l-46 -269q-3 -14 -3 -26q0 -55 58 -55q29 0 55 18.5t38 46.5l50 285h124zM392 643h73q-10 -63 -38 -101t-71 -38q-24 0 -50 23t-39 23q-27 0 -37 -42h-73q11 63 39 101t70 38
q24 0 50 -23t39 -23q29 0 37 42z" />
    <glyph glyph-name="Umacron" unicode="&#x16a;" horiz-adv-x="610" 
d="M261 669l16 91h243l-16 -91h-243zM284 -10q-106 0 -169 53t-63 150q0 28 8 67l62 354h128l-63 -354q-4 -34 -4 -46q0 -109 106 -109q125 0 153 155l62 354h128l-65 -367q-22 -125 -95 -191t-188 -66z" />
    <glyph glyph-name="umacron" unicode="&#x16b;" horiz-adv-x="501" 
d="M487 447l-78 -447h-124l7 41q-51 -51 -127 -51q-62 0 -97 36t-35 95q0 17 3 36l51 290h124l-46 -269q-3 -14 -3 -26q0 -55 58 -55q29 0 55 18.5t38 46.5l50 285h124zM182 516l16 91h237l-16 -91h-237z" />
    <glyph glyph-name="Ubreve" unicode="&#x16c;" horiz-adv-x="610" 
d="M384 663q-59 0 -93 36t-23 98h88q-9 -48 38 -48q48 0 55 48h88q-11 -65 -50.5 -99.5t-102.5 -34.5zM284 -10q-106 0 -169 53t-63 150q0 28 8 67l62 354h128l-63 -354q-4 -34 -4 -46q0 -109 106 -109q125 0 153 155l62 354h128l-65 -367q-22 -125 -95 -191t-188 -66z" />
    <glyph glyph-name="ubreve" unicode="&#x16d;" horiz-adv-x="501" 
d="M487 447l-78 -447h-124l7 41q-51 -51 -127 -51q-62 0 -97 36t-35 95q0 17 3 36l51 290h124l-46 -269q-3 -14 -3 -26q0 -55 58 -55q29 0 55 18.5t38 46.5l50 285h124zM301 492q-60 0 -93 38t-21 104h88q-10 -58 34 -58q46 0 56 58h88q-13 -69 -52.5 -105.5t-99.5 -36.5z
" />
    <glyph glyph-name="Uring" unicode="&#x16e;" horiz-adv-x="610" 
d="M284 -10q-106 0 -169 53t-63 150q0 28 8 67l62 354h128l-63 -354q-4 -34 -4 -46q0 -109 106 -109q125 0 153 155l62 354h128l-65 -367q-22 -125 -95 -191t-188 -66zM393 704q16 0 28.5 11.5t12.5 29.5q0 16 -10.5 27t-26.5 11q-17 0 -29.5 -12t-12.5 -30q0 -16 11 -26.5
t27 -10.5zM390 646q-41 0 -68 26.5t-27 66.5q0 42 30 71.5t74 29.5q41 0 68 -26.5t27 -66.5q0 -42 -30 -71.5t-74 -29.5z" />
    <glyph glyph-name="uring" unicode="&#x16f;" horiz-adv-x="501" 
d="M310 545q17 0 29 11.5t12 29.5q0 16 -10.5 27t-26.5 11q-17 0 -29 -12t-12 -30q0 -16 10.5 -26.5t26.5 -10.5zM308 487q-41 0 -68 26.5t-27 66.5q0 42 30 71.5t73 29.5q41 0 68 -26.5t27 -66.5q0 -41 -30 -71t-73 -30zM487 447l-78 -447h-124l7 41q-51 -51 -127 -51
q-62 0 -97 36t-35 95q0 17 3 36l51 290h124l-46 -269q-3 -14 -3 -26q0 -55 58 -55q29 0 55 18.5t38 46.5l50 285h124z" />
    <glyph glyph-name="Uhungarumlaut" unicode="&#x170;" horiz-adv-x="610" 
d="M284 -10q-106 0 -169 53t-63 150q0 28 8 67l62 354h128l-63 -354q-4 -34 -4 -46q0 -109 106 -109q125 0 153 155l62 354h128l-65 -367q-22 -125 -95 -191t-188 -66zM353 669h-106l88 122h108zM507 669h-106l88 122h108z" />
    <glyph glyph-name="uhungarumlaut" unicode="&#x171;" horiz-adv-x="501" 
d="M487 447l-78 -447h-124l7 41q-51 -51 -127 -51q-62 0 -97 36t-35 95q0 17 3 36l51 290h124l-46 -269q-3 -14 -3 -26q0 -55 58 -55q29 0 55 18.5t38 46.5l50 285h124zM269 508h-99l92 142h100zM415 508h-100l92 142h101z" />
    <glyph glyph-name="Uogonek" unicode="&#x172;" horiz-adv-x="610" 
d="M284 -10q-106 0 -169 53t-63 150q0 28 8 67l62 354h128l-63 -354q-4 -34 -4 -46q0 -109 106 -109q125 0 153 155l62 354h128l-65 -367q-25 -142 -134 -223q-95 -72 -95 -116q0 -17 16 -17q14 0 40 16l-13 -74q-33 -21 -66 -21t-51 16t-18 44q0 22 11 45t22 36.5t33 37.5
q-4 0 -14 -0.5t-14 -0.5z" />
    <glyph glyph-name="uogonek" unicode="&#x173;" horiz-adv-x="501" 
d="M285 0l7 41q-51 -51 -127 -51q-62 0 -97 36t-35 95q0 17 3 36l51 290h124l-46 -269q-3 -14 -3 -26q0 -55 58 -55q29 0 55 18.5t38 46.5l50 285h124l-78 -447l-20 -23l-18.5 -21.5t-13 -16.5t-10 -17t-2.5 -14q0 -17 16 -17q13 0 39 16l-13 -74q-31 -21 -65 -21
q-33 0 -51 16t-18 44q0 8 1 16t4.5 16.5t5.5 14.5t8 14.5l9 13t11 14l11 13t12.5 13.5t11.5 13h-42z" />
    <glyph glyph-name="Wcircumflex" unicode="&#x174;" horiz-adv-x="798" 
d="M420 614h101l25 -413l181 413h129l-281 -614h-118l-28 405l-188 -405h-117l-37 614h125l19 -413zM550 796l77 -127h-101l-38 54l-56 -54h-109l123 127h104z" />
    <glyph glyph-name="wcircumflex" unicode="&#x175;" horiz-adv-x="668" 
d="M454 647l70 -145h-95l-37 69l-61 -69h-101l120 145h104zM420 447l14 -285l139 285h122l-230 -447h-113l-16 274l-130 -274h-113l-41 447h117l21 -285l135 285h95z" />
    <glyph glyph-name="Ycircumflex" unicode="&#x176;" horiz-adv-x="593" 
d="M319 354l194 260h141l-290 -381l-41 -233h-127l40 233l-153 381h134zM447 796l77 -127h-101l-38 54l-56 -54h-109l123 127h104z" />
    <glyph glyph-name="ycircumflex" unicode="&#x177;" horiz-adv-x="485" 
d="M147 -165h-124l101 172l-71 440h119l45 -297l166 297h129zM355 647l70 -145h-95l-37 69l-61 -69h-101l120 145h104z" />
    <glyph glyph-name="Ydieresis" unicode="&#x178;" horiz-adv-x="593" 
d="M319 354l194 260h141l-290 -381l-41 -233h-127l40 233l-153 381h134zM237 730q0 29 19 48.5t48 19.5q28 0 47.5 -19.5t19.5 -48.5q0 -27 -19.5 -46.5t-47.5 -19.5t-47.5 19.5t-19.5 46.5zM402 730q0 29 19.5 48.5t47.5 19.5t48 -19.5t20 -48.5q0 -27 -20 -46.5t-48 -19.5
t-47.5 19.5t-19.5 46.5z" />
    <glyph glyph-name="Zacute" unicode="&#x179;" horiz-adv-x="554" 
d="M499 113l-20 -113h-474l16 93l378 409h-299l20 112h465l-17 -92l-375 -409h306zM412 669h-126l100 122h139z" />
    <glyph glyph-name="zacute" unicode="&#x17a;" horiz-adv-x="450" 
d="M322 508h-115l105 142h124zM390 100l-17 -100h-374l14 80l261 267h-207l18 100h364l-15 -80l-258 -267h214z" />
    <glyph glyph-name="Zdotaccent" unicode="&#x17b;" horiz-adv-x="554" 
d="M440 734q0 -30 -22 -50.5t-52 -20.5t-52 20.5t-22 50.5q0 31 22 51t52 20t52 -20t22 -51zM499 113l-20 -113h-474l16 93l378 409h-299l20 112h465l-17 -92l-375 -409h306z" />
    <glyph glyph-name="zdotaccent" unicode="&#x17c;" horiz-adv-x="450" 
d="M390 100l-17 -100h-374l14 80l261 267h-207l18 100h364l-15 -80l-258 -267h214zM357 579q0 -31 -22 -51t-52 -20t-52 20t-22 51q0 30 22 50.5t52 20.5t52 -20.5t22 -50.5z" />
    <glyph glyph-name="Zcaron" unicode="&#x17d;" horiz-adv-x="554" 
d="M305 668l-77 127h101l38 -54l56 54h109l-123 -127h-104zM499 113l-20 -113h-474l16 93l378 409h-299l20 112h465l-17 -92l-375 -409h306z" />
    <glyph glyph-name="zcaron" unicode="&#x17e;" horiz-adv-x="450" 
d="M220 502l-70 145h95l37 -69l61 69h101l-120 -145h-104zM390 100l-17 -100h-374l14 80l261 267h-207l18 100h364l-15 -80l-258 -267h214z" />
    <glyph glyph-name="florin" unicode="&#x192;" horiz-adv-x="422" 
d="M63 253l18 100h83l35 116q22 75 72 115t119 40q48 0 75 -12l-19 -105q-24 12 -49 12q-55 0 -75 -62l-31 -104h83l-18 -100h-95l-81 -272q-46 -155 -184 -155q-48 0 -75 12l17 102q23 -12 50 -12t42 14.5t25 47.5l79 263h-71z" />
    <glyph glyph-name="Aringacute" unicode="&#x1fa;" horiz-adv-x="627" 
d="M327 614h127l122 -614h-128l-28 148h-230l-82 -148h-129zM402 632q-41 0 -68 22.5t-27 55.5q0 34 30 59t73 25q41 0 68 -22t27 -56t-30 -59t-73 -25zM363 460l-113 -204h150zM484 812h-119l77 94h133zM404 683q17 0 29 8.5t12 23.5q0 13 -11 21t-27 8q-17 0 -28.5 -9
t-11.5 -24q0 -13 10.5 -20.5t26.5 -7.5z" />
    <glyph glyph-name="aringacute" unicode="&#x1fb;" horiz-adv-x="473" 
d="M308 525q17 0 29 9t12 24q0 12 -11 20t-27 8q-17 0 -28.5 -8.5t-11.5 -23.5q0 -13 10.5 -21t26.5 -8zM306 475q-41 0 -68.5 22t-27.5 56t30.5 59t72.5 25q41 0 68.5 -22.5t27.5 -55.5q0 -34 -30.5 -59t-72.5 -25zM388 655h-119l77 94h132zM436 285l-50 -285h-120l4 24
q-38 -32 -105 -32q-65 0 -108 34.5t-43 94.5q0 72 57.5 115.5t137.5 43.5q69 0 102 -26l6 32q2 10 2 18q0 52 -59 52q-52 0 -76 -42h-118q19 63 76 103t133 40t120 -38t44 -102q0 -15 -3 -32zM287 121l6 33q-5 18 -25.5 28.5t-47.5 10.5q-34 0 -61.5 -16.5t-27.5 -47.5
q0 -23 20.5 -34.5t50.5 -11.5q61 0 85 38z" />
    <glyph glyph-name="AEacute" unicode="&#x1fc;" horiz-adv-x="879" 
d="M428 614h483l-19 -112h-276l-25 -134h250l-19 -109h-250l-25 -146h276l-20 -113h-402l26 148h-204l-108 -148h-136zM492 517l-191 -261h145zM734 669h-126l100 122h139z" />
    <glyph glyph-name="aeacute" unicode="&#x1fd;" horiz-adv-x="738" 
d="M480 508h-115l105 142h124zM580 144h121q-21 -72 -77 -113t-137 -41q-105 0 -152 67q-66 -66 -172 -66q-67 0 -108 34t-41 92q0 72 59 114t144 42h96q3 17 3 30q0 54 -59 54q-52 0 -77 -43h-118q21 62 77.5 102.5t129.5 40.5q91 0 129 -59q23 26 61.5 42.5t78.5 16.5
q84 0 131.5 -49t47.5 -134q0 -28 -10 -80h-298v-9q2 -95 85 -95q64 0 86 54zM288 136l11 58h-81q-36 0 -61.5 -15t-25.5 -48q0 -22 17.5 -34t45.5 -12q64 0 94 51zM532 356q-76 0 -106 -83h174q0 2 0.5 6.5t0.5 6.5q0 31 -18.5 50.5t-50.5 19.5z" />
    <glyph glyph-name="Oslashacute" unicode="&#x1fe;" horiz-adv-x="649" 
d="M46 31l54 61q-52 72 -52 177q0 151 92 253t226 102q96 0 163 -50l47 53l57 -44l-54 -61q53 -73 53 -177q0 -151 -92.5 -253t-225.5 -102q-96 0 -163 50l-47 -53zM316 102q80 0 134 67.5t54 174.5q0 42 -14 78l-258 -291q35 -29 84 -29zM176 270q0 -45 13 -78l258 290
q-35 30 -83 30q-80 0 -134 -67.5t-54 -174.5zM455 669h-126l100 122h139z" />
    <glyph glyph-name="oslashacute" unicode="&#x1ff;" horiz-adv-x="500" 
d="M23 6l47 54q-39 53 -39 130q0 115 69.5 191t169.5 76q70 0 117 -32l44 50l46 -36l-47 -54q39 -51 39 -128q0 -115 -69.5 -191t-169.5 -76q-70 0 -116 30l-44 -50zM345 508h-115l105 142h124zM148 187q0 -20 4 -33l163 188q-19 14 -47 14q-51 0 -85.5 -49t-34.5 -120z
M232 91q51 0 85.5 49t34.5 120q0 18 -4 31l-162 -188q18 -12 46 -12z" />
    <glyph glyph-name="Scommaaccent" unicode="&#x218;" horiz-adv-x="531" 
d="M140 -225l49 59q-43 14 -43 60q0 29 20 48t49 19q30 0 50 -19t20 -52q0 -39 -39 -83l-27 -32h-79zM533 441h-126q-5 34 -32 56t-72 22t-73 -21.5t-28 -58.5q0 -44 56 -60l105 -31q129 -39 129 -149q0 -96 -69.5 -152.5t-170.5 -56.5q-104 0 -168 49.5t-71 140.5h128
q7 -41 38 -62.5t74 -21.5q50 0 80 22t30 63q0 44 -66 63l-99 28q-125 36 -125 147q0 89 65.5 147t165.5 58q106 0 165 -50t64 -133z" />
    <glyph glyph-name="scommaaccent" unicode="&#x219;" horiz-adv-x="437" 
d="M80 -225l49 59q-43 14 -43 60q0 29 20 48t49 19q30 0 50 -19t20 -52q0 -39 -39 -83l-27 -32h-79zM9 135h118q8 -51 73 -51q67 0 67 44q0 15 -8.5 23t-30.5 14l-76 21q-102 28 -102 117q0 68 54 111t132 43q86 0 131 -38t50 -102h-115q-9 46 -66 46q-27 0 -45 -12t-18 -32
q0 -23 31 -33l82 -24q104 -30 104 -117q0 -73 -55 -114t-137 -41q-86 0 -135.5 40t-53.5 105z" />
    <glyph glyph-name="uni0237" unicode="&#x237;" horiz-adv-x="232" 
d="M-99 -161l18 100q19 -13 42 -13q22 0 34 13.5t18 43.5l82 464h124l-83 -465q-13 -76 -55 -116.5t-111 -40.5q-43 0 -69 14z" />
    <glyph glyph-name="circumflex" unicode="&#x2c6;" horiz-adv-x="500" 
d="M327 647l70 -145h-95l-37 69l-61 -69h-101l120 145h104z" />
    <glyph glyph-name="caron" unicode="&#x2c7;" horiz-adv-x="500" 
d="M173 502l-70 145h95l37 -69l61 69h101l-120 -145h-104z" />
    <glyph glyph-name="breve" unicode="&#x2d8;" horiz-adv-x="500" 
d="M233 492q-60 0 -93 38t-21 104h88q-10 -58 34 -58q46 0 56 58h88q-13 -69 -52.5 -105.5t-99.5 -36.5z" />
    <glyph glyph-name="dotaccent" unicode="&#x2d9;" horiz-adv-x="500" 
d="M324 579q0 -31 -22 -51t-52 -20t-52 20t-22 51q0 30 22 50.5t52 20.5t52 -20.5t22 -50.5z" />
    <glyph glyph-name="ring" unicode="&#x2da;" horiz-adv-x="500" 
d="M247 545q17 0 29 11.5t12 29.5q0 16 -10.5 27t-26.5 11q-17 0 -29 -12t-12 -30q0 -16 10.5 -26.5t26.5 -10.5zM245 487q-41 0 -68 26.5t-27 66.5q0 42 30 71.5t73 29.5q41 0 68 -26.5t27 -66.5q0 -41 -30 -71t-73 -30z" />
    <glyph glyph-name="ogonek" unicode="&#x2db;" horiz-adv-x="500" 
d="M250 6h81l-26 -30l-23.5 -27t-14 -20.5t-6.5 -20.5q0 -17 16 -17q14 0 40 16l-13 -74q-33 -21 -66 -21t-51 16t-18 44q0 13 4 26.5t8 22.5t14.5 23t16 20l20 22t18.5 20z" />
    <glyph glyph-name="tilde" unicode="&#x2dc;" horiz-adv-x="500" 
d="M331 643h73q-10 -63 -38 -101t-71 -38q-24 0 -50 23t-39 23q-27 0 -37 -42h-73q11 63 39 101t70 38q25 0 51 -23t38 -23q29 0 37 42z" />
    <glyph glyph-name="hungarumlaut" unicode="&#x2dd;" horiz-adv-x="500" 
d="M180 508h-99l92 142h100zM326 508h-100l92 142h101z" />
    <glyph glyph-name="Wgrave" unicode="&#x1e80;" horiz-adv-x="798" 
d="M535 669h-114l-71 122h128zM420 614h101l25 -413l181 413h129l-281 -614h-118l-28 405l-188 -405h-117l-37 614h125l19 -413z" />
    <glyph glyph-name="wgrave" unicode="&#x1e81;" horiz-adv-x="668" 
d="M420 447l14 -285l139 285h122l-230 -447h-113l-16 274l-130 -274h-113l-41 447h117l21 -285l135 285h95zM432 508h-105l-64 142h115z" />
    <glyph glyph-name="Wacute" unicode="&#x1e82;" horiz-adv-x="798" 
d="M536 669h-126l100 122h139zM420 614h101l25 -413l181 413h129l-281 -614h-118l-28 405l-188 -405h-117l-37 614h125l19 -413z" />
    <glyph glyph-name="wacute" unicode="&#x1e83;" horiz-adv-x="668" 
d="M433 508h-115l105 142h124zM420 447l14 -285l139 285h122l-230 -447h-113l-16 274l-130 -274h-113l-41 447h117l21 -285l135 285h95z" />
    <glyph glyph-name="Wdieresis" unicode="&#x1e84;" horiz-adv-x="798" 
d="M340 730q0 29 19 48.5t48 19.5q28 0 47.5 -19.5t19.5 -48.5q0 -27 -19.5 -46.5t-47.5 -19.5t-47.5 19.5t-19.5 46.5zM505 730q0 29 19.5 48.5t47.5 19.5t48 -19.5t20 -48.5q0 -27 -20 -46.5t-48 -19.5t-47.5 19.5t-19.5 46.5zM420 614h101l25 -413l181 413h129l-281 -614
h-118l-28 405l-188 -405h-117l-37 614h125l19 -413z" />
    <glyph glyph-name="wdieresis" unicode="&#x1e85;" horiz-adv-x="668" 
d="M245 570q0 28 19.5 47.5t47.5 19.5q27 0 46.5 -19.5t19.5 -47.5q0 -27 -19.5 -46.5t-46.5 -19.5q-28 0 -47.5 19.5t-19.5 46.5zM409 570q0 28 19.5 47.5t46.5 19.5t47 -19.5t20 -47.5q0 -27 -20 -46.5t-47 -19.5t-46.5 19.5t-19.5 46.5zM420 447l14 -285l139 285h122
l-230 -447h-113l-16 274l-130 -274h-113l-41 447h117l21 -285l135 285h95z" />
    <glyph glyph-name="Ygrave" unicode="&#x1ef2;" horiz-adv-x="593" 
d="M319 354l194 260h141l-290 -381l-41 -233h-127l40 233l-153 381h134zM431 669h-114l-71 122h128z" />
    <glyph glyph-name="ygrave" unicode="&#x1ef3;" horiz-adv-x="485" 
d="M147 -165h-124l101 172l-71 440h119l45 -297l166 297h129zM333 508h-105l-64 142h115z" />
    <glyph glyph-name="endash" unicode="&#x2013;" horiz-adv-x="471" 
d="M37 217l16 90h395l-16 -90h-395z" />
    <glyph glyph-name="emdash" unicode="&#x2014;" horiz-adv-x="842" 
d="M37 217l16 90h766l-16 -90h-766z" />
    <glyph glyph-name="quoteleft" unicode="&#x2018;" horiz-adv-x="205" 
d="M256 614l-88 -112q50 -14 50 -69q0 -33 -22.5 -55t-55.5 -22q-34 0 -56.5 22.5t-22.5 60.5q0 40 39 88l71 87h85z" />
    <glyph glyph-name="quoteright" unicode="&#x2019;" horiz-adv-x="205" 
d="M45 366l88 112q-50 14 -50 69q0 33 22.5 55t55.5 22q34 0 56.5 -22.5t22.5 -60.5q0 -40 -39 -88l-71 -87h-85z" />
    <glyph glyph-name="quotesinglbase" unicode="&#x201a;" horiz-adv-x="205" 
d="M-33 -110l88 112q-50 14 -50 69q0 33 22.5 55t55.5 22q34 0 56.5 -22.5t22.5 -60.5q0 -40 -39 -88l-71 -87h-85z" />
    <glyph glyph-name="quotedblleft" unicode="&#x201c;" horiz-adv-x="400" 
d="M256 614l-88 -112q50 -14 50 -69q0 -33 -22.5 -55t-55.5 -22q-34 0 -56.5 22.5t-22.5 60.5q0 40 39 88l71 87h85zM451 614l-88 -112q50 -14 50 -69q0 -33 -22.5 -55t-55.5 -22q-34 0 -56.5 22.5t-22.5 60.5q0 40 39 88l71 87h85z" />
    <glyph glyph-name="quotedblright" unicode="&#x201d;" horiz-adv-x="400" 
d="M45 366l88 112q-50 14 -50 69q0 33 22.5 55t55.5 22q34 0 56.5 -22.5t22.5 -60.5q0 -40 -39 -88l-71 -87h-85zM239 366l88 112q-50 14 -50 69q0 33 22.5 55t55.5 22q34 0 56.5 -22.5t22.5 -60.5q0 -40 -39 -88l-71 -87h-85z" />
    <glyph glyph-name="quotedblbase" unicode="&#x201e;" horiz-adv-x="400" 
d="M-33 -110l88 112q-50 14 -50 69q0 33 22.5 55t55.5 22q34 0 56.5 -22.5t22.5 -60.5q0 -40 -39 -88l-71 -87h-85zM161 -110l88 112q-50 14 -50 69q0 33 22.5 55t55.5 22q34 0 56.5 -22.5t22.5 -60.5q0 -40 -39 -88l-71 -87h-85z" />
    <glyph glyph-name="dagger" unicode="&#x2020;" horiz-adv-x="337" 
d="M71 475l15 83h98l17 92h85l-17 -92h100l-15 -83h-99l-35 -199h-85l35 199h-99z" />
    <glyph glyph-name="daggerdbl" unicode="&#x2021;" horiz-adv-x="347" 
d="M77 499l14 76h100l13 75h83l-13 -75h102l-14 -76h-102l-13 -73h102l-13 -75h-102l-13 -75h-83l13 75h-100l13 75h100l13 73h-100z" />
    <glyph glyph-name="bullet" unicode="&#x2022;" horiz-adv-x="364" 
d="M342 262q0 -66 -44.5 -109t-109.5 -43t-109 42.5t-44 109.5t44 110t109 43t109.5 -43t44.5 -110z" />
    <glyph glyph-name="ellipsis" unicode="&#x2026;" horiz-adv-x="665" 
d="M4 73q0 34 23 56.5t56 22.5t55.5 -22.5t22.5 -56.5t-22.5 -57t-55.5 -23t-56 23t-23 57zM234 73q0 34 23 56.5t56 22.5t55.5 -22.5t22.5 -56.5t-22.5 -57t-55.5 -23t-56 23t-23 57zM464 73q0 34 23 56.5t56 22.5t55.5 -22.5t22.5 -56.5t-22.5 -57t-55.5 -23t-56 23
t-23 57z" />
    <glyph glyph-name="perthousand" unicode="&#x2030;" horiz-adv-x="988" 
d="M213 624q57 0 96 -39.5t39 -95.5q0 -59 -43 -104t-105 -45q-57 0 -96 39.5t-39 95.5q0 59 43 104t105 45zM204 423q25 0 43 18t18 45q0 23 -16.5 39t-39.5 16q-24 0 -42.5 -18t-18.5 -45q0 -23 16.5 -39t39.5 -16zM66 0l480 614h89l-480 -614h-89zM489 -10
q-57 0 -96 39.5t-39 95.5q0 59 42.5 104t104.5 45q57 0 96 -39t39 -96q0 -59 -42.5 -104t-104.5 -45zM498 191q-25 0 -43 -18t-18 -45q0 -23 16 -39t39 -16q25 0 43.5 18t18.5 45q0 23 -16.5 39t-39.5 16zM796 -10q-57 0 -96 39.5t-39 95.5q0 59 43 104t105 45
q57 0 96 -39.5t39 -95.5q0 -59 -43 -104t-105 -45zM805 191q-24 0 -42.5 -18t-18.5 -45q0 -23 16.5 -39t39.5 -16q25 0 43 18t18 45q0 23 -16.5 39t-39.5 16z" />
    <glyph glyph-name="guilsinglleft" unicode="&#x2039;" horiz-adv-x="254" 
d="M198 61h-111l-63 161l118 161h118l-123 -167z" />
    <glyph glyph-name="guilsinglright" unicode="&#x203a;" horiz-adv-x="254" 
d="M65 383h111l63 -161l-118 -161h-118l123 167z" />
    <glyph glyph-name="fraction" unicode="&#x2044;" horiz-adv-x="216" 
d="M426 614l-527 -614h-88l526 614h89z" />
    <glyph glyph-name="Euro" unicode="&#x20ac;" horiz-adv-x="552" 
d="M43 333l14 77h51q34 95 101.5 154.5t162.5 59.5q88 0 138 -49t58 -135h-114q-6 31 -29.5 51.5t-58.5 20.5q-87 0 -132 -102h170l-28 -77h-166q-5 -29 -6 -55h154l-29 -77h-122q20 -99 102 -99q72 0 103 72h115q-30 -87 -88.5 -135.5t-140.5 -48.5q-87 0 -144.5 57.5
t-69.5 153.5h-64l14 77h47q1 16 7 55h-45z" />
    <glyph glyph-name="uni2117" unicode="&#x2117;" horiz-adv-x="704" 
d="M685 307q0 -136 -92.5 -226.5t-224.5 -90.5t-224.5 90.5t-92.5 226.5t92.5 226.5t224.5 90.5t224.5 -90.5t92.5 -226.5zM638 307q0 116 -79 193.5t-191 77.5t-191 -77.5t-79 -193.5t79 -193.5t191 -77.5t191 77.5t79 193.5zM406 235h-68v-111h-97v369h165q62 0 98.5 -34
t36.5 -95t-36.5 -95t-98.5 -34zM446 364q0 45 -49 45h-59v-90h59q49 0 49 45z" />
    <glyph glyph-name="trademark" unicode="&#x2122;" horiz-adv-x="602" 
d="M74 550l12 64h228l-12 -64h-77l-34 -190h-73l33 190h-77zM467 360h-46l-25 146l-26 -146h-67l45 254h87l26 -153l81 153h89l-45 -254h-68l26 146z" />
    <glyph glyph-name="uni2153" unicode="&#x2153;" horiz-adv-x="717" 
d="M667 614l-536 -614h-93l536 614h93zM506 140l12 65h20q49 0 49 39q0 27 -29 27q-33 0 -44 -38h-92q12 51 49.5 82t93.5 31q51 0 79 -25.5t28 -67.5q0 -28 -15.5 -50.5t-35.5 -31.5q31 -22 31 -64q0 -49 -37 -80.5t-93 -31.5q-57 0 -90.5 29.5t-33.5 77.5l1 8h92v-3
q0 -35 36 -35q17 0 28.5 10t11.5 27q0 31 -37 31h-24zM274 614l-60 -341h-88l42 237l-96 -43l17 92l125 55h60z" />
    <glyph glyph-name="uni2154" unicode="&#x2154;" horiz-adv-x="784" 
d="M63 337l143 119q46 41 46 62q0 24 -25 24q-14 0 -25.5 -10.5t-14.5 -23.5h-95q13 50 51 82.5t92 32.5q51 0 80 -25t29 -67q0 -24 -12.5 -47t-27.5 -38t-42 -37l-66 -55h119l-13 -78h-249zM734 614l-536 -614h-93l537 614h92zM573 140l12 65h20q49 0 49 39q0 27 -29 27
q-34 0 -43 -38h-93q12 51 49.5 82t93.5 31q51 0 79 -25.5t28 -67.5q0 -28 -15.5 -50.5t-35.5 -31.5q31 -21 31 -64q0 -49 -37 -80.5t-93 -31.5q-57 0 -90.5 29.5t-33.5 77.5l1 8h93v-3q0 -35 35 -35q17 0 28.5 10t11.5 27q0 31 -37 31h-24z" />
    <glyph glyph-name="uni215B" unicode="&#x215b;" horiz-adv-x="728" 
d="M667 614l-536 -614h-93l536 614h93zM274 614l-60 -341h-88l42 237l-96 -43l17 92l125 55h60zM491 99q0 -15 11 -24.5t29 -9.5q19 0 32.5 11t13.5 29q0 15 -11 24t-29 9q-20 0 -33 -10t-13 -29zM530 -5q-51 0 -88.5 24t-37.5 71q0 33 19 56.5t47 31.5q-32 20 -32 62
q0 50 37 78.5t89 28.5q48 0 80.5 -24.5t32.5 -67.5q0 -62 -56 -87q42 -22 42 -67q0 -50 -39.5 -78t-93.5 -28zM594 248q0 14 -9.5 22.5t-24.5 8.5q-18 0 -30 -10.5t-12 -27.5q0 -14 9.5 -22.5t24.5 -8.5q18 0 30 10t12 28z" />
    <glyph glyph-name="uni215C" unicode="&#x215c;" horiz-adv-x="769" 
d="M572 -5q-51 0 -88.5 24t-37.5 71q0 33 19 56.5t47 31.5q-32 20 -32 62q0 50 37 78.5t89 28.5q48 0 80.5 -24.5t32.5 -67.5q0 -62 -56 -87q42 -22 42 -67q0 -50 -39 -78t-94 -28zM708 614l-536 -614h-92l536 614h92zM166 412l12 66h20q49 0 49 39q0 11 -7.5 18.5
t-21.5 7.5q-16 0 -27.5 -10.5t-15.5 -26.5h-93q13 51 50.5 82t92.5 31q51 0 79 -25.5t28 -67.5q0 -28 -15.5 -51t-35.5 -32q32 -21 32 -63q0 -48 -37.5 -80.5t-92.5 -32.5q-57 0 -91 29.5t-34 77.5l1 9h93v-3q0 -36 35 -36q17 0 29 10t12 27q0 31 -38 31h-24zM533 99
q0 -15 11 -24.5t29 -9.5q19 0 32.5 11t13.5 29q0 15 -11 24t-29 9q-20 0 -33 -10t-13 -29zM636 248q0 14 -9.5 22.5t-24.5 8.5q-18 0 -30 -10.5t-12 -27.5q0 -14 9.5 -22.5t24.5 -8.5q18 0 30 10t12 28z" />
    <glyph glyph-name="uni215D" unicode="&#x215d;" horiz-adv-x="769" 
d="M568 -5q-50 0 -88 24t-38 71q0 33 19 56.5t48 31.5q-32 20 -32 62q0 50 37 78.5t88 28.5q49 0 81.5 -24.5t32.5 -67.5q0 -29 -15.5 -52.5t-40.5 -34.5q42 -22 42 -67q0 -50 -39.5 -78t-94.5 -28zM182 267q-57 0 -90 29t-33 75l1 9h91v-3q0 -15 10 -24.5t27 -9.5
q19 0 32 13.5t13 33.5q0 36 -37 36q-19 0 -38 -17h-76l36 205h212l-14 -76h-138l-8 -51q22 12 47 12q46 0 73 -27.5t27 -72.5q0 -57 -37.5 -94.5t-97.5 -37.5zM707 614l-536 -614h-92l536 614h92zM530 99q0 -15 10.5 -24.5t28.5 -9.5q19 0 32.5 11t13.5 29q0 15 -10.5 24
t-28.5 9q-20 0 -33 -10t-13 -29zM633 248q0 14 -10 22.5t-25 8.5q-17 0 -29 -10.5t-12 -27.5q0 -14 9.5 -22.5t24.5 -8.5q18 0 30 10.5t12 27.5z" />
    <glyph glyph-name="uni215E" unicode="&#x215e;" horiz-adv-x="708" 
d="M647 614l-536 -614h-92l536 614h92zM337 551l-156 -278h-94l148 261h-143l15 80h241zM469 99q0 -15 11 -24.5t29 -9.5q19 0 32.5 11t13.5 29q0 15 -11 24t-28 9q-20 0 -33.5 -10t-13.5 -29zM508 -5q-51 0 -88.5 24t-37.5 71q0 33 19 56.5t47 31.5q-32 20 -32 62
q0 50 37 78.5t89 28.5q48 0 81 -24.5t33 -67.5q0 -29 -15.5 -52.5t-41.5 -34.5q42 -21 42 -67q0 -50 -39 -78t-94 -28zM573 248q0 14 -10 22.5t-25 8.5q-18 0 -29.5 -10t-11.5 -28q0 -14 9.5 -22.5t24.5 -8.5q18 0 30 10.5t12 27.5z" />
    <glyph glyph-name="minus" unicode="&#x2212;" horiz-adv-x="560" 
d="M68 251l17 96h432l-17 -96h-432z" />
    <glyph glyph-name="approxequal" unicode="&#x2248;" horiz-adv-x="576" 
d="M88 312l16 90q65 38 122 38q36 0 95 -18.5t95 -18.5q58 0 126 39l-16 -90q-67 -39 -126 -39q-36 0 -94 19t-95 19q-59 0 -123 -39zM61 159l15 89q65 39 123 39q37 0 95 -19t95 -19q60 0 126 39l-16 -90q-65 -38 -126 -38q-37 0 -94.5 18.5t-94.5 18.5q-57 0 -123 -38z
" />
    <glyph glyph-name="notequal" unicode="&#x2260;" horiz-adv-x="576" 
d="M93 338l15 87h257l80 94h82l-80 -94h92l-15 -87h-150l-65 -77h202l-16 -86h-259l-79 -94h-82l79 94h-90l15 86h148l65 77h-199z" />
    <glyph glyph-name="lessequal" unicode="&#x2264;" horiz-adv-x="448" 
d="M73 303l21 117l351 125l-20 -107l-248 -80l220 -80l-16 -98zM30 60l16 93h330l-17 -93h-329z" />
    <glyph glyph-name="greaterequal" unicode="&#x2265;" horiz-adv-x="448" 
d="M376 153l-17 -93h-329l16 93h330zM423 421l-20 -117l-352 -124l20 107l248 79l-220 81l16 98z" />
    <glyph glyph-name="fi" unicode="&#xfb01;" horiz-adv-x="558" 
d="M545 447l-79 -447h-124l79 447h124zM579 577q0 -31 -22 -51.5t-52 -20.5t-51.5 19.5t-21.5 49.5q0 32 22 52.5t53 20.5q30 0 51 -20t21 -50zM392 647l-18 -104q-17 11 -40 11q-63 0 -74 -62l-8 -45h93l-18 -100h-93l-60 -347h-123l61 347h-73l18 100h73l9 53
q13 77 63 118t123 41q42 0 67 -12z" />
    <glyph glyph-name="fl" unicode="&#xfb02;" horiz-adv-x="558" 
d="M580 650l-114 -650h-124l114 650h124zM392 647l-18 -104q-17 11 -40 11q-63 0 -74 -62l-8 -45h93l-18 -100h-93l-60 -347h-123l61 347h-73l18 100h73l9 53q13 77 63 118t123 41q42 0 67 -12z" />
    <glyph glyph-name="i.dot" horiz-adv-x="232" 
d="M219 447l-79 -447h-124l79 447h124zM254 579q0 -31 -22 -51t-52 -20t-52 20t-22 51q0 30 22 50.5t52 20.5t52 -20.5t22 -50.5z" />
    <glyph glyph-name="space_uni0326" horiz-adv-x="500" 
d="M178 -225l49 59q-43 14 -43 60q0 29 20 48t49 19q30 0 50 -19t20 -52q0 -39 -39 -83l-27 -32h-79z" />
    <glyph glyph-name="space_uni0326.alt" horiz-adv-x="500" 
d="M323 696l-54 -64q44 -14 44 -61q0 -29 -20 -47.5t-50 -18.5t-50 19t-20 52q0 40 39 82l32 38h79z" />
    <glyph glyph-name="space_dotbelowcomb" horiz-adv-x="500" 
d="M323 -109q0 -30 -21.5 -50t-51.5 -20t-51.5 20t-21.5 50t21.5 50t51.5 20t51.5 -20t21.5 -50z" />
    <glyph glyph-name="caron.Slovak" horiz-adv-x="500" 
d="M264 483h-99l76 167h100z" />
    <glyph glyph-name="cedilla.alt" horiz-adv-x="500" 
d="M256 -186h-114l95 139h117z" />
    <glyph glyph-name="grave.cap" horiz-adv-x="500" 
d="M345 669h-114l-71 122h128z" />
    <glyph glyph-name="acute.cap" horiz-adv-x="500" 
d="M258 669h-126l100 122h139z" />
    <glyph glyph-name="circumflex.cap" horiz-adv-x="500" 
d="M325 796l77 -127h-101l-38 54l-56 -54h-109l123 127h104z" />
    <glyph glyph-name="caron.cap" horiz-adv-x="500" 
d="M175 668l-77 127h101l38 -54l56 54h109l-123 -127h-104z" />
    <glyph glyph-name="tilde.cap" horiz-adv-x="500" 
d="M333 804h74q-10 -63 -38.5 -101.5t-71.5 -38.5q-24 0 -52.5 23t-41.5 23q-28 0 -36 -42h-74q11 63 39 101t70 38q25 0 53.5 -22.5t41.5 -22.5q28 0 36 42z" />
    <glyph glyph-name="macron.cap" horiz-adv-x="500" 
d="M120 669l16 91h243l-16 -91h-243z" />
    <glyph glyph-name="breve.cap" horiz-adv-x="500" 
d="M233 663q-59 0 -93 36t-23 98h88q-9 -48 38 -48q48 0 55 48h88q-11 -65 -50.5 -99.5t-102.5 -34.5z" />
    <glyph glyph-name="dotaccent.cap" horiz-adv-x="500" 
d="M324 734q0 -30 -22 -50.5t-52 -20.5t-52 20.5t-22 50.5q0 31 22 51t52 20t52 -20t22 -51z" />
    <glyph glyph-name="dieresis.cap" horiz-adv-x="500" 
d="M100 730q0 29 19 48.5t48 19.5q28 0 47.5 -19.5t19.5 -48.5q0 -27 -19.5 -46.5t-47.5 -19.5t-47.5 19.5t-19.5 46.5zM265 730q0 29 19.5 48.5t47.5 19.5t48 -19.5t20 -48.5q0 -27 -20 -46.5t-48 -19.5t-47.5 19.5t-19.5 46.5z" />
    <glyph glyph-name="ring.cap" horiz-adv-x="500" 
d="M248 704q16 0 28.5 11.5t12.5 29.5q0 16 -10.5 27t-26.5 11q-17 0 -29.5 -12t-12.5 -30q0 -16 11 -26.5t27 -10.5zM245 646q-41 0 -68 26.5t-27 66.5q0 42 30 71.5t74 29.5q41 0 68 -26.5t27 -66.5q0 -42 -30 -71.5t-74 -29.5z" />
    <glyph glyph-name="hungarumlaut.cap" horiz-adv-x="500" 
d="M181 669h-106l88 122h108zM335 669h-106l88 122h108z" />
    <glyph glyph-name="exclamdown.cap" horiz-adv-x="217" 
d="M192 416l-46 -416h-150l105 416h91zM243 544q0 -33 -23 -55.5t-56 -22.5t-56 22.5t-23 55.5q0 32 23 54.5t56 22.5t56 -22.5t23 -54.5z" />
    <glyph glyph-name="questiondown.cap" horiz-adv-x="456" 
d="M208 103q39 0 65 24t36 61h130q-25 -89 -89.5 -144t-156.5 -55q-83 0 -130 41t-47 113q0 31 9.5 58t31.5 53.5t37.5 41.5t47.5 43q49 43 54 76h123q-8 -37 -24 -64.5t-51 -59.5q-5 -5 -30.5 -28.5t-34.5 -33.5t-20.5 -30t-11.5 -39q0 -25 16 -41t45 -16zM352 543
q0 -34 -22.5 -56t-55.5 -22q-34 0 -57 22t-23 56q0 32 23 54.5t57 22.5q33 0 55.5 -22.5t22.5 -54.5z" />
    <glyph glyph-name="guilsinglleft.cap" horiz-adv-x="254" 
d="M221 141h-111l-63 161l118 161h118l-123 -167z" />
    <glyph glyph-name="guilsinglright.cap" horiz-adv-x="254" 
d="M78 463h112l63 -161l-118 -161h-118l123 167z" />
    <glyph glyph-name="guillemotleft.cap" horiz-adv-x="420" 
d="M215 141h-105l-63 161l120 161h110l-123 -167zM388 141h-107l-62 158l120 164h110l-123 -167z" />
    <glyph glyph-name="guillemotright.cap" horiz-adv-x="420" 
d="M250 463h105l64 -161l-121 -161h-109l122 167zM78 463h106l63 -158l-121 -164h-109l123 167z" />
    <glyph glyph-name="slash.cap" horiz-adv-x="373" 
d="M-48 -64l376 734h125l-377 -734h-124z" />
    <glyph glyph-name="backslash.cap" horiz-adv-x="373" 
d="M208 670l119 -734h-109l-119 734h109z" />
    <glyph glyph-name="bar.cap" horiz-adv-x="228" 
d="M11 -64l129 734h111l-129 -734h-111z" />
    <glyph glyph-name="periodcentered.cap" horiz-adv-x="214" 
d="M41 300q0 34 22.5 56.5t55.5 22.5t56 -22.5t23 -56.5t-23 -57t-56 -23t-55.5 23t-22.5 57z" />
    <glyph glyph-name="bullet.cap" horiz-adv-x="364" 
d="M347 299q0 -66 -44 -109t-109 -43t-109.5 43t-44.5 109q0 67 44.5 110.5t109.5 43.5t109 -43.5t44 -110.5z" />
    <glyph glyph-name="hyphen.cap" horiz-adv-x="317" 
d="M42 245l19 109h241l-19 -109h-241z" />
    <glyph glyph-name="endash.cap" horiz-adv-x="471" 
d="M42 254l16 91h395l-16 -91h-395z" />
    <glyph glyph-name="emdash.cap" horiz-adv-x="842" 
d="M42 254l16 91h766l-16 -91h-766z" />
    <glyph glyph-name="parenleft.cap" horiz-adv-x="325" 
d="M38 243q0 157 93 274t253 153l-22 -125q-86 -23 -145.5 -106t-59.5 -196q0 -71 32 -118.5t88 -63.5l-22 -125q-103 31 -160 109.5t-57 197.5z" />
    <glyph glyph-name="parenright.cap" horiz-adv-x="325" 
d="M321 363q0 -157 -93 -274t-253 -153l22 125q86 23 145.5 106t59.5 196q0 71 -32.5 118.5t-87.5 63.5l22 125q102 -31 159.5 -109.5t57.5 -197.5z" />
    <glyph glyph-name="bracketleft.cap" horiz-adv-x="322" 
d="M237 563l-91 -520h127l-19 -107h-243l129 734h243l-19 -107h-127z" />
    <glyph glyph-name="bracketright.cap" horiz-adv-x="322" 
d="M121 43l91 520h-127l19 107h243l-129 -734h-243l19 107h127z" />
    <glyph glyph-name="braceleft.cap" horiz-adv-x="353" 
d="M216 220l-26 -148q-5 -29 24 -29h91l-19 -107h-108q-60 0 -88.5 35.5t-17.5 94.5l26 154q5 29 -24 29h-47l20 108h47q29 0 34 29l27 154q10 58 52.5 94t99.5 36h108l-19 -107h-91q-29 0 -34 -29l-26 -148q-10 -55 -62 -84q43 -29 33 -82z" />
    <glyph glyph-name="braceright.cap" horiz-adv-x="353" 
d="M174 386l26 148q5 29 -24 29h-91l19 107h108q59 0 87.5 -35.5t18.5 -94.5l-27 -154q-5 -29 24 -29h48l-20 -108h-47q-29 0 -34 -29l-27 -154q-10 -58 -52.5 -94t-99.5 -36h-108l19 107h91q29 0 34 29l26 148q10 55 62 84q-43 29 -33 82z" />
    <glyph glyph-name="at.cap" horiz-adv-x="768" 
d="M600 478l-55 -236q-10 -47 29 -47q47 0 79 50t32 134q0 98 -68.5 154.5t-177.5 56.5q-140 0 -229.5 -92.5t-89.5 -239.5q0 -55 17.5 -98.5t46 -71t66.5 -45.5t76.5 -25.5t78.5 -7.5q123 0 237 51l-13 -77q-94 -46 -224 -46q-73 0 -137.5 19t-116.5 56.5t-82.5 100.5
t-30.5 144q0 169 114 287t288 118q145 0 233.5 -79.5t88.5 -203.5q0 -122 -64 -189.5t-152 -67.5q-76 0 -109 53q-15 -24 -43 -38t-57 -14q-59 0 -93 38.5t-34 99.5q0 90 56 157.5t139 67.5q61 0 83 -37l8 28h104zM443 258l24 100q-11 37 -55 37q-40 0 -67 -35.5t-27 -83.5
q0 -27 14.5 -43t41.5 -16q41 0 69 41z" />
    <glyph glyph-name="Euro.lt" 
d="M49 333l13 77h46q32 95 94.5 154.5t149.5 59.5q81 0 127 -49.5t53 -134.5h-108q-6 32 -26 52t-53 20q-77 0 -119 -102h154l-28 -77h-149q-3 -19 -7 -55h140l-30 -77h-108q14 -99 91 -99q64 0 92 72h112q-28 -87 -83.5 -135.5t-132.5 -48.5q-82 0 -133.5 57t-61.5 154h-57
l14 77h42q2 30 7 55h-39z" />
    <glyph glyph-name="dollar.lt" 
d="M8 188h123q6 -41 34.5 -61.5t71.5 -20.5q47 0 75 20.5t29 59.5q0 21 -14.5 35t-48.5 24l-95 28q-122 34 -122 141q0 82 58.5 136t148.5 59l15 91h107l-18 -102q117 -37 127 -162h-118q-5 32 -30.5 52.5t-68.5 20.5t-70.5 -20.5t-27.5 -55.5q0 -40 56 -57l100 -29
q125 -37 125 -144q0 -83 -56 -136t-142 -62l-17 -94h-106l18 100q-69 15 -109.5 60.5t-44.5 116.5z" />
    <glyph glyph-name="cent.lt" 
d="M42 200q0 100 58.5 176.5t152.5 88.5l16 90h107l-19 -100q104 -35 106 -155h-120q-2 28 -18 44.5t-45 16.5q-54 0 -84 -48t-30 -111q0 -45 20.5 -70.5t56.5 -25.5q64 0 82 60h121q-15 -67 -58 -109.5t-109 -53.5l-16 -90h-106l16 95q-61 18 -96 69t-35 123z" />
    <glyph glyph-name="sterling.lt" 
d="M271 424l-13 -73h127l-16 -97h-129l-10 -60q-11 -64 -37 -91h275l-18 -103h-445l17 103h52q26 35 36 91l11 60h-72l17 97h72l13 71q15 90 69.5 146t141.5 56q84 0 127.5 -46t41.5 -120h-114q0 61 -58 61q-71 0 -88 -95z" />
    <glyph glyph-name="yen.lt" 
d="M22 116l14 84h150l10 56h-150l15 84h107l-92 274h123l79 -246l162 246h129l-192 -274h108l-15 -84h-151l-10 -56h151l-14 -84h-151l-20 -116h-123l20 116h-150z" />
    <glyph glyph-name="florin.lt" 
d="M130 253l18 100h83l35 116q22 75 72.5 115t119.5 40q46 0 75 -12l-19 -105q-24 12 -49 12q-57 0 -75 -62l-32 -104h84l-18 -100h-96l-81 -272q-47 -155 -184 -155q-46 0 -75 12l18 102q21 -12 49 -12q27 0 42 14t26 48l78 263h-71z" />
    <glyph glyph-name="zero.lt" 
d="M237 104q47 0 82 45t51 107.5t16 128.5q0 58 -21 91.5t-63 33.5q-68 0 -108.5 -88t-40.5 -193q0 -58 21 -91.5t63 -33.5zM233 -10q-97 0 -150 65.5t-53 175.5q0 164 79 278.5t197 114.5q97 0 150 -65.5t53 -175.5q0 -164 -79.5 -278.5t-196.5 -114.5z" />
    <glyph glyph-name="one.lt" 
d="M28 0l20 111h157l62 357l-168 -78l22 126l216 98h81l-89 -503h138l-20 -111h-419z" />
    <glyph glyph-name="two.lt" 
d="M20 85l246 218l52.5 49t36 45.5t19.5 53.5q0 27 -17 42.5t-49 15.5q-36 0 -60.5 -23t-34.5 -61h-133q24 89 88.5 144t155.5 55q85 0 133 -41.5t48 -112.5q0 -33 -9 -61t-35 -59.5t-40.5 -46t-58.5 -53.5q-8 -8 -13 -12l-141 -127h242l-20 -111h-424z" />
    <glyph glyph-name="three.lt" 
d="M218 263l17 99h38q46 0 77.5 23t31.5 68q0 28 -19 45t-52 17q-38 0 -65 -23.5t-37 -60.5h-131q22 86 87.5 139.5t156.5 53.5q87 0 133.5 -43t46.5 -115q0 -54 -30.5 -97t-74.5 -60q66 -37 66 -118q0 -86 -65.5 -143.5t-160.5 -57.5q-98 0 -154 49.5t-56 131.5l1 19h126
v-6q0 -85 85 -85q44 0 74 25t30 69q0 32 -23.5 51t-62.5 19h-39z" />
    <glyph glyph-name="four.lt" 
d="M432 614l-264 -387h128l23 127h114l-23 -127h93l-18 -105h-93l-21 -122h-114l21 122h-271l17 93l274 399h134z" />
    <glyph glyph-name="five.lt" 
d="M236 -10q-94 0 -149.5 50.5t-55.5 131.5l1 18h125v-7q0 -38 22.5 -61t62.5 -23q49 0 80.5 33t31.5 83q0 39 -23 62t-63 23q-49 0 -90 -41h-105l64 355h366l-19 -111h-262l-23 -125q47 28 99 28q81 0 128 -48.5t47 -130.5q0 -99 -66 -168t-171 -69z" />
    <glyph glyph-name="six.lt" 
d="M517 453h-122q-5 27 -24 45t-50 18q-57 0 -98.5 -50t-55.5 -122h2q20 26 56 42t73 16q82 0 132.5 -51.5t50.5 -123.5q0 -96 -67.5 -166.5t-166.5 -70.5q-105 0 -156.5 68.5t-51.5 175.5q0 92 32 179t99.5 149t156.5 62q83 0 132.5 -46t57.5 -125zM160 185q0 -39 22.5 -64
t66.5 -25q46 0 79 34.5t33 83.5q0 39 -22.5 64.5t-66.5 25.5q-46 0 -79 -34.5t-33 -84.5z" />
    <glyph glyph-name="seven.lt" 
d="M502 523l-293 -523h-134l285 502h-297l20 112h435z" />
    <glyph glyph-name="eight.lt" 
d="M152 169q0 -36 25 -57t65 -21q46 0 76.5 25.5t30.5 70.5q0 36 -25 57t-65 21q-46 0 -76.5 -25.5t-30.5 -70.5zM239 -10q-84 0 -147.5 43.5t-63.5 123.5q0 64 39.5 109.5t94.5 57.5q-67 34 -67 116q0 83 62 133.5t150 50.5q82 0 137.5 -42.5t55.5 -115.5q0 -57 -32 -99
t-81 -59q37 -16 60.5 -49t23.5 -78q0 -91 -69 -141t-163 -50zM381 457q0 30 -22 49.5t-54 19.5q-39 0 -66 -24t-27 -65q0 -30 22 -49.5t53 -19.5q40 0 67 24t27 65z" />
    <glyph glyph-name="nine.lt" 
d="M18 161h122q5 -27 24 -45t50 -18q57 0 98.5 50t55.5 122h-2q-20 -26 -56 -42t-73 -16q-82 0 -132.5 51.5t-50.5 123.5q0 96 67.5 166.5t166.5 70.5q105 0 156.5 -68.5t51.5 -175.5q0 -92 -32 -179t-99.5 -149t-156.5 -62q-83 0 -132.5 46t-57.5 125zM375 429
q0 39 -22.5 64t-66.5 25q-46 0 -79 -34.5t-33 -83.5q0 -39 22.5 -64.5t66.5 -25.5q46 0 79 34.5t33 84.5z" />
    <glyph glyph-name="period.tab" horiz-adv-x="260" 
d="M23 73q0 34 23 56.5t56 22.5t55.5 -22.5t22.5 -56.5t-22.5 -57t-55.5 -23t-56 23t-23 57z" />
    <glyph glyph-name="comma.tab" horiz-adv-x="260" 
d="M0 -109l90 114q-50 14 -50 69q0 33 22.5 55t55.5 22q34 0 56 -22.5t22 -60.5q0 -40 -38 -88l-73 -89h-85z" />
    <glyph glyph-name="colon.tab" horiz-adv-x="260" 
d="M23 73q0 34 23 56.5t56 22.5t55.5 -22.5t22.5 -56.5t-22.5 -57t-55.5 -23t-56 23t-23 57zM73 358q0 34 23 56.5t56 22.5t55.5 -22.5t22.5 -56.5t-22.5 -57t-55.5 -23t-56 23t-23 57z" />
    <glyph glyph-name="semicolon.tab" horiz-adv-x="260" 
d="M0 -109l90 114q-50 14 -50 69q0 33 22.5 55t55.5 22q34 0 56 -22.5t22 -60.5q0 -40 -38 -88l-73 -89h-85zM73 358q0 34 23 56.5t56 22.5t55.5 -22.5t22.5 -56.5t-22.5 -57t-55.5 -23t-56 23t-23 57z" />
    <glyph glyph-name="space.tab" horiz-adv-x="260" 
 />
    <glyph glyph-name="percent.lt" 
d="M178 624q49 0 82.5 -34t33.5 -82q0 -51 -36.5 -89.5t-90.5 -38.5q-49 0 -82.5 33.5t-33.5 82.5q0 51 36.5 89.5t90.5 38.5zM170 451q21 0 37 15.5t16 38.5q0 19 -14.5 33.5t-33.5 14.5q-21 0 -37 -15.5t-16 -38.5q0 -20 14 -34t34 -14zM353 -10q-49 0 -82.5 34t-33.5 82
q0 52 36.5 90t90.5 38q49 0 82.5 -33.5t33.5 -82.5q0 -51 -36.5 -89.5t-90.5 -38.5zM361 163q-21 0 -37 -15.5t-16 -38.5q0 -20 14 -34t34 -14q21 0 37 15.5t16 38.5q0 20 -14 34t-34 14zM550 614l-480 -614h-89l480 614h89z" />
    <glyph glyph-name="perthousand.lt" horiz-adv-x="800" 
d="M194 624q49 0 82.5 -34t33.5 -82q0 -52 -36.5 -90t-90.5 -38q-49 0 -82.5 33.5t-33.5 82.5q0 51 36.5 89.5t90.5 38.5zM186 451q21 0 37 15.5t16 38.5q0 20 -14 34t-34 14q-21 0 -37 -15.5t-16 -38.5q0 -20 14 -34t34 -14zM369 -10q-49 0 -82.5 34t-33.5 82
q0 51 36.5 89.5t90.5 38.5q49 0 82.5 -33.5t33.5 -82.5q0 -51 -36.5 -89.5t-90.5 -38.5zM377 163q-21 0 -36.5 -15.5t-15.5 -38.5q0 -20 14 -34t33 -14q21 0 37 15.5t16 38.5q0 20 -14 34t-34 14zM566 614l-480 -614h-89l480 614h89zM639 -10q-49 0 -82.5 34t-33.5 82
q0 51 36.5 89.5t90.5 38.5q49 0 82.5 -33.5t33.5 -82.5q0 -51 -36.5 -89.5t-90.5 -38.5zM647 163q-21 0 -37 -15.5t-16 -38.5q0 -19 14 -33.5t34 -14.5q21 0 37 15.5t16 38.5q0 20 -14 34t-34 14z" />
    <glyph glyph-name="plus.lt" 
d="M259 515h95l-30 -168h169l-17 -96h-169l-29 -167h-95l29 167h-168l17 96h168z" />
    <glyph glyph-name="minus.lt" 
d="M44 251l17 96h432l-17 -96h-432z" />
    <glyph glyph-name="multiply.lt" 
d="M205 299l-101 121l74 63l99 -121l144 122l55 -66l-144 -122l100 -121l-74 -63l-100 121l-143 -122l-55 67z" />
    <glyph glyph-name="divide.lt" 
d="M44 251l17 96h432l-17 -96h-432zM229 472q0 29 21 50t50 21t50 -21t21 -50t-21 -49.5t-50 -20.5t-50 20.5t-21 49.5zM168 126q0 29 21 49.5t50 20.5t50 -20.5t21 -49.5t-21 -50t-50 -21t-50 21t-21 50z" />
    <glyph glyph-name="equal.lt" 
d="M31 175l15 87h431l-15 -87h-431zM60 338l15 88h431l-15 -88h-431z" />
    <glyph glyph-name="less.lt" 
d="M80 236l21 123l355 152l-19 -111l-258 -106l221 -106l-19 -105z" />
    <glyph glyph-name="greater.lt" 
d="M456 358l-21 -123l-355 -152l19 111l258 106l-221 106l19 105z" />
    <glyph glyph-name="plusminus.lt" 
d="M278 548h90l-23 -130h164l-15 -90h-165l-23 -130h-90l23 130h-165l16 90h165zM27 62l16 91h420l-17 -91h-419z" />
    <glyph glyph-name="lessequal.lt" 
d="M104 303l20 117l351 125l-19 -107l-248 -80l219 -80l-16 -98zM60 60l17 93h329l-17 -93h-329z" />
    <glyph glyph-name="greaterequal.lt" 
d="M418 153l-17 -93h-329l16 93h330zM465 421l-20 -117l-352 -124l20 107l248 79l-220 81l16 98z" />
    <glyph glyph-name="notequal.lt" 
d="M60 338l15 87h257l80 94h82l-80 -94h92l-15 -87h-150l-65 -77h201l-15 -86h-259l-79 -94h-82l79 94h-90l15 86h148l65 77h-199z" />
    <glyph glyph-name="approxequal.lt" 
d="M55 312l16 90q65 38 122 38q37 0 95 -18.5t95 -18.5q59 0 126 39l-16 -90q-67 -39 -126 -39q-37 0 -95 19t-94 19q-59 0 -123 -39zM28 159l16 89q64 39 123 39q37 0 95 -19t94 -19q60 0 126 39l-16 -90q-65 -38 -126 -38q-36 0 -94 18.5t-95 18.5q-57 0 -123 -38z" />
    </font>
</defs>
</svg>
