<svg width="156" height="45" viewBox="0 0 156 45" fill="none" xmlns="http://www.w3.org/2000/svg">
<path d="M103.53 1.86032C112.85 5.16012 120.49 12.8701 123.72 22.2099L123.901 22.3618C126.33 21.5122 128.941 21.0503 131.66 21.0503C144.63 21.0503 155.14 31.56 155.14 44.5302H0C5.03003 31.1601 19.0701 21.7299 33.3501 22.1303C35.1019 22.1787 36.856 22.3603 38.6084 22.542C41.8978 22.8823 45.1808 23.2216 48.4299 22.6801C53.7499 21.8003 58.4 18.6303 62.52 15.1504C63.702 14.1518 64.8584 13.1181 66.0148 12.0844C68.8894 9.5151 71.7639 6.94528 75.03 4.91989C83.4301 -0.290073 94.22 -1.44974 103.53 1.86032Z" fill="white"/>
</svg>
