<svg width="274" height="49" viewBox="0 0 274 49" fill="none" xmlns="http://www.w3.org/2000/svg">
<path fill-rule="evenodd" clip-rule="evenodd" d="M38.3018 47.9114C49.2657 47.8734 58.0548 39.4135 58.0548 28.4597C58.0548 17.5058 49.2657 9.04589 38.3018 9.00794L38.2651 9.00781L38.2527 9.00782L38.2278 9.00781C27.2294 9.00781 18.4756 17.4812 18.4756 28.4597C18.4756 39.4382 27.2294 47.9115 38.2278 47.9115C38.2361 47.9115 38.2444 47.9115 38.2527 47.9115C38.2568 47.9115 38.261 47.9115 38.2651 47.9115C38.2773 47.9115 38.2896 47.9115 38.3018 47.9114ZM38.355 37.5929C43.3619 37.5287 47.7337 33.6824 47.7337 28.4597C47.7337 23.2763 43.4277 19.4437 38.4683 19.3233C38.4223 19.325 38.3762 19.3262 38.33 19.3268C38.3084 19.3271 38.2868 19.3272 38.2651 19.3272C38.1887 19.3272 38.1126 19.3255 38.037 19.3222C33.132 19.4196 28.8805 23.2632 28.8805 28.4629C28.8805 33.7023 33.1972 37.5533 38.1496 37.5934C38.188 37.5926 38.2265 37.5921 38.2651 37.5921C38.2951 37.5921 38.3251 37.5924 38.355 37.5929Z" fill="#FF4C00"/>
<ellipse cx="38.6069" cy="14.3042" rx="5.15966" ry="5.15969" fill="#FF4C00"/>
<path d="M130.802 14.5673C128.109 11.2004 124.069 9.10547 118.607 9.10547C108.656 9.10547 100.426 17.7097 100.426 28.8578C100.426 40.0059 108.656 48.6101 118.607 48.6101C124.069 48.6101 128.109 46.5151 130.802 43.1483V14.5673ZM120.402 39.4073C114.492 39.4073 110.746 35.1426 110.746 28.8578C110.746 22.573 114.492 18.3082 120.402 18.3082C126.388 18.3082 130.802 22.573 130.802 28.8578C130.802 35.1426 126.388 39.4073 120.402 39.4073Z" fill="#FF4C00"/>
<path d="M130.794 42.753C130.794 45.602 133.104 47.9116 135.953 47.9116C138.802 47.9116 141.111 45.602 141.111 42.753V14.1664C141.111 11.3174 138.802 9.00781 135.953 9.00781C133.104 9.00781 130.794 11.3174 130.794 14.1664L130.794 42.753Z" fill="#FF4C00" fill-opacity="0.85"/>
<path d="M1.29199 42.7553C1.29199 45.6043 3.60157 47.9139 6.45059 47.9139C9.2996 47.9139 11.6092 45.6043 11.6092 42.7553V5.18984C11.6092 2.34083 9.2996 0.03125 6.45059 0.03125C3.60157 0.03125 1.29199 2.34083 1.29199 5.18985L1.29199 42.7553Z" fill="#FF4C00" fill-opacity="0.85"/>
<path d="M148.55 42.7553C148.55 45.6043 150.859 47.9139 153.708 47.9139C156.557 47.9139 158.867 45.6043 158.867 42.7553V5.18984C158.867 2.34083 156.557 0.03125 153.708 0.03125C150.859 0.03125 148.55 2.34083 148.55 5.18985L148.55 42.7553Z" fill="#FF4C00" fill-opacity="0.85"/>
<ellipse cx="135.963" cy="14.1675" rx="5.15966" ry="5.15969" fill="#FF4C00"/>
<ellipse cx="135.963" cy="42.7534" rx="5.15966" ry="5.15969" fill="#FF4C00"/>
<ellipse cx="92.3755" cy="18.1167" rx="5.15966" ry="5.15969" fill="#FF4C00"/>
<path d="M82.3085 48.6101C87.9367 48.6101 92.6083 46.8027 96.109 43.0979C97.8735 41.2305 97.4647 37.8605 95.2341 36.5859C92.8742 35.2374 91.6787 34.0165 89.3269 35.379C87.8916 36.4308 85.387 38.9069 82.3085 38.9069C76.5475 38.9069 72.2454 34.7685 72.2454 28.8578C72.2454 22.8722 76.5101 18.6075 82.2711 18.6075C82.582 18.6075 82.9002 18.6291 83.2218 18.6716C87.2644 19.2066 90.741 23.3571 94.3716 21.5005C94.6408 21.3628 94.9146 21.2112 95.1945 21.0474C97.3795 19.7678 98.2025 16.9335 96.4748 15.0823C93.0416 11.4034 87.981 9.10547 82.3459 9.10547C70.9735 9.10547 62.5938 17.7097 62.5938 28.8578C62.5938 40.0059 70.9361 48.6101 82.3085 48.6101Z" fill="#FF4C00" fill-opacity="0.85"/>
<ellipse cx="92.3755" cy="39.5503" rx="5.15966" ry="5.15969" fill="#FF4C00"/>
<ellipse cx="6.45165" cy="5.19094" rx="5.15966" ry="5.15969" fill="#FF4C00"/>
<ellipse cx="6.45165" cy="42.7536" rx="5.15966" ry="5.15969" fill="#FF4C00"/>
<ellipse cx="153.71" cy="5.19094" rx="5.15966" ry="5.15969" fill="#FF4C00"/>
<ellipse cx="153.71" cy="42.7534" rx="5.15966" ry="5.15969" fill="#FF4C00"/>
<rect x="173.109" y="14.9305" width="99.1285" height="28.1345" rx="14.0672" stroke="#FF4C00" stroke-width="1.97819"/>
<path d="M189.842 24.469C192.573 24.469 194.593 26.6002 194.593 30.1079C194.593 33.6822 192.55 35.7246 189.842 35.7246C188.577 35.7246 187.422 35.1696 186.556 34.1262V34.2372C186.556 35.0142 185.868 35.6136 185.135 35.6136C184.336 35.6136 183.715 34.9698 183.715 34.1928V21.9159C183.715 21.1389 184.336 20.4951 185.135 20.4951C185.89 20.4951 186.534 21.1389 186.534 21.9159V26.1118C187.378 25.0018 188.577 24.469 189.842 24.469ZM188.954 33.2159C190.597 33.2159 191.685 31.9727 191.685 30.1079C191.685 28.243 190.597 26.9776 188.954 26.9776C188.044 26.9776 187 27.5104 186.534 28.2208V32.0171C187 32.7053 188.044 33.2159 188.954 33.2159ZM196.279 38.5218C196.279 37.8336 196.834 37.3452 197.478 37.323C197.522 37.323 197.566 37.3008 197.611 37.3008C198.343 37.2786 198.81 37.101 199.076 36.5238L199.476 35.6136L195.79 26.4892C195.724 26.3338 195.702 26.1562 195.702 25.9786C195.702 25.2016 196.301 24.58 197.078 24.58C197.655 24.58 198.188 24.913 198.366 25.4458L200.941 32.2835L203.494 25.4458C203.694 24.913 204.226 24.58 204.804 24.58C205.603 24.58 206.202 25.2016 206.202 25.9786C206.202 26.1562 206.158 26.356 206.091 26.5114L201.74 37.212C200.941 39.2101 199.453 39.7873 197.855 39.8095C197.766 39.8095 197.655 39.8095 197.544 39.7873C196.789 39.7651 196.279 39.2101 196.279 38.5218ZM218.537 33.1715C219.203 33.2159 219.625 33.7266 219.625 34.3926C219.625 34.9476 219.27 35.3472 218.782 35.5026C218.404 35.6358 217.916 35.7246 217.316 35.7246C215.341 35.7246 214.275 34.7034 214.275 32.7941V27.1996H213.587C212.899 27.1996 212.344 26.6446 212.344 25.9786C212.344 25.2904 212.899 24.7354 213.587 24.7354H214.275V23.0703C214.275 22.2933 214.919 21.6495 215.718 21.6495C216.473 21.6495 217.117 22.2933 217.117 23.0703V24.7354H218.227C218.893 24.7354 219.448 25.2904 219.448 25.9786C219.448 26.6446 218.893 27.1996 218.227 27.1996H217.117V32.0393C217.117 32.7053 217.45 33.2159 218.071 33.2159C218.271 33.2159 218.404 33.1715 218.537 33.1715ZM226.194 35.7246C222.664 35.7246 220.533 33.1493 220.533 30.0857C220.533 27.0442 222.664 24.469 226.194 24.469C229.746 24.469 231.877 27.0442 231.877 30.0857C231.877 33.1493 229.746 35.7246 226.194 35.7246ZM226.194 33.2159C227.948 33.2159 228.947 31.7729 228.947 30.0857C228.947 28.4206 227.948 26.9776 226.194 26.9776C224.44 26.9776 223.464 28.4206 223.464 30.0857C223.464 31.7729 224.44 33.2159 226.194 33.2159ZM238.542 24.469C240.985 24.469 243.227 25.4458 243.227 28.5316V34.1484C243.227 34.9476 242.605 35.6136 241.806 35.6136C241.096 35.6136 240.474 35.0808 240.385 34.3482C239.675 35.1918 238.409 35.7246 237.011 35.7246C235.301 35.7246 233.281 34.5702 233.281 32.1725C233.281 29.6639 235.301 28.7536 237.011 28.7536C238.431 28.7536 239.697 29.1977 240.407 30.0635V28.576C240.407 27.4882 239.475 26.7778 238.054 26.7778C237.21 26.7778 236.456 26.9998 235.679 27.4882C235.523 27.577 235.323 27.6436 235.124 27.6436C234.546 27.6436 234.058 27.1552 234.058 26.5558C234.058 26.1562 234.28 25.801 234.569 25.6234C235.79 24.8242 237.166 24.469 238.542 24.469ZM238.143 33.8154C239.053 33.8154 239.941 33.5045 240.407 32.8829V31.5509C239.941 30.9293 239.053 30.6185 238.143 30.6185C237.033 30.6185 236.123 31.1957 236.123 32.2391C236.123 33.2381 237.033 33.8154 238.143 33.8154ZM245.935 34.6812C245.579 34.4814 245.335 34.0818 245.335 33.6599C245.335 33.0161 245.868 32.4833 246.512 32.4833C246.734 32.4833 246.934 32.5499 247.111 32.6387C247.977 33.1715 249.043 33.5489 250.019 33.5489C251.24 33.5489 251.818 33.1271 251.818 32.4611C251.818 31.7063 250.885 31.4399 249.664 31.1957C247.822 30.8405 245.446 30.3965 245.446 27.8434C245.446 26.0452 247.022 24.469 249.842 24.469C251.218 24.469 252.395 24.8242 253.372 25.4236C253.705 25.6012 253.927 25.9564 253.927 26.356C253.927 26.9554 253.438 27.4438 252.839 27.4438C252.661 27.4438 252.439 27.3994 252.306 27.3106C251.618 26.8888 250.774 26.6224 249.864 26.6224C248.843 26.6224 248.177 26.9998 248.177 27.6214C248.177 28.2874 249.02 28.5316 250.219 28.7758C252.062 29.1311 254.526 29.6195 254.526 32.2835C254.526 34.2372 252.861 35.7246 249.886 35.7246C248.443 35.7246 247.067 35.3694 245.935 34.6812ZM261.421 33.1715C262.087 33.2159 262.509 33.7266 262.509 34.3926C262.509 34.9476 262.153 35.3472 261.665 35.5026C261.288 35.6358 260.799 35.7246 260.2 35.7246C258.224 35.7246 257.158 34.7034 257.158 32.7941V27.1996H256.47C255.782 27.1996 255.227 26.6446 255.227 25.9786C255.227 25.2904 255.782 24.7354 256.47 24.7354H257.158V23.0703C257.158 22.2933 257.802 21.6495 258.601 21.6495C259.356 21.6495 260 22.2933 260 23.0703V24.7354H261.11C261.776 24.7354 262.331 25.2904 262.331 25.9786C262.331 26.6446 261.776 27.1996 261.11 27.1996H260V32.0393C260 32.7053 260.333 33.2159 260.955 33.2159C261.154 33.2159 261.288 33.1715 261.421 33.1715Z" fill="#FF4C00"/>
</svg>
