<svg xmlns="http://www.w3.org/2000/svg" xmlns:xlink="http://www.w3.org/1999/xlink" width="82" height="21" viewBox="0 0 82 21"><defs><path id="a" d="M660.307 2069.561c-2.312 0-3.543-1.19-3.543-3.406v-6.482h-.815c-.781 0-1.43-.645-1.43-1.471 0-.745.649-1.39 1.43-1.39h.799v-1.934c0-.91.732-1.62 1.68-1.62.914 0 1.63.727 1.63 1.62v1.935h1.297c.748 0 1.397.644 1.397 1.438 0 .777-.649 1.422-1.397 1.422h-1.297v5.622c0 .976.615 1.373 1.147 1.373h.283c.931 0 1.447.612 1.447 1.422 0 .793-.482 1.471-2.628 1.471z"/><path id="b" d="M687.236 2066.287c-.55.711-1.58 1.075-2.645 1.075-1.297 0-2.362-.678-2.362-1.835 0-1.224 1.065-1.885 2.362-1.885 1.065 0 2.096.347 2.645 1.075zm3.293 1.489v-6.565c0-3.572-2.628-4.713-5.472-4.713-1.447 0-4.242.513-5.023 1.753-.1.182-.183.414-.183.645 0 .76.648 1.257 1.247 1.257.216 0 .416-.083.599-.182.848-.562 1.813-.794 2.794-.794 1.664 0 2.745.827 2.745 2.084v1.703c-.832-.976-2.296-1.521-3.959-1.521-1.996 0-4.358 1.107-4.358 4.018 0 2.778 2.362 4.117 4.358 4.117 1.63 0 3.11-.595 3.959-1.604 0 1.24 1.164 1.439 1.43 1.439h.266c.882 0 1.597-.728 1.597-1.637zm-16.65-4.763c0 1.968-1.164 3.638-3.21 3.638-2.045 0-3.193-1.686-3.193-3.638 0-1.934 1.148-3.604 3.193-3.604 2.046 0 3.21 1.686 3.21 3.604zm3.427 0c0-3.522-2.495-6.515-6.637-6.515-4.108 0-6.603 2.993-6.603 6.515 0 3.556 2.478 6.548 6.603 6.548 4.142 0 6.62-2.992 6.637-6.548z"/><path id="c" d="M710.355 2069.561c-2.312 0-3.542-1.19-3.542-3.406v-6.482h-.799c-.782 0-1.43-.645-1.43-1.471 0-.745.648-1.39 1.43-1.39h.799v-1.934c0-.91.731-1.62 1.68-1.62.914 0 1.63.727 1.63 1.62v1.935h1.297c.748 0 1.397.644 1.397 1.438 0 .777-.649 1.422-1.397 1.422h-1.297v5.622c0 .976.615 1.373 1.147 1.373h.283c.931 0 1.447.612 1.447 1.422-.017.793-.499 1.471-2.645 1.471zm-12.058 0c-1.63 0-4.242-.545-5.024-1.653a1.128 1.128 0 0 1-.232-.695c0-.777.665-1.372 1.38-1.372.233 0 .466.05.665.182.982.562 2.28 1.008 3.36 1.008 1.43 0 2.096-.562 2.096-1.339 0-2.067-7.435-.38-7.435-5.275 0-2.083 1.846-3.919 5.123-3.919 1.63 0 3.859.513 4.557 1.522.133.182.2.413.2.645 0 .694-.615 1.24-1.297 1.24-.2 0-.433-.05-.616-.15a5.76 5.76 0 0 0-2.827-.743c-1.198 0-1.963.545-1.963 1.24 0 1.852 7.402.314 7.402 5.324.033 2.266-1.913 3.985-5.39 3.985z"/><path id="d" d="M649.961 2066.915c-.532 1.207-2.029 1.075-3.077.975-1.563-.132-3.11-.512-4.69-.562-1.397-.05-2.778.232-4.125.53-1.015.23-2.429.81-3.36.032-1.015-.876-1.198-2.364-1.214-3.62-.017-1.092.15-2.315.332-3.373.117-.695.35-1.356.6-2.001.365-.942.897-1.505.93-1.472-.266-.28-.598-.43-.781-.826-.699-1.472 1.048-2.712 1.996-3.142 3.326-1.504 7.984-1.355 11.127.58.982.594 2.878 2.678 1.098 3.703 1.098.529 1.38 2.1 1.497 3.224.2 1.802.133 3.62-.166 5.406-.034.182-.084.38-.167.546zm2.445-2.479c0-1.372-.033-2.761-.183-4.117-.1-.926-.415-2.117-1.397-2.348.117.033.3.033.383-.017 1.147-.612 1.064-2.1.648-3.191-.532-1.422-1.813-2.43-3.06-3.092-4.508-2.398-10.562-2.2-14.936.529-1.148.71-2.462 2.1-1.88 3.654.15.38.4.728.682 1.025.133.133.433.463.433.463-.583.81-1.015 1.538-1.298 2.514-.831 2.926-.682 4.812-.466 7.176.134 1.455.616 3.638 2.296 3.886 1.364.182 2.827-.265 4.191-.43 1.497-.182 3.01-.463 4.524-.413 2.13.05 4.242.562 6.387.595 1.131.016 3.011.116 3.344-1.39.316-1.421.332-2.91.349-4.364-.017-.166-.017-.315-.017-.48z"/></defs><use fill="#ff4c00" xlink:href="#a" transform="translate(-631 -2050)"/><use fill="#ff4c00" xlink:href="#b" transform="translate(-631 -2050)"/><use fill="#ff4c00" xlink:href="#c" transform="translate(-631 -2050)"/><g transform="translate(-631 -2050)"><use fill="#ff4c00" xlink:href="#d"/></g></svg>