<svg version="1.1" id="Layer_1" xmlns="http://www.w3.org/2000/svg" x="0" y="0" viewBox="0 0 242 99" xml:space="preserve"><style>.st0{fill:none}.st1{fill:#fff}</style><path class="st0" d="M0 0h242v99H0z"/><path class="st1" d="M189.6 94.5c-8 0-5.8-19.6 2.1-19.6 10.6 0 8.3 19.6-2.1 19.6m-15.1-8.8c-.2.9-1.1 3.2-2.5 2.5-.6-.3-.8-1-.7-1.8 0-.4.1-.7.1-1.1.4-2.1 1.8-4.5 2.7-4.3 1 .4.6 3.7.4 4.7M144 94.9c-3.1-.3-1.3-12.8 1.5-13.4 2.8-.5 1.6 13.8-1.5 13.4m48.7-23.3c-8.9 0-12.4 7.2-12.8 13.1-.1 1.5-.1 3.4.2 5.2l-.1.4c-.5 1.9-3.9 7.5-7.4 3.9-1.1-1.2-1.3-2.8-1.4-4.3 3.4 2.9 6.5-.1 7.1-6.2.3-2.6 0-5.2-3.3-5.7-.4-1.4-3.2-1.7-4.1-.6-.6.8-2.1 3-2.8 5.4-1.5 4.7-.6 7.8-.6 9.2 0 .4 0 .8.1 1.2-.8-.8-1.6-1.6-2.2-2.3-1-1.1-2.2-2.8-3.5-4.3 2.6-1.7 4.8-4.1 5.2-6.4.3-1.5-1.2-3-2.6-1.7 0 0-2.6 2.6-5.3 5.1.2-5.2.9-8.4 2.3-14.6.3-1.4-3.7-3-4.7-1s-1.7 9-1.9 14c-.1 1.7-.1 4 .2 6.4-.3 1.2-.6 2.3-1.1 3.2-.5 1-2 3.6-2.7 2.1-.9-1.8-.5-4.5-.3-6.4.2-1.7.7-4.3 1-6.5.2-1.7-3.8-2.2-4.3-1.1 0 .1-.1.2-.1.3-.7-.9-1.6-1.5-2.6-1.6-5-.4-6.5 6.2-6.5 10.4v.6c-.1.1-.1.2-.2.3-.3 1-1.8 6-2.3 5.9-2.2-.4-2.1-9-2.1-10.3.1-5.9.7-9 2-14.8h10.6c2.2 0 1.6-2.1-.9-2.4-3.6-.5-7.5-.9-11.3-1-.5-.1-1.1-.2-1.5 0-4.7-.1-9 .3-11.5 1.1-2.2.7-1.4 2.3 2.5 2.3h7.1c-.7 3.1-1.2 7.8-1.3 11.4-.2 4.1-.3 11.6 2.9 14.9 2.7 2.7 5 1 6.7-1.6.6 1.6 1.7 2.8 3.7 3h.4c2-.2 3.5-1.5 4.5-3.3.2.4.4.8.7 1.1 2.5 2.6 6 .3 7.4-2.5.4 1.4 1 2.6 1.8 3.3 2.7 2.7 4-1.1 3.5-1.2-1.2-.2-1.7-2.8-1.9-5.4 1.2 1.1 2.8 2.4 3.6 3.3 1.8 1.8 6.3 5.5 9.1 5.1.2 0 .3-.1.5-.2 3.8.9 7-1.7 8.6-4.7 1.2 2.6 3.3 4.8 6.9 5.2h1.5c14.9-.8 19.5-27.2 3.2-27.3"/><path class="st0" d="M0 0h242v99H0z"/><path class="st1" d="M239.7 72.8c-3.3-.5-7-.8-10.5-.9.2-.9.4-1.8.6-2.9.3-1.4-3.7-3.1-4.7-1-.4.7-.7 2.1-1 3.8-4.1 0-7.6.4-9.9 1.1-2.3.7-1.5 2.4 2.7 2.4h6.7c-.3 2.4-.5 4.9-.6 7.1-.1 1.8-.1 4.2 0 6.6-.2.9-.5 1.9-1.1 3.4-.6 1.5-1.7 2.5-2.4 2.7-.5.1-.8-.3-1-.8-2.3-4.2-.2-12 .1-14 .2-1.1-2.8-3.5-4.3-.8-.6 3.3-1.5 6.9-1.4 10.2 0 1 .1 2.2.4 3.4-.5 1.1-1.3 1.6-1.9 1.8-.5.2-.7-.1-1-.5-2.3-4.1-.6-12-.3-14 .2-1.1-2.7-3.4-4.1-.6-.5 3.3-1.2 6.9-1 10.3.1 2.9 1.1 7.6 4.4 8 2.1.3 3.7-.7 4.9-2.3.7 1.1 1.6 2 3 2.2 3.1.5 5.2-1.5 6.5-4.1.5 1.5 1.1 2.9 2.1 3.8 5 5 8.8-4.4 9.8-7.8.4-1.4-3.3-.9-3.7.4-.3 1-1.9 6.2-2.4 6.1-2.3-.4-2.2-9.3-2.2-10.5.1-4.3.4-7.1 1.1-10.6h12.1c2.3 0 1.7-2.2-.9-2.5"/><path class="st0" d="M0 0h242v99H0z"/><path class="st1" d="M82.4 54.7c-6.5 0-9.9-3.4-9.9-9.7V26.6h-2.3c-2.2 0-4-1.8-4-4.2 0-2.1 1.8-4 4-4h2.2v-5.5c0-2.6 2-4.6 4.7-4.6 2.6 0 4.6 2.1 4.6 4.6v5.5h3.6c2.1 0 3.9 1.8 3.9 4.1 0 2.2-1.8 4-3.9 4h-3.6v16c0 2.8 1.7 3.9 3.2 3.9h.8c2.6 0 4 1.7 4 4 .1 2.3-1.3 4.3-7.3 4.3z"/><path class="st0" d="M0 0h242v99H0z"/><path class="st1" d="M111.4 54.7c-11.6 0-18.5-8.5-18.5-18.6 0-10 7-18.5 18.5-18.5 11.6 0 18.6 8.5 18.6 18.5 0 10.1-7 18.6-18.6 18.6zm0-28.9c-5.7 0-9 4.8-9 10.3 0 5.5 3.2 10.3 9 10.3s9-4.8 9-10.3c0-5.5-3.2-10.3-9-10.3zm51.2 28.5h-.8c-.8 0-4-.6-4-4.1-2.4 2.9-6.5 4.6-11.1 4.6-5.6 0-12.2-3.8-12.2-11.7 0-8.3 6.6-11.4 12.2-11.4 4.7 0 8.8 1.5 11.1 4.3v-4.8c0-3.6-3-5.9-7.7-5.9-2.8 0-5.5.7-7.8 2.3-.5.3-1.1.5-1.7.5-1.7 0-3.5-1.4-3.5-3.6 0-.7.2-1.3.5-1.8 2.2-3.5 10-5 14.1-5 8 0 15.3 3.2 15.3 13.4v18.7c.1 2.4-1.9 4.5-4.4 4.5zm-4.7-13.4c-1.5-2.1-4.4-3.1-7.4-3.1-3.6 0-6.6 1.9-6.6 5.4 0 3.3 3 5.2 6.6 5.2 3 0 5.9-1 7.4-3v-4.5z"/><path class="st0" d="M0 0h242v99H0z"/><path class="st1" d="M188.9 54.7c-4.6 0-11.9-1.5-14.1-4.7-.4-.6-.6-1.2-.6-2 0-2.2 1.9-3.9 3.9-3.9.6 0 1.3.1 1.9.5 2.8 1.6 6.4 2.9 9.4 2.9 4 0 5.9-1.6 5.9-3.8 0-5.9-20.8-1.1-20.8-15 0-5.9 5.2-11.1 14.4-11.1 4.6 0 10.8 1.5 12.8 4.3.4.5.6 1.2.6 1.8 0 2-1.7 3.5-3.6 3.5-.6 0-1.2-.1-1.7-.4-2.2-1.3-5.1-2.1-7.9-2.1-3.4 0-5.5 1.5-5.5 3.5 0 5.3 20.7.9 20.7 15.1-.3 6.5-5.7 11.4-15.4 11.4zm33.7 0c-6.5 0-9.9-3.4-9.9-9.7V26.6h-2.2c-2.2 0-4-1.8-4-4.2 0-2.1 1.8-4 4-4h2.2v-5.5c0-2.6 2-4.6 4.7-4.6 2.6 0 4.6 2.1 4.6 4.6v5.5h3.6c2.1 0 3.9 1.8 3.9 4.1 0 2.2-1.8 4-3.9 4H222v16c0 2.8 1.7 3.9 3.2 3.9h.8c2.6 0 4 1.7 4 4s-1.3 4.3-7.4 4.3z"/><path class="st0" d="M0 0h242v99H0z"/><path class="st1" d="M60 40.6c0-3.9-.1-7.8-.5-11.6-.3-2.6-1.2-6-3.9-6.6.3.1.8.1 1.1 0 3.2-1.7 3-5.9 1.8-9-1.5-4-5.1-6.8-8.6-8.7C37-2.1 19.9-1.5 7.6 6.2c-3.2 2-7 5.9-5.3 10.3.4 1.1 1.1 2 1.9 2.9.4.4 1.2 1.3 1.2 1.3C3.8 23 2.5 25 1.7 27.8-.6 36-.1 41.3.5 47.9.9 52 2.2 58.2 7 58.9c3.9.5 8-.7 11.8-1.2 4.2-.5 8.5-1.3 12.8-1.2 6 .1 12 1.6 18 1.7 3.2 0 8.5.3 9.4-3.9.9-4 .9-8.2 1-12.3v-1.4zm-7 7c-1.5 3.4-5.7 3-8.7 2.8-4.4-.4-8.8-1.4-13.2-1.6-3.9-.1-7.8.6-11.6 1.5-2.9.6-6.9 2.3-9.5.1-2.9-2.5-3.4-6.7-3.4-10.2 0-3.1.4-6.5.9-9.5.3-2 1-3.8 1.7-5.6 1-2.6 2.5-4.2 2.6-4.1-.8-.8-1.7-1.2-2.2-2.3-2-4.1 3-7.6 5.6-8.8 9.4-4.2 22.5-3.8 31.4 1.6 2.8 1.7 8.1 7.5 3.1 10.4 3.1 1.5 3.9 5.9 4.2 9.1.6 5.1.4 10.2-.5 15.2 0 .4-.1.9-.4 1.4z"/></svg>