<svg width="122" height="122" viewBox="0 0 122 122" fill="none" xmlns="http://www.w3.org/2000/svg">
<rect x="0.727051" y="0.262543" width="121.236" height="121.236" rx="60.6181" fill="white"/>
<g clip-path="url(#clip0_4906_2165)">
<path fill-rule="evenodd" clip-rule="evenodd" d="M61.9224 115.02C91.7828 115.02 115.99 90.8134 115.99 60.9531C115.99 31.0936 91.7828 6.88683 61.9224 6.88683C32.063 6.88683 7.8562 31.0936 7.8562 60.9531C7.8562 90.8134 32.063 115.02 61.9224 115.02ZM76.8689 81.498C80.1021 81.777 84.7092 82.1745 86.3412 78.4375C86.5652 77.9241 86.7388 77.3314 86.8536 76.6482C87.7833 71.1197 87.9438 65.4408 87.3474 59.861C86.9759 56.3738 86.1171 51.4669 82.727 49.8447C88.2229 46.6413 82.3434 40.2064 79.3145 38.3387C69.5857 32.3416 55.2048 31.8795 44.9328 36.5503C41.9991 37.8841 36.6283 41.7484 38.7779 46.3211C39.1595 47.1328 39.7361 47.613 40.3279 48.1059C40.6249 48.3533 40.9256 48.6038 41.2076 48.901C41.1217 48.8105 39.4602 50.5559 38.3308 53.4681C37.544 55.4955 36.8215 57.5583 36.4836 59.7098C35.96 63.0429 35.4448 66.8391 35.4802 70.2161C35.5222 74.1084 36.0823 78.7427 39.2297 81.4608C41.5808 83.4911 44.9877 82.5815 47.8731 81.8112C48.4725 81.6512 49.0493 81.4972 49.5895 81.3768C53.7861 80.4406 58.048 79.6127 62.3556 79.7424C65.1521 79.8272 67.9147 80.2551 70.678 80.6831C72.7226 80.9998 74.7677 81.3166 76.827 81.4944L76.8689 81.498ZM93.3258 57.9419C93.7785 62.1777 93.8942 66.4909 93.8793 70.7603C93.8774 71.241 93.8746 71.7208 93.869 72.1996L93.8662 72.484C93.8228 76.9237 93.7784 81.4489 92.8143 85.788C91.831 90.2113 86.5683 90.1394 83.056 90.0914C82.8639 90.0888 82.6771 90.0862 82.4965 90.0845C79.0759 90.052 75.6713 89.6078 72.2668 89.1636C69.1051 88.7511 65.9435 88.3386 62.7691 88.2559C59.2149 88.1627 55.6618 88.6437 52.1225 89.1229C51.0182 89.2724 49.9151 89.4217 48.8138 89.5534C47.5459 89.7047 46.2433 89.9394 44.9268 90.1766C41.8988 90.7223 38.7969 91.2812 35.8713 90.8694L35.8711 90.8694C35.8628 90.8685 35.8545 90.8676 35.8461 90.8657C30.6947 90.1246 29.2115 83.3472 28.7766 78.8071C28.0718 71.4641 27.6453 65.5902 30.2121 56.4503C31.0662 53.4084 32.3897 51.1608 34.2127 48.6527C34.2133 48.6524 34.0965 48.5294 33.9276 48.3516C33.6163 48.0238 33.1279 47.5096 32.8714 47.233C32.0042 46.2996 31.2099 45.2523 30.76 44.0455C28.9754 39.2562 33.0347 34.9364 36.5574 32.7243C50.0963 24.2238 68.7867 23.5975 82.7504 31.0628C86.637 33.1406 90.5648 36.2647 92.215 40.6796C93.4742 44.0473 93.7477 48.7013 90.1933 50.5942C89.9368 50.7307 89.3584 50.7223 89.0071 50.6374C92.0571 51.3928 93.0182 55.0672 93.3258 57.9419Z" fill="#FF4C00"/>
</g>
<defs>
<clipPath id="clip0_4906_2165">
<rect width="108.274" height="108.274" fill="white" transform="translate(7.8562 6.74588)"/>
</clipPath>
</defs>
</svg>
